<svg xmlns="http://www.w3.org/2000/svg" xmlns:xlink="http://www.w3.org/1999/xlink" version="1.1" data-diagram-type="SEQUENCE" style="width:1011px;height:848px;background:#FFFFFF;" width="1011px" height="848px" viewBox="0 0 1011 848" zoomAndPan="magnify" preserveAspectRatio="none" contentStyleType="text/css"><?plantuml 1.2026.7?><defs/><g font-family="sans-serif" lengthAdjust="spacing"><g class="title" data-source-line="2"><text x="298.561" y="31.24" fill="#0F172A" font-size="14" textLength="412.564" font-weight="700">Google Calendar Webhook — token 検証・重複抑止・同期開始</text></g><rect x="15.345" y="213.392" width="954.342" height="542.656" fill="#F8FAFC" style="stroke:#F8FAFC;stroke-width:1;" rx="4" ry="4"/><rect x="15.345" y="213.392" width="954.342" height="542.656" fill="none" style="stroke:#64748B;stroke-width:1.5;" rx="4" ry="4"/><rect x="34.345" y="375.336" width="910.342" height="366.712" fill="#F8FAFC" style="stroke:#F8FAFC;stroke-width:1;" rx="4" ry="4"/><rect x="34.345" y="375.336" width="910.342" height="366.712" fill="none" style="stroke:#64748B;stroke-width:1.5;" rx="4" ry="4"/><rect x="53.345" y="602.928" width="295.456" height="125.12" fill="#F8FAFC" style="stroke:#F8FAFC;stroke-width:1;" rx="4" ry="4"/><rect x="53.345" y="602.928" width="295.456" height="125.12" fill="none" style="stroke:#64748B;stroke-width:1.5;" rx="4" ry="4"/><g><title>Google push ..</title><rect x="65.845" y="103.92" width="8" height="733.776" fill="#000" fill-opacity="0"/><line x1="69.345" y1="103.92" x2="69.345" y2="837.696" style="stroke:#64748B;stroke-width:0.5;stroke-dasharray:5,5;"/></g><g><title>Worker HTTP API</title><rect x="329.301" y="103.92" width="8" height="733.776" fill="#000" fill-opacity="0"/><line x1="332.801" y1="103.92" x2="332.801" y2="837.696" style="stroke:#64748B;stroke-width:0.5;stroke-dasharray:5,5;"/></g><g><title>StateStore</title><rect x="620.07" y="103.92" width="8" height="733.776" fill="#000" fill-opacity="0"/><line x1="623.57" y1="103.92" x2="623.57" y2="837.696" style="stroke:#64748B;stroke-width:0.5;stroke-dasharray:5,5;"/></g><g><title>Default</title><rect x="698.677" y="103.92" width="8" height="733.776" fill="#000" fill-opacity="0"/><line x1="702.177" y1="103.92" x2="702.177" y2="837.696" style="stroke:#64748B;stroke-width:0.5;stroke-dasharray:5,5;"/></g><g><title>..........</title><rect x="925.187" y="103.92" width="8" height="733.776" fill="#000" fill-opacity="0"/><line x1="928.687" y1="103.92" x2="928.687" y2="837.696" style="stroke:#64748B;stroke-width:0.5;stroke-dasharray:5,5;"/></g><rect x="10" y="51.272" width="118.689" height="51.648" fill="#E0F2FE" style="stroke:#0369A1;stroke-width:0.5;" rx="4" ry="4"/><text x="17" y="73.352" fill="#0F172A" font-size="13" textLength="104.689">Google push 通知</text><text x="47.414" y="92.176" fill="#0F172A" font-size="13" textLength="43.862">&lt;T001></text><rect x="274.405" y="51.272" width="116.791" height="51.648" fill="#E0F2FE" style="stroke:#0369A1;stroke-width:0.5;" rx="4" ry="4"/><text x="281.405" y="73.352" fill="#0F172A" font-size="13" textLength="102.791">Worker HTTP API</text><text x="310.811" y="92.176" fill="#0F172A" font-size="13" textLength="43.979">&lt;A001></text><rect x="584.148" y="51.272" width="78.844" height="51.648" fill="#E0F2FE" style="stroke:#0369A1;stroke-width:0.5;" rx="4" ry="4"/><text x="591.148" y="73.352" fill="#0F172A" font-size="13" textLength="64.844">StateStore</text><text x="601.385" y="92.176" fill="#0F172A" font-size="13" textLength="44.369">&lt;C002></text><rect x="672.992" y="51.272" width="58.369" height="51.648" fill="#E0F2FE" style="stroke:#0369A1;stroke-width:0.5;" rx="4" ry="4"/><text x="680.09" y="73.352" fill="#0F172A" font-size="13" textLength="44.174">Default</text><text x="679.992" y="92.176" fill="#0F172A" font-size="13" textLength="44.369">&lt;C001></text><rect x="856.687" y="51.272" width="144" height="51.648" fill="#E0F2FE" style="stroke:#0369A1;stroke-width:0.5;" rx="4" ry="4"/><text x="863.687" y="73.352" fill="#0F172A" font-size="13" textLength="130">外部同期サブシステム</text><text x="906.535" y="92.176" fill="#0F172A" font-size="13" textLength="44.304">&lt;P014></text><polygon points="320.801,151.568,330.801,155.568,320.801,159.568,324.801,155.568" fill="#475569" style="stroke:#475569;stroke-width:1;stroke-linejoin:miter;stroke-miterlimit:10;"/><line x1="69.345" y1="155.568" x2="326.801" y2="155.568" style="stroke:#475569;stroke-width:1;"/><text x="76.345" y="140.412" fill="#334155" font-size="13" font-weight="700">1</text><text x="88.015" y="131" fill="#334155" font-size="13" textLength="38.09">[E003]</text><text x="126.105" y="131" fill="#334155" font-size="13"> </text><text x="129.017" y="131" fill="#334155" font-size="13">入</text><text x="142.017" y="131" fill="#334155" font-size="13">力</text><text x="155.017" y="131" fill="#334155" font-size="13">:</text><text x="158.631" y="131" fill="#334155" font-size="13"> </text><text x="161.543" y="131" fill="#334155" font-size="13" textLength="141.258">X-Goog-Channel-Token</text><text x="302.801" y="131" fill="#334155" font-size="13">・</text><text x="88.015" y="149.824" fill="#334155" font-size="13" textLength="48.594">channel</text><text x="136.609" y="149.824" fill="#334155" font-size="13"> </text><text x="139.521" y="149.824" fill="#334155" font-size="13" textLength="12.753">ID</text><text x="152.274" y="149.824" fill="#334155" font-size="13">・</text><text x="165.274" y="149.824" fill="#334155" font-size="13" textLength="53.261">message</text><text x="218.535" y="149.824" fill="#334155" font-size="13"> </text><text x="221.447" y="149.824" fill="#334155" font-size="13" textLength="48.139">number</text><line x1="332.801" y1="188.392" x2="374.801" y2="188.392" style="stroke:#475569;stroke-width:1;"/><line x1="374.801" y1="188.392" x2="374.801" y2="201.392" style="stroke:#475569;stroke-width:1;"/><line x1="333.801" y1="201.392" x2="374.801" y2="201.392" style="stroke:#475569;stroke-width:1;"/><polygon points="343.801,197.392,333.801,201.392,343.801,205.392,339.801,201.392" fill="#475569" style="stroke:#475569;stroke-width:1;stroke-linejoin:miter;stroke-miterlimit:10;"/><text x="339.801" y="182.648" fill="#334155" font-size="13" font-weight="700">2</text><text x="351.471" y="182.648" fill="#334155" font-size="13" textLength="88.595">method=POST</text><text x="440.066" y="182.648" fill="#334155" font-size="13"> </text><text x="442.978" y="182.648" fill="#334155" font-size="13">と</text><text x="455.978" y="182.648" fill="#334155" font-size="13"> </text><text x="458.89" y="182.648" fill="#334155" font-size="13" textLength="48.594">channel</text><text x="507.484" y="182.648" fill="#334155" font-size="13"> </text><text x="510.396" y="182.648" fill="#334155" font-size="13" textLength="35.087">token</text><text x="545.483" y="182.648" fill="#334155" font-size="13"> </text><text x="548.395" y="182.648" fill="#334155" font-size="13">を</text><text x="561.395" y="182.648" fill="#334155" font-size="13">検</text><text x="574.395" y="182.648" fill="#334155" font-size="13">証</text><path d="M19.345,213.392 L77.596,213.392 L77.596,224.216 L67.596,234.216 L15.345,234.216 L15.345,217.392 A4,4 0 0 1 19.345,213.392" style="stroke:#000;stroke-width:1.5;" fill="#EEE"/><rect x="15.345" y="213.392" width="954.342" height="542.656" fill="none" style="stroke:#64748B;stroke-width:1.5;" rx="4" ry="4"/><text x="30.345" y="229.472" fill="#0F172A" font-size="13" textLength="17.251" font-weight="700">alt</text><text x="92.596" y="230.472" fill="#0F172A" font-size="13" textLength="206.726" font-weight="700">[method・Secret・token が不正]</text><polygon points="80.345,268.864,70.345,272.864,80.345,276.864,76.345,272.864" fill="#475569" style="stroke:#475569;stroke-width:1;stroke-linejoin:miter;stroke-miterlimit:10;"/><line x1="74.345" y1="272.864" x2="331.801" y2="272.864" style="stroke:#475569;stroke-width:1;stroke-dasharray:2,2;"/><text x="86.345" y="267.12" fill="#334155" font-size="13" font-weight="700">3</text><text x="98.015" y="267.12" fill="#334155" font-size="13" textLength="38.09">[E004]</text><text x="136.105" y="267.12" fill="#334155" font-size="13"> </text><text x="139.017" y="267.12" fill="#334155" font-size="13">出</text><text x="152.017" y="267.12" fill="#334155" font-size="13">力</text><text x="165.017" y="267.12" fill="#334155" font-size="13">:</text><text x="168.631" y="267.12" fill="#334155" font-size="13"> </text><text x="171.543" y="267.12" fill="#334155" font-size="13" textLength="33.267">HTTP</text><text x="204.81" y="267.12" fill="#334155" font-size="13"> </text><text x="207.722" y="267.12" fill="#334155" font-size="13" textLength="21.645">401</text><text x="229.367" y="267.12" fill="#334155" font-size="13">・</text><text x="242.367" y="267.12" fill="#334155" font-size="13" textLength="21.645">405</text><text x="264.012" y="267.12" fill="#334155" font-size="13">・</text><text x="277.012" y="267.12" fill="#334155" font-size="13" textLength="21.645">503</text><line x1="15.345" y1="281.864" x2="969.687" y2="281.864" style="stroke:#64748B;stroke-width:1;stroke-dasharray:2,2;"/><text x="20.345" y="298.944" fill="#0F172A" font-size="13" textLength="87.828" font-weight="700">[認証済み通知]</text><polygon points="611.57,326.512,621.57,330.512,611.57,334.512,615.57,330.512" fill="#475569" style="stroke:#475569;stroke-width:1;stroke-linejoin:miter;stroke-miterlimit:10;"/><line x1="332.801" y1="330.512" x2="617.57" y2="330.512" style="stroke:#475569;stroke-width:1;"/><text x="339.801" y="324.768" fill="#334155" font-size="13" font-weight="700">4</text><text x="351.471" y="324.768" fill="#334155" font-size="13" textLength="38.09">[E140]</text><text x="389.561" y="324.768" fill="#334155" font-size="13"> </text><text x="392.473" y="324.768" fill="#334155" font-size="13">入</text><text x="405.473" y="324.768" fill="#334155" font-size="13">力</text><text x="418.473" y="324.768" fill="#334155" font-size="13">:</text><text x="422.087" y="324.768" fill="#334155" font-size="13"> </text><text x="424.999" y="324.768" fill="#334155" font-size="13" textLength="48.594">channel</text><text x="473.593" y="324.768" fill="#334155" font-size="13"> </text><text x="476.505" y="324.768" fill="#334155" font-size="13" textLength="12.753">ID</text><text x="489.258" y="324.768" fill="#334155" font-size="13">・</text><text x="502.258" y="324.768" fill="#334155" font-size="13" textLength="53.261">message</text><text x="555.519" y="324.768" fill="#334155" font-size="13"> </text><text x="558.431" y="324.768" fill="#334155" font-size="13" textLength="48.139">number</text><polygon points="343.801,359.336,333.801,363.336,343.801,367.336,339.801,363.336" fill="#475569" style="stroke:#475569;stroke-width:1;stroke-linejoin:miter;stroke-miterlimit:10;"/><line x1="337.801" y1="363.336" x2="622.57" y2="363.336" style="stroke:#475569;stroke-width:1;stroke-dasharray:2,2;"/><text x="349.801" y="357.592" fill="#334155" font-size="13" font-weight="700">5</text><text x="361.471" y="357.592" fill="#334155" font-size="13" textLength="38.09">[E141]</text><text x="399.561" y="357.592" fill="#334155" font-size="13"> </text><text x="402.473" y="357.592" fill="#334155" font-size="13">出</text><text x="415.473" y="357.592" fill="#334155" font-size="13">力</text><text x="428.473" y="357.592" fill="#334155" font-size="13">:</text><text x="432.087" y="357.592" fill="#334155" font-size="13"> </text><text x="434.999" y="357.592" fill="#334155" font-size="13" textLength="65.39">duplicated</text><path d="M38.345,375.336 L96.596,375.336 L96.596,386.16 L86.596,396.16 L34.345,396.16 L34.345,379.336 A4,4 0 0 1 38.345,375.336" style="stroke:#000;stroke-width:1.5;" fill="#EEE"/><rect x="34.345" y="375.336" width="910.342" height="366.712" fill="none" style="stroke:#64748B;stroke-width:1.5;" rx="4" ry="4"/><text x="49.345" y="391.416" fill="#0F172A" font-size="13" textLength="17.251" font-weight="700">alt</text><text x="111.596" y="392.416" fill="#0F172A" font-size="13" textLength="61.828" font-weight="700">[重複通知]</text><polygon points="80.345,430.808,70.345,434.808,80.345,438.808,76.345,434.808" fill="#475569" style="stroke:#475569;stroke-width:1;stroke-linejoin:miter;stroke-miterlimit:10;"/><line x1="74.345" y1="434.808" x2="331.801" y2="434.808" style="stroke:#475569;stroke-width:1;stroke-dasharray:2,2;"/><text x="86.345" y="429.064" fill="#334155" font-size="13" font-weight="700">6</text><text x="98.015" y="429.064" fill="#334155" font-size="13" textLength="38.09">[E004]</text><text x="136.105" y="429.064" fill="#334155" font-size="13"> </text><text x="139.017" y="429.064" fill="#334155" font-size="13">出</text><text x="152.017" y="429.064" fill="#334155" font-size="13">力</text><text x="165.017" y="429.064" fill="#334155" font-size="13">:</text><text x="168.631" y="429.064" fill="#334155" font-size="13"> </text><text x="171.543" y="429.064" fill="#334155" font-size="13" textLength="33.267">HTTP</text><text x="204.81" y="429.064" fill="#334155" font-size="13"> </text><text x="207.722" y="429.064" fill="#334155" font-size="13" textLength="21.645">204</text><line x1="34.345" y1="443.808" x2="944.687" y2="443.808" style="stroke:#64748B;stroke-width:1;stroke-dasharray:2,2;"/><text x="39.345" y="460.888" fill="#0F172A" font-size="13" textLength="61.828" font-weight="700">[初回通知]</text><polygon points="690.177,488.456,700.177,492.456,690.177,496.456,694.177,492.456" fill="#475569" style="stroke:#475569;stroke-width:1;stroke-linejoin:miter;stroke-miterlimit:10;"/><line x1="332.801" y1="492.456" x2="696.177" y2="492.456" style="stroke:#475569;stroke-width:1;"/><text x="339.801" y="486.712" fill="#334155" font-size="13" font-weight="700">7</text><text x="351.471" y="486.712" fill="#334155" font-size="13" textLength="38.09">[E005]</text><text x="389.561" y="486.712" fill="#334155" font-size="13"> </text><text x="392.473" y="486.712" fill="#334155" font-size="13">入</text><text x="405.473" y="486.712" fill="#334155" font-size="13">力</text><text x="418.473" y="486.712" fill="#334155" font-size="13">:</text><text x="422.087" y="486.712" fill="#334155" font-size="13"> </text><text x="424.999" y="486.712" fill="#334155" font-size="13" textLength="46.384">request</text><text x="471.383" y="486.712" fill="#334155" font-size="13">・</text><text x="484.383" y="486.712" fill="#334155" font-size="13" textLength="104.429">source=webhook</text><polygon points="916.687,521.28,926.687,525.28,916.687,529.28,920.687,525.28" fill="#475569" style="stroke:#475569;stroke-width:1;stroke-linejoin:miter;stroke-miterlimit:10;"/><line x1="702.177" y1="525.28" x2="922.687" y2="525.28" style="stroke:#475569;stroke-width:1;"/><text x="709.177" y="519.536" fill="#334155" font-size="13" font-weight="700">8</text><text x="720.847" y="519.536" fill="#334155" font-size="13" textLength="38.09">[E008]</text><text x="758.937" y="519.536" fill="#334155" font-size="13"> </text><text x="761.849" y="519.536" fill="#334155" font-size="13">入</text><text x="774.849" y="519.536" fill="#334155" font-size="13">力</text><text x="787.849" y="519.536" fill="#334155" font-size="13">:</text><text x="791.463" y="519.536" fill="#334155" font-size="13"> </text><text x="794.375" y="519.536" fill="#334155" font-size="13" textLength="21.905">env</text><text x="816.28" y="519.536" fill="#334155" font-size="13">・</text><text x="829.28" y="519.536" fill="#334155" font-size="13" textLength="30.407">state</text><text x="859.687" y="519.536" fill="#334155" font-size="13">・</text><text x="872.687" y="519.536" fill="#334155" font-size="13">起</text><text x="885.687" y="519.536" fill="#334155" font-size="13">動</text><text x="898.687" y="519.536" fill="#334155" font-size="13">元</text><polygon points="713.177,554.104,703.177,558.104,713.177,562.104,709.177,558.104" fill="#475569" style="stroke:#475569;stroke-width:1;stroke-linejoin:miter;stroke-miterlimit:10;"/><line x1="707.177" y1="558.104" x2="927.687" y2="558.104" style="stroke:#475569;stroke-width:1;stroke-dasharray:2,2;"/><text x="719.177" y="552.36" fill="#334155" font-size="13" font-weight="700">9</text><text x="730.847" y="552.36" fill="#334155" font-size="13" textLength="38.09">[E009]</text><text x="768.937" y="552.36" fill="#334155" font-size="13"> </text><text x="771.849" y="552.36" fill="#334155" font-size="13">出</text><text x="784.849" y="552.36" fill="#334155" font-size="13">力</text><text x="797.849" y="552.36" fill="#334155" font-size="13">:</text><text x="801.463" y="552.36" fill="#334155" font-size="13"> </text><text x="804.375" y="552.36" fill="#334155" font-size="13">同</text><text x="817.375" y="552.36" fill="#334155" font-size="13">期</text><text x="830.375" y="552.36" fill="#334155" font-size="13">結</text><text x="843.375" y="552.36" fill="#334155" font-size="13">果</text><polygon points="343.801,586.928,333.801,590.928,343.801,594.928,339.801,590.928" fill="#475569" style="stroke:#475569;stroke-width:1;stroke-linejoin:miter;stroke-miterlimit:10;"/><line x1="337.801" y1="590.928" x2="701.177" y2="590.928" style="stroke:#475569;stroke-width:1;stroke-dasharray:2,2;"/><text x="349.801" y="585.184" fill="#334155" font-size="13" textLength="15.34" font-weight="700">10</text><text x="369.141" y="585.184" fill="#334155" font-size="13" textLength="38.09">[E006]</text><text x="407.231" y="585.184" fill="#334155" font-size="13"> </text><text x="410.143" y="585.184" fill="#334155" font-size="13">出</text><text x="423.143" y="585.184" fill="#334155" font-size="13">力</text><text x="436.143" y="585.184" fill="#334155" font-size="13">:</text><text x="439.757" y="585.184" fill="#334155" font-size="13"> </text><text x="442.669" y="585.184" fill="#334155" font-size="13" textLength="58.695">Response</text><path d="M57.345,602.928 L115.596,602.928 L115.596,613.752 L105.596,623.752 L53.345,623.752 L53.345,606.928 A4,4 0 0 1 57.345,602.928" style="stroke:#000;stroke-width:1.5;" fill="#EEE"/><rect x="53.345" y="602.928" width="295.456" height="125.12" fill="none" style="stroke:#64748B;stroke-width:1.5;" rx="4" ry="4"/><text x="68.345" y="619.008" fill="#0F172A" font-size="13" textLength="17.251" font-weight="700">alt</text><text x="130.596" y="620.008" fill="#0F172A" font-size="13" textLength="129.74" font-weight="700">[同期結果が 500 未満]</text><polygon points="80.345,658.4,70.345,662.4,80.345,666.4,76.345,662.4" fill="#475569" style="stroke:#475569;stroke-width:1;stroke-linejoin:miter;stroke-miterlimit:10;"/><line x1="74.345" y1="662.4" x2="331.801" y2="662.4" style="stroke:#475569;stroke-width:1;stroke-dasharray:2,2;"/><text x="86.345" y="656.656" fill="#334155" font-size="13" textLength="15.34" font-weight="700">11</text><text x="105.685" y="656.656" fill="#334155" font-size="13" textLength="38.09">[E004]</text><text x="143.775" y="656.656" fill="#334155" font-size="13"> </text><text x="146.687" y="656.656" fill="#334155" font-size="13">出</text><text x="159.687" y="656.656" fill="#334155" font-size="13">力</text><text x="172.687" y="656.656" fill="#334155" font-size="13">:</text><text x="176.301" y="656.656" fill="#334155" font-size="13"> </text><text x="179.213" y="656.656" fill="#334155" font-size="13" textLength="33.267">HTTP</text><text x="212.48" y="656.656" fill="#334155" font-size="13"> </text><text x="215.392" y="656.656" fill="#334155" font-size="13" textLength="21.645">204</text><line x1="53.345" y1="671.4" x2="348.801" y2="671.4" style="stroke:#64748B;stroke-width:1;stroke-dasharray:2,2;"/><text x="58.345" y="688.48" fill="#0F172A" font-size="13" textLength="61.828" font-weight="700">[同期失敗]</text><polygon points="80.345,716.048,70.345,720.048,80.345,724.048,76.345,720.048" fill="#475569" style="stroke:#475569;stroke-width:1;stroke-linejoin:miter;stroke-miterlimit:10;"/><line x1="74.345" y1="720.048" x2="331.801" y2="720.048" style="stroke:#475569;stroke-width:1;stroke-dasharray:2,2;"/><text x="86.345" y="714.304" fill="#334155" font-size="13" textLength="15.34" font-weight="700">12</text><text x="105.685" y="714.304" fill="#334155" font-size="13" textLength="38.09">[E004]</text><text x="143.775" y="714.304" fill="#334155" font-size="13"> </text><text x="146.687" y="714.304" fill="#334155" font-size="13">出</text><text x="159.687" y="714.304" fill="#334155" font-size="13">力</text><text x="172.687" y="714.304" fill="#334155" font-size="13">:</text><text x="176.301" y="714.304" fill="#334155" font-size="13"> </text><text x="179.213" y="714.304" fill="#334155" font-size="13" textLength="33.267">HTTP</text><text x="212.48" y="714.304" fill="#334155" font-size="13"> </text><text x="215.392" y="714.304" fill="#334155" font-size="13" textLength="21.645">500</text><path d="M15.474,779.048 L15.474,818.048 A4,4 0 0 0 19.474,822.048 L382.474,822.048 A4,4 0 0 0 386.474,818.048 L386.474,785.048 L376.474,775.048 L19.474,775.048 A4,4 0 0 0 15.474,779.048" style="stroke:#D97706;stroke-width:0.5;" fill="#FFFBEB"/><path d="M376.474,775.048 L376.474,783.048 A2,2 0 0 0 378.474,785.048 L386.474,785.048 L376.474,775.048" style="stroke:#D97706;stroke-width:0.5;" fill="#FFFBEB"/><text x="66.781" y="795.128" fill="#78350F" font-size="13" textLength="37.167">watch</text><text x="103.948" y="795.128" fill="#78350F" font-size="13"> </text><text x="106.86" y="795.128" fill="#78350F" font-size="13">登</text><text x="119.86" y="795.128" fill="#78350F" font-size="13">録</text><text x="132.86" y="795.128" fill="#78350F" font-size="13">時</text><text x="145.86" y="795.128" fill="#78350F" font-size="13">と</text><text x="158.86" y="795.128" fill="#78350F" font-size="13">受</text><text x="171.86" y="795.128" fill="#78350F" font-size="13">信</text><text x="184.86" y="795.128" fill="#78350F" font-size="13">時</text><text x="197.86" y="795.128" fill="#78350F" font-size="13">に</text><text x="210.86" y="795.128" fill="#78350F" font-size="13">同</text><text x="223.86" y="795.128" fill="#78350F" font-size="13">じ</text><text x="236.86" y="795.128" fill="#78350F" font-size="13"> </text><text x="239.772" y="795.128" fill="#78350F" font-size="13" textLength="48.594">channel</text><text x="288.366" y="795.128" fill="#78350F" font-size="13"> </text><text x="291.278" y="795.128" fill="#78350F" font-size="13" textLength="35.087">token</text><text x="66.781" y="813.952" fill="#78350F" font-size="13">を</text><text x="79.781" y="813.952" fill="#78350F" font-size="13">使</text><text x="92.781" y="813.952" fill="#78350F" font-size="13">う</text><text x="105.781" y="813.952" fill="#78350F" font-size="13">。</text><text x="118.781" y="813.952" fill="#78350F" font-size="13" textLength="30.251">Edge</text><text x="149.032" y="813.952" fill="#78350F" font-size="13"> </text><text x="151.944" y="813.952" fill="#78350F" font-size="13">側</text><text x="164.944" y="813.952" fill="#78350F" font-size="13">制</text><text x="177.944" y="813.952" fill="#78350F" font-size="13">御</text><text x="190.944" y="813.952" fill="#78350F" font-size="13">と</text><text x="203.944" y="813.952" fill="#78350F" font-size="13">実</text><text x="216.944" y="813.952" fill="#78350F" font-size="13">配</text><text x="229.944" y="813.952" fill="#78350F" font-size="13">信</text><text x="242.944" y="813.952" fill="#78350F" font-size="13">は</text><text x="255.944" y="813.952" fill="#78350F" font-size="13">未</text><text x="268.944" y="813.952" fill="#78350F" font-size="13">確</text><text x="281.944" y="813.952" fill="#78350F" font-size="13">認</text><text x="294.944" y="813.952" fill="#78350F" font-size="13">。</text><?plantuml-src bLDTJnD157tVNp7oR64AMwD4I9f2b2SRsmGJDMRf3hHXkrDtPq7Vkctu2D28Ha2aWc2918D68uAWybzSTjl-2-_Cb9PAOl1XTsUISyuzzzoxLp9cod1qWZexknxPQSqYUfVDdXgaC-Ta3OLbc47GBKh7u1FJ36BgceM6oKYQqd7qE_yICJfEJ1HKohMT7rxnk3vJgbLcWhddmTuMNFt5XQ2yKL-Uzz_FA-aCr1cbb8tG9uhcC6ewsH5YAJdDOfbK9gUP37KqQkKSEutg-TVLZUq7viqank7-3gJPY9_Q2SFK6YSMkfrCnb4qFWJeQ1CTlO1EC8sH1ACM0M0Cusu9vATsu00PrHo3ILIuYVfBpgyiruixiakliEyLbxt2WLVuxXMdlU9R8CTnM9LaVbAuVHJg5yPwqVr1Z7iU8dzgsvzRwqNtGhpvK2ojcIOnGacUB6IOadSqD02NBB5jROoWHdJHDhqiOMcgzyNl99B8StVG6LFEo2kya6DID8CriA2O82cBC3WqKEx2wM4fs7kd82JLGJxPjAk2tPaZOLSahk8mK5KSWNS4zoZ4i0cgxPQWJ70uwxadSePDiNuHDTSAgxZL-hzwH88YV9p55bR3BH-wapCoAHYh3b3Ucjp1Pk5BzT6DLO0Az_xi6tzj_G9TE6-m8otd5ddi49ldPrF7If6-IVbp26QimUIpbyphBIOn9pYBBoHyQ_i7_loIFrKKH4uGZbirRxGSotshxYy6w-LpTThswbeBVfVOEMhQH41vGEVvC6yKmHW5vTtWA2yW_n7OMMH2qAzy3fPMBYy1PQM4oIV7t_mnAIE8Ji0lpPbNPKUJ6akbKNNrkBxm9LWjm7BxprPEJpR5-GEKzznN5zVzzEU9vqvx-SAW3klakr_zsM_-hqtE_hXHdog1WET-WiwhMqUmim3y0m00?></g></svg>