<svg xmlns="http://www.w3.org/2000/svg" xmlns:xlink="http://www.w3.org/1999/xlink" version="1.1" data-diagram-type="SEQUENCE" style="width:1298px;height:1153px;background:#FFFFFF;" width="1298px" height="1153px" viewBox="0 0 1298 1153" zoomAndPan="magnify" preserveAspectRatio="none" contentStyleType="text/css"><?plantuml 1.2026.7?><defs/><g font-family="sans-serif" lengthAdjust="spacing"><g class="title" data-source-line="2"><text x="491.543" y="31.24" fill="#0F172A" font-size="14" textLength="313.067" font-weight="700">同期ディスパッチ — 排他、差分取得、反映、確定</text></g><rect x="226.619" y="214.392" width="1051.535" height="871.545" fill="#F8FAFC" style="stroke:#F8FAFC;stroke-width:1;" rx="4" ry="4"/><rect x="226.619" y="214.392" width="1051.535" height="871.545" fill="none" style="stroke:#64748B;stroke-width:1.5;" rx="4" ry="4"/><rect x="245.619" y="356.336" width="1007.535" height="364.712" fill="#F8FAFC" style="stroke:#F8FAFC;stroke-width:1;" rx="4" ry="4"/><rect x="245.619" y="356.336" width="1007.535" height="364.712" fill="none" style="stroke:#64748B;stroke-width:1.5;" rx="4" ry="4"/><rect x="264.619" y="479.456" width="963.535" height="163.944" fill="#F8FAFC" style="stroke:#F8FAFC;stroke-width:1;" rx="4" ry="4"/><rect x="264.619" y="479.456" width="963.535" height="163.944" fill="none" style="stroke:#64748B;stroke-width:1.5;" rx="4" ry="4"/><rect x="264.619" y="739.048" width="814.065" height="119.12" fill="#F8FAFC" style="stroke:#F8FAFC;stroke-width:1;" rx="4" ry="4"/><rect x="264.619" y="739.048" width="814.065" height="119.12" fill="none" style="stroke:#64748B;stroke-width:1.5;" rx="4" ry="4"/><g><title>Worker HTTP API</title><rect x="64.896" y="103.92" width="8" height="1038.841" fill="#000" fill-opacity="0"/><line x1="68.396" y1="103.92" x2="68.396" y2="1142.761" style="stroke:#64748B;stroke-width:0.5;stroke-dasharray:5,5;"/></g><g><title>Default._run_sync_dispatch</title><rect x="277.119" y="103.92" width="8" height="1038.841" fill="#000" fill-opacity="0"/><line x1="280.619" y1="103.92" x2="280.619" y2="1142.761" style="stroke:#64748B;stroke-width:0.5;stroke-dasharray:5,5;"/></g><g><title>SyncCoordinator</title><rect x="566.848" y="103.92" width="8" height="1038.841" fill="#000" fill-opacity="0"/><line x1="570.348" y1="103.92" x2="570.348" y2="1142.761" style="stroke:#64748B;stroke-width:0.5;stroke-dasharray:5,5;"/></g><g><title>run_google_delta_fetch</title><rect x="715.291" y="103.92" width="8" height="1038.841" fill="#000" fill-opacity="0"/><line x1="718.791" y1="103.92" x2="718.791" y2="1142.761" style="stroke:#64748B;stroke-width:0.5;stroke-dasharray:5,5;"/></g><g><title>apply_google_events</title><rect x="877.214" y="103.92" width="8" height="1038.841" fill="#000" fill-opacity="0"/><line x1="880.714" y1="103.92" x2="880.714" y2="1142.761" style="stroke:#64748B;stroke-width:0.5;stroke-dasharray:5,5;"/></g><g><title>run_discord_notion_poll_sync</title><rect x="1059.184" y="103.92" width="8" height="1038.841" fill="#000" fill-opacity="0"/><line x1="1062.684" y1="103.92" x2="1062.684" y2="1142.761" style="stroke:#64748B;stroke-width:0.5;stroke-dasharray:5,5;"/></g><g><title>StateStore</title><rect x="1208.653" y="103.92" width="8" height="1038.841" fill="#000" fill-opacity="0"/><line x1="1212.153" y1="103.92" x2="1212.153" y2="1142.761" style="stroke:#64748B;stroke-width:0.5;stroke-dasharray:5,5;"/></g><rect x="10" y="51.272" width="116.791" height="51.648" fill="#E0F2FE" style="stroke:#0369A1;stroke-width:0.5;" rx="4" ry="4"/><text x="17" y="73.352" fill="#0F172A" font-size="13" textLength="102.791">Worker HTTP API</text><text x="46.406" y="92.176" fill="#0F172A" font-size="13" textLength="43.979">&lt;A001></text><rect x="188.423" y="51.272" width="184.391" height="51.648" fill="#E0F2FE" style="stroke:#0369A1;stroke-width:0.5;" rx="4" ry="4"/><text x="195.423" y="73.352" fill="#0F172A" font-size="13" textLength="170.391">Default._run_sync_dispatch</text><text x="258.434" y="92.176" fill="#0F172A" font-size="13" textLength="44.369">&lt;C001></text><rect x="511.907" y="51.272" width="116.882" height="51.648" fill="#E0F2FE" style="stroke:#0369A1;stroke-width:0.5;" rx="4" ry="4"/><text x="518.907" y="73.352" fill="#0F172A" font-size="13" textLength="102.882">SyncCoordinator</text><text x="548.196" y="92.176" fill="#0F172A" font-size="13" textLength="44.304">&lt;P010></text><rect x="638.789" y="51.272" width="160.003" height="51.648" fill="#E0F2FE" style="stroke:#0369A1;stroke-width:0.5;" rx="4" ry="4"/><text x="645.789" y="73.352" fill="#0F172A" font-size="13" textLength="146.003">run_google_delta_fetch</text><text x="697.165" y="92.176" fill="#0F172A" font-size="13" textLength="43.251">&lt;F001></text><rect x="808.792" y="51.272" width="143.844" height="51.648" fill="#E0F2FE" style="stroke:#0369A1;stroke-width:0.5;" rx="4" ry="4"/><text x="815.792" y="73.352" fill="#0F172A" font-size="13" textLength="129.844">apply_google_events</text><text x="859.089" y="92.176" fill="#0F172A" font-size="13" textLength="43.251">&lt;F002></text><rect x="962.636" y="51.272" width="200.095" height="51.648" fill="#E0F2FE" style="stroke:#0369A1;stroke-width:0.5;" rx="4" ry="4"/><text x="969.636" y="73.352" fill="#0F172A" font-size="13" textLength="186.095">run_discord_notion_poll_sync</text><text x="1041.058" y="92.176" fill="#0F172A" font-size="13" textLength="43.251">&lt;F003></text><rect x="1172.731" y="51.272" width="78.844" height="51.648" fill="#E0F2FE" style="stroke:#0369A1;stroke-width:0.5;" rx="4" ry="4"/><text x="1179.731" y="73.352" fill="#0F172A" font-size="13" textLength="64.844">StateStore</text><text x="1189.969" y="92.176" fill="#0F172A" font-size="13" textLength="44.369">&lt;C002></text><polygon points="268.619,132.744,278.619,136.744,268.619,140.744,272.619,136.744" fill="#475569" style="stroke:#475569;stroke-width:1;stroke-linejoin:miter;stroke-miterlimit:10;"/><line x1="68.396" y1="136.744" x2="274.619" y2="136.744" style="stroke:#475569;stroke-width:1;"/><text x="75.396" y="131" fill="#334155" font-size="13" font-weight="700">1</text><text x="87.066" y="131" fill="#334155" font-size="13" textLength="38.09">[E005]</text><text x="125.156" y="131" fill="#334155" font-size="13"> </text><text x="128.068" y="131" fill="#334155" font-size="13">入</text><text x="141.068" y="131" fill="#334155" font-size="13">力</text><text x="154.068" y="131" fill="#334155" font-size="13">:</text><text x="157.682" y="131" fill="#334155" font-size="13"> </text><text x="160.594" y="131" fill="#334155" font-size="13" textLength="46.384">request</text><text x="206.978" y="131" fill="#334155" font-size="13">・</text><text x="219.978" y="131" fill="#334155" font-size="13" textLength="40.729">source</text><polygon points="558.348,165.568,568.348,169.568,558.348,173.568,562.348,169.568" fill="#475569" style="stroke:#475569;stroke-width:1;stroke-linejoin:miter;stroke-miterlimit:10;"/><line x1="280.619" y1="169.568" x2="564.348" y2="169.568" style="stroke:#475569;stroke-width:1;"/><text x="287.619" y="163.824" fill="#334155" font-size="13" font-weight="700">2</text><text x="299.289" y="163.824" fill="#334155" font-size="13" textLength="38.09">[E120]</text><text x="337.379" y="163.824" fill="#334155" font-size="13"> </text><text x="340.291" y="163.824" fill="#334155" font-size="13">入</text><text x="353.291" y="163.824" fill="#334155" font-size="13">力</text><text x="366.291" y="163.824" fill="#334155" font-size="13">:</text><text x="369.905" y="163.824" fill="#334155" font-size="13"> </text><text x="372.817" y="163.824" fill="#334155" font-size="13" textLength="91.169">action=acquire</text><text x="463.986" y="163.824" fill="#334155" font-size="13">・</text><text x="476.986" y="163.824" fill="#334155" font-size="13" textLength="40.729">source</text><text x="517.715" y="163.824" fill="#334155" font-size="13">・</text><text x="530.715" y="163.824" fill="#334155" font-size="13" textLength="22.633">TTL</text><polygon points="291.619,198.392,281.619,202.392,291.619,206.392,287.619,202.392" fill="#475569" style="stroke:#475569;stroke-width:1;stroke-linejoin:miter;stroke-miterlimit:10;"/><line x1="285.619" y1="202.392" x2="569.348" y2="202.392" style="stroke:#475569;stroke-width:1;stroke-dasharray:2,2;"/><text x="297.619" y="196.648" fill="#334155" font-size="13" font-weight="700">3</text><text x="309.289" y="196.648" fill="#334155" font-size="13" textLength="38.09">[E121]</text><text x="347.379" y="196.648" fill="#334155" font-size="13"> </text><text x="350.291" y="196.648" fill="#334155" font-size="13">出</text><text x="363.291" y="196.648" fill="#334155" font-size="13">力</text><text x="376.291" y="196.648" fill="#334155" font-size="13">:</text><text x="379.905" y="196.648" fill="#334155" font-size="13"> </text><text x="382.817" y="196.648" fill="#334155" font-size="13" textLength="15.054">ok</text><text x="397.871" y="196.648" fill="#334155" font-size="13">・</text><text x="410.871" y="196.648" fill="#334155" font-size="13" textLength="38.48">owner</text><text x="449.351" y="196.648" fill="#334155" font-size="13">・</text><text x="462.351" y="196.648" fill="#334155" font-size="13" textLength="25.376">lock</text><text x="487.727" y="196.648" fill="#334155" font-size="13"> </text><text x="490.639" y="196.648" fill="#334155" font-size="13" textLength="30.407">state</text><path d="M230.619,214.392 L288.87,214.392 L288.87,225.216 L278.87,235.216 L226.619,235.216 L226.619,218.392 A4,4 0 0 1 230.619,214.392" style="stroke:#000;stroke-width:1.5;" fill="#EEE"/><rect x="226.619" y="214.392" width="1051.535" height="871.545" fill="none" style="stroke:#64748B;stroke-width:1.5;" rx="4" ry="4"/><text x="241.619" y="230.472" fill="#0F172A" font-size="13" textLength="17.251" font-weight="700">alt</text><text x="303.87" y="231.472" fill="#0F172A" font-size="13" textLength="100.828" font-weight="700">[ロック取得成功]</text><polygon points="706.791,288.688,716.791,292.688,706.791,296.688,710.791,292.688" fill="#475569" style="stroke:#475569;stroke-width:1;stroke-linejoin:miter;stroke-miterlimit:10;"/><line x1="280.619" y1="292.688" x2="712.791" y2="292.688" style="stroke:#475569;stroke-width:1;"/><text x="287.619" y="277.532" fill="#334155" font-size="13" font-weight="700">4</text><text x="299.289" y="268.12" fill="#334155" font-size="13" textLength="38.09">[E122]</text><text x="337.379" y="268.12" fill="#334155" font-size="13"> </text><text x="340.291" y="268.12" fill="#334155" font-size="13">入</text><text x="353.291" y="268.12" fill="#334155" font-size="13">力</text><text x="366.291" y="268.12" fill="#334155" font-size="13">:</text><text x="369.905" y="268.12" fill="#334155" font-size="13"> </text><text x="372.817" y="268.12" fill="#334155" font-size="13" textLength="21.905">env</text><text x="394.722" y="268.12" fill="#334155" font-size="13">・</text><text x="407.722" y="268.12" fill="#334155" font-size="13" textLength="30.407">state</text><text x="438.129" y="268.12" fill="#334155" font-size="13">・</text><text x="299.289" y="286.944" fill="#334155" font-size="13" textLength="131.586">commit_cursor=False</text><polygon points="291.619,340.336,281.619,344.336,291.619,348.336,287.619,344.336" fill="#475569" style="stroke:#475569;stroke-width:1;stroke-linejoin:miter;stroke-miterlimit:10;"/><line x1="285.619" y1="344.336" x2="717.791" y2="344.336" style="stroke:#475569;stroke-width:1;stroke-dasharray:2,2;"/><text x="297.619" y="329.18" fill="#334155" font-size="13" font-weight="700">5</text><text x="309.289" y="319.768" fill="#334155" font-size="13" textLength="38.09">[E123]</text><text x="347.379" y="319.768" fill="#334155" font-size="13"> </text><text x="350.291" y="319.768" fill="#334155" font-size="13">出</text><text x="363.291" y="319.768" fill="#334155" font-size="13">力</text><text x="376.291" y="319.768" fill="#334155" font-size="13">:</text><text x="379.905" y="319.768" fill="#334155" font-size="13"> </text><text x="382.817" y="319.768" fill="#334155" font-size="13" textLength="15.054">ok</text><text x="397.871" y="319.768" fill="#334155" font-size="13">・</text><text x="410.871" y="319.768" fill="#334155" font-size="13" textLength="33.8">items</text><text x="444.671" y="319.768" fill="#334155" font-size="13">・</text><text x="309.289" y="338.592" fill="#334155" font-size="13" textLength="116.077">next_updated_min</text><path d="M249.619,356.336 L307.87,356.336 L307.87,367.16 L297.87,377.16 L245.619,377.16 L245.619,360.336 A4,4 0 0 1 249.619,356.336" style="stroke:#000;stroke-width:1.5;" fill="#EEE"/><rect x="245.619" y="356.336" width="1007.535" height="364.712" fill="none" style="stroke:#64748B;stroke-width:1.5;" rx="4" ry="4"/><text x="260.619" y="372.416" fill="#0F172A" font-size="13" textLength="17.251" font-weight="700">alt</text><text x="322.87" y="373.416" fill="#0F172A" font-size="13" textLength="135.785" font-weight="700">[Google 差分取得成功]</text><polygon points="868.714,411.808,878.714,415.808,868.714,419.808,872.714,415.808" fill="#475569" style="stroke:#475569;stroke-width:1;stroke-linejoin:miter;stroke-miterlimit:10;"/><line x1="280.619" y1="415.808" x2="874.714" y2="415.808" style="stroke:#475569;stroke-width:1;"/><text x="287.619" y="410.064" fill="#334155" font-size="13" font-weight="700">6</text><text x="299.289" y="410.064" fill="#334155" font-size="13" textLength="38.09">[E124]</text><text x="337.379" y="410.064" fill="#334155" font-size="13"> </text><text x="340.291" y="410.064" fill="#334155" font-size="13">入</text><text x="353.291" y="410.064" fill="#334155" font-size="13">力</text><text x="366.291" y="410.064" fill="#334155" font-size="13">:</text><text x="369.905" y="410.064" fill="#334155" font-size="13"> </text><text x="372.817" y="410.064" fill="#334155" font-size="13" textLength="21.905">env</text><text x="394.722" y="410.064" fill="#334155" font-size="13">・</text><text x="407.722" y="410.064" fill="#334155" font-size="13" textLength="30.407">state</text><text x="438.129" y="410.064" fill="#334155" font-size="13">・</text><text x="451.129" y="410.064" fill="#334155" font-size="13" textLength="33.8">items</text><polygon points="291.619,463.456,281.619,467.456,291.619,471.456,287.619,467.456" fill="#475569" style="stroke:#475569;stroke-width:1;stroke-linejoin:miter;stroke-miterlimit:10;"/><line x1="285.619" y1="467.456" x2="879.714" y2="467.456" style="stroke:#475569;stroke-width:1;stroke-dasharray:2,2;"/><text x="297.619" y="452.3" fill="#334155" font-size="13" font-weight="700">7</text><text x="309.289" y="442.888" fill="#334155" font-size="13" textLength="38.09">[E125]</text><text x="347.379" y="442.888" fill="#334155" font-size="13"> </text><text x="350.291" y="442.888" fill="#334155" font-size="13">出</text><text x="363.291" y="442.888" fill="#334155" font-size="13">力</text><text x="376.291" y="442.888" fill="#334155" font-size="13">:</text><text x="379.905" y="442.888" fill="#334155" font-size="13"> </text><text x="382.817" y="442.888" fill="#334155" font-size="13" textLength="15.054">ok</text><text x="397.871" y="442.888" fill="#334155" font-size="13">・</text><text x="410.871" y="442.888" fill="#334155" font-size="13" textLength="62.244">processed</text><text x="473.115" y="442.888" fill="#334155" font-size="13">・</text><text x="486.115" y="442.888" fill="#334155" font-size="13" textLength="50.089">pending</text><text x="536.204" y="442.888" fill="#334155" font-size="13">・</text><text x="309.289" y="461.712" fill="#334155" font-size="13" textLength="36.296">errors</text><path d="M268.619,479.456 L326.87,479.456 L326.87,490.28 L316.87,500.28 L264.619,500.28 L264.619,483.456 A4,4 0 0 1 268.619,479.456" style="stroke:#000;stroke-width:1.5;" fill="#EEE"/><rect x="264.619" y="479.456" width="963.535" height="163.944" fill="none" style="stroke:#64748B;stroke-width:1.5;" rx="4" ry="4"/><text x="279.619" y="495.536" fill="#0F172A" font-size="13" textLength="17.251" font-weight="700">alt</text><text x="341.87" y="496.536" fill="#0F172A" font-size="13" textLength="109.785" font-weight="700">[Google 反映成功]</text><polygon points="1200.153,534.928,1210.153,538.928,1200.153,542.928,1204.153,538.928" fill="#475569" style="stroke:#475569;stroke-width:1;stroke-linejoin:miter;stroke-miterlimit:10;"/><line x1="280.619" y1="538.928" x2="1206.153" y2="538.928" style="stroke:#475569;stroke-width:1;"/><text x="287.619" y="533.184" fill="#334155" font-size="13" font-weight="700">8</text><text x="299.289" y="533.184" fill="#334155" font-size="13" textLength="38.09">[E126]</text><text x="337.379" y="533.184" fill="#334155" font-size="13"> </text><text x="340.291" y="533.184" fill="#334155" font-size="13">入</text><text x="353.291" y="533.184" fill="#334155" font-size="13">力</text><text x="366.291" y="533.184" fill="#334155" font-size="13">:</text><text x="369.905" y="533.184" fill="#334155" font-size="13"> </text><text x="372.817" y="533.184" fill="#334155" font-size="13" textLength="116.077">next_updated_min</text><polygon points="291.619,567.752,281.619,571.752,291.619,575.752,287.619,571.752" fill="#475569" style="stroke:#475569;stroke-width:1;stroke-linejoin:miter;stroke-miterlimit:10;"/><line x1="285.619" y1="571.752" x2="1211.153" y2="571.752" style="stroke:#475569;stroke-width:1;stroke-dasharray:2,2;"/><text x="297.619" y="566.008" fill="#334155" font-size="13" font-weight="700">9</text><text x="309.289" y="566.008" fill="#334155" font-size="13" textLength="38.09">[E127]</text><text x="347.379" y="566.008" fill="#334155" font-size="13"> </text><text x="350.291" y="566.008" fill="#334155" font-size="13">出</text><text x="363.291" y="566.008" fill="#334155" font-size="13">力</text><text x="376.291" y="566.008" fill="#334155" font-size="13">:</text><text x="379.905" y="566.008" fill="#334155" font-size="13"> </text><text x="382.817" y="566.008" fill="#334155" font-size="13">保</text><text x="395.817" y="566.008" fill="#334155" font-size="13">存</text><text x="408.817" y="566.008" fill="#334155" font-size="13">完</text><text x="421.817" y="566.008" fill="#334155" font-size="13">了</text><line x1="264.619" y1="580.752" x2="1228.153" y2="580.752" style="stroke:#64748B;stroke-width:1;stroke-dasharray:2,2;"/><text x="269.619" y="597.832" fill="#0F172A" font-size="13" textLength="109.785" font-weight="700">[Google 反映失敗]</text><path d="M285.619,613.576 L285.619,633.576 A4,4 0 0 0 289.619,637.576 L523.619,637.576 A4,4 0 0 0 527.619,633.576 L527.619,619.576 L517.619,609.576 L289.619,609.576 A4,4 0 0 0 285.619,613.576" style="stroke:#D97706;stroke-width:0.5;" fill="#FFFBEB"/><path d="M517.619,609.576 L517.619,617.576 A2,2 0 0 0 519.619,619.576 L527.619,619.576 L517.619,609.576" style="stroke:#D97706;stroke-width:0.5;" fill="#FFFBEB"/><text x="291.619" y="629.656" fill="#78350F" font-size="13">カ</text><text x="304.619" y="629.656" fill="#78350F" font-size="13">ー</text><text x="317.619" y="629.656" fill="#78350F" font-size="13">ソ</text><text x="330.619" y="629.656" fill="#78350F" font-size="13">ル</text><text x="343.619" y="629.656" fill="#78350F" font-size="13">を</text><text x="356.619" y="629.656" fill="#78350F" font-size="13">確</text><text x="369.619" y="629.656" fill="#78350F" font-size="13">定</text><text x="382.619" y="629.656" fill="#78350F" font-size="13">せ</text><text x="395.619" y="629.656" fill="#78350F" font-size="13">ず</text><text x="408.619" y="629.656" fill="#78350F" font-size="13">再</text><text x="421.619" y="629.656" fill="#78350F" font-size="13">実</text><text x="434.619" y="629.656" fill="#78350F" font-size="13">行</text><text x="447.619" y="629.656" fill="#78350F" font-size="13">可</text><text x="460.619" y="629.656" fill="#78350F" font-size="13">能</text><text x="473.619" y="629.656" fill="#78350F" font-size="13">に</text><text x="486.619" y="629.656" fill="#78350F" font-size="13">す</text><text x="499.619" y="629.656" fill="#78350F" font-size="13">る</text><line x1="245.619" y1="658.4" x2="1253.153" y2="658.4" style="stroke:#64748B;stroke-width:1;stroke-dasharray:2,2;"/><text x="250.619" y="675.48" fill="#0F172A" font-size="13" textLength="135.785" font-weight="700">[Google 差分取得失敗]</text><path d="M285.619,691.224 L285.619,711.224 A4,4 0 0 0 289.619,715.224 L429.619,715.224 A4,4 0 0 0 433.619,711.224 L433.619,697.224 L423.619,687.224 L289.619,687.224 A4,4 0 0 0 285.619,691.224" style="stroke:#D97706;stroke-width:0.5;" fill="#FFFBEB"/><path d="M423.619,687.224 L423.619,695.224 A2,2 0 0 0 425.619,697.224 L433.619,697.224 L423.619,687.224" style="stroke:#D97706;stroke-width:0.5;" fill="#FFFBEB"/><text x="291.619" y="707.304" fill="#78350F" font-size="13" textLength="33.904">apply</text><text x="325.523" y="707.304" fill="#78350F" font-size="13"> </text><text x="328.435" y="707.304" fill="#78350F" font-size="13">を</text><text x="341.435" y="707.304" fill="#78350F" font-size="13">ス</text><text x="354.435" y="707.304" fill="#78350F" font-size="13">キ</text><text x="367.435" y="707.304" fill="#78350F" font-size="13">ッ</text><text x="380.435" y="707.304" fill="#78350F" font-size="13">プ</text><text x="393.435" y="707.304" fill="#78350F" font-size="13">す</text><text x="406.435" y="707.304" fill="#78350F" font-size="13">る</text><path d="M268.619,739.048 L331.602,739.048 L331.602,749.872 L321.602,759.872 L264.619,759.872 L264.619,743.048 A4,4 0 0 1 268.619,739.048" style="stroke:#000;stroke-width:1.5;" fill="#EEE"/><rect x="264.619" y="739.048" width="814.065" height="119.12" fill="none" style="stroke:#64748B;stroke-width:1.5;" rx="4" ry="4"/><text x="279.619" y="755.128" fill="#0F172A" font-size="13" textLength="21.983" font-weight="700">opt</text><text x="346.602" y="756.128" fill="#0F172A" font-size="13" textLength="305.89" font-weight="700">[SYNC_ALL_INCLUDE_DISCORD_NOTION が有効]</text><polygon points="1050.684,794.52,1060.684,798.52,1050.684,802.52,1054.684,798.52" fill="#475569" style="stroke:#475569;stroke-width:1;stroke-linejoin:miter;stroke-miterlimit:10;"/><line x1="280.619" y1="798.52" x2="1056.684" y2="798.52" style="stroke:#475569;stroke-width:1;"/><text x="287.619" y="792.776" fill="#334155" font-size="13" textLength="15.34" font-weight="700">10</text><text x="306.959" y="792.776" fill="#334155" font-size="13" textLength="38.09">[E128]</text><text x="345.049" y="792.776" fill="#334155" font-size="13"> </text><text x="347.961" y="792.776" fill="#334155" font-size="13">入</text><text x="360.961" y="792.776" fill="#334155" font-size="13">力</text><text x="373.961" y="792.776" fill="#334155" font-size="13">:</text><text x="377.575" y="792.776" fill="#334155" font-size="13"> </text><text x="380.487" y="792.776" fill="#334155" font-size="13" textLength="21.905">env</text><text x="402.392" y="792.776" fill="#334155" font-size="13">・</text><text x="415.392" y="792.776" fill="#334155" font-size="13" textLength="30.407">state</text><polygon points="291.619,846.168,281.619,850.168,291.619,854.168,287.619,850.168" fill="#475569" style="stroke:#475569;stroke-width:1;stroke-linejoin:miter;stroke-miterlimit:10;"/><line x1="285.619" y1="850.168" x2="1061.684" y2="850.168" style="stroke:#475569;stroke-width:1;stroke-dasharray:2,2;"/><text x="297.619" y="835.012" fill="#334155" font-size="13" textLength="15.34" font-weight="700">11</text><text x="316.959" y="825.6" fill="#334155" font-size="13" textLength="38.09">[E129]</text><text x="355.049" y="825.6" fill="#334155" font-size="13"> </text><text x="357.961" y="825.6" fill="#334155" font-size="13">出</text><text x="370.961" y="825.6" fill="#334155" font-size="13">力</text><text x="383.961" y="825.6" fill="#334155" font-size="13">:</text><text x="387.575" y="825.6" fill="#334155" font-size="13"> </text><text x="390.487" y="825.6" fill="#334155" font-size="13" textLength="15.054">ok</text><text x="405.541" y="825.6" fill="#334155" font-size="13">・</text><text x="418.541" y="825.6" fill="#334155" font-size="13" textLength="46.358">created</text><text x="464.899" y="825.6" fill="#334155" font-size="13">・</text><text x="477.899" y="825.6" fill="#334155" font-size="13" textLength="51.493">updated</text><text x="529.392" y="825.6" fill="#334155" font-size="13">・</text><text x="316.959" y="844.424" fill="#334155" font-size="13" textLength="46.319">deleted</text><polygon points="1200.153,911.816,1210.153,915.816,1200.153,919.816,1204.153,915.816" fill="#475569" style="stroke:#475569;stroke-width:1;stroke-linejoin:miter;stroke-miterlimit:10;"/><line x1="280.619" y1="915.816" x2="1206.153" y2="915.816" style="stroke:#475569;stroke-width:1;"/><text x="287.619" y="900.66" fill="#334155" font-size="13" textLength="15.34" font-weight="700">12</text><text x="306.959" y="891.248" fill="#334155" font-size="13" textLength="38.09">[E130]</text><text x="345.049" y="891.248" fill="#334155" font-size="13"> </text><text x="347.961" y="891.248" fill="#334155" font-size="13">入</text><text x="360.961" y="891.248" fill="#334155" font-size="13">力</text><text x="373.961" y="891.248" fill="#334155" font-size="13">:</text><text x="377.575" y="891.248" fill="#334155" font-size="13"> </text><text x="380.487" y="891.248" fill="#334155" font-size="13" textLength="97.955">sync:last_epoch</text><text x="478.442" y="891.248" fill="#334155" font-size="13">・</text><text x="306.959" y="910.072" fill="#334155" font-size="13" textLength="87.815">result:sync_all</text><polygon points="291.619,944.64,281.619,948.64,291.619,952.64,287.619,948.64" fill="#475569" style="stroke:#475569;stroke-width:1;stroke-linejoin:miter;stroke-miterlimit:10;"/><line x1="285.619" y1="948.64" x2="1211.153" y2="948.64" style="stroke:#475569;stroke-width:1;stroke-dasharray:2,2;"/><text x="297.619" y="942.896" fill="#334155" font-size="13" textLength="15.34" font-weight="700">13</text><text x="316.959" y="942.896" fill="#334155" font-size="13" textLength="38.09">[E131]</text><text x="355.049" y="942.896" fill="#334155" font-size="13"> </text><text x="357.961" y="942.896" fill="#334155" font-size="13">出</text><text x="370.961" y="942.896" fill="#334155" font-size="13">力</text><text x="383.961" y="942.896" fill="#334155" font-size="13">:</text><text x="387.575" y="942.896" fill="#334155" font-size="13"> </text><text x="390.487" y="942.896" fill="#334155" font-size="13">保</text><text x="403.487" y="942.896" fill="#334155" font-size="13">存</text><text x="416.487" y="942.896" fill="#334155" font-size="13">完</text><text x="429.487" y="942.896" fill="#334155" font-size="13">了</text><polygon points="558.348,977.464,568.348,981.464,558.348,985.464,562.348,981.464" fill="#475569" style="stroke:#475569;stroke-width:1;stroke-linejoin:miter;stroke-miterlimit:10;"/><line x1="280.619" y1="981.464" x2="564.348" y2="981.464" style="stroke:#475569;stroke-width:1;"/><text x="287.619" y="975.72" fill="#334155" font-size="13" textLength="15.34" font-weight="700">14</text><text x="306.959" y="975.72" fill="#334155" font-size="13" textLength="38.09">[E132]</text><text x="345.049" y="975.72" fill="#334155" font-size="13"> </text><text x="347.961" y="975.72" fill="#334155" font-size="13">入</text><text x="360.961" y="975.72" fill="#334155" font-size="13">力</text><text x="373.961" y="975.72" fill="#334155" font-size="13">:</text><text x="377.575" y="975.72" fill="#334155" font-size="13"> </text><text x="380.487" y="975.72" fill="#334155" font-size="13" textLength="89.193">action=release</text><text x="469.68" y="975.72" fill="#334155" font-size="13">・</text><text x="482.68" y="975.72" fill="#334155" font-size="13" textLength="38.48">owner</text><polygon points="291.619,1010.288,281.619,1014.288,291.619,1018.288,287.619,1014.288" fill="#475569" style="stroke:#475569;stroke-width:1;stroke-linejoin:miter;stroke-miterlimit:10;"/><line x1="285.619" y1="1014.288" x2="569.348" y2="1014.288" style="stroke:#475569;stroke-width:1;stroke-dasharray:2,2;"/><text x="297.619" y="1008.544" fill="#334155" font-size="13" textLength="15.34" font-weight="700">15</text><text x="316.959" y="1008.544" fill="#334155" font-size="13" textLength="38.09">[E133]</text><text x="355.049" y="1008.544" fill="#334155" font-size="13"> </text><text x="357.961" y="1008.544" fill="#334155" font-size="13">出</text><text x="370.961" y="1008.544" fill="#334155" font-size="13">力</text><text x="383.961" y="1008.544" fill="#334155" font-size="13">:</text><text x="387.575" y="1008.544" fill="#334155" font-size="13"> </text><text x="390.487" y="1008.544" fill="#334155" font-size="13" textLength="15.054">ok</text><text x="405.541" y="1008.544" fill="#334155" font-size="13">・</text><text x="418.541" y="1008.544" fill="#334155" font-size="13" textLength="51.805">released</text><line x1="226.619" y1="1023.288" x2="1278.153" y2="1023.288" style="stroke:#64748B;stroke-width:1;stroke-dasharray:2,2;"/><text x="231.619" y="1040.368" fill="#0F172A" font-size="13" textLength="100.828" font-weight="700">[ロック取得失敗]</text><path d="M285.619,1056.112 L285.619,1076.112 A4,4 0 0 0 289.619,1080.112 L447.619,1080.112 A4,4 0 0 0 451.619,1076.112 L451.619,1062.112 L441.619,1052.112 L289.619,1052.112 A4,4 0 0 0 285.619,1056.112" style="stroke:#D97706;stroke-width:0.5;" fill="#FFFBEB"/><path d="M441.619,1052.112 L441.619,1060.112 A2,2 0 0 0 443.619,1062.112 L451.619,1062.112 L441.619,1052.112" style="stroke:#D97706;stroke-width:0.5;" fill="#FFFBEB"/><text x="291.619" y="1072.193" fill="#78350F" font-size="13" textLength="103.662">in_progress_skip</text><text x="395.281" y="1072.193" fill="#78350F" font-size="13"> </text><text x="398.193" y="1072.193" fill="#78350F" font-size="13">を</text><text x="411.193" y="1072.193" fill="#78350F" font-size="13">返</text><text x="424.193" y="1072.193" fill="#78350F" font-size="13">す</text><polygon points="79.396,1120.761,69.396,1124.761,79.396,1128.761,75.396,1124.761" fill="#475569" style="stroke:#475569;stroke-width:1;stroke-linejoin:miter;stroke-miterlimit:10;"/><line x1="73.396" y1="1124.761" x2="279.619" y2="1124.761" style="stroke:#475569;stroke-width:1;stroke-dasharray:2,2;"/><text x="85.396" y="1119.017" fill="#334155" font-size="13" textLength="15.34" font-weight="700">16</text><text x="104.736" y="1119.017" fill="#334155" font-size="13" textLength="38.09">[E006]</text><text x="142.826" y="1119.017" fill="#334155" font-size="13"> </text><text x="145.738" y="1119.017" fill="#334155" font-size="13">出</text><text x="158.738" y="1119.017" fill="#334155" font-size="13">力</text><text x="171.738" y="1119.017" fill="#334155" font-size="13">:</text><text x="175.352" y="1119.017" fill="#334155" font-size="13"> </text><text x="178.264" y="1119.017" fill="#334155" font-size="13" textLength="33.748">JSON</text><text x="212.012" y="1119.017" fill="#334155" font-size="13"> </text><text x="214.924" y="1119.017" fill="#334155" font-size="13" textLength="58.695">Response</text><?plantuml-src TLHHRzH647xthzZoJhYpWPO8a2A7QrD5ISGTGeXMrc9Fxgpul6PtJSaRTnO1GY0qeeH2gxG5dYA2-bGHIlaltVYQdz5P-yvtvpkUF9Rcc--R-NRc2pzqWzW3CZDpoX4joi4x9UHw03DHt0uCwSi0IFfag_VBdahkgUuhrNslaXzLagYaG_wzyvJq7kySVNYcxdJIlmxI-nlfzhFqdrtzk_sez_mt3Fxxup0zU66qV6HPPKpUOBSD6aiMnkqRm8s8SkcxVaH3IKvSPNmDEFccqLWXSoiBtuNdvogLwiKJX0gYe_7iULYbSI1d71w7ZbWFNSVpHKIbsqAWNG3j2M0TSst6kEU7L3AEsIkLQYNFrj5ujgxUPAmPWED18Acp2Zb5hQ2eJL3GA0hM1p2u1Q4KES8i4EOa3UftKPOJCkcpq8bO46IDvL2hW5gbVYILKCTE86_SB1et3JqsSl9YDeLPSlrIfNBcUvBUVPDklfmb76x68AHAFWWMSnSCkv-jfw2pgsPbc4rThUe2TM_6FeS2X46ZiMXe23avmbGrguYzTvXXsHgciHz2uFWDcBj6X1Pjq40IbRpL3whxBdyylVjFqiqzWv21c5fHq1oAWV2MLg2BuDTbxROl7JVcWl4BDHe8m0ArhC2O9AiaoPVG5lWDuRPquiZ3SfxJzaD4QsbVPmQIqRTTo1iJQERbJtzEOCQJWNHoITIPagY8CnU404_74E8pRM84d3EUrnYLbktPYAYXBBkGTNOeQqgZVKnPrPT3LKUVVatVFayFjeuEDp80u8375QIl_-pzjDklXkyN2FURBKdOQh-awkwhv6_L_QYIVTNToS-2whnKdHVfngFqOE_uzwrq-zrnyb5rzbNdPzLzc5E5db4Y775ZX7OQQRQ6IBsZxrOtUsR9Rb4yByqYIUhNbcndRd7HMLYo5w_CNtBc5-hsykLvPscviR2yH5G7J-23TFDzsNShdzLNKtqV-6sL9dkkvBVBGTk1KTyOZF3K04Q5oWbJhP7Dr3TYDg12EX0njuLm3W9Fusns5MaG6DCSjggVTNZY3bZcn1tWg90A6EmreYPFW5NUjpx8Cp93IvjVc3dDIX_l8MTDR4muOisFjAl7dvwYcOQUa3tOzRdYq9qTSdzRHnClWuXOAE1_?></g></svg>