<svg xmlns="http://www.w3.org/2000/svg" xmlns:xlink="http://www.w3.org/1999/xlink" version="1.1" data-diagram-type="DESCRIPTION" style="width:741px;height:1570px;background:#FFFFFF;" width="741px" height="1570px" viewBox="0 0 741 1570" zoomAndPan="magnify" preserveAspectRatio="none" contentStyleType="text/css"><?plantuml 1.2026.7?><defs/><g font-family="sans-serif" lengthAdjust="spacing"><g class="title" data-source-line="2"><text x="247.951" y="26.24" fill="#0F172A" font-size="14" textLength="238.097" font-weight="700">e2e notion 02 — メソッド・関数詳細</text></g><!--entity P020--><g class="entity" data-qualified-name="P020" id="ent0001" data-source-line="5"><rect x="6" y="667.272" width="278.934" height="95.296" fill="#E0F2FE" style="stroke:#0369A1;stroke-width:0.5;" rx="4" ry="4"/><text x="16" y="692.352" fill="#0F172A" font-size="13" textLength="31.681" font-weight="700">P020</text><text x="47.681" y="692.352" fill="#0F172A" font-size="13" font-weight="700"> </text><text x="50.632" y="692.352" fill="#0F172A" font-size="13" textLength="117.988" font-weight="700">e2e_notion_probe</text><text x="16" y="711.176" fill="#0F172A" font-size="13">役</text><text x="29" y="711.176" fill="#0F172A" font-size="13">割</text><text x="42" y="711.176" fill="#0F172A" font-size="13">:</text><text x="45.614" y="711.176" fill="#0F172A" font-size="13"> </text><text x="48.526" y="711.176" fill="#0F172A" font-size="13">隔</text><text x="61.526" y="711.176" fill="#0F172A" font-size="13">離</text><text x="74.526" y="711.176" fill="#0F172A" font-size="13">さ</text><text x="87.526" y="711.176" fill="#0F172A" font-size="13">れ</text><text x="100.526" y="711.176" fill="#0F172A" font-size="13">た</text><text x="113.526" y="711.176" fill="#0F172A" font-size="13"> </text><text x="116.438" y="711.176" fill="#0F172A" font-size="13" textLength="22.529">E2E</text><text x="138.967" y="711.176" fill="#0F172A" font-size="13"> </text><text x="141.879" y="711.176" fill="#0F172A" font-size="13" textLength="43.758">Worker</text><text x="185.637" y="711.176" fill="#0F172A" font-size="13"> </text><text x="188.549" y="711.176" fill="#0F172A" font-size="13">か</text><text x="201.549" y="711.176" fill="#0F172A" font-size="13">ら</text><text x="214.549" y="711.176" fill="#0F172A" font-size="13"> </text><text x="217.461" y="711.176" fill="#0F172A" font-size="13" textLength="41.561">Notion</text><text x="259.022" y="711.176" fill="#0F172A" font-size="13"> </text><text x="261.934" y="711.176" fill="#0F172A" font-size="13">の</text><text x="16" y="730" fill="#0F172A" font-size="13">作</text><text x="29" y="730" fill="#0F172A" font-size="13">成</text><text x="42" y="730" fill="#0F172A" font-size="13">・</text><text x="55" y="730" fill="#0F172A" font-size="13">検</text><text x="68" y="730" fill="#0F172A" font-size="13">証</text><text x="81" y="730" fill="#0F172A" font-size="13">・</text><text x="94" y="730" fill="#0F172A" font-size="13">更</text><text x="107" y="730" fill="#0F172A" font-size="13">新</text><text x="120" y="730" fill="#0F172A" font-size="13">・</text><text x="133" y="730" fill="#0F172A" font-size="13">ア</text><text x="146" y="730" fill="#0F172A" font-size="13">ー</text><text x="159" y="730" fill="#0F172A" font-size="13">カ</text><text x="172" y="730" fill="#0F172A" font-size="13">イ</text><text x="185" y="730" fill="#0F172A" font-size="13">ブ</text><text x="198" y="730" fill="#0F172A" font-size="13">と</text><text x="211" y="730" fill="#0F172A" font-size="13">残</text><text x="224" y="730" fill="#0F172A" font-size="13">存</text><text x="237" y="730" fill="#0F172A" font-size="13">資</text><text x="250" y="730" fill="#0F172A" font-size="13">源</text><text x="16" y="748.824" fill="#0F172A" font-size="13">の</text><text x="29" y="748.824" fill="#0F172A" font-size="13">回</text><text x="42" y="748.824" fill="#0F172A" font-size="13">収</text><text x="55" y="748.824" fill="#0F172A" font-size="13">を</text><text x="68" y="748.824" fill="#0F172A" font-size="13">実</text><text x="81" y="748.824" fill="#0F172A" font-size="13">行</text><text x="94" y="748.824" fill="#0F172A" font-size="13">す</text><text x="107" y="748.824" fill="#0F172A" font-size="13">る</text><text x="120" y="748.824" fill="#0F172A" font-size="13">。</text></g><!--entity F223--><g class="entity" data-qualified-name="F223" id="ent0002" data-source-line="6"><rect x="444" y="53.272" width="274.761" height="95.296" fill="#E0F2FE" style="stroke:#0369A1;stroke-width:0.5;" rx="4" ry="4"/><text x="549.674" y="78.352" fill="#0F172A" font-size="13" textLength="63.414" font-style="italic">«function»</text><text x="454" y="97.176" fill="#0F172A" font-size="13" textLength="30.615" font-weight="700">F223</text><text x="484.615" y="97.176" fill="#0F172A" font-size="13" font-weight="700"> </text><text x="487.566" y="97.176" fill="#0F172A" font-size="13" textLength="221.195" font-weight="700">e2e_notion_probe._request_stage</text><text x="454" y="116" fill="#0F172A" font-size="13">役</text><text x="467" y="116" fill="#0F172A" font-size="13">割</text><text x="480" y="116" fill="#0F172A" font-size="13">:</text><text x="483.614" y="116" fill="#0F172A" font-size="13"> </text><text x="486.526" y="116" fill="#0F172A" font-size="13" textLength="22.529">E2E</text><text x="509.055" y="116" fill="#0F172A" font-size="13"> </text><text x="511.967" y="116" fill="#0F172A" font-size="13" textLength="19.942">API</text><text x="531.909" y="116" fill="#0F172A" font-size="13"> </text><text x="534.821" y="116" fill="#0F172A" font-size="13">操</text><text x="547.821" y="116" fill="#0F172A" font-size="13">作</text><text x="560.821" y="116" fill="#0F172A" font-size="13">を</text><text x="573.821" y="116" fill="#0F172A" font-size="13">実</text><text x="586.821" y="116" fill="#0F172A" font-size="13">行</text><text x="599.821" y="116" fill="#0F172A" font-size="13">し</text><text x="612.821" y="116" fill="#0F172A" font-size="13">、</text><text x="625.821" y="116" fill="#0F172A" font-size="13" textLength="53.274">manifest</text><text x="679.095" y="116" fill="#0F172A" font-size="13"> </text><text x="682.007" y="116" fill="#0F172A" font-size="13">の</text><text x="695.007" y="116" fill="#0F172A" font-size="13">段</text><text x="454" y="134.824" fill="#0F172A" font-size="13">階</text><text x="467" y="134.824" fill="#0F172A" font-size="13">状</text><text x="480" y="134.824" fill="#0F172A" font-size="13">態</text><text x="493" y="134.824" fill="#0F172A" font-size="13">と</text><text x="506" y="134.824" fill="#0F172A" font-size="13">失</text><text x="519" y="134.824" fill="#0F172A" font-size="13">敗</text><text x="532" y="134.824" fill="#0F172A" font-size="13">情</text><text x="545" y="134.824" fill="#0F172A" font-size="13">報</text><text x="558" y="134.824" fill="#0F172A" font-size="13">を</text><text x="571" y="134.824" fill="#0F172A" font-size="13">更</text><text x="584" y="134.824" fill="#0F172A" font-size="13">新</text><text x="597" y="134.824" fill="#0F172A" font-size="13">す</text><text x="610" y="134.824" fill="#0F172A" font-size="13">る</text><text x="623" y="134.824" fill="#0F172A" font-size="13">。</text></g><!--entity F224--><g class="entity" data-qualified-name="F224" id="ent0004" data-source-line="8"><rect x="444.5" y="166.772" width="273.578" height="114.12" fill="#E0F2FE" style="stroke:#0369A1;stroke-width:0.5;" rx="4" ry="4"/><text x="549.582" y="191.852" fill="#0F172A" font-size="13" textLength="63.414" font-style="italic">«function»</text><text x="454.5" y="210.676" fill="#0F172A" font-size="13" textLength="30.615" font-weight="700">F224</text><text x="454.5" y="229.5" fill="#0F172A" font-size="13" textLength="241.176" font-weight="700">e2e_notion_probe._schema_matches</text><text x="454.5" y="248.324" fill="#0F172A" font-size="13">役</text><text x="467.5" y="248.324" fill="#0F172A" font-size="13">割</text><text x="480.5" y="248.324" fill="#0F172A" font-size="13">:</text><text x="484.114" y="248.324" fill="#0F172A" font-size="13"> </text><text x="487.026" y="248.324" fill="#0F172A" font-size="13" textLength="41.561">Notion</text><text x="528.587" y="248.324" fill="#0F172A" font-size="13"> </text><text x="531.499" y="248.324" fill="#0F172A" font-size="13" textLength="56.238">database</text><text x="587.737" y="248.324" fill="#0F172A" font-size="13"> </text><text x="590.649" y="248.324" fill="#0F172A" font-size="13" textLength="47.164">schema</text><text x="637.813" y="248.324" fill="#0F172A" font-size="13"> </text><text x="640.725" y="248.324" fill="#0F172A" font-size="13">が</text><text x="653.725" y="248.324" fill="#0F172A" font-size="13"> </text><text x="656.637" y="248.324" fill="#0F172A" font-size="13" textLength="22.529">E2E</text><text x="679.166" y="248.324" fill="#0F172A" font-size="13"> </text><text x="682.078" y="248.324" fill="#0F172A" font-size="13">の</text><text x="695.078" y="248.324" fill="#0F172A" font-size="13">必</text><text x="454.5" y="267.148" fill="#0F172A" font-size="13">須</text><text x="467.5" y="267.148" fill="#0F172A" font-size="13">プ</text><text x="480.5" y="267.148" fill="#0F172A" font-size="13">ロ</text><text x="493.5" y="267.148" fill="#0F172A" font-size="13">パ</text><text x="506.5" y="267.148" fill="#0F172A" font-size="13">テ</text><text x="519.5" y="267.148" fill="#0F172A" font-size="13">ィ</text><text x="532.5" y="267.148" fill="#0F172A" font-size="13">を</text><text x="545.5" y="267.148" fill="#0F172A" font-size="13">満</text><text x="558.5" y="267.148" fill="#0F172A" font-size="13">た</text><text x="571.5" y="267.148" fill="#0F172A" font-size="13">す</text><text x="584.5" y="267.148" fill="#0F172A" font-size="13">か</text><text x="597.5" y="267.148" fill="#0F172A" font-size="13">判</text><text x="610.5" y="267.148" fill="#0F172A" font-size="13">定</text><text x="623.5" y="267.148" fill="#0F172A" font-size="13">す</text><text x="636.5" y="267.148" fill="#0F172A" font-size="13">る</text><text x="649.5" y="267.148" fill="#0F172A" font-size="13">。</text></g><!--entity F225--><g class="entity" data-qualified-name="F225" id="ent0006" data-source-line="10"><rect x="442" y="298.772" width="278.726" height="114.12" fill="#E0F2FE" style="stroke:#0369A1;stroke-width:0.5;" rx="4" ry="4"/><text x="549.656" y="323.852" fill="#0F172A" font-size="13" textLength="63.414" font-style="italic">«function»</text><text x="452" y="342.676" fill="#0F172A" font-size="13" textLength="30.615" font-weight="700">F225</text><text x="452" y="361.5" fill="#0F172A" font-size="13" textLength="233.168" font-weight="700">e2e_notion_probe._verify_database</text><text x="452" y="380.324" fill="#0F172A" font-size="13">役</text><text x="465" y="380.324" fill="#0F172A" font-size="13">割</text><text x="478" y="380.324" fill="#0F172A" font-size="13">:</text><text x="481.614" y="380.324" fill="#0F172A" font-size="13"> </text><text x="484.526" y="380.324" fill="#0F172A" font-size="13" textLength="41.561">Notion</text><text x="526.087" y="380.324" fill="#0F172A" font-size="13"> </text><text x="528.999" y="380.324" fill="#0F172A" font-size="13" textLength="56.238">database</text><text x="585.237" y="380.324" fill="#0F172A" font-size="13"> </text><text x="588.149" y="380.324" fill="#0F172A" font-size="13">を</text><text x="601.149" y="380.324" fill="#0F172A" font-size="13">取</text><text x="614.149" y="380.324" fill="#0F172A" font-size="13">得</text><text x="627.149" y="380.324" fill="#0F172A" font-size="13">し</text><text x="640.149" y="380.324" fill="#0F172A" font-size="13">、</text><text x="653.149" y="380.324" fill="#0F172A" font-size="13">対</text><text x="666.149" y="380.324" fill="#0F172A" font-size="13">象</text><text x="679.149" y="380.324" fill="#0F172A" font-size="13"> </text><text x="682.061" y="380.324" fill="#0F172A" font-size="13" textLength="12.753">ID</text><text x="694.814" y="380.324" fill="#0F172A" font-size="13"> </text><text x="697.726" y="380.324" fill="#0F172A" font-size="13">と</text><text x="452" y="399.148" fill="#0F172A" font-size="13" textLength="47.164">schema</text><text x="499.164" y="399.148" fill="#0F172A" font-size="13"> </text><text x="502.076" y="399.148" fill="#0F172A" font-size="13">を</text><text x="515.076" y="399.148" fill="#0F172A" font-size="13">検</text><text x="528.076" y="399.148" fill="#0F172A" font-size="13">証</text><text x="541.076" y="399.148" fill="#0F172A" font-size="13">す</text><text x="554.076" y="399.148" fill="#0F172A" font-size="13">る</text><text x="567.076" y="399.148" fill="#0F172A" font-size="13">。</text></g><!--entity F226--><g class="entity" data-qualified-name="F226" id="ent0008" data-source-line="12"><rect x="444.5" y="431.272" width="273.526" height="95.296" fill="#E0F2FE" style="stroke:#0369A1;stroke-width:0.5;" rx="4" ry="4"/><text x="549.556" y="456.352" fill="#0F172A" font-size="13" textLength="63.414" font-style="italic">«function»</text><text x="454.5" y="475.176" fill="#0F172A" font-size="13" textLength="30.615" font-weight="700">F226</text><text x="485.115" y="475.176" fill="#0F172A" font-size="13" font-weight="700"> </text><text x="488.066" y="475.176" fill="#0F172A" font-size="13" textLength="219.96" font-weight="700">e2e_notion_probe._verify_targets</text><text x="454.5" y="494" fill="#0F172A" font-size="13">役</text><text x="467.5" y="494" fill="#0F172A" font-size="13">割</text><text x="480.5" y="494" fill="#0F172A" font-size="13">:</text><text x="484.114" y="494" fill="#0F172A" font-size="13"> </text><text x="487.026" y="494" fill="#0F172A" font-size="13" textLength="22.529">E2E</text><text x="509.555" y="494" fill="#0F172A" font-size="13"> </text><text x="512.467" y="494" fill="#0F172A" font-size="13">操</text><text x="525.467" y="494" fill="#0F172A" font-size="13">作</text><text x="538.467" y="494" fill="#0F172A" font-size="13">対</text><text x="551.467" y="494" fill="#0F172A" font-size="13">象</text><text x="564.467" y="494" fill="#0F172A" font-size="13">の</text><text x="577.467" y="494" fill="#0F172A" font-size="13">設</text><text x="590.467" y="494" fill="#0F172A" font-size="13">定</text><text x="603.467" y="494" fill="#0F172A" font-size="13">値</text><text x="616.467" y="494" fill="#0F172A" font-size="13">を</text><text x="629.467" y="494" fill="#0F172A" font-size="13">検</text><text x="642.467" y="494" fill="#0F172A" font-size="13">査</text><text x="655.467" y="494" fill="#0F172A" font-size="13">し</text><text x="668.467" y="494" fill="#0F172A" font-size="13">、</text><text x="681.467" y="494" fill="#0F172A" font-size="13">安</text><text x="694.467" y="494" fill="#0F172A" font-size="13">全</text><text x="454.5" y="512.824" fill="#0F172A" font-size="13">な</text><text x="467.5" y="512.824" fill="#0F172A" font-size="13">識</text><text x="480.5" y="512.824" fill="#0F172A" font-size="13">別</text><text x="493.5" y="512.824" fill="#0F172A" font-size="13">指</text><text x="506.5" y="512.824" fill="#0F172A" font-size="13">紋</text><text x="519.5" y="512.824" fill="#0F172A" font-size="13">を</text><text x="532.5" y="512.824" fill="#0F172A" font-size="13">返</text><text x="545.5" y="512.824" fill="#0F172A" font-size="13">す</text><text x="558.5" y="512.824" fill="#0F172A" font-size="13">。</text></g><!--entity F227--><g class="entity" data-qualified-name="F227" id="ent0010" data-source-line="14"><rect x="443" y="544.272" width="276.698" height="95.296" fill="#E0F2FE" style="stroke:#0369A1;stroke-width:0.5;" rx="4" ry="4"/><text x="549.642" y="569.352" fill="#0F172A" font-size="13" textLength="63.414" font-style="italic">«function»</text><text x="453" y="588.176" fill="#0F172A" font-size="13" textLength="30.615" font-weight="700">F227</text><text x="483.615" y="588.176" fill="#0F172A" font-size="13" font-weight="700"> </text><text x="486.566" y="588.176" fill="#0F172A" font-size="13" textLength="219.466" font-weight="700">e2e_notion_probe._property_text</text><text x="453" y="607" fill="#0F172A" font-size="13">役</text><text x="466" y="607" fill="#0F172A" font-size="13">割</text><text x="479" y="607" fill="#0F172A" font-size="13">:</text><text x="482.614" y="607" fill="#0F172A" font-size="13"> </text><text x="485.526" y="607" fill="#0F172A" font-size="13" textLength="41.561">Notion</text><text x="527.087" y="607" fill="#0F172A" font-size="13"> </text><text x="529.999" y="607" fill="#0F172A" font-size="13" textLength="29.913">page</text><text x="559.912" y="607" fill="#0F172A" font-size="13"> </text><text x="562.824" y="607" fill="#0F172A" font-size="13" textLength="52.962">property</text><text x="615.786" y="607" fill="#0F172A" font-size="13"> </text><text x="618.698" y="607" fill="#0F172A" font-size="13">か</text><text x="631.698" y="607" fill="#0F172A" font-size="13">ら</text><text x="644.698" y="607" fill="#0F172A" font-size="13">文</text><text x="657.698" y="607" fill="#0F172A" font-size="13">字</text><text x="670.698" y="607" fill="#0F172A" font-size="13">列</text><text x="683.698" y="607" fill="#0F172A" font-size="13">値</text><text x="696.698" y="607" fill="#0F172A" font-size="13">を</text><text x="453" y="625.824" fill="#0F172A" font-size="13">取</text><text x="466" y="625.824" fill="#0F172A" font-size="13">り</text><text x="479" y="625.824" fill="#0F172A" font-size="13">出</text><text x="492" y="625.824" fill="#0F172A" font-size="13">す</text><text x="505" y="625.824" fill="#0F172A" font-size="13">。</text></g><!--entity F228--><g class="entity" data-qualified-name="F228" id="ent0012" data-source-line="16"><rect x="443" y="657.772" width="276.698" height="114.12" fill="#E0F2FE" style="stroke:#0369A1;stroke-width:0.5;" rx="4" ry="4"/><text x="549.642" y="682.852" fill="#0F172A" font-size="13" textLength="63.414" font-style="italic">«function»</text><text x="453" y="701.676" fill="#0F172A" font-size="13" textLength="30.615" font-weight="700">F228</text><text x="453" y="720.5" fill="#0F172A" font-size="13" textLength="244.4" font-weight="700">e2e_notion_probe._property_number</text><text x="453" y="739.324" fill="#0F172A" font-size="13">役</text><text x="466" y="739.324" fill="#0F172A" font-size="13">割</text><text x="479" y="739.324" fill="#0F172A" font-size="13">:</text><text x="482.614" y="739.324" fill="#0F172A" font-size="13"> </text><text x="485.526" y="739.324" fill="#0F172A" font-size="13" textLength="41.561">Notion</text><text x="527.087" y="739.324" fill="#0F172A" font-size="13"> </text><text x="529.999" y="739.324" fill="#0F172A" font-size="13" textLength="29.913">page</text><text x="559.912" y="739.324" fill="#0F172A" font-size="13"> </text><text x="562.824" y="739.324" fill="#0F172A" font-size="13" textLength="52.962">property</text><text x="615.786" y="739.324" fill="#0F172A" font-size="13"> </text><text x="618.698" y="739.324" fill="#0F172A" font-size="13">か</text><text x="631.698" y="739.324" fill="#0F172A" font-size="13">ら</text><text x="644.698" y="739.324" fill="#0F172A" font-size="13">数</text><text x="657.698" y="739.324" fill="#0F172A" font-size="13">値</text><text x="670.698" y="739.324" fill="#0F172A" font-size="13">を</text><text x="683.698" y="739.324" fill="#0F172A" font-size="13">取</text><text x="696.698" y="739.324" fill="#0F172A" font-size="13">り</text><text x="453" y="758.148" fill="#0F172A" font-size="13">出</text><text x="466" y="758.148" fill="#0F172A" font-size="13">す</text><text x="479" y="758.148" fill="#0F172A" font-size="13">。</text></g><!--entity F229--><g class="entity" data-qualified-name="F229" id="ent0014" data-source-line="18"><rect x="445" y="789.772" width="272.551" height="114.12" fill="#E0F2FE" style="stroke:#0369A1;stroke-width:0.5;" rx="4" ry="4"/><text x="549.569" y="814.852" fill="#0F172A" font-size="13" textLength="63.414" font-style="italic">«function»</text><text x="455" y="833.676" fill="#0F172A" font-size="13" textLength="30.615" font-weight="700">F229</text><text x="455" y="852.5" fill="#0F172A" font-size="13" textLength="247.273" font-weight="700">e2e_notion_probe._page_database_id</text><text x="455" y="871.324" fill="#0F172A" font-size="13">役</text><text x="468" y="871.324" fill="#0F172A" font-size="13">割</text><text x="481" y="871.324" fill="#0F172A" font-size="13">:</text><text x="484.614" y="871.324" fill="#0F172A" font-size="13"> </text><text x="487.526" y="871.324" fill="#0F172A" font-size="13" textLength="41.561">Notion</text><text x="529.087" y="871.324" fill="#0F172A" font-size="13"> </text><text x="531.999" y="871.324" fill="#0F172A" font-size="13" textLength="29.913">page</text><text x="561.912" y="871.324" fill="#0F172A" font-size="13"> </text><text x="564.824" y="871.324" fill="#0F172A" font-size="13">の</text><text x="577.824" y="871.324" fill="#0F172A" font-size="13">親</text><text x="590.824" y="871.324" fill="#0F172A" font-size="13"> </text><text x="593.736" y="871.324" fill="#0F172A" font-size="13" textLength="56.238">database</text><text x="649.974" y="871.324" fill="#0F172A" font-size="13"> </text><text x="652.886" y="871.324" fill="#0F172A" font-size="13" textLength="12.753">ID</text><text x="665.639" y="871.324" fill="#0F172A" font-size="13"> </text><text x="668.551" y="871.324" fill="#0F172A" font-size="13">を</text><text x="681.551" y="871.324" fill="#0F172A" font-size="13">標</text><text x="694.551" y="871.324" fill="#0F172A" font-size="13">準</text><text x="455" y="890.148" fill="#0F172A" font-size="13">形</text><text x="468" y="890.148" fill="#0F172A" font-size="13">式</text><text x="481" y="890.148" fill="#0F172A" font-size="13">で</text><text x="494" y="890.148" fill="#0F172A" font-size="13">取</text><text x="507" y="890.148" fill="#0F172A" font-size="13">得</text><text x="520" y="890.148" fill="#0F172A" font-size="13">す</text><text x="533" y="890.148" fill="#0F172A" font-size="13">る</text><text x="546" y="890.148" fill="#0F172A" font-size="13">。</text></g><!--entity F230--><g class="entity" data-qualified-name="F230" id="ent0016" data-source-line="20"><rect x="442.5" y="922.272" width="277.777" height="95.296" fill="#E0F2FE" style="stroke:#0369A1;stroke-width:0.5;" rx="4" ry="4"/><text x="549.682" y="947.352" fill="#0F172A" font-size="13" textLength="63.414" font-style="italic">«function»</text><text x="452.5" y="966.176" fill="#0F172A" font-size="13" textLength="30.615" font-weight="700">F230</text><text x="483.115" y="966.176" fill="#0F172A" font-size="13" font-weight="700"> </text><text x="486.066" y="966.176" fill="#0F172A" font-size="13" textLength="224.211" font-weight="700">e2e_notion_probe._page_archived</text><text x="452.5" y="985" fill="#0F172A" font-size="13">役</text><text x="465.5" y="985" fill="#0F172A" font-size="13">割</text><text x="478.5" y="985" fill="#0F172A" font-size="13">:</text><text x="482.114" y="985" fill="#0F172A" font-size="13"> </text><text x="485.026" y="985" fill="#0F172A" font-size="13" textLength="41.561">Notion</text><text x="526.587" y="985" fill="#0F172A" font-size="13"> </text><text x="529.499" y="985" fill="#0F172A" font-size="13" textLength="29.913">page</text><text x="559.412" y="985" fill="#0F172A" font-size="13"> </text><text x="562.324" y="985" fill="#0F172A" font-size="13">が</text><text x="575.324" y="985" fill="#0F172A" font-size="13">ア</text><text x="588.324" y="985" fill="#0F172A" font-size="13">ー</text><text x="601.324" y="985" fill="#0F172A" font-size="13">カ</text><text x="614.324" y="985" fill="#0F172A" font-size="13">イ</text><text x="627.324" y="985" fill="#0F172A" font-size="13">ブ</text><text x="640.324" y="985" fill="#0F172A" font-size="13">済</text><text x="653.324" y="985" fill="#0F172A" font-size="13">み</text><text x="666.324" y="985" fill="#0F172A" font-size="13">か</text><text x="679.324" y="985" fill="#0F172A" font-size="13">判</text><text x="692.324" y="985" fill="#0F172A" font-size="13">定</text><text x="452.5" y="1003.824" fill="#0F172A" font-size="13">す</text><text x="465.5" y="1003.824" fill="#0F172A" font-size="13">る</text><text x="478.5" y="1003.824" fill="#0F172A" font-size="13">。</text></g><!--entity F231--><g class="entity" data-qualified-name="F231" id="ent0018" data-source-line="22"><rect x="444" y="1035.772" width="275.177" height="114.12" fill="#E0F2FE" style="stroke:#0369A1;stroke-width:0.5;" rx="4" ry="4"/><text x="549.882" y="1060.852" fill="#0F172A" font-size="13" textLength="63.414" font-style="italic">«function»</text><text x="454" y="1079.676" fill="#0F172A" font-size="13" textLength="30.615" font-weight="700">F231</text><text x="454" y="1098.5" fill="#0F172A" font-size="13" textLength="245.089" font-weight="700">e2e_notion_probe._page_has_marker</text><text x="454" y="1117.324" fill="#0F172A" font-size="13">役</text><text x="467" y="1117.324" fill="#0F172A" font-size="13">割</text><text x="480" y="1117.324" fill="#0F172A" font-size="13">:</text><text x="483.614" y="1117.324" fill="#0F172A" font-size="13"> </text><text x="486.526" y="1117.324" fill="#0F172A" font-size="13" textLength="41.561">Notion</text><text x="528.087" y="1117.324" fill="#0F172A" font-size="13"> </text><text x="530.999" y="1117.324" fill="#0F172A" font-size="13" textLength="29.913">page</text><text x="560.912" y="1117.324" fill="#0F172A" font-size="13"> </text><text x="563.824" y="1117.324" fill="#0F172A" font-size="13">が</text><text x="576.824" y="1117.324" fill="#0F172A" font-size="13">指</text><text x="589.824" y="1117.324" fill="#0F172A" font-size="13">定</text><text x="602.824" y="1117.324" fill="#0F172A" font-size="13"> </text><text x="605.736" y="1117.324" fill="#0F172A" font-size="13" textLength="22.529">E2E</text><text x="628.265" y="1117.324" fill="#0F172A" font-size="13"> </text><text x="631.177" y="1117.324" fill="#0F172A" font-size="13">マ</text><text x="644.177" y="1117.324" fill="#0F172A" font-size="13">ー</text><text x="657.177" y="1117.324" fill="#0F172A" font-size="13">カ</text><text x="670.177" y="1117.324" fill="#0F172A" font-size="13">ー</text><text x="683.177" y="1117.324" fill="#0F172A" font-size="13">を</text><text x="696.177" y="1117.324" fill="#0F172A" font-size="13">持</text><text x="454" y="1136.148" fill="#0F172A" font-size="13">つ</text><text x="467" y="1136.148" fill="#0F172A" font-size="13">か</text><text x="480" y="1136.148" fill="#0F172A" font-size="13">判</text><text x="493" y="1136.148" fill="#0F172A" font-size="13">定</text><text x="506" y="1136.148" fill="#0F172A" font-size="13">す</text><text x="519" y="1136.148" fill="#0F172A" font-size="13">る</text><text x="532" y="1136.148" fill="#0F172A" font-size="13">。</text></g><!--entity F232--><g class="entity" data-qualified-name="F232" id="ent0020" data-source-line="24"><rect x="438" y="1167.772" width="286.942" height="114.12" fill="#E0F2FE" style="stroke:#0369A1;stroke-width:0.5;" rx="4" ry="4"/><text x="549.764" y="1192.852" fill="#0F172A" font-size="13" textLength="63.414" font-style="italic">«function»</text><text x="448" y="1211.676" fill="#0F172A" font-size="13" textLength="30.615" font-weight="700">F232</text><text x="448" y="1230.5" fill="#0F172A" font-size="13" textLength="266.942" font-weight="700">e2e_notion_probe._event_page_matches</text><text x="448" y="1249.324" fill="#0F172A" font-size="13">役</text><text x="461" y="1249.324" fill="#0F172A" font-size="13">割</text><text x="474" y="1249.324" fill="#0F172A" font-size="13">:</text><text x="477.614" y="1249.324" fill="#0F172A" font-size="13"> </text><text x="480.526" y="1249.324" fill="#0F172A" font-size="13" textLength="41.561">Notion</text><text x="522.087" y="1249.324" fill="#0F172A" font-size="13"> </text><text x="524.999" y="1249.324" fill="#0F172A" font-size="13" textLength="34.008">event</text><text x="559.007" y="1249.324" fill="#0F172A" font-size="13"> </text><text x="561.919" y="1249.324" fill="#0F172A" font-size="13">ペ</text><text x="574.919" y="1249.324" fill="#0F172A" font-size="13">ー</text><text x="587.919" y="1249.324" fill="#0F172A" font-size="13">ジ</text><text x="600.919" y="1249.324" fill="#0F172A" font-size="13">が</text><text x="613.919" y="1249.324" fill="#0F172A" font-size="13"> </text><text x="616.831" y="1249.324" fill="#0F172A" font-size="13" textLength="22.529">E2E</text><text x="639.36" y="1249.324" fill="#0F172A" font-size="13"> </text><text x="642.272" y="1249.324" fill="#0F172A" font-size="13">の</text><text x="655.272" y="1249.324" fill="#0F172A" font-size="13">期</text><text x="668.272" y="1249.324" fill="#0F172A" font-size="13">待</text><text x="681.272" y="1249.324" fill="#0F172A" font-size="13">値</text><text x="694.272" y="1249.324" fill="#0F172A" font-size="13">と</text><text x="448" y="1268.148" fill="#0F172A" font-size="13">一</text><text x="461" y="1268.148" fill="#0F172A" font-size="13">致</text><text x="474" y="1268.148" fill="#0F172A" font-size="13">す</text><text x="487" y="1268.148" fill="#0F172A" font-size="13">る</text><text x="500" y="1268.148" fill="#0F172A" font-size="13">か</text><text x="513" y="1268.148" fill="#0F172A" font-size="13">判</text><text x="526" y="1268.148" fill="#0F172A" font-size="13">定</text><text x="539" y="1268.148" fill="#0F172A" font-size="13">す</text><text x="552" y="1268.148" fill="#0F172A" font-size="13">る</text><text x="565" y="1268.148" fill="#0F172A" font-size="13">。</text></g><!--entity F233--><g class="entity" data-qualified-name="F233" id="ent0022" data-source-line="26"><rect x="445.5" y="1299.772" width="271.654" height="114.12" fill="#E0F2FE" style="stroke:#0369A1;stroke-width:0.5;" rx="4" ry="4"/><text x="549.62" y="1324.852" fill="#0F172A" font-size="13" textLength="63.414" font-style="italic">«function»</text><text x="455.5" y="1343.676" fill="#0F172A" font-size="13" textLength="30.615" font-weight="700">F233</text><text x="455.5" y="1362.5" fill="#0F172A" font-size="13" textLength="246.597" font-weight="700">e2e_notion_probe._qa_page_matches</text><text x="455.5" y="1381.324" fill="#0F172A" font-size="13">役</text><text x="468.5" y="1381.324" fill="#0F172A" font-size="13">割</text><text x="481.5" y="1381.324" fill="#0F172A" font-size="13">:</text><text x="485.114" y="1381.324" fill="#0F172A" font-size="13"> </text><text x="488.026" y="1381.324" fill="#0F172A" font-size="13" textLength="41.561">Notion</text><text x="529.587" y="1381.324" fill="#0F172A" font-size="13"> </text><text x="532.499" y="1381.324" fill="#0F172A" font-size="13" textLength="26.39">Q&amp;A</text><text x="558.889" y="1381.324" fill="#0F172A" font-size="13"> </text><text x="561.801" y="1381.324" fill="#0F172A" font-size="13">ペ</text><text x="574.801" y="1381.324" fill="#0F172A" font-size="13">ー</text><text x="587.801" y="1381.324" fill="#0F172A" font-size="13">ジ</text><text x="600.801" y="1381.324" fill="#0F172A" font-size="13">が</text><text x="613.801" y="1381.324" fill="#0F172A" font-size="13"> </text><text x="616.713" y="1381.324" fill="#0F172A" font-size="13" textLength="22.529">E2E</text><text x="639.242" y="1381.324" fill="#0F172A" font-size="13"> </text><text x="642.154" y="1381.324" fill="#0F172A" font-size="13">の</text><text x="655.154" y="1381.324" fill="#0F172A" font-size="13">期</text><text x="668.154" y="1381.324" fill="#0F172A" font-size="13">待</text><text x="681.154" y="1381.324" fill="#0F172A" font-size="13">値</text><text x="694.154" y="1381.324" fill="#0F172A" font-size="13">と</text><text x="455.5" y="1400.148" fill="#0F172A" font-size="13">一</text><text x="468.5" y="1400.148" fill="#0F172A" font-size="13">致</text><text x="481.5" y="1400.148" fill="#0F172A" font-size="13">す</text><text x="494.5" y="1400.148" fill="#0F172A" font-size="13">る</text><text x="507.5" y="1400.148" fill="#0F172A" font-size="13">か</text><text x="520.5" y="1400.148" fill="#0F172A" font-size="13">判</text><text x="533.5" y="1400.148" fill="#0F172A" font-size="13">定</text><text x="546.5" y="1400.148" fill="#0F172A" font-size="13">す</text><text x="559.5" y="1400.148" fill="#0F172A" font-size="13">る</text><text x="572.5" y="1400.148" fill="#0F172A" font-size="13">。</text></g><g class="link" data-entity-1="ent0001" data-entity-2="ent0002" id="lnk3" data-link-type="dependency"><polygon points="454.579,148.301,444.755,149.002,450.166,150.651,448.517,156.062,454.579,148.301" fill="#64748B" style="stroke:#64748B;stroke-width:1;stroke-linejoin:miter;stroke-miterlimit:10;"/><path d="M155.313,667.101 C172.638,582.577 217.137,403.433 303,276.772 C347.88,210.567 369.875,199.68 438,157.772 C443.333,154.491 444.475,153.683 450.166,150.651" style="stroke:#64748B;stroke-width:1;" fill="none"/><text x="305" y="164.852" fill="#334155" font-size="13" textLength="45.305">[E1285]</text><text x="350.305" y="164.852" fill="#334155" font-size="13"> </text><text x="353.217" y="164.852" fill="#334155" font-size="13">関</text><text x="366.217" y="164.852" fill="#334155" font-size="13">数</text><text x="379.217" y="164.852" fill="#334155" font-size="13">を</text><text x="392.217" y="164.852" fill="#334155" font-size="13">定</text><text x="405.217" y="164.852" fill="#334155" font-size="13">義</text></g><g class="link" data-entity-1="ent0001" data-entity-2="ent0004" id="lnk5" data-link-type="dependency"><polygon points="452.479,280.816,442.693,281.931,448.169,283.351,446.749,288.827,452.479,280.816" fill="#64748B" style="stroke:#64748B;stroke-width:1;stroke-linejoin:miter;stroke-miterlimit:10;"/><path d="M164.347,667.02 C189.325,603.947 238.933,491.231 303,408.772 C352.072,345.612 371.015,333.478 438,289.772 C442.681,286.718 443.216,286.264 448.169,283.351" style="stroke:#64748B;stroke-width:1;" fill="none"/><text x="305" y="297.852" fill="#334155" font-size="13" textLength="45.305">[E1286]</text><text x="350.305" y="297.852" fill="#334155" font-size="13"> </text><text x="353.217" y="297.852" fill="#334155" font-size="13">関</text><text x="366.217" y="297.852" fill="#334155" font-size="13">数</text><text x="379.217" y="297.852" fill="#334155" font-size="13">を</text><text x="392.217" y="297.852" fill="#334155" font-size="13">定</text><text x="405.217" y="297.852" fill="#334155" font-size="13">義</text></g><g class="link" data-entity-1="ent0001" data-entity-2="ent0006" id="lnk7" data-link-type="dependency"><polygon points="453.535,412.922,443.721,413.741,449.151,415.326,447.566,420.756,453.535,412.922" fill="#64748B" style="stroke:#64748B;stroke-width:1;stroke-linejoin:miter;stroke-miterlimit:10;"/><path d="M179.841,667.139 C209.645,626.258 255.786,566.962 303,521.772 C356.942,470.142 373.79,459.882 438,421.772 C443.041,418.78 443.856,418.229 449.151,415.326" style="stroke:#64748B;stroke-width:1;" fill="none"/><text x="305" y="429.852" fill="#334155" font-size="13" textLength="45.305">[E1287]</text><text x="350.305" y="429.852" fill="#334155" font-size="13"> </text><text x="353.217" y="429.852" fill="#334155" font-size="13">関</text><text x="366.217" y="429.852" fill="#334155" font-size="13">数</text><text x="379.217" y="429.852" fill="#334155" font-size="13">を</text><text x="392.217" y="429.852" fill="#334155" font-size="13">定</text><text x="405.217" y="429.852" fill="#334155" font-size="13">義</text></g><g class="link" data-entity-1="ent0001" data-entity-2="ent0008" id="lnk9" data-link-type="dependency"><polygon points="456.058,526.394,446.209,526.422,451.494,528.437,449.478,533.723,456.058,526.394" fill="#64748B" style="stroke:#64748B;stroke-width:1;stroke-linejoin:miter;stroke-miterlimit:10;"/><path d="M214.574,667.086 C272.229,628.101 358.034,573.319 438,534.772 C443.866,531.944 445.352,531.188 451.494,528.437" style="stroke:#64748B;stroke-width:1;" fill="none"/><text x="305" y="542.852" fill="#334155" font-size="13" textLength="45.305">[E1288]</text><text x="350.305" y="542.852" fill="#334155" font-size="13"> </text><text x="353.217" y="542.852" fill="#334155" font-size="13">関</text><text x="366.217" y="542.852" fill="#334155" font-size="13">数</text><text x="379.217" y="542.852" fill="#334155" font-size="13">を</text><text x="392.217" y="542.852" fill="#334155" font-size="13">定</text><text x="405.217" y="542.852" fill="#334155" font-size="13">義</text></g><g class="link" data-entity-1="ent0001" data-entity-2="ent0010" id="lnk11" data-link-type="dependency"><polygon points="442.929,630.761,433.18,629.366,438.119,632.124,435.361,637.063,442.929,630.761" fill="#64748B" style="stroke:#64748B;stroke-width:1;stroke-linejoin:miter;stroke-miterlimit:10;"/><path d="M285.014,675.516 C335.496,661.208 387.718,646.408 438.119,632.124" style="stroke:#64748B;stroke-width:1;" fill="none"/><text x="305" y="633.852" fill="#334155" font-size="13" textLength="45.305">[E1289]</text><text x="350.305" y="633.852" fill="#334155" font-size="13"> </text><text x="353.217" y="633.852" fill="#334155" font-size="13">関</text><text x="366.217" y="633.852" fill="#334155" font-size="13">数</text><text x="379.217" y="633.852" fill="#334155" font-size="13">を</text><text x="392.217" y="633.852" fill="#334155" font-size="13">定</text><text x="405.217" y="633.852" fill="#334155" font-size="13">義</text></g><g class="link" data-entity-1="ent0001" data-entity-2="ent0012" id="lnk13" data-link-type="dependency"><polygon points="442.929,714.772,433.929,710.772,437.929,714.772,433.929,718.772,442.929,714.772" fill="#64748B" style="stroke:#64748B;stroke-width:1;stroke-linejoin:miter;stroke-miterlimit:10;"/><path d="M285.014,714.772 C335.496,714.772 387.529,714.772 437.929,714.772" style="stroke:#64748B;stroke-width:1;" fill="none"/><text x="305" y="709.852" fill="#334155" font-size="13" textLength="45.305">[E1290]</text><text x="350.305" y="709.852" fill="#334155" font-size="13"> </text><text x="353.217" y="709.852" fill="#334155" font-size="13">関</text><text x="366.217" y="709.852" fill="#334155" font-size="13">数</text><text x="379.217" y="709.852" fill="#334155" font-size="13">を</text><text x="392.217" y="709.852" fill="#334155" font-size="13">定</text><text x="405.217" y="709.852" fill="#334155" font-size="13">義</text></g><g class="link" data-entity-1="ent0001" data-entity-2="ent0014" id="lnk15" data-link-type="dependency"><polygon points="444.784,805.494,437.337,799.048,440,804.039,435.009,806.702,444.784,805.494" fill="#64748B" style="stroke:#64748B;stroke-width:1;stroke-linejoin:miter;stroke-miterlimit:10;"/><path d="M285.014,756.9 C336.116,772.443 389.147,788.572 440,804.039" style="stroke:#64748B;stroke-width:1;" fill="none"/><text x="305" y="760.852" fill="#334155" font-size="13" textLength="45.305">[E1291]</text><text x="350.305" y="760.852" fill="#334155" font-size="13"> </text><text x="353.217" y="760.852" fill="#334155" font-size="13">関</text><text x="366.217" y="760.852" fill="#334155" font-size="13">数</text><text x="379.217" y="760.852" fill="#334155" font-size="13">を</text><text x="392.217" y="760.852" fill="#334155" font-size="13">定</text><text x="405.217" y="760.852" fill="#334155" font-size="13">義</text></g><g class="link" data-entity-1="ent0001" data-entity-2="ent0016" id="lnk17" data-link-type="dependency"><polygon points="456.958,922.226,450.543,914.754,452.441,920.083,447.113,921.981,456.958,922.226" fill="#64748B" style="stroke:#64748B;stroke-width:1;stroke-linejoin:miter;stroke-miterlimit:10;"/><path d="M207.629,762.298 C264.918,805.352 354.077,868.626 438,912.772 C444.131,915.997 445.97,917.011 452.441,920.083" style="stroke:#64748B;stroke-width:1;" fill="none"/><text x="305" y="827.852" fill="#334155" font-size="13" textLength="45.305">[E1292]</text><text x="350.305" y="827.852" fill="#334155" font-size="13"> </text><text x="353.217" y="827.852" fill="#334155" font-size="13">関</text><text x="366.217" y="827.852" fill="#334155" font-size="13">数</text><text x="379.217" y="827.852" fill="#334155" font-size="13">を</text><text x="392.217" y="827.852" fill="#334155" font-size="13">定</text><text x="405.217" y="827.852" fill="#334155" font-size="13">義</text></g><g class="link" data-entity-1="ent0001" data-entity-2="ent0018" id="lnk19" data-link-type="dependency"><polygon points="453.518,1035.652,447.561,1027.808,449.137,1033.241,443.704,1034.817,453.518,1035.652" fill="#64748B" style="stroke:#64748B;stroke-width:1;stroke-linejoin:miter;stroke-miterlimit:10;"/><path d="M176.222,762.698 C205.36,807.602 252.634,875.196 303,925.772 C355.876,978.867 373.653,988.373 438,1026.772 C443.034,1029.776 443.846,1030.33 449.137,1033.241" style="stroke:#64748B;stroke-width:1;" fill="none"/><text x="305" y="920.852" fill="#334155" font-size="13" textLength="45.305">[E1293]</text><text x="350.305" y="920.852" fill="#334155" font-size="13"> </text><text x="353.217" y="920.852" fill="#334155" font-size="13">関</text><text x="366.217" y="920.852" fill="#334155" font-size="13">数</text><text x="379.217" y="920.852" fill="#334155" font-size="13">を</text><text x="392.217" y="920.852" fill="#334155" font-size="13">定</text><text x="405.217" y="920.852" fill="#334155" font-size="13">義</text></g><g class="link" data-entity-1="ent0001" data-entity-2="ent0020" id="lnk21" data-link-type="dependency"><polygon points="452.479,1167.728,446.749,1159.717,448.169,1165.193,442.693,1166.612,452.479,1167.728" fill="#64748B" style="stroke:#64748B;stroke-width:1;stroke-linejoin:miter;stroke-miterlimit:10;"/><path d="M162.581,762.438 C186.447,828.855 235.763,951.057 303,1039.772 C351.311,1103.516 371.015,1115.066 438,1158.772 C442.681,1161.826 443.216,1162.279 448.169,1165.193" style="stroke:#64748B;stroke-width:1;" fill="none"/><text x="305" y="1034.852" fill="#334155" font-size="13" textLength="45.305">[E1294]</text><text x="350.305" y="1034.852" fill="#334155" font-size="13"> </text><text x="353.217" y="1034.852" fill="#334155" font-size="13">関</text><text x="366.217" y="1034.852" fill="#334155" font-size="13">数</text><text x="379.217" y="1034.852" fill="#334155" font-size="13">を</text><text x="392.217" y="1034.852" fill="#334155" font-size="13">定</text><text x="405.217" y="1034.852" fill="#334155" font-size="13">義</text></g><g class="link" data-entity-1="ent0001" data-entity-2="ent0022" id="lnk23" data-link-type="dependency"><polygon points="452.574,1299.613,446.692,1291.713,448.216,1297.161,442.769,1298.684,452.574,1299.613" fill="#64748B" style="stroke:#64748B;stroke-width:1;stroke-linejoin:miter;stroke-miterlimit:10;"/><path d="M154.431,762.44 C170.688,849.751 214,1038.594 303,1171.772 C339.596,1226.532 394.1,1266.702 448.216,1297.161" style="stroke:#64748B;stroke-width:1;" fill="none"/><text x="305" y="1166.852" fill="#334155" font-size="13" textLength="45.305">[E1295]</text><text x="350.305" y="1166.852" fill="#334155" font-size="13"> </text><text x="353.217" y="1166.852" fill="#334155" font-size="13">関</text><text x="366.217" y="1166.852" fill="#334155" font-size="13">数</text><text x="379.217" y="1166.852" fill="#334155" font-size="13">を</text><text x="392.217" y="1166.852" fill="#334155" font-size="13">定</text><text x="405.217" y="1166.852" fill="#334155" font-size="13">義</text></g><g class="legend" data-source-line="28"><rect x="107.061" y="1435.772" width="519.878" height="115.36" fill="none" style="stroke:#000;stroke-width:1;" rx="4" ry="4"/><text x="115.239" y="1459.012" fill="#0F172A" font-size="14" textLength="28" font-weight="700">表記</text><text x="177.511" y="1459.012" fill="#0F172A" font-size="14" textLength="28" font-weight="700">意味</text><text x="115.197" y="1479.284" fill="#0F172A" font-size="14" textLength="56">青の実線</text><text x="177.469" y="1479.284" fill="#0F172A" font-size="14" textLength="125.999">入力または内部依存</text><text x="115.197" y="1499.556" fill="#0F172A" font-size="14" textLength="56">緑の実線</text><text x="177.469" y="1499.556" fill="#0F172A" font-size="14" textLength="125.999">出力または処理結果</text><text x="115.197" y="1519.828" fill="#0F172A" font-size="14" textLength="56">橙の破線</text><text x="177.469" y="1519.828" fill="#0F172A" font-size="14" textLength="84">実行時未確認</text><text x="115.197" y="1540.099" fill="#0F172A" font-size="14" textLength="28">補足</text><text x="177.469" y="1540.099" fill="#0F172A" font-size="14" textLength="441.334">各 ID は architecture-index.json と architecture-catalog.md に対応。</text><line x1="112.061" y1="1442.772" x2="621.939" y2="1442.772" style="stroke:#0F172A;stroke-width:1;"/><line x1="112.061" y1="1463.044" x2="621.939" y2="1463.044" style="stroke:#0F172A;stroke-width:1;"/><line x1="112.061" y1="1483.316" x2="621.939" y2="1483.316" style="stroke:#0F172A;stroke-width:1;"/><line x1="112.061" y1="1503.588" x2="621.939" y2="1503.588" style="stroke:#0F172A;stroke-width:1;"/><line x1="112.061" y1="1523.86" x2="621.939" y2="1523.86" style="stroke:#0F172A;stroke-width:1;"/><line x1="112.061" y1="1544.131" x2="621.939" y2="1544.131" style="stroke:#0F172A;stroke-width:1;"/><line x1="112.061" y1="1442.772" x2="112.061" y2="1544.131" style="stroke:#0F172A;stroke-width:1;"/><line x1="174.333" y1="1442.772" x2="174.333" y2="1544.131" style="stroke:#0F172A;stroke-width:1;"/><line x1="621.939" y1="1442.772" x2="621.939" y2="1544.131" style="stroke:#0F172A;stroke-width:1;"/></g><?plantuml-src hPPRKzj65CVV_IaswKpVC22CiJEKcNHAP_BIIPxwa6OyihqOjxRaI38JPl9WIJ4sbuHBmURYS8kJ2Z8OA2IX3fZlqcNNyhVehYKbCTX63tsHrjOvk__VENlsx9su44caen1ulRqXUPoNOBHNLYOJq9jA9nCU9Qua880S18Aen4K1z77WtymoGFeEqYwGhYDz6kcV6uLTid9axftKJuyyTr8I7qlo8C5FYca5o4cey0BlIS0n1IWYaEAnSGL4unACi1az4J6P4WKeAE3kS7ZaOH_NnzOBMUk5Kf8OXiEzuP7V17pn3vx--nveh2ytDdQHkeAqEQHkWL5k5FmgIdz02I1r5cdJu1TBAr8hLnSbab-W2acvP1hdRB1nIWf7T82qNQIV8-qzqif8Bo3L89LPVB1gdkH8TO7wuerDFFyAQKkuicNkqANMa3QBCjfTmCk0wVGm15w8qGWnwJzptC0DwTwG19-ceQo4P8MFNIDXoky_V038do-fq6zMAgACckI5-1XrP1Yayg6n_ge-yv5aPwbGN3ucAqMYP_7sCVMoaLhqDSKC3u-bXMQKHqOypSZsFFxExnlo1NvyqZDYsTm3ZqVxkS3W4s0biQbYlLxRkqddQqCdHyPXaWybUOKEv5OyEmrHNk73l0o1PKjvvfhaBCINsSPs7kb5f1yWVH7fKqXxmuYg6PfPHgJEudoP2hf1vtD1vtFe_2xe1jlGJK0fFZOPSWYwux6vvmkuLhJoXmzhvl4EUF0J1JM-i5CsQoTUvnbqmJFey0ovuF5tvb5uAGOL-UPcj3QYfPocnpGEwEmuKxPaawtFDbfb6cSDfEwR1wiu_vRCvUgdjF2MpCjbnlKLoky2okz01Ln03RM1egyKb1IA1PyfRLEKefK773Fxa22573ueudpHmgEPGzeCpbLR0OPS00mv044N085k048w6OQIUuILewxY0ox41spnmJuNueFjn5DXNmea58zsLiysrBlzh_N2AeFkAsEDL0luOXUVpoFrBwU2hbL7q0LAq47flnrbeAyJ2Yz5nkCJi2l7tBNUGSxoIBtiU5RHnMvLJsrizPmBzVsTr8_pCZsBMI_igfzMB9tQEeNrJHk5FPV8d8hKScUKVXSe_GxAW0iKhWqAdA3N0GkeMsDfcb60zQRqis_w2YbjuLgM5OTgN9rbpDof3TAHYtF1nJbSFXTSxQu2J_dReHvzV_z_GdBH_mUS_Xziq_yJC0Q5A0YBYY8cFG0y_m6OEuPfhB8HUJ6F5q_0S_O_QBnUOisyibN_j4v_uknRFBE1r5gpXn_YgMn3Dwvgh-dbodQeVrfiSSXLMnnox-eBK_KF2sIpP3kGFNeLgDItJss7vZs9h6caj5_VhPhxBsqxyqt9_7Z2B1PUMAtt43GhMg7vIKkm9ov4uJFlxtBpUcYqVelGaoaXnhp9AFtsddP1V5cYyQHJqpXOqVWF?></g></svg>