<svg xmlns="http://www.w3.org/2000/svg" xmlns:xlink="http://www.w3.org/1999/xlink" version="1.1" data-diagram-type="DESCRIPTION" style="width:1191px;height:895px;background:#FFFFFF;" width="1191px" height="895px" viewBox="0 0 1191 895" zoomAndPan="magnify" preserveAspectRatio="none" contentStyleType="text/css"><?plantuml 1.2026.7?><defs/><g font-family="sans-serif" lengthAdjust="spacing"><g class="title" data-source-line="2"><text x="477.193" y="26.24" fill="#0F172A" font-size="14" textLength="229.613" font-weight="700">e2e entry 02 — メソッド・関数詳細</text></g><!--entity P018--><g class="entity" data-qualified-name="P018" id="ent0001" data-source-line="5"><rect x="6" y="370.772" width="268.69" height="95.296" fill="#E0F2FE" style="stroke:#0369A1;stroke-width:0.5;" rx="4" ry="4"/><text x="16" y="395.852" fill="#0F172A" font-size="13" textLength="31.681" font-weight="700">P018</text><text x="47.681" y="395.852" fill="#0F172A" font-size="13" font-weight="700"> </text><text x="50.632" y="395.852" fill="#0F172A" font-size="13" textLength="64.636" font-weight="700">e2e_entry</text><text x="16" y="414.676" fill="#0F172A" font-size="13">役</text><text x="29" y="414.676" fill="#0F172A" font-size="13">割</text><text x="42" y="414.676" fill="#0F172A" font-size="13">:</text><text x="45.614" y="414.676" fill="#0F172A" font-size="13"> </text><text x="48.526" y="414.676" fill="#0F172A" font-size="13">通</text><text x="61.526" y="414.676" fill="#0F172A" font-size="13">常</text><text x="74.526" y="414.676" fill="#0F172A" font-size="13"> </text><text x="77.438" y="414.676" fill="#0F172A" font-size="13" textLength="43.758">Worker</text><text x="121.196" y="414.676" fill="#0F172A" font-size="13"> </text><text x="124.108" y="414.676" fill="#0F172A" font-size="13">の</text><text x="137.108" y="414.676" fill="#0F172A" font-size="13">公</text><text x="150.108" y="414.676" fill="#0F172A" font-size="13">開</text><text x="163.108" y="414.676" fill="#0F172A" font-size="13">面</text><text x="176.108" y="414.676" fill="#0F172A" font-size="13">を</text><text x="189.108" y="414.676" fill="#0F172A" font-size="13">制</text><text x="202.108" y="414.676" fill="#0F172A" font-size="13">限</text><text x="215.108" y="414.676" fill="#0F172A" font-size="13">し</text><text x="228.108" y="414.676" fill="#0F172A" font-size="13">、</text><text x="241.108" y="414.676" fill="#0F172A" font-size="13" textLength="22.529">E2E</text><text x="16" y="433.5" fill="#0F172A" font-size="13">状</text><text x="29" y="433.5" fill="#0F172A" font-size="13">態</text><text x="42" y="433.5" fill="#0F172A" font-size="13">確</text><text x="55" y="433.5" fill="#0F172A" font-size="13">認</text><text x="68" y="433.5" fill="#0F172A" font-size="13">と</text><text x="81" y="433.5" fill="#0F172A" font-size="13">明</text><text x="94" y="433.5" fill="#0F172A" font-size="13">示</text><text x="107" y="433.5" fill="#0F172A" font-size="13">的</text><text x="120" y="433.5" fill="#0F172A" font-size="13">な</text><text x="133" y="433.5" fill="#0F172A" font-size="13"> </text><text x="135.912" y="433.5" fill="#0F172A" font-size="13" textLength="34.866">CRUD</text><text x="170.778" y="433.5" fill="#0F172A" font-size="13"> </text><text x="173.69" y="433.5" fill="#0F172A" font-size="13">プ</text><text x="186.69" y="433.5" fill="#0F172A" font-size="13">ロ</text><text x="199.69" y="433.5" fill="#0F172A" font-size="13">ー</text><text x="212.69" y="433.5" fill="#0F172A" font-size="13">ブ</text><text x="225.69" y="433.5" fill="#0F172A" font-size="13">だ</text><text x="238.69" y="433.5" fill="#0F172A" font-size="13">け</text><text x="251.69" y="433.5" fill="#0F172A" font-size="13">を</text><text x="16" y="452.324" fill="#0F172A" font-size="13">提</text><text x="29" y="452.324" fill="#0F172A" font-size="13">供</text><text x="42" y="452.324" fill="#0F172A" font-size="13">す</text><text x="55" y="452.324" fill="#0F172A" font-size="13">る</text><text x="68" y="452.324" fill="#0F172A" font-size="13">。</text></g><!--entity C008--><g class="entity" data-qualified-name="C008" id="ent0002" data-source-line="6"><rect x="443.5" y="115.272" width="271.836" height="114.12" fill="#FFF" style="stroke:#0369A1;stroke-width:0.5;" rx="4" ry="4"/><text x="558.287" y="140.352" fill="#0F172A" font-size="13" textLength="42.263" font-style="italic">«class»</text><text x="453.5" y="159.176" fill="#0F172A" font-size="13" textLength="31.538" font-weight="700">C008</text><text x="485.038" y="159.176" fill="#0F172A" font-size="13" font-weight="700"> </text><text x="487.989" y="159.176" fill="#0F172A" font-size="13" textLength="116.064" font-weight="700">e2e_entry.Default</text><text x="453.5" y="178" fill="#0F172A" font-size="13">役</text><text x="466.5" y="178" fill="#0F172A" font-size="13">割</text><text x="479.5" y="178" fill="#0F172A" font-size="13">:</text><text x="483.114" y="178" fill="#0F172A" font-size="13"> </text><text x="486.026" y="178" fill="#0F172A" font-size="13">通</text><text x="499.026" y="178" fill="#0F172A" font-size="13">常</text><text x="512.026" y="178" fill="#0F172A" font-size="13"> </text><text x="514.938" y="178" fill="#0F172A" font-size="13" textLength="43.758">Worker</text><text x="558.696" y="178" fill="#0F172A" font-size="13"> </text><text x="561.608" y="178" fill="#0F172A" font-size="13">を</text><text x="574.608" y="178" fill="#0F172A" font-size="13">継</text><text x="587.608" y="178" fill="#0F172A" font-size="13">承</text><text x="600.608" y="178" fill="#0F172A" font-size="13">し</text><text x="613.608" y="178" fill="#0F172A" font-size="13">、</text><text x="626.608" y="178" fill="#0F172A" font-size="13" textLength="22.529">E2E</text><text x="649.137" y="178" fill="#0F172A" font-size="13"> </text><text x="652.049" y="178" fill="#0F172A" font-size="13">専</text><text x="665.049" y="178" fill="#0F172A" font-size="13">用</text><text x="678.049" y="178" fill="#0F172A" font-size="13">ル</text><text x="691.049" y="178" fill="#0F172A" font-size="13">ー</text><text x="453.5" y="196.824" fill="#0F172A" font-size="13">ト</text><text x="466.5" y="196.824" fill="#0F172A" font-size="13">、</text><text x="479.5" y="196.824" fill="#0F172A" font-size="13">認</text><text x="492.5" y="196.824" fill="#0F172A" font-size="13">可</text><text x="505.5" y="196.824" fill="#0F172A" font-size="13">、</text><text x="518.5" y="196.824" fill="#0F172A" font-size="13">排</text><text x="531.5" y="196.824" fill="#0F172A" font-size="13">他</text><text x="544.5" y="196.824" fill="#0F172A" font-size="13">、</text><text x="557.5" y="196.824" fill="#0F172A" font-size="13" textLength="34.866">CRUD</text><text x="592.366" y="196.824" fill="#0F172A" font-size="13"> </text><text x="595.278" y="196.824" fill="#0F172A" font-size="13">プ</text><text x="608.278" y="196.824" fill="#0F172A" font-size="13">ロ</text><text x="621.278" y="196.824" fill="#0F172A" font-size="13">ー</text><text x="634.278" y="196.824" fill="#0F172A" font-size="13">ブ</text><text x="647.278" y="196.824" fill="#0F172A" font-size="13">、</text><text x="660.278" y="196.824" fill="#0F172A" font-size="13" textLength="29.146">Cron</text><text x="689.424" y="196.824" fill="#0F172A" font-size="13"> </text><text x="692.336" y="196.824" fill="#0F172A" font-size="13">無</text><text x="453.5" y="215.648" fill="#0F172A" font-size="13">効</text><text x="466.5" y="215.648" fill="#0F172A" font-size="13">化</text><text x="479.5" y="215.648" fill="#0F172A" font-size="13">を</text><text x="492.5" y="215.648" fill="#0F172A" font-size="13">調</text><text x="505.5" y="215.648" fill="#0F172A" font-size="13">整</text><text x="518.5" y="215.648" fill="#0F172A" font-size="13">す</text><text x="531.5" y="215.648" fill="#0F172A" font-size="13">る</text><text x="544.5" y="215.648" fill="#0F172A" font-size="13">。</text></g><!--entity F194--><g class="entity" data-qualified-name="F194" id="ent0004" data-source-line="8"><rect x="442" y="247.772" width="275.32" height="95.296" fill="#E0F2FE" style="stroke:#0369A1;stroke-width:0.5;" rx="4" ry="4"/><text x="547.953" y="272.852" fill="#0F172A" font-size="13" textLength="63.414" font-style="italic">«function»</text><text x="452" y="291.676" fill="#0F172A" font-size="13" textLength="30.615" font-weight="700">F194</text><text x="482.615" y="291.676" fill="#0F172A" font-size="13" font-weight="700"> </text><text x="485.566" y="291.676" fill="#0F172A" font-size="13" textLength="207.584" font-weight="700">e2e_entry._sync_lock_summary</text><text x="452" y="310.5" fill="#0F172A" font-size="13">役</text><text x="465" y="310.5" fill="#0F172A" font-size="13">割</text><text x="478" y="310.5" fill="#0F172A" font-size="13">:</text><text x="481.614" y="310.5" fill="#0F172A" font-size="13"> </text><text x="484.526" y="310.5" fill="#0F172A" font-size="13" textLength="102.882">SyncCoordinator</text><text x="587.408" y="310.5" fill="#0F172A" font-size="13"> </text><text x="590.32" y="310.5" fill="#0F172A" font-size="13">の</text><text x="603.32" y="310.5" fill="#0F172A" font-size="13">利</text><text x="616.32" y="310.5" fill="#0F172A" font-size="13">用</text><text x="629.32" y="310.5" fill="#0F172A" font-size="13">可</text><text x="642.32" y="310.5" fill="#0F172A" font-size="13">否</text><text x="655.32" y="310.5" fill="#0F172A" font-size="13">と</text><text x="668.32" y="310.5" fill="#0F172A" font-size="13">応</text><text x="681.32" y="310.5" fill="#0F172A" font-size="13">答</text><text x="694.32" y="310.5" fill="#0F172A" font-size="13">状</text><text x="452" y="329.324" fill="#0F172A" font-size="13">態</text><text x="465" y="329.324" fill="#0F172A" font-size="13">を</text><text x="478" y="329.324" fill="#0F172A" font-size="13">要</text><text x="491" y="329.324" fill="#0F172A" font-size="13">約</text><text x="504" y="329.324" fill="#0F172A" font-size="13">す</text><text x="517" y="329.324" fill="#0F172A" font-size="13">る</text><text x="530" y="329.324" fill="#0F172A" font-size="13">。</text></g><!--entity F195--><g class="entity" data-qualified-name="F195" id="ent0006" data-source-line="10"><rect x="444" y="361.272" width="271.368" height="114.12" fill="#E0F2FE" style="stroke:#0369A1;stroke-width:0.5;" rx="4" ry="4"/><text x="547.977" y="386.352" fill="#0F172A" font-size="13" textLength="63.414" font-style="italic">«function»</text><text x="454" y="405.176" fill="#0F172A" font-size="13" textLength="30.615" font-weight="700">F195</text><text x="454" y="424" fill="#0F172A" font-size="13" textLength="245.7" font-weight="700">e2e_entry._e2e_google_crud_enabled</text><text x="454" y="442.824" fill="#0F172A" font-size="13">役</text><text x="467" y="442.824" fill="#0F172A" font-size="13">割</text><text x="480" y="442.824" fill="#0F172A" font-size="13">:</text><text x="483.614" y="442.824" fill="#0F172A" font-size="13"> </text><text x="486.526" y="442.824" fill="#0F172A" font-size="13" textLength="42.939">Google</text><text x="529.465" y="442.824" fill="#0F172A" font-size="13"> </text><text x="532.377" y="442.824" fill="#0F172A" font-size="13" textLength="54.86">Calendar</text><text x="587.237" y="442.824" fill="#0F172A" font-size="13"> </text><text x="590.149" y="442.824" fill="#0F172A" font-size="13" textLength="22.529">E2E</text><text x="612.678" y="442.824" fill="#0F172A" font-size="13"> </text><text x="615.59" y="442.824" fill="#0F172A" font-size="13" textLength="34.866">CRUD</text><text x="650.456" y="442.824" fill="#0F172A" font-size="13"> </text><text x="653.368" y="442.824" fill="#0F172A" font-size="13">ル</text><text x="666.368" y="442.824" fill="#0F172A" font-size="13">ー</text><text x="679.368" y="442.824" fill="#0F172A" font-size="13">ト</text><text x="692.368" y="442.824" fill="#0F172A" font-size="13">の</text><text x="454" y="461.648" fill="#0F172A" font-size="13">有</text><text x="467" y="461.648" fill="#0F172A" font-size="13">効</text><text x="480" y="461.648" fill="#0F172A" font-size="13">設</text><text x="493" y="461.648" fill="#0F172A" font-size="13">定</text><text x="506" y="461.648" fill="#0F172A" font-size="13">を</text><text x="519" y="461.648" fill="#0F172A" font-size="13">判</text><text x="532" y="461.648" fill="#0F172A" font-size="13">定</text><text x="545" y="461.648" fill="#0F172A" font-size="13">す</text><text x="558" y="461.648" fill="#0F172A" font-size="13">る</text><text x="571" y="461.648" fill="#0F172A" font-size="13">。</text></g><!--entity F196--><g class="entity" data-qualified-name="F196" id="ent0008" data-source-line="12"><rect x="444.5" y="493.272" width="270.042" height="114.12" fill="#E0F2FE" style="stroke:#0369A1;stroke-width:0.5;" rx="4" ry="4"/><text x="547.814" y="518.352" fill="#0F172A" font-size="13" textLength="63.414" font-style="italic">«function»</text><text x="454.5" y="537.176" fill="#0F172A" font-size="13" textLength="30.615" font-weight="700">F196</text><text x="454.5" y="556" fill="#0F172A" font-size="13" textLength="250.042" font-weight="700">e2e_entry._e2e_discord_crud_enabled</text><text x="454.5" y="574.824" fill="#0F172A" font-size="13">役</text><text x="467.5" y="574.824" fill="#0F172A" font-size="13">割</text><text x="480.5" y="574.824" fill="#0F172A" font-size="13">:</text><text x="484.114" y="574.824" fill="#0F172A" font-size="13"> </text><text x="487.026" y="574.824" fill="#0F172A" font-size="13" textLength="46.215">Discord</text><text x="533.241" y="574.824" fill="#0F172A" font-size="13"> </text><text x="536.153" y="574.824" fill="#0F172A" font-size="13" textLength="22.529">E2E</text><text x="558.682" y="574.824" fill="#0F172A" font-size="13"> </text><text x="561.594" y="574.824" fill="#0F172A" font-size="13" textLength="34.866">CRUD</text><text x="596.46" y="574.824" fill="#0F172A" font-size="13"> </text><text x="599.372" y="574.824" fill="#0F172A" font-size="13">ル</text><text x="612.372" y="574.824" fill="#0F172A" font-size="13">ー</text><text x="625.372" y="574.824" fill="#0F172A" font-size="13">ト</text><text x="638.372" y="574.824" fill="#0F172A" font-size="13">の</text><text x="651.372" y="574.824" fill="#0F172A" font-size="13">有</text><text x="664.372" y="574.824" fill="#0F172A" font-size="13">効</text><text x="677.372" y="574.824" fill="#0F172A" font-size="13">設</text><text x="690.372" y="574.824" fill="#0F172A" font-size="13">定</text><text x="454.5" y="593.648" fill="#0F172A" font-size="13">を</text><text x="467.5" y="593.648" fill="#0F172A" font-size="13">判</text><text x="480.5" y="593.648" fill="#0F172A" font-size="13">定</text><text x="493.5" y="593.648" fill="#0F172A" font-size="13">す</text><text x="506.5" y="593.648" fill="#0F172A" font-size="13">る</text><text x="519.5" y="593.648" fill="#0F172A" font-size="13">。</text></g><!--entity F197--><g class="entity" data-qualified-name="F197" id="ent0010" data-source-line="14"><rect x="441" y="625.272" width="277.218" height="114.12" fill="#E0F2FE" style="stroke:#0369A1;stroke-width:0.5;" rx="4" ry="4"/><text x="547.902" y="650.352" fill="#0F172A" font-size="13" textLength="63.414" font-style="italic">«function»</text><text x="451" y="669.176" fill="#0F172A" font-size="13" textLength="30.615" font-weight="700">F197</text><text x="451" y="688" fill="#0F172A" font-size="13" textLength="244.621" font-weight="700">e2e_entry._e2e_notion_crud_enabled</text><text x="451" y="706.824" fill="#0F172A" font-size="13">役</text><text x="464" y="706.824" fill="#0F172A" font-size="13">割</text><text x="477" y="706.824" fill="#0F172A" font-size="13">:</text><text x="480.614" y="706.824" fill="#0F172A" font-size="13"> </text><text x="483.526" y="706.824" fill="#0F172A" font-size="13" textLength="41.561">Notion</text><text x="525.087" y="706.824" fill="#0F172A" font-size="13"> </text><text x="527.999" y="706.824" fill="#0F172A" font-size="13" textLength="22.529">E2E</text><text x="550.528" y="706.824" fill="#0F172A" font-size="13"> </text><text x="553.44" y="706.824" fill="#0F172A" font-size="13" textLength="34.866">CRUD</text><text x="588.306" y="706.824" fill="#0F172A" font-size="13"> </text><text x="591.218" y="706.824" fill="#0F172A" font-size="13">ル</text><text x="604.218" y="706.824" fill="#0F172A" font-size="13">ー</text><text x="617.218" y="706.824" fill="#0F172A" font-size="13">ト</text><text x="630.218" y="706.824" fill="#0F172A" font-size="13">の</text><text x="643.218" y="706.824" fill="#0F172A" font-size="13">有</text><text x="656.218" y="706.824" fill="#0F172A" font-size="13">効</text><text x="669.218" y="706.824" fill="#0F172A" font-size="13">設</text><text x="682.218" y="706.824" fill="#0F172A" font-size="13">定</text><text x="695.218" y="706.824" fill="#0F172A" font-size="13">を</text><text x="451" y="725.648" fill="#0F172A" font-size="13">判</text><text x="464" y="725.648" fill="#0F172A" font-size="13">定</text><text x="477" y="725.648" fill="#0F172A" font-size="13">す</text><text x="490" y="725.648" fill="#0F172A" font-size="13">る</text><text x="503" y="725.648" fill="#0F172A" font-size="13">。</text></g><!--entity M061--><g class="entity" data-qualified-name="M061" id="ent0012" data-source-line="16"><rect x="897" y="53.272" width="277.582" height="114.12" fill="#FFF" style="stroke:#0369A1;stroke-width:0.5;" rx="4" ry="4"/><text x="1005.579" y="78.352" fill="#0F172A" font-size="13" textLength="60.424" font-style="italic">«method»</text><text x="907" y="97.176" fill="#0F172A" font-size="13" textLength="34.099" font-weight="700">M061</text><text x="941.099" y="97.176" fill="#0F172A" font-size="13" font-weight="700"> </text><text x="944.05" y="97.176" fill="#0F172A" font-size="13" textLength="153.322" font-weight="700">e2e_entry.Default.fetch</text><text x="907" y="116" fill="#0F172A" font-size="13">役</text><text x="920" y="116" fill="#0F172A" font-size="13">割</text><text x="933" y="116" fill="#0F172A" font-size="13">:</text><text x="936.614" y="116" fill="#0F172A" font-size="13"> </text><text x="939.526" y="116" fill="#0F172A" font-size="13" textLength="22.529">E2E</text><text x="962.055" y="116" fill="#0F172A" font-size="13"> </text><text x="964.967" y="116" fill="#0F172A" font-size="13">専</text><text x="977.967" y="116" fill="#0F172A" font-size="13">用</text><text x="990.967" y="116" fill="#0F172A" font-size="13">状</text><text x="1003.967" y="116" fill="#0F172A" font-size="13">態</text><text x="1016.967" y="116" fill="#0F172A" font-size="13">・</text><text x="1029.967" y="116" fill="#0F172A" font-size="13" textLength="34.866">CRUD</text><text x="1064.833" y="116" fill="#0F172A" font-size="13"> </text><text x="1067.745" y="116" fill="#0F172A" font-size="13">ル</text><text x="1080.745" y="116" fill="#0F172A" font-size="13">ー</text><text x="1093.745" y="116" fill="#0F172A" font-size="13">ト</text><text x="1106.745" y="116" fill="#0F172A" font-size="13">を</text><text x="1119.745" y="116" fill="#0F172A" font-size="13">認</text><text x="1132.745" y="116" fill="#0F172A" font-size="13">可</text><text x="1145.745" y="116" fill="#0F172A" font-size="13">し</text><text x="907" y="134.824" fill="#0F172A" font-size="13">、</text><text x="920" y="134.824" fill="#0F172A" font-size="13">通</text><text x="933" y="134.824" fill="#0F172A" font-size="13">常</text><text x="946" y="134.824" fill="#0F172A" font-size="13"> </text><text x="948.912" y="134.824" fill="#0F172A" font-size="13" textLength="43.758">Worker</text><text x="992.67" y="134.824" fill="#0F172A" font-size="13"> </text><text x="995.582" y="134.824" fill="#0F172A" font-size="13">の</text><text x="1008.582" y="134.824" fill="#0F172A" font-size="13">許</text><text x="1021.582" y="134.824" fill="#0F172A" font-size="13">可</text><text x="1034.582" y="134.824" fill="#0F172A" font-size="13">済</text><text x="1047.582" y="134.824" fill="#0F172A" font-size="13">み</text><text x="1060.582" y="134.824" fill="#0F172A" font-size="13">ル</text><text x="1073.582" y="134.824" fill="#0F172A" font-size="13">ー</text><text x="1086.582" y="134.824" fill="#0F172A" font-size="13">ト</text><text x="1099.582" y="134.824" fill="#0F172A" font-size="13">へ</text><text x="1112.582" y="134.824" fill="#0F172A" font-size="13">委</text><text x="1125.582" y="134.824" fill="#0F172A" font-size="13">譲</text><text x="1138.582" y="134.824" fill="#0F172A" font-size="13">す</text><text x="1151.582" y="134.824" fill="#0F172A" font-size="13">る</text><text x="907" y="153.648" fill="#0F172A" font-size="13">。</text></g><!--entity M062--><g class="entity" data-qualified-name="M062" id="ent0014" data-source-line="18"><rect x="897.5" y="185.772" width="276.607" height="95.296" fill="#FFF" style="stroke:#0369A1;stroke-width:0.5;" rx="4" ry="4"/><text x="1005.592" y="210.852" fill="#0F172A" font-size="13" textLength="60.424" font-style="italic">«method»</text><text x="907.5" y="229.676" fill="#0F172A" font-size="13" textLength="34.099" font-weight="700">M062</text><text x="941.599" y="229.676" fill="#0F172A" font-size="13" font-weight="700"> </text><text x="944.55" y="229.676" fill="#0F172A" font-size="13" textLength="186.121" font-weight="700">e2e_entry.Default.scheduled</text><text x="907.5" y="248.5" fill="#0F172A" font-size="13">役</text><text x="920.5" y="248.5" fill="#0F172A" font-size="13">割</text><text x="933.5" y="248.5" fill="#0F172A" font-size="13">:</text><text x="937.114" y="248.5" fill="#0F172A" font-size="13"> </text><text x="940.026" y="248.5" fill="#0F172A" font-size="13" textLength="22.529">E2E</text><text x="962.555" y="248.5" fill="#0F172A" font-size="13"> </text><text x="965.467" y="248.5" fill="#0F172A" font-size="13" textLength="43.758">Worker</text><text x="1009.225" y="248.5" fill="#0F172A" font-size="13"> </text><text x="1012.137" y="248.5" fill="#0F172A" font-size="13">の</text><text x="1025.137" y="248.5" fill="#0F172A" font-size="13"> </text><text x="1028.049" y="248.5" fill="#0F172A" font-size="13" textLength="29.146">Cron</text><text x="1057.195" y="248.5" fill="#0F172A" font-size="13"> </text><text x="1060.107" y="248.5" fill="#0F172A" font-size="13">実</text><text x="1073.107" y="248.5" fill="#0F172A" font-size="13">行</text><text x="1086.107" y="248.5" fill="#0F172A" font-size="13">を</text><text x="1099.107" y="248.5" fill="#0F172A" font-size="13">常</text><text x="1112.107" y="248.5" fill="#0F172A" font-size="13">に</text><text x="1125.107" y="248.5" fill="#0F172A" font-size="13">無</text><text x="1138.107" y="248.5" fill="#0F172A" font-size="13">効</text><text x="1151.107" y="248.5" fill="#0F172A" font-size="13">化</text><text x="907.5" y="267.324" fill="#0F172A" font-size="13">す</text><text x="920.5" y="267.324" fill="#0F172A" font-size="13">る</text><text x="933.5" y="267.324" fill="#0F172A" font-size="13">。</text></g><g class="link" data-entity-1="ent0001" data-entity-2="ent0002" id="lnk3" data-link-type="dependency"><polygon points="461.028,229.309,451.188,229.716,456.547,231.527,454.736,236.886,461.028,229.309" fill="#64748B" style="stroke:#64748B;stroke-width:1;stroke-linejoin:miter;stroke-miterlimit:10;"/><path d="M207.849,370.575 C233.929,352.516 264.42,332.238 293,315.272 C356.583,277.525 374.871,272.358 441,239.272 C447.531,236.004 449.764,234.883 456.547,231.527" style="stroke:#64748B;stroke-width:1;" fill="none"/><text x="295" y="243.352" fill="#334155" font-size="13" textLength="45.305">[E1209]</text><text x="340.305" y="243.352" fill="#334155" font-size="13"> </text><text x="343.217" y="243.352" fill="#334155" font-size="13">ク</text><text x="356.217" y="243.352" fill="#334155" font-size="13">ラ</text><text x="369.217" y="243.352" fill="#334155" font-size="13">ス</text><text x="382.217" y="243.352" fill="#334155" font-size="13">を</text><text x="395.217" y="243.352" fill="#334155" font-size="13">定</text><text x="408.217" y="243.352" fill="#334155" font-size="13">義</text></g><g class="link" data-entity-1="ent0001" data-entity-2="ent0004" id="lnk5" data-link-type="dependency"><polygon points="441.854,333.733,432.106,332.321,437.041,335.088,434.274,340.022,441.854,333.733" fill="#64748B" style="stroke:#64748B;stroke-width:1;stroke-linejoin:miter;stroke-miterlimit:10;"/><path d="M275.286,380.616 C328.111,365.747 383.939,350.034 437.041,335.088" style="stroke:#64748B;stroke-width:1;" fill="none"/><text x="301.5" y="336.352" fill="#334155" font-size="13" textLength="45.305">[E1254]</text><text x="346.805" y="336.352" fill="#334155" font-size="13"> </text><text x="349.717" y="336.352" fill="#334155" font-size="13">関</text><text x="362.717" y="336.352" fill="#334155" font-size="13">数</text><text x="375.717" y="336.352" fill="#334155" font-size="13">を</text><text x="388.717" y="336.352" fill="#334155" font-size="13">定</text><text x="401.717" y="336.352" fill="#334155" font-size="13">義</text></g><g class="link" data-entity-1="ent0001" data-entity-2="ent0006" id="lnk7" data-link-type="dependency"><polygon points="443.742,418.272,434.742,414.272,438.742,418.272,434.742,422.272,443.742,418.272" fill="#64748B" style="stroke:#64748B;stroke-width:1;stroke-linejoin:miter;stroke-miterlimit:10;"/><path d="M275.286,418.272 C328.739,418.272 385.194,418.272 438.742,418.272" style="stroke:#64748B;stroke-width:1;" fill="none"/><text x="301.5" y="413.352" fill="#334155" font-size="13" textLength="45.305">[E1255]</text><text x="346.805" y="413.352" fill="#334155" font-size="13"> </text><text x="349.717" y="413.352" fill="#334155" font-size="13">関</text><text x="362.717" y="413.352" fill="#334155" font-size="13">数</text><text x="375.717" y="413.352" fill="#334155" font-size="13">を</text><text x="388.717" y="413.352" fill="#334155" font-size="13">定</text><text x="401.717" y="413.352" fill="#334155" font-size="13">義</text></g><g class="link" data-entity-1="ent0001" data-entity-2="ent0008" id="lnk9" data-link-type="dependency"><polygon points="444.496,509.795,437.037,503.363,439.71,508.349,434.724,511.021,444.496,509.795" fill="#64748B" style="stroke:#64748B;stroke-width:1;stroke-linejoin:miter;stroke-miterlimit:10;"/><path d="M275.286,458.683 C328.99,474.905 385.985,492.121 439.71,508.349" style="stroke:#64748B;stroke-width:1;" fill="none"/><text x="301.5" y="459.352" fill="#334155" font-size="13" textLength="45.305">[E1256]</text><text x="346.805" y="459.352" fill="#334155" font-size="13"> </text><text x="349.717" y="459.352" fill="#334155" font-size="13">関</text><text x="362.717" y="459.352" fill="#334155" font-size="13">数</text><text x="375.717" y="459.352" fill="#334155" font-size="13">を</text><text x="388.717" y="459.352" fill="#334155" font-size="13">定</text><text x="401.717" y="459.352" fill="#334155" font-size="13">義</text></g><g class="link" data-entity-1="ent0001" data-entity-2="ent0010" id="lnk11" data-link-type="dependency"><polygon points="457.781,625.212,451.649,617.505,453.347,622.901,447.951,624.599,457.781,625.212" fill="#64748B" style="stroke:#64748B;stroke-width:1;stroke-linejoin:miter;stroke-miterlimit:10;"/><path d="M206.407,465.836 C265.763,508.19 356.869,570.377 441,616.272 C446.463,619.252 447.647,619.93 453.347,622.901" style="stroke:#64748B;stroke-width:1;" fill="none"/><text x="301.5" y="523.352" fill="#334155" font-size="13" textLength="45.305">[E1257]</text><text x="346.805" y="523.352" fill="#334155" font-size="13"> </text><text x="349.717" y="523.352" fill="#334155" font-size="13">関</text><text x="362.717" y="523.352" fill="#334155" font-size="13">数</text><text x="375.717" y="523.352" fill="#334155" font-size="13">を</text><text x="388.717" y="523.352" fill="#334155" font-size="13">定</text><text x="401.717" y="523.352" fill="#334155" font-size="13">義</text></g><g class="link" data-entity-1="ent0002" data-entity-2="ent0012" id="lnk13" data-link-type="dependency"><polygon points="896.845,129.118,887.387,126.371,891.891,129.794,888.469,134.298,896.845,129.118" fill="#64748B" style="stroke:#64748B;stroke-width:1;stroke-linejoin:miter;stroke-miterlimit:10;"/><path d="M715.634,153.838 C772.809,146.038 834.394,137.637 891.891,129.794" style="stroke:#64748B;stroke-width:1;" fill="none"/><text x="738" y="126.352" fill="#334155" font-size="13" textLength="45.305">[E1258]</text><text x="783.305" y="126.352" fill="#334155" font-size="13"> </text><text x="786.217" y="126.352" fill="#334155" font-size="13">メ</text><text x="799.217" y="126.352" fill="#334155" font-size="13">ソ</text><text x="812.217" y="126.352" fill="#334155" font-size="13">ッ</text><text x="825.217" y="126.352" fill="#334155" font-size="13">ド</text><text x="838.217" y="126.352" fill="#334155" font-size="13">を</text><text x="851.217" y="126.352" fill="#334155" font-size="13">所</text><text x="864.217" y="126.352" fill="#334155" font-size="13">有</text></g><g class="link" data-entity-1="ent0002" data-entity-2="ent0014" id="lnk15" data-link-type="dependency"><polygon points="897.24,214.783,888.852,209.621,892.284,214.118,887.788,217.55,897.24,214.783" fill="#64748B" style="stroke:#64748B;stroke-width:1;stroke-linejoin:miter;stroke-miterlimit:10;"/><path d="M715.634,190.409 C772.94,198.1 834.697,206.389 892.284,214.118" style="stroke:#64748B;stroke-width:1;" fill="none"/><text x="738" y="188.352" fill="#334155" font-size="13" textLength="45.305">[E1259]</text><text x="783.305" y="188.352" fill="#334155" font-size="13"> </text><text x="786.217" y="188.352" fill="#334155" font-size="13">メ</text><text x="799.217" y="188.352" fill="#334155" font-size="13">ソ</text><text x="812.217" y="188.352" fill="#334155" font-size="13">ッ</text><text x="825.217" y="188.352" fill="#334155" font-size="13">ド</text><text x="838.217" y="188.352" fill="#334155" font-size="13">を</text><text x="851.217" y="188.352" fill="#334155" font-size="13">所</text><text x="864.217" y="188.352" fill="#334155" font-size="13">有</text></g><g class="legend" data-source-line="20"><rect x="332.061" y="761.272" width="519.878" height="115.36" fill="none" style="stroke:#000;stroke-width:1;" rx="4" ry="4"/><text x="340.239" y="784.512" fill="#0F172A" font-size="14" textLength="28" font-weight="700">表記</text><text x="402.511" y="784.512" fill="#0F172A" font-size="14" textLength="28" font-weight="700">意味</text><text x="340.197" y="804.784" fill="#0F172A" font-size="14" textLength="56">青の実線</text><text x="402.469" y="804.784" fill="#0F172A" font-size="14" textLength="125.999">入力または内部依存</text><text x="340.197" y="825.056" fill="#0F172A" font-size="14" textLength="56">緑の実線</text><text x="402.469" y="825.056" fill="#0F172A" font-size="14" textLength="125.999">出力または処理結果</text><text x="340.197" y="845.328" fill="#0F172A" font-size="14" textLength="56">橙の破線</text><text x="402.469" y="845.328" fill="#0F172A" font-size="14" textLength="84">実行時未確認</text><text x="340.197" y="865.599" fill="#0F172A" font-size="14" textLength="28">補足</text><text x="402.469" y="865.599" fill="#0F172A" font-size="14" textLength="441.334">各 ID は architecture-index.json と architecture-catalog.md に対応。</text><line x1="337.061" y1="768.272" x2="846.939" y2="768.272" style="stroke:#0F172A;stroke-width:1;"/><line x1="337.061" y1="788.544" x2="846.939" y2="788.544" style="stroke:#0F172A;stroke-width:1;"/><line x1="337.061" y1="808.816" x2="846.939" y2="808.816" style="stroke:#0F172A;stroke-width:1;"/><line x1="337.061" y1="829.088" x2="846.939" y2="829.088" style="stroke:#0F172A;stroke-width:1;"/><line x1="337.061" y1="849.36" x2="846.939" y2="849.36" style="stroke:#0F172A;stroke-width:1;"/><line x1="337.061" y1="869.631" x2="846.939" y2="869.631" style="stroke:#0F172A;stroke-width:1;"/><line x1="337.061" y1="768.272" x2="337.061" y2="869.631" style="stroke:#0F172A;stroke-width:1;"/><line x1="399.333" y1="768.272" x2="399.333" y2="869.631" style="stroke:#0F172A;stroke-width:1;"/><line x1="846.939" y1="768.272" x2="846.939" y2="869.631" style="stroke:#0F172A;stroke-width:1;"/></g><?plantuml-src fPNVJXj75CRl_HIJv1fZB6n3vFgYGAjUjAfILRr8a3NiBlOswrsqVwGYvSBhDGc6D1X474nD22IXDjGs3PGOQCoxT9ZTzLlqxDeMh9qGIxcmD9uvP-RxdJFpxIrUP0IDvP3VFnnNabZcs655dHSu_voM4dmghmeSueBm4rLv7WM2wB_qEYB63iby88P1Z1mnpbk5NVFveLqvieuFVRVcP9n8OIJWUKbJaPBYL2nYdy3DgaYLaCmdaYfYUPbZL5uIVOoKcfD4s1tTZix4VWoCZ3d7nTtZeiCpiGSY_N1AS-_kebPwapOQw1T9ViZ9YEWrkl1Ngx3SsjebcJMwUD8gved-WgJrgU0KifPEp8LbQ_VCtl-Tw6LpuvdrvipQp19z7qtS-taI45uGeqgCVubH8Feheg_2BkPA_hBv1z6B9BDCqfdR22l8aTIZSY8GkARIFydDOarGRrIRMRDEYcRkuaeXFSnOwsLY7BWQ5c4MfDALEWpCPskNvmKOz2k5ELaIaPNTeKkdz6a1DhRtBypdnrxHhi9eb16meiHYFhUiG_VlX4SZesDVJm_5sW5tqVsfaM1WV1hqrObH8PbJfvIrJQjPyJaDmc82skyWVpCoFdeDEQxCYqnSa9Y7SKLBfN1lhtw2vGb9abbUnAhKxjPY1NW1aERte2FqecHLrzjjSY3sTEiuwuLmpun6PpNHlIeVvN1ZsXoXqMdKleatG8IkGpZ3X2J1SfoHDHQcyOp0iLwKRzq0D845JcInZ9pUTVhIRPrUCqivw8TThiAvxcryumnwQK83q8IwDA41QCAzD2olC53r6t0csn5VWX4U02FSnGWFW17fnH0bP-yRA7vm0xu48Z80HAGB4VaSnFU1y4Y_8_XdEPL9UfLVFVtEtJVEUmYS5-qQWMiLVQvdb_-6HRC1g1VNi1lqptMx-ixBwSgAHi62an8BbEwhzr2w4HtAiMcliOCVvj9GpNxMu4TO5IR9iLfVfnpUA_78TIzQsxPtdZgrR3I8Vd1bPhtYWvyL7-oA7_-KU85BmCD5CvAgIYaVGe--GlPEsIvlE2Cpkq9NZz0ZPnwrjjOSdwfjM-ytuIzTU4kNu6FG9FesqUlqyKBBA5ysjsXrevDWlL_r93mvyoGysRFoZwr_ykRBKYV1h1GXmNfrt4bmws0MCsPfl_sfwiJPhqlsoP4JaS-Yx-1ow7M4PIR9gz09JUQ6U97bVlF_ga0nmKkzQmnMiI0b_2aMrWvelGbM2pM5hQ4ExMhy3m00?></g></svg>