<svg xmlns="http://www.w3.org/2000/svg" xmlns:xlink="http://www.w3.org/1999/xlink" version="1.1" data-diagram-type="DESCRIPTION" style="width:779px;height:1645px;background:#FFFFFF;" width="779px" height="1645px" viewBox="0 0 779 1645" zoomAndPan="magnify" preserveAspectRatio="none" contentStyleType="text/css"><?plantuml 1.2026.7?><defs/><g font-family="sans-serif" lengthAdjust="spacing"><g class="title" data-source-line="2"><text x="266.951" y="26.24" fill="#0F172A" font-size="14" textLength="238.097" font-weight="700">e2e notion 03 — メソッド・関数詳細</text></g><!--entity P020--><g class="entity" data-qualified-name="P020" id="ent0001" data-source-line="5"><rect x="6" y="713.772" width="278.934" height="95.296" fill="#E0F2FE" style="stroke:#0369A1;stroke-width:0.5;" rx="4" ry="4"/><text x="16" y="738.852" fill="#0F172A" font-size="13" textLength="31.681" font-weight="700">P020</text><text x="47.681" y="738.852" fill="#0F172A" font-size="13" font-weight="700"> </text><text x="50.632" y="738.852" fill="#0F172A" font-size="13" textLength="117.988" font-weight="700">e2e_notion_probe</text><text x="16" y="757.676" fill="#0F172A" font-size="13">役</text><text x="29" y="757.676" fill="#0F172A" font-size="13">割</text><text x="42" y="757.676" fill="#0F172A" font-size="13">:</text><text x="45.614" y="757.676" fill="#0F172A" font-size="13"> </text><text x="48.526" y="757.676" fill="#0F172A" font-size="13">隔</text><text x="61.526" y="757.676" fill="#0F172A" font-size="13">離</text><text x="74.526" y="757.676" fill="#0F172A" font-size="13">さ</text><text x="87.526" y="757.676" fill="#0F172A" font-size="13">れ</text><text x="100.526" y="757.676" fill="#0F172A" font-size="13">た</text><text x="113.526" y="757.676" fill="#0F172A" font-size="13"> </text><text x="116.438" y="757.676" fill="#0F172A" font-size="13" textLength="22.529">E2E</text><text x="138.967" y="757.676" fill="#0F172A" font-size="13"> </text><text x="141.879" y="757.676" fill="#0F172A" font-size="13" textLength="43.758">Worker</text><text x="185.637" y="757.676" fill="#0F172A" font-size="13"> </text><text x="188.549" y="757.676" fill="#0F172A" font-size="13">か</text><text x="201.549" y="757.676" fill="#0F172A" font-size="13">ら</text><text x="214.549" y="757.676" fill="#0F172A" font-size="13"> </text><text x="217.461" y="757.676" fill="#0F172A" font-size="13" textLength="41.561">Notion</text><text x="259.022" y="757.676" fill="#0F172A" font-size="13"> </text><text x="261.934" y="757.676" fill="#0F172A" font-size="13">の</text><text x="16" y="776.5" fill="#0F172A" font-size="13">作</text><text x="29" y="776.5" fill="#0F172A" font-size="13">成</text><text x="42" y="776.5" fill="#0F172A" font-size="13">・</text><text x="55" y="776.5" fill="#0F172A" font-size="13">検</text><text x="68" y="776.5" fill="#0F172A" font-size="13">証</text><text x="81" y="776.5" fill="#0F172A" font-size="13">・</text><text x="94" y="776.5" fill="#0F172A" font-size="13">更</text><text x="107" y="776.5" fill="#0F172A" font-size="13">新</text><text x="120" y="776.5" fill="#0F172A" font-size="13">・</text><text x="133" y="776.5" fill="#0F172A" font-size="13">ア</text><text x="146" y="776.5" fill="#0F172A" font-size="13">ー</text><text x="159" y="776.5" fill="#0F172A" font-size="13">カ</text><text x="172" y="776.5" fill="#0F172A" font-size="13">イ</text><text x="185" y="776.5" fill="#0F172A" font-size="13">ブ</text><text x="198" y="776.5" fill="#0F172A" font-size="13">と</text><text x="211" y="776.5" fill="#0F172A" font-size="13">残</text><text x="224" y="776.5" fill="#0F172A" font-size="13">存</text><text x="237" y="776.5" fill="#0F172A" font-size="13">資</text><text x="250" y="776.5" fill="#0F172A" font-size="13">源</text><text x="16" y="795.324" fill="#0F172A" font-size="13">の</text><text x="29" y="795.324" fill="#0F172A" font-size="13">回</text><text x="42" y="795.324" fill="#0F172A" font-size="13">収</text><text x="55" y="795.324" fill="#0F172A" font-size="13">を</text><text x="68" y="795.324" fill="#0F172A" font-size="13">実</text><text x="81" y="795.324" fill="#0F172A" font-size="13">行</text><text x="94" y="795.324" fill="#0F172A" font-size="13">す</text><text x="107" y="795.324" fill="#0F172A" font-size="13">る</text><text x="120" y="795.324" fill="#0F172A" font-size="13">。</text></g><!--entity F234--><g class="entity" data-qualified-name="F234" id="ent0002" data-source-line="6"><rect x="454" y="53.272" width="293.312" height="114.12" fill="#E0F2FE" style="stroke:#0369A1;stroke-width:0.5;" rx="4" ry="4"/><text x="568.949" y="78.352" fill="#0F172A" font-size="13" textLength="63.414" font-style="italic">«function»</text><text x="464" y="97.176" fill="#0F172A" font-size="13" textLength="30.615" font-weight="700">F234</text><text x="464" y="116" fill="#0F172A" font-size="13" textLength="273.312" font-weight="700">e2e_notion_probe._event_create_payload</text><text x="464" y="134.824" fill="#0F172A" font-size="13">役</text><text x="477" y="134.824" fill="#0F172A" font-size="13">割</text><text x="490" y="134.824" fill="#0F172A" font-size="13">:</text><text x="493.614" y="134.824" fill="#0F172A" font-size="13"> </text><text x="496.526" y="134.824" fill="#0F172A" font-size="13" textLength="41.561">Notion</text><text x="538.087" y="134.824" fill="#0F172A" font-size="13"> </text><text x="540.999" y="134.824" fill="#0F172A" font-size="13" textLength="34.008">event</text><text x="575.007" y="134.824" fill="#0F172A" font-size="13"> </text><text x="577.919" y="134.824" fill="#0F172A" font-size="13">検</text><text x="590.919" y="134.824" fill="#0F172A" font-size="13">証</text><text x="603.919" y="134.824" fill="#0F172A" font-size="13">ペ</text><text x="616.919" y="134.824" fill="#0F172A" font-size="13">ー</text><text x="629.919" y="134.824" fill="#0F172A" font-size="13">ジ</text><text x="642.919" y="134.824" fill="#0F172A" font-size="13">の</text><text x="655.919" y="134.824" fill="#0F172A" font-size="13">作</text><text x="668.919" y="134.824" fill="#0F172A" font-size="13">成</text><text x="464" y="153.648" fill="#0F172A" font-size="13" textLength="49.101">payload</text><text x="513.101" y="153.648" fill="#0F172A" font-size="13"> </text><text x="516.013" y="153.648" fill="#0F172A" font-size="13">を</text><text x="529.013" y="153.648" fill="#0F172A" font-size="13">組</text><text x="542.013" y="153.648" fill="#0F172A" font-size="13">み</text><text x="555.013" y="153.648" fill="#0F172A" font-size="13">立</text><text x="568.013" y="153.648" fill="#0F172A" font-size="13">て</text><text x="581.013" y="153.648" fill="#0F172A" font-size="13">る</text><text x="594.013" y="153.648" fill="#0F172A" font-size="13">。</text></g><!--entity F235--><g class="entity" data-qualified-name="F235" id="ent0004" data-source-line="8"><rect x="451.5" y="185.272" width="298.265" height="114.12" fill="#E0F2FE" style="stroke:#0369A1;stroke-width:0.5;" rx="4" ry="4"/><text x="568.926" y="210.352" fill="#0F172A" font-size="13" textLength="63.414" font-style="italic">«function»</text><text x="461.5" y="229.176" fill="#0F172A" font-size="13" textLength="30.615" font-weight="700">F235</text><text x="461.5" y="248" fill="#0F172A" font-size="13" textLength="278.265" font-weight="700">e2e_notion_probe._event_update_payload</text><text x="461.5" y="266.824" fill="#0F172A" font-size="13">役</text><text x="474.5" y="266.824" fill="#0F172A" font-size="13">割</text><text x="487.5" y="266.824" fill="#0F172A" font-size="13">:</text><text x="491.114" y="266.824" fill="#0F172A" font-size="13"> </text><text x="494.026" y="266.824" fill="#0F172A" font-size="13" textLength="41.561">Notion</text><text x="535.587" y="266.824" fill="#0F172A" font-size="13"> </text><text x="538.499" y="266.824" fill="#0F172A" font-size="13" textLength="34.008">event</text><text x="572.507" y="266.824" fill="#0F172A" font-size="13"> </text><text x="575.419" y="266.824" fill="#0F172A" font-size="13">検</text><text x="588.419" y="266.824" fill="#0F172A" font-size="13">証</text><text x="601.419" y="266.824" fill="#0F172A" font-size="13">ペ</text><text x="614.419" y="266.824" fill="#0F172A" font-size="13">ー</text><text x="627.419" y="266.824" fill="#0F172A" font-size="13">ジ</text><text x="640.419" y="266.824" fill="#0F172A" font-size="13">の</text><text x="653.419" y="266.824" fill="#0F172A" font-size="13">更</text><text x="666.419" y="266.824" fill="#0F172A" font-size="13">新</text><text x="461.5" y="285.648" fill="#0F172A" font-size="13" textLength="49.101">payload</text><text x="510.601" y="285.648" fill="#0F172A" font-size="13"> </text><text x="513.513" y="285.648" fill="#0F172A" font-size="13">を</text><text x="526.513" y="285.648" fill="#0F172A" font-size="13">組</text><text x="539.513" y="285.648" fill="#0F172A" font-size="13">み</text><text x="552.513" y="285.648" fill="#0F172A" font-size="13">立</text><text x="565.513" y="285.648" fill="#0F172A" font-size="13">て</text><text x="578.513" y="285.648" fill="#0F172A" font-size="13">る</text><text x="591.513" y="285.648" fill="#0F172A" font-size="13">。</text></g><!--entity F236--><g class="entity" data-qualified-name="F236" id="ent0006" data-source-line="10"><rect x="464" y="317.272" width="272.967" height="114.12" fill="#E0F2FE" style="stroke:#0369A1;stroke-width:0.5;" rx="4" ry="4"/><text x="568.777" y="342.352" fill="#0F172A" font-size="13" textLength="63.414" font-style="italic">«function»</text><text x="474" y="361.176" fill="#0F172A" font-size="13" textLength="30.615" font-weight="700">F236</text><text x="474" y="380" fill="#0F172A" font-size="13" textLength="252.967" font-weight="700">e2e_notion_probe._qa_create_payload</text><text x="474" y="398.824" fill="#0F172A" font-size="13">役</text><text x="487" y="398.824" fill="#0F172A" font-size="13">割</text><text x="500" y="398.824" fill="#0F172A" font-size="13">:</text><text x="503.614" y="398.824" fill="#0F172A" font-size="13"> </text><text x="506.526" y="398.824" fill="#0F172A" font-size="13" textLength="41.561">Notion</text><text x="548.087" y="398.824" fill="#0F172A" font-size="13"> </text><text x="550.999" y="398.824" fill="#0F172A" font-size="13" textLength="26.39">Q&amp;A</text><text x="577.389" y="398.824" fill="#0F172A" font-size="13"> </text><text x="580.301" y="398.824" fill="#0F172A" font-size="13">検</text><text x="593.301" y="398.824" fill="#0F172A" font-size="13">証</text><text x="606.301" y="398.824" fill="#0F172A" font-size="13">ペ</text><text x="619.301" y="398.824" fill="#0F172A" font-size="13">ー</text><text x="632.301" y="398.824" fill="#0F172A" font-size="13">ジ</text><text x="645.301" y="398.824" fill="#0F172A" font-size="13">の</text><text x="658.301" y="398.824" fill="#0F172A" font-size="13">作</text><text x="671.301" y="398.824" fill="#0F172A" font-size="13">成</text><text x="474" y="417.648" fill="#0F172A" font-size="13" textLength="49.101">payload</text><text x="523.101" y="417.648" fill="#0F172A" font-size="13"> </text><text x="526.013" y="417.648" fill="#0F172A" font-size="13">を</text><text x="539.013" y="417.648" fill="#0F172A" font-size="13">組</text><text x="552.013" y="417.648" fill="#0F172A" font-size="13">み</text><text x="565.013" y="417.648" fill="#0F172A" font-size="13">立</text><text x="578.013" y="417.648" fill="#0F172A" font-size="13">て</text><text x="591.013" y="417.648" fill="#0F172A" font-size="13">る</text><text x="604.013" y="417.648" fill="#0F172A" font-size="13">。</text></g><!--entity F237--><g class="entity" data-qualified-name="F237" id="ent0008" data-source-line="12"><rect x="461.5" y="449.272" width="277.92" height="114.12" fill="#E0F2FE" style="stroke:#0369A1;stroke-width:0.5;" rx="4" ry="4"/><text x="568.753" y="474.352" fill="#0F172A" font-size="13" textLength="63.414" font-style="italic">«function»</text><text x="471.5" y="493.176" fill="#0F172A" font-size="13" textLength="30.615" font-weight="700">F237</text><text x="471.5" y="512" fill="#0F172A" font-size="13" textLength="257.92" font-weight="700">e2e_notion_probe._qa_update_payload</text><text x="471.5" y="530.824" fill="#0F172A" font-size="13">役</text><text x="484.5" y="530.824" fill="#0F172A" font-size="13">割</text><text x="497.5" y="530.824" fill="#0F172A" font-size="13">:</text><text x="501.114" y="530.824" fill="#0F172A" font-size="13"> </text><text x="504.026" y="530.824" fill="#0F172A" font-size="13" textLength="41.561">Notion</text><text x="545.587" y="530.824" fill="#0F172A" font-size="13"> </text><text x="548.499" y="530.824" fill="#0F172A" font-size="13" textLength="26.39">Q&amp;A</text><text x="574.889" y="530.824" fill="#0F172A" font-size="13"> </text><text x="577.801" y="530.824" fill="#0F172A" font-size="13">検</text><text x="590.801" y="530.824" fill="#0F172A" font-size="13">証</text><text x="603.801" y="530.824" fill="#0F172A" font-size="13">ペ</text><text x="616.801" y="530.824" fill="#0F172A" font-size="13">ー</text><text x="629.801" y="530.824" fill="#0F172A" font-size="13">ジ</text><text x="642.801" y="530.824" fill="#0F172A" font-size="13">の</text><text x="655.801" y="530.824" fill="#0F172A" font-size="13">更</text><text x="668.801" y="530.824" fill="#0F172A" font-size="13">新</text><text x="471.5" y="549.648" fill="#0F172A" font-size="13" textLength="49.101">payload</text><text x="520.601" y="549.648" fill="#0F172A" font-size="13"> </text><text x="523.513" y="549.648" fill="#0F172A" font-size="13">を</text><text x="536.513" y="549.648" fill="#0F172A" font-size="13">組</text><text x="549.513" y="549.648" fill="#0F172A" font-size="13">み</text><text x="562.513" y="549.648" fill="#0F172A" font-size="13">立</text><text x="575.513" y="549.648" fill="#0F172A" font-size="13">て</text><text x="588.513" y="549.648" fill="#0F172A" font-size="13">る</text><text x="601.513" y="549.648" fill="#0F172A" font-size="13">。</text></g><!--entity F238--><g class="entity" data-qualified-name="F238" id="ent0010" data-source-line="14"><rect x="455" y="581.272" width="291.349" height="114.12" fill="#E0F2FE" style="stroke:#0369A1;stroke-width:0.5;" rx="4" ry="4"/><text x="568.968" y="606.352" fill="#0F172A" font-size="13" textLength="63.414" font-style="italic">«function»</text><text x="465" y="625.176" fill="#0F172A" font-size="13" textLength="30.615" font-weight="700">F238</text><text x="465" y="644" fill="#0F172A" font-size="13" textLength="271.349" font-weight="700">e2e_notion_probe._find_page_by_marker</text><text x="465" y="662.824" fill="#0F172A" font-size="13">役</text><text x="478" y="662.824" fill="#0F172A" font-size="13">割</text><text x="491" y="662.824" fill="#0F172A" font-size="13">:</text><text x="494.614" y="662.824" fill="#0F172A" font-size="13"> </text><text x="497.526" y="662.824" fill="#0F172A" font-size="13">指</text><text x="510.526" y="662.824" fill="#0F172A" font-size="13">定</text><text x="523.526" y="662.824" fill="#0F172A" font-size="13">マ</text><text x="536.526" y="662.824" fill="#0F172A" font-size="13">ー</text><text x="549.526" y="662.824" fill="#0F172A" font-size="13">カ</text><text x="562.526" y="662.824" fill="#0F172A" font-size="13">ー</text><text x="575.526" y="662.824" fill="#0F172A" font-size="13">の</text><text x="588.526" y="662.824" fill="#0F172A" font-size="13"> </text><text x="591.438" y="662.824" fill="#0F172A" font-size="13" textLength="41.561">Notion</text><text x="632.999" y="662.824" fill="#0F172A" font-size="13"> </text><text x="635.911" y="662.824" fill="#0F172A" font-size="13" textLength="22.529">E2E</text><text x="658.44" y="662.824" fill="#0F172A" font-size="13"> </text><text x="661.352" y="662.824" fill="#0F172A" font-size="13">ペ</text><text x="674.352" y="662.824" fill="#0F172A" font-size="13">ー</text><text x="687.352" y="662.824" fill="#0F172A" font-size="13">ジ</text><text x="700.352" y="662.824" fill="#0F172A" font-size="13">を</text><text x="465" y="681.648" fill="#0F172A" font-size="13">検</text><text x="478" y="681.648" fill="#0F172A" font-size="13">索</text><text x="491" y="681.648" fill="#0F172A" font-size="13">す</text><text x="504" y="681.648" fill="#0F172A" font-size="13">る</text><text x="517" y="681.648" fill="#0F172A" font-size="13">。</text></g><!--entity F239--><g class="entity" data-qualified-name="F239" id="ent0012" data-source-line="16"><rect x="466" y="713.772" width="269.405" height="95.296" fill="#E0F2FE" style="stroke:#0369A1;stroke-width:0.5;" rx="4" ry="4"/><text x="568.996" y="738.852" fill="#0F172A" font-size="13" textLength="63.414" font-style="italic">«function»</text><text x="476" y="757.676" fill="#0F172A" font-size="13" textLength="30.615" font-weight="700">F239</text><text x="506.615" y="757.676" fill="#0F172A" font-size="13" font-weight="700"> </text><text x="509.566" y="757.676" fill="#0F172A" font-size="13" textLength="215.839" font-weight="700">e2e_notion_probe._archive_page</text><text x="476" y="776.5" fill="#0F172A" font-size="13">役</text><text x="489" y="776.5" fill="#0F172A" font-size="13">割</text><text x="502" y="776.5" fill="#0F172A" font-size="13">:</text><text x="505.614" y="776.5" fill="#0F172A" font-size="13"> </text><text x="508.526" y="776.5" fill="#0F172A" font-size="13" textLength="22.529">E2E</text><text x="531.055" y="776.5" fill="#0F172A" font-size="13"> </text><text x="533.967" y="776.5" fill="#0F172A" font-size="13">が</text><text x="546.967" y="776.5" fill="#0F172A" font-size="13">所</text><text x="559.967" y="776.5" fill="#0F172A" font-size="13">有</text><text x="572.967" y="776.5" fill="#0F172A" font-size="13">す</text><text x="585.967" y="776.5" fill="#0F172A" font-size="13">る</text><text x="598.967" y="776.5" fill="#0F172A" font-size="13"> </text><text x="601.879" y="776.5" fill="#0F172A" font-size="13" textLength="41.561">Notion</text><text x="643.44" y="776.5" fill="#0F172A" font-size="13"> </text><text x="646.352" y="776.5" fill="#0F172A" font-size="13">ペ</text><text x="659.352" y="776.5" fill="#0F172A" font-size="13">ー</text><text x="672.352" y="776.5" fill="#0F172A" font-size="13">ジ</text><text x="685.352" y="776.5" fill="#0F172A" font-size="13">を</text><text x="698.352" y="776.5" fill="#0F172A" font-size="13">ア</text><text x="711.352" y="776.5" fill="#0F172A" font-size="13">ー</text><text x="476" y="795.324" fill="#0F172A" font-size="13">カ</text><text x="489" y="795.324" fill="#0F172A" font-size="13">イ</text><text x="502" y="795.324" fill="#0F172A" font-size="13">ブ</text><text x="515" y="795.324" fill="#0F172A" font-size="13">す</text><text x="528" y="795.324" fill="#0F172A" font-size="13">る</text><text x="541" y="795.324" fill="#0F172A" font-size="13">。</text></g><!--entity F240--><g class="entity" data-qualified-name="F240" id="ent0014" data-source-line="18"><rect x="465" y="827.272" width="270.705" height="114.12" fill="#E0F2FE" style="stroke:#0369A1;stroke-width:0.5;" rx="4" ry="4"/><text x="568.646" y="852.352" fill="#0F172A" font-size="13" textLength="63.414" font-style="italic">«function»</text><text x="475" y="871.176" fill="#0F172A" font-size="13" textLength="30.615" font-weight="700">F240</text><text x="475" y="890" fill="#0F172A" font-size="13" textLength="250.705" font-weight="700">e2e_notion_probe._cleanup_resources</text><text x="475" y="908.824" fill="#0F172A" font-size="13">役</text><text x="488" y="908.824" fill="#0F172A" font-size="13">割</text><text x="501" y="908.824" fill="#0F172A" font-size="13">:</text><text x="504.614" y="908.824" fill="#0F172A" font-size="13"> </text><text x="507.526" y="908.824" fill="#0F172A" font-size="13" textLength="53.274">manifest</text><text x="560.8" y="908.824" fill="#0F172A" font-size="13"> </text><text x="563.712" y="908.824" fill="#0F172A" font-size="13">に</text><text x="576.712" y="908.824" fill="#0F172A" font-size="13">記</text><text x="589.712" y="908.824" fill="#0F172A" font-size="13">録</text><text x="602.712" y="908.824" fill="#0F172A" font-size="13">さ</text><text x="615.712" y="908.824" fill="#0F172A" font-size="13">れ</text><text x="628.712" y="908.824" fill="#0F172A" font-size="13">た</text><text x="641.712" y="908.824" fill="#0F172A" font-size="13"> </text><text x="644.624" y="908.824" fill="#0F172A" font-size="13" textLength="22.529">E2E</text><text x="667.153" y="908.824" fill="#0F172A" font-size="13"> </text><text x="670.065" y="908.824" fill="#0F172A" font-size="13">所</text><text x="683.065" y="908.824" fill="#0F172A" font-size="13">有</text><text x="696.065" y="908.824" fill="#0F172A" font-size="13">資</text><text x="709.065" y="908.824" fill="#0F172A" font-size="13">源</text><text x="475" y="927.648" fill="#0F172A" font-size="13">を</text><text x="488" y="927.648" fill="#0F172A" font-size="13">回</text><text x="501" y="927.648" fill="#0F172A" font-size="13">収</text><text x="514" y="927.648" fill="#0F172A" font-size="13">す</text><text x="527" y="927.648" fill="#0F172A" font-size="13">る</text><text x="540" y="927.648" fill="#0F172A" font-size="13">。</text></g><!--entity F241--><g class="entity" data-qualified-name="F241" id="ent0016" data-source-line="20"><rect x="464" y="959.272" width="272.902" height="114.12" fill="#E0F2FE" style="stroke:#0369A1;stroke-width:0.5;" rx="4" ry="4"/><text x="568.744" y="984.352" fill="#0F172A" font-size="13" textLength="63.414" font-style="italic">«function»</text><text x="474" y="1003.176" fill="#0F172A" font-size="13" textLength="30.615" font-weight="700">F241</text><text x="474" y="1022" fill="#0F172A" font-size="13" textLength="252.902" font-weight="700">e2e_notion_probe._target_fingerprints</text><text x="474" y="1040.824" fill="#0F172A" font-size="13">役</text><text x="487" y="1040.824" fill="#0F172A" font-size="13">割</text><text x="500" y="1040.824" fill="#0F172A" font-size="13">:</text><text x="503.614" y="1040.824" fill="#0F172A" font-size="13"> </text><text x="506.526" y="1040.824" fill="#0F172A" font-size="13">操</text><text x="519.526" y="1040.824" fill="#0F172A" font-size="13">作</text><text x="532.526" y="1040.824" fill="#0F172A" font-size="13">対</text><text x="545.526" y="1040.824" fill="#0F172A" font-size="13">象</text><text x="558.526" y="1040.824" fill="#0F172A" font-size="13"> </text><text x="561.438" y="1040.824" fill="#0F172A" font-size="13" textLength="12.753">ID</text><text x="574.191" y="1040.824" fill="#0F172A" font-size="13"> </text><text x="577.103" y="1040.824" fill="#0F172A" font-size="13">を</text><text x="590.103" y="1040.824" fill="#0F172A" font-size="13">値</text><text x="603.103" y="1040.824" fill="#0F172A" font-size="13">そ</text><text x="616.103" y="1040.824" fill="#0F172A" font-size="13">の</text><text x="629.103" y="1040.824" fill="#0F172A" font-size="13">も</text><text x="642.103" y="1040.824" fill="#0F172A" font-size="13">の</text><text x="655.103" y="1040.824" fill="#0F172A" font-size="13">で</text><text x="668.103" y="1040.824" fill="#0F172A" font-size="13">は</text><text x="681.103" y="1040.824" fill="#0F172A" font-size="13">な</text><text x="694.103" y="1040.824" fill="#0F172A" font-size="13">く</text><text x="474" y="1059.648" fill="#0F172A" font-size="13" textLength="51.272">SHA-256</text><text x="525.272" y="1059.648" fill="#0F172A" font-size="13"> </text><text x="528.184" y="1059.648" fill="#0F172A" font-size="13">指</text><text x="541.184" y="1059.648" fill="#0F172A" font-size="13">紋</text><text x="554.184" y="1059.648" fill="#0F172A" font-size="13">へ</text><text x="567.184" y="1059.648" fill="#0F172A" font-size="13">変</text><text x="580.184" y="1059.648" fill="#0F172A" font-size="13">換</text><text x="593.184" y="1059.648" fill="#0F172A" font-size="13">す</text><text x="606.184" y="1059.648" fill="#0F172A" font-size="13">る</text><text x="619.184" y="1059.648" fill="#0F172A" font-size="13">。</text></g><!--entity F242--><g class="entity" data-qualified-name="F242" id="ent0018" data-source-line="22"><rect x="467" y="1091.272" width="267.065" height="114.12" fill="#E0F2FE" style="stroke:#0369A1;stroke-width:0.5;" rx="4" ry="4"/><text x="568.826" y="1116.352" fill="#0F172A" font-size="13" textLength="63.414" font-style="italic">«function»</text><text x="477" y="1135.176" fill="#0F172A" font-size="13" textLength="30.615" font-weight="700">F242</text><text x="477" y="1154" fill="#0F172A" font-size="13" textLength="228.267" font-weight="700">e2e_notion_probe._clean_manifest</text><text x="477" y="1172.824" fill="#0F172A" font-size="13">役</text><text x="490" y="1172.824" fill="#0F172A" font-size="13">割</text><text x="503" y="1172.824" fill="#0F172A" font-size="13">:</text><text x="506.614" y="1172.824" fill="#0F172A" font-size="13"> </text><text x="509.526" y="1172.824" fill="#0F172A" font-size="13">成</text><text x="522.526" y="1172.824" fill="#0F172A" font-size="13">功</text><text x="535.526" y="1172.824" fill="#0F172A" font-size="13">済</text><text x="548.526" y="1172.824" fill="#0F172A" font-size="13">み</text><text x="561.526" y="1172.824" fill="#0F172A" font-size="13"> </text><text x="564.438" y="1172.824" fill="#0F172A" font-size="13" textLength="22.529">E2E</text><text x="586.967" y="1172.824" fill="#0F172A" font-size="13"> </text><text x="589.879" y="1172.824" fill="#0F172A" font-size="13" textLength="53.274">manifest</text><text x="643.153" y="1172.824" fill="#0F172A" font-size="13"> </text><text x="646.065" y="1172.824" fill="#0F172A" font-size="13">を</text><text x="659.065" y="1172.824" fill="#0F172A" font-size="13">秘</text><text x="672.065" y="1172.824" fill="#0F172A" font-size="13">密</text><text x="685.065" y="1172.824" fill="#0F172A" font-size="13">値</text><text x="698.065" y="1172.824" fill="#0F172A" font-size="13">の</text><text x="711.065" y="1172.824" fill="#0F172A" font-size="13">な</text><text x="477" y="1191.648" fill="#0F172A" font-size="13">い</text><text x="490" y="1191.648" fill="#0F172A" font-size="13">確</text><text x="503" y="1191.648" fill="#0F172A" font-size="13">定</text><text x="516" y="1191.648" fill="#0F172A" font-size="13">状</text><text x="529" y="1191.648" fill="#0F172A" font-size="13">態</text><text x="542" y="1191.648" fill="#0F172A" font-size="13">へ</text><text x="555" y="1191.648" fill="#0F172A" font-size="13">整</text><text x="568" y="1191.648" fill="#0F172A" font-size="13">形</text><text x="581" y="1191.648" fill="#0F172A" font-size="13">す</text><text x="594" y="1191.648" fill="#0F172A" font-size="13">る</text><text x="607" y="1191.648" fill="#0F172A" font-size="13">。</text></g><!--entity F243--><g class="entity" data-qualified-name="F243" id="ent0020" data-source-line="24"><rect x="452.5" y="1223.772" width="296.25" height="132.944" fill="#E0F2FE" style="stroke:#0369A1;stroke-width:0.5;" rx="4" ry="4"/><text x="568.918" y="1248.852" fill="#0F172A" font-size="13" textLength="63.414" font-style="italic">«function»</text><text x="462.5" y="1267.676" fill="#0F172A" font-size="13" textLength="30.615" font-weight="700">F243</text><text x="462.5" y="1286.5" fill="#0F172A" font-size="13" textLength="276.25" font-weight="700">e2e_notion_probe.run_notion_crud_probe</text><text x="462.5" y="1305.324" fill="#0F172A" font-size="13">役</text><text x="475.5" y="1305.324" fill="#0F172A" font-size="13">割</text><text x="488.5" y="1305.324" fill="#0F172A" font-size="13">:</text><text x="492.114" y="1305.324" fill="#0F172A" font-size="13"> </text><text x="495.026" y="1305.324" fill="#0F172A" font-size="13" textLength="41.561">Notion</text><text x="536.587" y="1305.324" fill="#0F172A" font-size="13"> </text><text x="539.499" y="1305.324" fill="#0F172A" font-size="13">の</text><text x="552.499" y="1305.324" fill="#0F172A" font-size="13">作</text><text x="565.499" y="1305.324" fill="#0F172A" font-size="13">成</text><text x="578.499" y="1305.324" fill="#0F172A" font-size="13">・</text><text x="591.499" y="1305.324" fill="#0F172A" font-size="13">検</text><text x="604.499" y="1305.324" fill="#0F172A" font-size="13">証</text><text x="617.499" y="1305.324" fill="#0F172A" font-size="13">・</text><text x="630.499" y="1305.324" fill="#0F172A" font-size="13">更</text><text x="643.499" y="1305.324" fill="#0F172A" font-size="13">新</text><text x="656.499" y="1305.324" fill="#0F172A" font-size="13">・</text><text x="669.499" y="1305.324" fill="#0F172A" font-size="13">ア</text><text x="682.499" y="1305.324" fill="#0F172A" font-size="13">ー</text><text x="695.499" y="1305.324" fill="#0F172A" font-size="13">カ</text><text x="708.499" y="1305.324" fill="#0F172A" font-size="13">イ</text><text x="462.5" y="1324.148" fill="#0F172A" font-size="13">ブ</text><text x="475.5" y="1324.148" fill="#0F172A" font-size="13">を</text><text x="488.5" y="1324.148" fill="#0F172A" font-size="13">実</text><text x="501.5" y="1324.148" fill="#0F172A" font-size="13">行</text><text x="514.5" y="1324.148" fill="#0F172A" font-size="13">し</text><text x="527.5" y="1324.148" fill="#0F172A" font-size="13">、</text><text x="540.5" y="1324.148" fill="#0F172A" font-size="13" textLength="48.724">cleanup</text><text x="589.224" y="1324.148" fill="#0F172A" font-size="13"> </text><text x="592.136" y="1324.148" fill="#0F172A" font-size="13" textLength="53.274">manifest</text><text x="645.41" y="1324.148" fill="#0F172A" font-size="13"> </text><text x="648.322" y="1324.148" fill="#0F172A" font-size="13">と</text><text x="661.322" y="1324.148" fill="#0F172A" font-size="13">段</text><text x="674.322" y="1324.148" fill="#0F172A" font-size="13">階</text><text x="687.322" y="1324.148" fill="#0F172A" font-size="13">結</text><text x="700.322" y="1324.148" fill="#0F172A" font-size="13">果</text><text x="462.5" y="1342.972" fill="#0F172A" font-size="13">を</text><text x="475.5" y="1342.972" fill="#0F172A" font-size="13">返</text><text x="488.5" y="1342.972" fill="#0F172A" font-size="13">す</text><text x="501.5" y="1342.972" fill="#0F172A" font-size="13">。</text></g><!--entity F244--><g class="entity" data-qualified-name="F244" id="ent0022" data-source-line="26"><rect x="438" y="1375.272" width="325.136" height="114.12" fill="#E0F2FE" style="stroke:#0369A1;stroke-width:0.5;" rx="4" ry="4"/><text x="568.861" y="1400.352" fill="#0F172A" font-size="13" textLength="63.414" font-style="italic">«function»</text><text x="448" y="1419.176" fill="#0F172A" font-size="13" textLength="30.615" font-weight="700">F244</text><text x="448" y="1438" fill="#0F172A" font-size="13" textLength="305.136" font-weight="700">e2e_notion_probe.cleanup_notion_crud_probe</text><text x="448" y="1456.824" fill="#0F172A" font-size="13">役</text><text x="461" y="1456.824" fill="#0F172A" font-size="13">割</text><text x="474" y="1456.824" fill="#0F172A" font-size="13">:</text><text x="477.614" y="1456.824" fill="#0F172A" font-size="13"> </text><text x="480.526" y="1456.824" fill="#0F172A" font-size="13" textLength="41.561">Notion</text><text x="522.087" y="1456.824" fill="#0F172A" font-size="13"> </text><text x="524.999" y="1456.824" fill="#0F172A" font-size="13" textLength="22.529">E2E</text><text x="547.528" y="1456.824" fill="#0F172A" font-size="13"> </text><text x="550.44" y="1456.824" fill="#0F172A" font-size="13" textLength="53.274">manifest</text><text x="603.714" y="1456.824" fill="#0F172A" font-size="13"> </text><text x="606.626" y="1456.824" fill="#0F172A" font-size="13">が</text><text x="619.626" y="1456.824" fill="#0F172A" font-size="13">所</text><text x="632.626" y="1456.824" fill="#0F172A" font-size="13">有</text><text x="645.626" y="1456.824" fill="#0F172A" font-size="13">す</text><text x="658.626" y="1456.824" fill="#0F172A" font-size="13">る</text><text x="671.626" y="1456.824" fill="#0F172A" font-size="13">残</text><text x="684.626" y="1456.824" fill="#0F172A" font-size="13">存</text><text x="448" y="1475.648" fill="#0F172A" font-size="13">ペ</text><text x="461" y="1475.648" fill="#0F172A" font-size="13">ー</text><text x="474" y="1475.648" fill="#0F172A" font-size="13">ジ</text><text x="487" y="1475.648" fill="#0F172A" font-size="13">を</text><text x="500" y="1475.648" fill="#0F172A" font-size="13">回</text><text x="513" y="1475.648" fill="#0F172A" font-size="13">収</text><text x="526" y="1475.648" fill="#0F172A" font-size="13">す</text><text x="539" y="1475.648" fill="#0F172A" font-size="13">る</text><text x="552" y="1475.648" fill="#0F172A" font-size="13">。</text></g><g class="link" data-entity-1="ent0001" data-entity-2="ent0002" id="lnk3" data-link-type="dependency"><polygon points="453.945,167.012,444.13,167.829,449.56,169.415,447.974,174.845,453.945,167.012" fill="#64748B" style="stroke:#64748B;stroke-width:1;stroke-linejoin:miter;stroke-miterlimit:10;"/><path d="M153.941,713.571 C169.551,624.758 212.061,430.703 303,294.272 C347.199,227.963 370.193,218.137 438,176.272 C443.155,173.089 444.104,172.404 449.56,169.415" style="stroke:#64748B;stroke-width:1;" fill="none"/><text x="305" y="183.352" fill="#334155" font-size="13" textLength="45.305">[E1296]</text><text x="350.305" y="183.352" fill="#334155" font-size="13"> </text><text x="353.217" y="183.352" fill="#334155" font-size="13">関</text><text x="366.217" y="183.352" fill="#334155" font-size="13">数</text><text x="379.217" y="183.352" fill="#334155" font-size="13">を</text><text x="392.217" y="183.352" fill="#334155" font-size="13">定</text><text x="405.217" y="183.352" fill="#334155" font-size="13">義</text></g><g class="link" data-entity-1="ent0001" data-entity-2="ent0004" id="lnk5" data-link-type="dependency"><polygon points="453.111,299.435,443.299,300.289,448.735,301.854,447.17,307.29,453.111,299.435" fill="#64748B" style="stroke:#64748B;stroke-width:1;stroke-linejoin:miter;stroke-miterlimit:10;"/><path d="M161.799,713.692 C185.128,645.74 234.249,518.989 303,427.272 C350.973,363.273 370.032,350.433 438,308.272 C442.89,305.238 443.569,304.711 448.735,301.854" style="stroke:#64748B;stroke-width:1;" fill="none"/><text x="305" y="315.352" fill="#334155" font-size="13" textLength="45.305">[E1297]</text><text x="350.305" y="315.352" fill="#334155" font-size="13"> </text><text x="353.217" y="315.352" fill="#334155" font-size="13">関</text><text x="366.217" y="315.352" fill="#334155" font-size="13">数</text><text x="379.217" y="315.352" fill="#334155" font-size="13">を</text><text x="392.217" y="315.352" fill="#334155" font-size="13">定</text><text x="405.217" y="315.352" fill="#334155" font-size="13">義</text></g><g class="link" data-entity-1="ent0001" data-entity-2="ent0006" id="lnk7" data-link-type="dependency"><polygon points="463.833,425.661,454.002,426.241,459.392,427.957,457.675,433.348,463.833,425.661" fill="#64748B" style="stroke:#64748B;stroke-width:1;stroke-linejoin:miter;stroke-miterlimit:10;"/><path d="M176.927,713.608 C224.255,643.324 322.203,512.436 438,440.272 C446.226,435.146 450.477,432.566 459.392,427.957" style="stroke:#64748B;stroke-width:1;" fill="none"/><text x="305" y="448.352" fill="#334155" font-size="13" textLength="45.305">[E1298]</text><text x="350.305" y="448.352" fill="#334155" font-size="13"> </text><text x="353.217" y="448.352" fill="#334155" font-size="13">関</text><text x="366.217" y="448.352" fill="#334155" font-size="13">数</text><text x="379.217" y="448.352" fill="#334155" font-size="13">を</text><text x="392.217" y="448.352" fill="#334155" font-size="13">定</text><text x="405.217" y="448.352" fill="#334155" font-size="13">義</text></g><g class="link" data-entity-1="ent0001" data-entity-2="ent0008" id="lnk9" data-link-type="dependency"><polygon points="461.26,560.728,451.413,560.962,456.74,562.867,454.835,568.193,461.26,560.728" fill="#64748B" style="stroke:#64748B;stroke-width:1;stroke-linejoin:miter;stroke-miterlimit:10;"/><path d="M212.08,713.662 C269.795,673.018 357.017,614.596 438,572.272 C445.516,568.344 448.801,566.624 456.74,562.867" style="stroke:#64748B;stroke-width:1;" fill="none"/><text x="305" y="581.352" fill="#334155" font-size="13" textLength="45.305">[E1299]</text><text x="350.305" y="581.352" fill="#334155" font-size="13"> </text><text x="353.217" y="581.352" fill="#334155" font-size="13">関</text><text x="366.217" y="581.352" fill="#334155" font-size="13">数</text><text x="379.217" y="581.352" fill="#334155" font-size="13">を</text><text x="392.217" y="581.352" fill="#334155" font-size="13">定</text><text x="405.217" y="581.352" fill="#334155" font-size="13">義</text></g><g class="link" data-entity-1="ent0001" data-entity-2="ent0010" id="lnk11" data-link-type="dependency"><polygon points="454.704,677.587,444.971,676.085,449.879,678.898,447.067,683.806,454.704,677.587" fill="#64748B" style="stroke:#64748B;stroke-width:1;stroke-linejoin:miter;stroke-miterlimit:10;"/><path d="M285.185,723.616 C338.903,709.03 395.594,693.637 449.879,678.898" style="stroke:#64748B;stroke-width:1;" fill="none"/><text x="305" y="684.352" fill="#334155" font-size="13" textLength="45.305">[E1300]</text><text x="350.305" y="684.352" fill="#334155" font-size="13"> </text><text x="353.217" y="684.352" fill="#334155" font-size="13">関</text><text x="366.217" y="684.352" fill="#334155" font-size="13">数</text><text x="379.217" y="684.352" fill="#334155" font-size="13">を</text><text x="392.217" y="684.352" fill="#334155" font-size="13">定</text><text x="405.217" y="684.352" fill="#334155" font-size="13">義</text></g><g class="link" data-entity-1="ent0001" data-entity-2="ent0012" id="lnk13" data-link-type="dependency"><polygon points="465.641,761.272,456.641,757.272,460.641,761.272,456.641,765.272,465.641,761.272" fill="#64748B" style="stroke:#64748B;stroke-width:1;stroke-linejoin:miter;stroke-miterlimit:10;"/><path d="M285.185,761.272 C342.545,761.272 403.796,761.272 460.641,761.272" style="stroke:#64748B;stroke-width:1;" fill="none"/><text x="305" y="756.352" fill="#334155" font-size="13" textLength="45.305">[E1301]</text><text x="350.305" y="756.352" fill="#334155" font-size="13"> </text><text x="353.217" y="756.352" fill="#334155" font-size="13">関</text><text x="366.217" y="756.352" fill="#334155" font-size="13">数</text><text x="379.217" y="756.352" fill="#334155" font-size="13">を</text><text x="392.217" y="756.352" fill="#334155" font-size="13">定</text><text x="405.217" y="756.352" fill="#334155" font-size="13">義</text></g><g class="link" data-entity-1="ent0001" data-entity-2="ent0014" id="lnk15" data-link-type="dependency"><polygon points="464.867,847.716,457.23,841.497,460.042,846.406,455.133,849.218,464.867,847.716" fill="#64748B" style="stroke:#64748B;stroke-width:1;stroke-linejoin:miter;stroke-miterlimit:10;"/><path d="M285.185,798.928 C342.285,814.432 403.37,831.018 460.042,846.406" style="stroke:#64748B;stroke-width:1;" fill="none"/><text x="305" y="800.352" fill="#334155" font-size="13" textLength="45.305">[E1302]</text><text x="350.305" y="800.352" fill="#334155" font-size="13"> </text><text x="353.217" y="800.352" fill="#334155" font-size="13">関</text><text x="366.217" y="800.352" fill="#334155" font-size="13">数</text><text x="379.217" y="800.352" fill="#334155" font-size="13">を</text><text x="392.217" y="800.352" fill="#334155" font-size="13">定</text><text x="405.217" y="800.352" fill="#334155" font-size="13">義</text></g><g class="link" data-entity-1="ent0001" data-entity-2="ent0016" id="lnk17" data-link-type="dependency"><polygon points="463.816,963.02,457.365,955.578,459.289,960.897,453.969,962.821,463.816,963.02" fill="#64748B" style="stroke:#64748B;stroke-width:1;stroke-linejoin:miter;stroke-miterlimit:10;"/><path d="M212.08,808.882 C269.795,849.526 357.017,907.947 438,950.272 C446.322,954.621 450.469,956.762 459.289,960.897" style="stroke:#64748B;stroke-width:1;" fill="none"/><text x="305" y="868.352" fill="#334155" font-size="13" textLength="45.305">[E1303]</text><text x="350.305" y="868.352" fill="#334155" font-size="13"> </text><text x="353.217" y="868.352" fill="#334155" font-size="13">関</text><text x="366.217" y="868.352" fill="#334155" font-size="13">数</text><text x="379.217" y="868.352" fill="#334155" font-size="13">を</text><text x="392.217" y="868.352" fill="#334155" font-size="13">定</text><text x="405.217" y="868.352" fill="#334155" font-size="13">義</text></g><g class="link" data-entity-1="ent0001" data-entity-2="ent0018" id="lnk19" data-link-type="dependency"><polygon points="466.792,1098.343,460.571,1090.708,462.332,1096.084,456.956,1097.845,466.792,1098.343" fill="#64748B" style="stroke:#64748B;stroke-width:1;stroke-linejoin:miter;stroke-miterlimit:10;"/><path d="M176.889,808.998 C224.167,879.361 322.053,1010.349 438,1082.272 C447.137,1087.94 452.386,1091.046 462.332,1096.084" style="stroke:#64748B;stroke-width:1;" fill="none"/><text x="305" y="972.352" fill="#334155" font-size="13" textLength="45.305">[E1304]</text><text x="350.305" y="972.352" fill="#334155" font-size="13"> </text><text x="353.217" y="972.352" fill="#334155" font-size="13">関</text><text x="366.217" y="972.352" fill="#334155" font-size="13">数</text><text x="379.217" y="972.352" fill="#334155" font-size="13">を</text><text x="392.217" y="972.352" fill="#334155" font-size="13">定</text><text x="405.217" y="972.352" fill="#334155" font-size="13">義</text></g><g class="link" data-entity-1="ent0001" data-entity-2="ent0020" id="lnk21" data-link-type="dependency"><polygon points="452.78,1223.532,447.116,1215.475,448.491,1220.962,443.004,1222.338,452.78,1223.532" fill="#64748B" style="stroke:#64748B;stroke-width:1;stroke-linejoin:miter;stroke-miterlimit:10;"/><path d="M161.799,808.852 C185.128,876.803 234.249,1003.555 303,1095.272 C350.973,1159.27 371.149,1170.361 438,1214.272 C442.792,1217.419 443.445,1217.939 448.491,1220.962" style="stroke:#64748B;stroke-width:1;" fill="none"/><text x="305" y="1090.352" fill="#334155" font-size="13" textLength="45.305">[E1305]</text><text x="350.305" y="1090.352" fill="#334155" font-size="13"> </text><text x="353.217" y="1090.352" fill="#334155" font-size="13">関</text><text x="366.217" y="1090.352" fill="#334155" font-size="13">数</text><text x="379.217" y="1090.352" fill="#334155" font-size="13">を</text><text x="392.217" y="1090.352" fill="#334155" font-size="13">定</text><text x="405.217" y="1090.352" fill="#334155" font-size="13">義</text></g><g class="link" data-entity-1="ent0001" data-entity-2="ent0022" id="lnk23" data-link-type="dependency"><polygon points="451.999,1375.117,446.297,1367.086,447.698,1372.567,442.217,1373.968,451.999,1375.117" fill="#64748B" style="stroke:#64748B;stroke-width:1;stroke-linejoin:miter;stroke-miterlimit:10;"/><path d="M155.167,808.878 C172.682,896.689 218.049,1087.902 303,1227.272 C347.822,1300.807 366.631,1318.074 438,1366.272 C442.518,1369.323 442.899,1369.722 447.698,1372.567" style="stroke:#64748B;stroke-width:1;" fill="none"/><text x="305" y="1222.352" fill="#334155" font-size="13" textLength="45.305">[E1306]</text><text x="350.305" y="1222.352" fill="#334155" font-size="13"> </text><text x="353.217" y="1222.352" fill="#334155" font-size="13">関</text><text x="366.217" y="1222.352" fill="#334155" font-size="13">数</text><text x="379.217" y="1222.352" fill="#334155" font-size="13">を</text><text x="392.217" y="1222.352" fill="#334155" font-size="13">定</text><text x="405.217" y="1222.352" fill="#334155" font-size="13">義</text></g><g class="legend" data-source-line="28"><rect x="126.061" y="1511.272" width="519.878" height="115.36" fill="none" style="stroke:#000;stroke-width:1;" rx="4" ry="4"/><text x="134.239" y="1534.512" fill="#0F172A" font-size="14" textLength="28" font-weight="700">表記</text><text x="196.511" y="1534.512" fill="#0F172A" font-size="14" textLength="28" font-weight="700">意味</text><text x="134.197" y="1554.784" fill="#0F172A" font-size="14" textLength="56">青の実線</text><text x="196.469" y="1554.784" fill="#0F172A" font-size="14" textLength="125.999">入力または内部依存</text><text x="134.197" y="1575.056" fill="#0F172A" font-size="14" textLength="56">緑の実線</text><text x="196.469" y="1575.056" fill="#0F172A" font-size="14" textLength="125.999">出力または処理結果</text><text x="134.197" y="1595.328" fill="#0F172A" font-size="14" textLength="56">橙の破線</text><text x="196.469" y="1595.328" fill="#0F172A" font-size="14" textLength="84">実行時未確認</text><text x="134.197" y="1615.599" fill="#0F172A" font-size="14" textLength="28">補足</text><text x="196.469" y="1615.599" fill="#0F172A" font-size="14" textLength="441.334">各 ID は architecture-index.json と architecture-catalog.md に対応。</text><line x1="131.061" y1="1518.272" x2="640.939" y2="1518.272" style="stroke:#0F172A;stroke-width:1;"/><line x1="131.061" y1="1538.544" x2="640.939" y2="1538.544" style="stroke:#0F172A;stroke-width:1;"/><line x1="131.061" y1="1558.816" x2="640.939" y2="1558.816" style="stroke:#0F172A;stroke-width:1;"/><line x1="131.061" y1="1579.088" x2="640.939" y2="1579.088" style="stroke:#0F172A;stroke-width:1;"/><line x1="131.061" y1="1599.36" x2="640.939" y2="1599.36" style="stroke:#0F172A;stroke-width:1;"/><line x1="131.061" y1="1619.631" x2="640.939" y2="1619.631" style="stroke:#0F172A;stroke-width:1;"/><line x1="131.061" y1="1518.272" x2="131.061" y2="1619.631" style="stroke:#0F172A;stroke-width:1;"/><line x1="193.333" y1="1518.272" x2="193.333" y2="1619.631" style="stroke:#0F172A;stroke-width:1;"/><line x1="640.939" y1="1518.272" x2="640.939" y2="1619.631" style="stroke:#0F172A;stroke-width:1;"/></g><?plantuml-src fTPRKzj6503WT_-AJJhJDuplnXdgcNHAfttfjDE7FgGPZMmlngqikRAKAJDvi6Hk1X8S2XICWUBInC3Kq60IIWFybsoqalz5TtK928j1JLyynkngpxTdpz7UAV1PJiv140mECkKnLeIvmR8qpi5WIIvo0QaWSH3020Iy81K47eIYu6rb2Q3gDbBFKBMAgZLK_QUtqiBBXyRkaTuz3DmfYMo-o0AE7HTa2PIBK69vDi31KGb80X0B-J49v0eYpD8d1h92iIJma9V0tU5C-kjG94JNOwprc98ePE3mO2RzFQ-T_QtLNju3lSPIRxs5b6MapYDb2un4Hi1tWlWZ505Ivf1Q0rzPiIAby-wiYMVg94AyqpJQR-YNzIvUEIHVaDf2rJT8tKVg3ggk8AMDEtFQdwl6qJG-hPEvslgcjl0KgOjQPylO9akj8NKELTIxW2q36cU04bW-JtQ8Xlvv91hh2pt8m4V4ncH5o4gGAR7ZdC3ct20xN7CWS09jcC6Tl3S0UoeW0Ud74qYvqFVdaFByIanc0CF3ep9lxcmw7J1tS-31HubOCZRqwSE1j3Nc7dWm4ewa4W-1bJZJsD3FT_j5yHj5SYdteI8h1_v4SH-Yk2DA-X0bF4G_iNuIzCt7z_zdUX8-C0a7C-G3a_J6-CYDD-Q_P2Rf0vDqC2aVc24Fp6Y1pn577ZAPSQR8qYftS_3yD7aUgcxQnKm-bOw3fAtXagSk4h3URRahsLpuTicG9Oc6GZuaAGy9AsR72e-WYN4Jp2YLULohu6RD2kvz2xiIV5_3kgP8-L2a74NuTaKivA78Sf3bvH8Zmh8WYrbOTbEAB5yOXMM9UFQDzcfl_gMxJrj6kyMIbQqMUqr25hvLGiROaeWFITX38h5Y7ahqWEMXM18Bl7JDWdzvGcfREpWt_je6Ntv6Yq6hx21bWnmmfAhqKtc1b0Eax25b0NpxnVs1I3n13wJU9TLoektKyC9w7oxi0nTsS54VkCXDQMASR5nppTIrsIryCaFgsapAPT98kRzOrGwcJ6V7X4tehLEwykmhF4bLUBchdVML40dYTbN4KSLygABzAb7cdH-oefppkXjyq9l_yWt_AweezWc_UfJ9pU2urtYg7zVnPfCCDowMw0PSwgC-z5577_UXzxX8E9NdRmVSUNKt5-kUSxMrt527FcuJiPZ3yhXDS30F-Hp8298a50C0FFu46DjjqXVeDpone3qx0e_fxw2tiKXlN9qj_NM3_AbD_g7Daj8v9ts3L9WsDTchjj-TRv2mxGdwwsUk2TEdhWdJp_Nwb9KlUmBUNICJzD-wzWGputXDnSqzSiADlIVsEEFtfl7gY8weJvXLhnm0itLB94Uo20V82md-7FoXR1wpjlj_MLPYEI4VBEPe0oIjGxjealqaZoRxOEt6lm00?></g></svg>