<svg xmlns="http://www.w3.org/2000/svg" xmlns:xlink="http://www.w3.org/1999/xlink" version="1.1" data-diagram-type="DESCRIPTION" style="width:779px;height:1495px;background:#FFFFFF;" width="779px" height="1495px" viewBox="0 0 779 1495" zoomAndPan="magnify" preserveAspectRatio="none" contentStyleType="text/css"><?plantuml 1.2026.7?><defs/><g font-family="sans-serif" lengthAdjust="spacing"><g class="title" data-source-line="2"><text x="264.033" y="26.24" fill="#0F172A" font-size="14" textLength="243.935" font-weight="700">e2e discord 03 — メソッド・関数詳細</text></g><!--entity P017--><g class="entity" data-qualified-name="P017" id="ent0001" data-source-line="5"><rect x="6" y="620.272" width="267.676" height="95.296" fill="#E0F2FE" style="stroke:#0369A1;stroke-width:0.5;" rx="4" ry="4"/><text x="16" y="645.352" fill="#0F172A" font-size="13" textLength="31.681" font-weight="700">P017</text><text x="47.681" y="645.352" fill="#0F172A" font-size="13" font-weight="700"> </text><text x="50.632" y="645.352" fill="#0F172A" font-size="13" textLength="123.409" font-weight="700">e2e_discord_probe</text><text x="16" y="664.176" fill="#0F172A" font-size="13">役</text><text x="29" y="664.176" fill="#0F172A" font-size="13">割</text><text x="42" y="664.176" fill="#0F172A" font-size="13">:</text><text x="45.614" y="664.176" fill="#0F172A" font-size="13"> </text><text x="48.526" y="664.176" fill="#0F172A" font-size="13">隔</text><text x="61.526" y="664.176" fill="#0F172A" font-size="13">離</text><text x="74.526" y="664.176" fill="#0F172A" font-size="13">さ</text><text x="87.526" y="664.176" fill="#0F172A" font-size="13">れ</text><text x="100.526" y="664.176" fill="#0F172A" font-size="13">た</text><text x="113.526" y="664.176" fill="#0F172A" font-size="13"> </text><text x="116.438" y="664.176" fill="#0F172A" font-size="13" textLength="22.529">E2E</text><text x="138.967" y="664.176" fill="#0F172A" font-size="13"> </text><text x="141.879" y="664.176" fill="#0F172A" font-size="13" textLength="43.758">Worker</text><text x="185.637" y="664.176" fill="#0F172A" font-size="13"> </text><text x="188.549" y="664.176" fill="#0F172A" font-size="13">か</text><text x="201.549" y="664.176" fill="#0F172A" font-size="13">ら</text><text x="214.549" y="664.176" fill="#0F172A" font-size="13"> </text><text x="217.461" y="664.176" fill="#0F172A" font-size="13" textLength="46.215">Discord</text><text x="16" y="683" fill="#0F172A" font-size="13">の</text><text x="29" y="683" fill="#0F172A" font-size="13">作</text><text x="42" y="683" fill="#0F172A" font-size="13">成</text><text x="55" y="683" fill="#0F172A" font-size="13">・</text><text x="68" y="683" fill="#0F172A" font-size="13">検</text><text x="81" y="683" fill="#0F172A" font-size="13">証</text><text x="94" y="683" fill="#0F172A" font-size="13">・</text><text x="107" y="683" fill="#0F172A" font-size="13">更</text><text x="120" y="683" fill="#0F172A" font-size="13">新</text><text x="133" y="683" fill="#0F172A" font-size="13">・</text><text x="146" y="683" fill="#0F172A" font-size="13">削</text><text x="159" y="683" fill="#0F172A" font-size="13">除</text><text x="172" y="683" fill="#0F172A" font-size="13">と</text><text x="185" y="683" fill="#0F172A" font-size="13">残</text><text x="198" y="683" fill="#0F172A" font-size="13">存</text><text x="211" y="683" fill="#0F172A" font-size="13">資</text><text x="224" y="683" fill="#0F172A" font-size="13">源</text><text x="237" y="683" fill="#0F172A" font-size="13">の</text><text x="250" y="683" fill="#0F172A" font-size="13">回</text><text x="16" y="701.824" fill="#0F172A" font-size="13">収</text><text x="29" y="701.824" fill="#0F172A" font-size="13">を</text><text x="42" y="701.824" fill="#0F172A" font-size="13">実</text><text x="55" y="701.824" fill="#0F172A" font-size="13">行</text><text x="68" y="701.824" fill="#0F172A" font-size="13">す</text><text x="81" y="701.824" fill="#0F172A" font-size="13">る</text><text x="94" y="701.824" fill="#0F172A" font-size="13">。</text></g><!--entity F177--><g class="entity" data-qualified-name="F177" id="ent0002" data-source-line="6"><rect x="455.5" y="53.272" width="278.947" height="95.296" fill="#E0F2FE" style="stroke:#0369A1;stroke-width:0.5;" rx="4" ry="4"/><text x="563.267" y="78.352" fill="#0F172A" font-size="13" textLength="63.414" font-style="italic">«function»</text><text x="465.5" y="97.176" fill="#0F172A" font-size="13" textLength="30.615" font-weight="700">F177</text><text x="496.115" y="97.176" fill="#0F172A" font-size="13" font-weight="700"> </text><text x="499.066" y="97.176" fill="#0F172A" font-size="13" textLength="225.381" font-weight="700">e2e_discord_probe._verify_targets</text><text x="465.5" y="116" fill="#0F172A" font-size="13">役</text><text x="478.5" y="116" fill="#0F172A" font-size="13">割</text><text x="491.5" y="116" fill="#0F172A" font-size="13">:</text><text x="495.114" y="116" fill="#0F172A" font-size="13"> </text><text x="498.026" y="116" fill="#0F172A" font-size="13" textLength="22.529">E2E</text><text x="520.555" y="116" fill="#0F172A" font-size="13"> </text><text x="523.467" y="116" fill="#0F172A" font-size="13">操</text><text x="536.467" y="116" fill="#0F172A" font-size="13">作</text><text x="549.467" y="116" fill="#0F172A" font-size="13">対</text><text x="562.467" y="116" fill="#0F172A" font-size="13">象</text><text x="575.467" y="116" fill="#0F172A" font-size="13">の</text><text x="588.467" y="116" fill="#0F172A" font-size="13">設</text><text x="601.467" y="116" fill="#0F172A" font-size="13">定</text><text x="614.467" y="116" fill="#0F172A" font-size="13">値</text><text x="627.467" y="116" fill="#0F172A" font-size="13">を</text><text x="640.467" y="116" fill="#0F172A" font-size="13">検</text><text x="653.467" y="116" fill="#0F172A" font-size="13">査</text><text x="666.467" y="116" fill="#0F172A" font-size="13">し</text><text x="679.467" y="116" fill="#0F172A" font-size="13">、</text><text x="692.467" y="116" fill="#0F172A" font-size="13">安</text><text x="705.467" y="116" fill="#0F172A" font-size="13">全</text><text x="465.5" y="134.824" fill="#0F172A" font-size="13">な</text><text x="478.5" y="134.824" fill="#0F172A" font-size="13">識</text><text x="491.5" y="134.824" fill="#0F172A" font-size="13">別</text><text x="504.5" y="134.824" fill="#0F172A" font-size="13">指</text><text x="517.5" y="134.824" fill="#0F172A" font-size="13">紋</text><text x="530.5" y="134.824" fill="#0F172A" font-size="13">を</text><text x="543.5" y="134.824" fill="#0F172A" font-size="13">返</text><text x="556.5" y="134.824" fill="#0F172A" font-size="13">す</text><text x="569.5" y="134.824" fill="#0F172A" font-size="13">。</text></g><!--entity F178--><g class="entity" data-qualified-name="F178" id="ent0004" data-source-line="8"><rect x="455.5" y="166.772" width="279.233" height="114.12" fill="#E0F2FE" style="stroke:#0369A1;stroke-width:0.5;" rx="4" ry="4"/><text x="563.41" y="191.852" fill="#0F172A" font-size="13" textLength="63.414" font-style="italic">«function»</text><text x="465.5" y="210.676" fill="#0F172A" font-size="13" textLength="30.615" font-weight="700">F178</text><text x="465.5" y="229.5" fill="#0F172A" font-size="13" textLength="257.127" font-weight="700">e2e_discord_probe._find_event_by_run</text><text x="465.5" y="248.324" fill="#0F172A" font-size="13">役</text><text x="478.5" y="248.324" fill="#0F172A" font-size="13">割</text><text x="491.5" y="248.324" fill="#0F172A" font-size="13">:</text><text x="495.114" y="248.324" fill="#0F172A" font-size="13"> </text><text x="498.026" y="248.324" fill="#0F172A" font-size="13">指</text><text x="511.026" y="248.324" fill="#0F172A" font-size="13">定</text><text x="524.026" y="248.324" fill="#0F172A" font-size="13"> </text><text x="526.938" y="248.324" fill="#0F172A" font-size="13" textLength="20.865">run</text><text x="547.803" y="248.324" fill="#0F172A" font-size="13"> </text><text x="550.715" y="248.324" fill="#0F172A" font-size="13" textLength="12.753">ID</text><text x="563.468" y="248.324" fill="#0F172A" font-size="13"> </text><text x="566.38" y="248.324" fill="#0F172A" font-size="13">の</text><text x="579.38" y="248.324" fill="#0F172A" font-size="13"> </text><text x="582.292" y="248.324" fill="#0F172A" font-size="13" textLength="22.529">E2E</text><text x="604.821" y="248.324" fill="#0F172A" font-size="13"> </text><text x="607.733" y="248.324" fill="#0F172A" font-size="13">イ</text><text x="620.733" y="248.324" fill="#0F172A" font-size="13">ベ</text><text x="633.733" y="248.324" fill="#0F172A" font-size="13">ン</text><text x="646.733" y="248.324" fill="#0F172A" font-size="13">ト</text><text x="659.733" y="248.324" fill="#0F172A" font-size="13">を</text><text x="672.733" y="248.324" fill="#0F172A" font-size="13">検</text><text x="685.733" y="248.324" fill="#0F172A" font-size="13">索</text><text x="698.733" y="248.324" fill="#0F172A" font-size="13">す</text><text x="711.733" y="248.324" fill="#0F172A" font-size="13">る</text><text x="465.5" y="267.148" fill="#0F172A" font-size="13">。</text></g><!--entity F179--><g class="entity" data-qualified-name="F179" id="ent0006" data-source-line="10"><rect x="446.5" y="298.772" width="296.679" height="114.12" fill="#E0F2FE" style="stroke:#0369A1;stroke-width:0.5;" rx="4" ry="4"/><text x="563.133" y="323.852" fill="#0F172A" font-size="13" textLength="63.414" font-style="italic">«function»</text><text x="456.5" y="342.676" fill="#0F172A" font-size="13" textLength="30.615" font-weight="700">F179</text><text x="456.5" y="361.5" fill="#0F172A" font-size="13" textLength="276.679" font-weight="700">e2e_discord_probe._find_message_by_run</text><text x="456.5" y="380.324" fill="#0F172A" font-size="13">役</text><text x="469.5" y="380.324" fill="#0F172A" font-size="13">割</text><text x="482.5" y="380.324" fill="#0F172A" font-size="13">:</text><text x="486.114" y="380.324" fill="#0F172A" font-size="13"> </text><text x="489.026" y="380.324" fill="#0F172A" font-size="13">指</text><text x="502.026" y="380.324" fill="#0F172A" font-size="13">定</text><text x="515.026" y="380.324" fill="#0F172A" font-size="13"> </text><text x="517.938" y="380.324" fill="#0F172A" font-size="13" textLength="20.865">run</text><text x="538.803" y="380.324" fill="#0F172A" font-size="13"> </text><text x="541.715" y="380.324" fill="#0F172A" font-size="13" textLength="12.753">ID</text><text x="554.468" y="380.324" fill="#0F172A" font-size="13"> </text><text x="557.38" y="380.324" fill="#0F172A" font-size="13">の</text><text x="570.38" y="380.324" fill="#0F172A" font-size="13"> </text><text x="573.292" y="380.324" fill="#0F172A" font-size="13" textLength="22.529">E2E</text><text x="595.821" y="380.324" fill="#0F172A" font-size="13"> </text><text x="598.733" y="380.324" fill="#0F172A" font-size="13">メ</text><text x="611.733" y="380.324" fill="#0F172A" font-size="13">ッ</text><text x="624.733" y="380.324" fill="#0F172A" font-size="13">セ</text><text x="637.733" y="380.324" fill="#0F172A" font-size="13">ー</text><text x="650.733" y="380.324" fill="#0F172A" font-size="13">ジ</text><text x="663.733" y="380.324" fill="#0F172A" font-size="13">を</text><text x="676.733" y="380.324" fill="#0F172A" font-size="13">検</text><text x="689.733" y="380.324" fill="#0F172A" font-size="13">索</text><text x="702.733" y="380.324" fill="#0F172A" font-size="13">す</text><text x="456.5" y="399.148" fill="#0F172A" font-size="13">る</text><text x="469.5" y="399.148" fill="#0F172A" font-size="13">。</text></g><!--entity F180--><g class="entity" data-qualified-name="F180" id="ent0008" data-source-line="12"><rect x="458.5" y="431.272" width="272.967" height="95.296" fill="#E0F2FE" style="stroke:#0369A1;stroke-width:0.5;" rx="4" ry="4"/><text x="563.277" y="456.352" fill="#0F172A" font-size="13" textLength="63.414" font-style="italic">«function»</text><text x="468.5" y="475.176" fill="#0F172A" font-size="13" textLength="30.615" font-weight="700">F180</text><text x="499.115" y="475.176" fill="#0F172A" font-size="13" font-weight="700"> </text><text x="502.066" y="475.176" fill="#0F172A" font-size="13" textLength="219.375" font-weight="700">e2e_discord_probe._delete_event</text><text x="468.5" y="494" fill="#0F172A" font-size="13">役</text><text x="481.5" y="494" fill="#0F172A" font-size="13">割</text><text x="494.5" y="494" fill="#0F172A" font-size="13">:</text><text x="498.114" y="494" fill="#0F172A" font-size="13"> </text><text x="501.026" y="494" fill="#0F172A" font-size="13" textLength="22.529">E2E</text><text x="523.555" y="494" fill="#0F172A" font-size="13"> </text><text x="526.467" y="494" fill="#0F172A" font-size="13">が</text><text x="539.467" y="494" fill="#0F172A" font-size="13">所</text><text x="552.467" y="494" fill="#0F172A" font-size="13">有</text><text x="565.467" y="494" fill="#0F172A" font-size="13">す</text><text x="578.467" y="494" fill="#0F172A" font-size="13">る</text><text x="591.467" y="494" fill="#0F172A" font-size="13">外</text><text x="604.467" y="494" fill="#0F172A" font-size="13">部</text><text x="617.467" y="494" fill="#0F172A" font-size="13">イ</text><text x="630.467" y="494" fill="#0F172A" font-size="13">ベ</text><text x="643.467" y="494" fill="#0F172A" font-size="13">ン</text><text x="656.467" y="494" fill="#0F172A" font-size="13">ト</text><text x="669.467" y="494" fill="#0F172A" font-size="13">を</text><text x="682.467" y="494" fill="#0F172A" font-size="13">削</text><text x="695.467" y="494" fill="#0F172A" font-size="13">除</text><text x="708.467" y="494" fill="#0F172A" font-size="13">す</text><text x="468.5" y="512.824" fill="#0F172A" font-size="13">る</text><text x="481.5" y="512.824" fill="#0F172A" font-size="13">。</text></g><!--entity F181--><g class="entity" data-qualified-name="F181" id="ent0010" data-source-line="14"><rect x="458.5" y="544.772" width="273.006" height="114.12" fill="#E0F2FE" style="stroke:#0369A1;stroke-width:0.5;" rx="4" ry="4"/><text x="563.296" y="569.852" fill="#0F172A" font-size="13" textLength="63.414" font-style="italic">«function»</text><text x="468.5" y="588.676" fill="#0F172A" font-size="13" textLength="30.615" font-weight="700">F181</text><text x="468.5" y="607.5" fill="#0F172A" font-size="13" textLength="238.927" font-weight="700">e2e_discord_probe._delete_message</text><text x="468.5" y="626.324" fill="#0F172A" font-size="13">役</text><text x="481.5" y="626.324" fill="#0F172A" font-size="13">割</text><text x="494.5" y="626.324" fill="#0F172A" font-size="13">:</text><text x="498.114" y="626.324" fill="#0F172A" font-size="13"> </text><text x="501.026" y="626.324" fill="#0F172A" font-size="13" textLength="22.529">E2E</text><text x="523.555" y="626.324" fill="#0F172A" font-size="13"> </text><text x="526.467" y="626.324" fill="#0F172A" font-size="13">が</text><text x="539.467" y="626.324" fill="#0F172A" font-size="13">所</text><text x="552.467" y="626.324" fill="#0F172A" font-size="13">有</text><text x="565.467" y="626.324" fill="#0F172A" font-size="13">す</text><text x="578.467" y="626.324" fill="#0F172A" font-size="13">る</text><text x="591.467" y="626.324" fill="#0F172A" font-size="13"> </text><text x="594.379" y="626.324" fill="#0F172A" font-size="13" textLength="46.215">Discord</text><text x="640.594" y="626.324" fill="#0F172A" font-size="13"> </text><text x="643.506" y="626.324" fill="#0F172A" font-size="13">メ</text><text x="656.506" y="626.324" fill="#0F172A" font-size="13">ッ</text><text x="669.506" y="626.324" fill="#0F172A" font-size="13">セ</text><text x="682.506" y="626.324" fill="#0F172A" font-size="13">ー</text><text x="695.506" y="626.324" fill="#0F172A" font-size="13">ジ</text><text x="708.506" y="626.324" fill="#0F172A" font-size="13">を</text><text x="468.5" y="645.148" fill="#0F172A" font-size="13">削</text><text x="481.5" y="645.148" fill="#0F172A" font-size="13">除</text><text x="494.5" y="645.148" fill="#0F172A" font-size="13">す</text><text x="507.5" y="645.148" fill="#0F172A" font-size="13">る</text><text x="520.5" y="645.148" fill="#0F172A" font-size="13">。</text></g><!--entity F182--><g class="entity" data-qualified-name="F182" id="ent0012" data-source-line="16"><rect x="457" y="676.772" width="276.126" height="114.12" fill="#E0F2FE" style="stroke:#0369A1;stroke-width:0.5;" rx="4" ry="4"/><text x="563.356" y="701.852" fill="#0F172A" font-size="13" textLength="63.414" font-style="italic">«function»</text><text x="467" y="720.676" fill="#0F172A" font-size="13" textLength="30.615" font-weight="700">F182</text><text x="467" y="739.5" fill="#0F172A" font-size="13" textLength="256.126" font-weight="700">e2e_discord_probe._cleanup_resources</text><text x="467" y="758.324" fill="#0F172A" font-size="13">役</text><text x="480" y="758.324" fill="#0F172A" font-size="13">割</text><text x="493" y="758.324" fill="#0F172A" font-size="13">:</text><text x="496.614" y="758.324" fill="#0F172A" font-size="13"> </text><text x="499.526" y="758.324" fill="#0F172A" font-size="13" textLength="53.274">manifest</text><text x="552.8" y="758.324" fill="#0F172A" font-size="13"> </text><text x="555.712" y="758.324" fill="#0F172A" font-size="13">に</text><text x="568.712" y="758.324" fill="#0F172A" font-size="13">記</text><text x="581.712" y="758.324" fill="#0F172A" font-size="13">録</text><text x="594.712" y="758.324" fill="#0F172A" font-size="13">さ</text><text x="607.712" y="758.324" fill="#0F172A" font-size="13">れ</text><text x="620.712" y="758.324" fill="#0F172A" font-size="13">た</text><text x="633.712" y="758.324" fill="#0F172A" font-size="13"> </text><text x="636.624" y="758.324" fill="#0F172A" font-size="13" textLength="22.529">E2E</text><text x="659.153" y="758.324" fill="#0F172A" font-size="13"> </text><text x="662.065" y="758.324" fill="#0F172A" font-size="13">所</text><text x="675.065" y="758.324" fill="#0F172A" font-size="13">有</text><text x="688.065" y="758.324" fill="#0F172A" font-size="13">資</text><text x="701.065" y="758.324" fill="#0F172A" font-size="13">源</text><text x="467" y="777.148" fill="#0F172A" font-size="13">を</text><text x="480" y="777.148" fill="#0F172A" font-size="13">回</text><text x="493" y="777.148" fill="#0F172A" font-size="13">収</text><text x="506" y="777.148" fill="#0F172A" font-size="13">す</text><text x="519" y="777.148" fill="#0F172A" font-size="13">る</text><text x="532" y="777.148" fill="#0F172A" font-size="13">。</text></g><!--entity F183--><g class="entity" data-qualified-name="F183" id="ent0014" data-source-line="18"><rect x="456" y="808.772" width="278.323" height="114.12" fill="#E0F2FE" style="stroke:#0369A1;stroke-width:0.5;" rx="4" ry="4"/><text x="563.455" y="833.852" fill="#0F172A" font-size="13" textLength="63.414" font-style="italic">«function»</text><text x="466" y="852.676" fill="#0F172A" font-size="13" textLength="30.615" font-weight="700">F183</text><text x="466" y="871.5" fill="#0F172A" font-size="13" textLength="258.323" font-weight="700">e2e_discord_probe._target_fingerprints</text><text x="466" y="890.324" fill="#0F172A" font-size="13">役</text><text x="479" y="890.324" fill="#0F172A" font-size="13">割</text><text x="492" y="890.324" fill="#0F172A" font-size="13">:</text><text x="495.614" y="890.324" fill="#0F172A" font-size="13"> </text><text x="498.526" y="890.324" fill="#0F172A" font-size="13">操</text><text x="511.526" y="890.324" fill="#0F172A" font-size="13">作</text><text x="524.526" y="890.324" fill="#0F172A" font-size="13">対</text><text x="537.526" y="890.324" fill="#0F172A" font-size="13">象</text><text x="550.526" y="890.324" fill="#0F172A" font-size="13"> </text><text x="553.438" y="890.324" fill="#0F172A" font-size="13" textLength="12.753">ID</text><text x="566.191" y="890.324" fill="#0F172A" font-size="13"> </text><text x="569.103" y="890.324" fill="#0F172A" font-size="13">を</text><text x="582.103" y="890.324" fill="#0F172A" font-size="13">値</text><text x="595.103" y="890.324" fill="#0F172A" font-size="13">そ</text><text x="608.103" y="890.324" fill="#0F172A" font-size="13">の</text><text x="621.103" y="890.324" fill="#0F172A" font-size="13">も</text><text x="634.103" y="890.324" fill="#0F172A" font-size="13">の</text><text x="647.103" y="890.324" fill="#0F172A" font-size="13">で</text><text x="660.103" y="890.324" fill="#0F172A" font-size="13">は</text><text x="673.103" y="890.324" fill="#0F172A" font-size="13">な</text><text x="686.103" y="890.324" fill="#0F172A" font-size="13">く</text><text x="466" y="909.148" fill="#0F172A" font-size="13" textLength="51.272">SHA-256</text><text x="517.272" y="909.148" fill="#0F172A" font-size="13"> </text><text x="520.184" y="909.148" fill="#0F172A" font-size="13">指</text><text x="533.184" y="909.148" fill="#0F172A" font-size="13">紋</text><text x="546.184" y="909.148" fill="#0F172A" font-size="13">へ</text><text x="559.184" y="909.148" fill="#0F172A" font-size="13">変</text><text x="572.184" y="909.148" fill="#0F172A" font-size="13">換</text><text x="585.184" y="909.148" fill="#0F172A" font-size="13">す</text><text x="598.184" y="909.148" fill="#0F172A" font-size="13">る</text><text x="611.184" y="909.148" fill="#0F172A" font-size="13">。</text></g><!--entity F184--><g class="entity" data-qualified-name="F184" id="ent0016" data-source-line="20"><rect x="461.5" y="940.772" width="267.065" height="114.12" fill="#E0F2FE" style="stroke:#0369A1;stroke-width:0.5;" rx="4" ry="4"/><text x="563.326" y="965.852" fill="#0F172A" font-size="13" textLength="63.414" font-style="italic">«function»</text><text x="471.5" y="984.676" fill="#0F172A" font-size="13" textLength="30.615" font-weight="700">F184</text><text x="471.5" y="1003.5" fill="#0F172A" font-size="13" textLength="233.688" font-weight="700">e2e_discord_probe._clean_manifest</text><text x="471.5" y="1022.324" fill="#0F172A" font-size="13">役</text><text x="484.5" y="1022.324" fill="#0F172A" font-size="13">割</text><text x="497.5" y="1022.324" fill="#0F172A" font-size="13">:</text><text x="501.114" y="1022.324" fill="#0F172A" font-size="13"> </text><text x="504.026" y="1022.324" fill="#0F172A" font-size="13">成</text><text x="517.026" y="1022.324" fill="#0F172A" font-size="13">功</text><text x="530.026" y="1022.324" fill="#0F172A" font-size="13">済</text><text x="543.026" y="1022.324" fill="#0F172A" font-size="13">み</text><text x="556.026" y="1022.324" fill="#0F172A" font-size="13"> </text><text x="558.938" y="1022.324" fill="#0F172A" font-size="13" textLength="22.529">E2E</text><text x="581.467" y="1022.324" fill="#0F172A" font-size="13"> </text><text x="584.379" y="1022.324" fill="#0F172A" font-size="13" textLength="53.274">manifest</text><text x="637.653" y="1022.324" fill="#0F172A" font-size="13"> </text><text x="640.565" y="1022.324" fill="#0F172A" font-size="13">を</text><text x="653.565" y="1022.324" fill="#0F172A" font-size="13">秘</text><text x="666.565" y="1022.324" fill="#0F172A" font-size="13">密</text><text x="679.565" y="1022.324" fill="#0F172A" font-size="13">値</text><text x="692.565" y="1022.324" fill="#0F172A" font-size="13">の</text><text x="705.565" y="1022.324" fill="#0F172A" font-size="13">な</text><text x="471.5" y="1041.148" fill="#0F172A" font-size="13">い</text><text x="484.5" y="1041.148" fill="#0F172A" font-size="13">確</text><text x="497.5" y="1041.148" fill="#0F172A" font-size="13">定</text><text x="510.5" y="1041.148" fill="#0F172A" font-size="13">状</text><text x="523.5" y="1041.148" fill="#0F172A" font-size="13">態</text><text x="536.5" y="1041.148" fill="#0F172A" font-size="13">へ</text><text x="549.5" y="1041.148" fill="#0F172A" font-size="13">整</text><text x="562.5" y="1041.148" fill="#0F172A" font-size="13">形</text><text x="575.5" y="1041.148" fill="#0F172A" font-size="13">す</text><text x="588.5" y="1041.148" fill="#0F172A" font-size="13">る</text><text x="601.5" y="1041.148" fill="#0F172A" font-size="13">。</text></g><!--entity F185--><g class="entity" data-qualified-name="F185" id="ent0018" data-source-line="22"><rect x="441.5" y="1073.272" width="307.092" height="132.944" fill="#E0F2FE" style="stroke:#0369A1;stroke-width:0.5;" rx="4" ry="4"/><text x="563.339" y="1098.352" fill="#0F172A" font-size="13" textLength="63.414" font-style="italic">«function»</text><text x="451.5" y="1117.176" fill="#0F172A" font-size="13" textLength="30.615" font-weight="700">F185</text><text x="451.5" y="1136" fill="#0F172A" font-size="13" textLength="287.092" font-weight="700">e2e_discord_probe.run_discord_crud_probe</text><text x="451.5" y="1154.824" fill="#0F172A" font-size="13">役</text><text x="464.5" y="1154.824" fill="#0F172A" font-size="13">割</text><text x="477.5" y="1154.824" fill="#0F172A" font-size="13">:</text><text x="481.114" y="1154.824" fill="#0F172A" font-size="13"> </text><text x="484.026" y="1154.824" fill="#0F172A" font-size="13" textLength="46.215">Discord</text><text x="530.241" y="1154.824" fill="#0F172A" font-size="13"> </text><text x="533.153" y="1154.824" fill="#0F172A" font-size="13">の</text><text x="546.153" y="1154.824" fill="#0F172A" font-size="13">作</text><text x="559.153" y="1154.824" fill="#0F172A" font-size="13">成</text><text x="572.153" y="1154.824" fill="#0F172A" font-size="13">・</text><text x="585.153" y="1154.824" fill="#0F172A" font-size="13">検</text><text x="598.153" y="1154.824" fill="#0F172A" font-size="13">証</text><text x="611.153" y="1154.824" fill="#0F172A" font-size="13">・</text><text x="624.153" y="1154.824" fill="#0F172A" font-size="13">更</text><text x="637.153" y="1154.824" fill="#0F172A" font-size="13">新</text><text x="650.153" y="1154.824" fill="#0F172A" font-size="13">・</text><text x="663.153" y="1154.824" fill="#0F172A" font-size="13">削</text><text x="676.153" y="1154.824" fill="#0F172A" font-size="13">除</text><text x="689.153" y="1154.824" fill="#0F172A" font-size="13">を</text><text x="451.5" y="1173.648" fill="#0F172A" font-size="13">実</text><text x="464.5" y="1173.648" fill="#0F172A" font-size="13">行</text><text x="477.5" y="1173.648" fill="#0F172A" font-size="13">し</text><text x="490.5" y="1173.648" fill="#0F172A" font-size="13">、</text><text x="503.5" y="1173.648" fill="#0F172A" font-size="13" textLength="48.724">cleanup</text><text x="552.224" y="1173.648" fill="#0F172A" font-size="13"> </text><text x="555.136" y="1173.648" fill="#0F172A" font-size="13" textLength="53.274">manifest</text><text x="608.41" y="1173.648" fill="#0F172A" font-size="13"> </text><text x="611.322" y="1173.648" fill="#0F172A" font-size="13">と</text><text x="624.322" y="1173.648" fill="#0F172A" font-size="13">段</text><text x="637.322" y="1173.648" fill="#0F172A" font-size="13">階</text><text x="650.322" y="1173.648" fill="#0F172A" font-size="13">結</text><text x="663.322" y="1173.648" fill="#0F172A" font-size="13">果</text><text x="676.322" y="1173.648" fill="#0F172A" font-size="13">を</text><text x="689.322" y="1173.648" fill="#0F172A" font-size="13">返</text><text x="451.5" y="1192.472" fill="#0F172A" font-size="13">す</text><text x="464.5" y="1192.472" fill="#0F172A" font-size="13">。</text></g><!--entity F186--><g class="entity" data-qualified-name="F186" id="ent0020" data-source-line="24"><rect x="427" y="1224.772" width="335.978" height="114.12" fill="#E0F2FE" style="stroke:#0369A1;stroke-width:0.5;" rx="4" ry="4"/><text x="563.282" y="1249.852" fill="#0F172A" font-size="13" textLength="63.414" font-style="italic">«function»</text><text x="437" y="1268.676" fill="#0F172A" font-size="13" textLength="30.615" font-weight="700">F186</text><text x="437" y="1287.5" fill="#0F172A" font-size="13" textLength="315.978" font-weight="700">e2e_discord_probe.cleanup_discord_crud_probe</text><text x="437" y="1306.324" fill="#0F172A" font-size="13">役</text><text x="450" y="1306.324" fill="#0F172A" font-size="13">割</text><text x="463" y="1306.324" fill="#0F172A" font-size="13">:</text><text x="466.614" y="1306.324" fill="#0F172A" font-size="13"> </text><text x="469.526" y="1306.324" fill="#0F172A" font-size="13" textLength="46.215">Discord</text><text x="515.741" y="1306.324" fill="#0F172A" font-size="13"> </text><text x="518.653" y="1306.324" fill="#0F172A" font-size="13" textLength="22.529">E2E</text><text x="541.182" y="1306.324" fill="#0F172A" font-size="13"> </text><text x="544.094" y="1306.324" fill="#0F172A" font-size="13" textLength="53.274">manifest</text><text x="597.368" y="1306.324" fill="#0F172A" font-size="13"> </text><text x="600.28" y="1306.324" fill="#0F172A" font-size="13">が</text><text x="613.28" y="1306.324" fill="#0F172A" font-size="13">所</text><text x="626.28" y="1306.324" fill="#0F172A" font-size="13">有</text><text x="639.28" y="1306.324" fill="#0F172A" font-size="13">す</text><text x="652.28" y="1306.324" fill="#0F172A" font-size="13">る</text><text x="665.28" y="1306.324" fill="#0F172A" font-size="13">残</text><text x="678.28" y="1306.324" fill="#0F172A" font-size="13">存</text><text x="437" y="1325.148" fill="#0F172A" font-size="13">イ</text><text x="450" y="1325.148" fill="#0F172A" font-size="13">ベ</text><text x="463" y="1325.148" fill="#0F172A" font-size="13">ン</text><text x="476" y="1325.148" fill="#0F172A" font-size="13">ト</text><text x="489" y="1325.148" fill="#0F172A" font-size="13">と</text><text x="502" y="1325.148" fill="#0F172A" font-size="13">メ</text><text x="515" y="1325.148" fill="#0F172A" font-size="13">ッ</text><text x="528" y="1325.148" fill="#0F172A" font-size="13">セ</text><text x="541" y="1325.148" fill="#0F172A" font-size="13">ー</text><text x="554" y="1325.148" fill="#0F172A" font-size="13">ジ</text><text x="567" y="1325.148" fill="#0F172A" font-size="13">を</text><text x="580" y="1325.148" fill="#0F172A" font-size="13">回</text><text x="593" y="1325.148" fill="#0F172A" font-size="13">収</text><text x="606" y="1325.148" fill="#0F172A" font-size="13">す</text><text x="619" y="1325.148" fill="#0F172A" font-size="13">る</text><text x="632" y="1325.148" fill="#0F172A" font-size="13">。</text></g><g class="link" data-entity-1="ent0001" data-entity-2="ent0002" id="lnk3" data-link-type="dependency"><polygon points="455.381,143.23,445.532,143.323,450.831,145.304,448.85,150.603,455.381,143.23" fill="#64748B" style="stroke:#64748B;stroke-width:1;stroke-linejoin:miter;stroke-miterlimit:10;"/><path d="M151.57,620.032 C170.341,542.656 214.95,387.384 292,276.772 C337.716,211.142 357.817,197.909 427,157.772 C436.01,152.545 441.022,149.775 450.831,145.304" style="stroke:#64748B;stroke-width:1;" fill="none"/><text x="294" y="164.852" fill="#334155" font-size="13" textLength="45.305">[E1237]</text><text x="339.305" y="164.852" fill="#334155" font-size="13"> </text><text x="342.217" y="164.852" fill="#334155" font-size="13">関</text><text x="355.217" y="164.852" fill="#334155" font-size="13">数</text><text x="368.217" y="164.852" fill="#334155" font-size="13">を</text><text x="381.217" y="164.852" fill="#334155" font-size="13">定</text><text x="394.217" y="164.852" fill="#334155" font-size="13">義</text></g><g class="link" data-entity-1="ent0001" data-entity-2="ent0004" id="lnk5" data-link-type="dependency"><polygon points="455.371,273.975,445.533,274.448,450.905,276.223,449.13,281.594,455.371,273.975" fill="#64748B" style="stroke:#64748B;stroke-width:1;stroke-linejoin:miter;stroke-miterlimit:10;"/><path d="M163.547,620.188 C190.146,566.605 237.683,478.336 292,411.772 C343.129,349.115 358.294,332.428 427,289.772 C436.005,284.181 441.098,281.159 450.905,276.223" style="stroke:#64748B;stroke-width:1;" fill="none"/><text x="294" y="297.852" fill="#334155" font-size="13" textLength="45.305">[E1238]</text><text x="339.305" y="297.852" fill="#334155" font-size="13"> </text><text x="342.217" y="297.852" fill="#334155" font-size="13">関</text><text x="355.217" y="297.852" fill="#334155" font-size="13">数</text><text x="368.217" y="297.852" fill="#334155" font-size="13">を</text><text x="381.217" y="297.852" fill="#334155" font-size="13">定</text><text x="394.217" y="297.852" fill="#334155" font-size="13">義</text></g><g class="link" data-entity-1="ent0001" data-entity-2="ent0006" id="lnk7" data-link-type="dependency"><polygon points="446.421,411.693,436.58,412.078,441.935,413.901,440.113,419.256,446.421,411.693" fill="#64748B" style="stroke:#64748B;stroke-width:1;stroke-linejoin:miter;stroke-miterlimit:10;"/><path d="M184.493,619.816 C236.969,564.656 330.267,474.887 427,421.772 C433.285,418.321 435.303,417.165 441.935,413.901" style="stroke:#64748B;stroke-width:1;" fill="none"/><text x="294" y="432.852" fill="#334155" font-size="13" textLength="45.305">[E1239]</text><text x="339.305" y="432.852" fill="#334155" font-size="13"> </text><text x="342.217" y="432.852" fill="#334155" font-size="13">関</text><text x="355.217" y="432.852" fill="#334155" font-size="13">数</text><text x="368.217" y="432.852" fill="#334155" font-size="13">を</text><text x="381.217" y="432.852" fill="#334155" font-size="13">定</text><text x="394.217" y="432.852" fill="#334155" font-size="13">義</text></g><g class="link" data-entity-1="ent0001" data-entity-2="ent0008" id="lnk9" data-link-type="dependency"><polygon points="458.216,523.794,448.388,523.162,453.526,525.527,451.16,530.666,458.216,523.794" fill="#64748B" style="stroke:#64748B;stroke-width:1;stroke-linejoin:miter;stroke-miterlimit:10;"/><path d="M237.535,620.187 C292.466,593.878 362.901,561.423 427,535.772 C437.097,531.731 442.915,529.448 453.526,525.527" style="stroke:#64748B;stroke-width:1;" fill="none"/><text x="294" y="540.852" fill="#334155" font-size="13" textLength="45.305">[E1240]</text><text x="339.305" y="540.852" fill="#334155" font-size="13"> </text><text x="342.217" y="540.852" fill="#334155" font-size="13">関</text><text x="355.217" y="540.852" fill="#334155" font-size="13">数</text><text x="368.217" y="540.852" fill="#334155" font-size="13">を</text><text x="381.217" y="540.852" fill="#334155" font-size="13">定</text><text x="394.217" y="540.852" fill="#334155" font-size="13">義</text></g><g class="link" data-entity-1="ent0001" data-entity-2="ent0010" id="lnk11" data-link-type="dependency"><polygon points="458.18,621.56,448.697,618.9,453.232,622.281,449.851,626.816,458.18,621.56" fill="#64748B" style="stroke:#64748B;stroke-width:1;stroke-linejoin:miter;stroke-miterlimit:10;"/><path d="M274.159,648.371 C332.107,639.928 394.987,630.767 453.232,622.281" style="stroke:#64748B;stroke-width:1;" fill="none"/><text x="294" y="624.852" fill="#334155" font-size="13" textLength="45.305">[E1241]</text><text x="339.305" y="624.852" fill="#334155" font-size="13"> </text><text x="342.217" y="624.852" fill="#334155" font-size="13">関</text><text x="355.217" y="624.852" fill="#334155" font-size="13">数</text><text x="368.217" y="624.852" fill="#334155" font-size="13">を</text><text x="381.217" y="624.852" fill="#334155" font-size="13">定</text><text x="394.217" y="624.852" fill="#334155" font-size="13">義</text></g><g class="link" data-entity-1="ent0001" data-entity-2="ent0012" id="lnk13" data-link-type="dependency"><polygon points="456.998,713.811,448.669,708.556,452.05,713.09,447.515,716.472,456.998,713.811" fill="#64748B" style="stroke:#64748B;stroke-width:1;stroke-linejoin:miter;stroke-miterlimit:10;"/><path d="M274.159,687.173 C331.716,695.558 394.071,704.643 452.05,713.09" style="stroke:#64748B;stroke-width:1;" fill="none"/><text x="294" y="686.852" fill="#334155" font-size="13" textLength="45.305">[E1242]</text><text x="339.305" y="686.852" fill="#334155" font-size="13"> </text><text x="342.217" y="686.852" fill="#334155" font-size="13">関</text><text x="355.217" y="686.852" fill="#334155" font-size="13">数</text><text x="368.217" y="686.852" fill="#334155" font-size="13">を</text><text x="381.217" y="686.852" fill="#334155" font-size="13">定</text><text x="394.217" y="686.852" fill="#334155" font-size="13">義</text></g><g class="link" data-entity-1="ent0001" data-entity-2="ent0014" id="lnk15" data-link-type="dependency"><polygon points="455.691,811.809,448.894,804.681,451.068,809.903,445.845,812.077,455.691,811.809" fill="#64748B" style="stroke:#64748B;stroke-width:1;stroke-linejoin:miter;stroke-miterlimit:10;"/><path d="M240.317,715.273 C295.052,741.031 364.407,772.984 427,799.772 C436.315,803.758 441.333,805.891 451.068,809.903" style="stroke:#64748B;stroke-width:1;" fill="none"/><text x="294" y="735.852" fill="#334155" font-size="13" textLength="45.305">[E1243]</text><text x="339.305" y="735.852" fill="#334155" font-size="13"> </text><text x="342.217" y="735.852" fill="#334155" font-size="13">関</text><text x="355.217" y="735.852" fill="#334155" font-size="13">数</text><text x="368.217" y="735.852" fill="#334155" font-size="13">を</text><text x="381.217" y="735.852" fill="#334155" font-size="13">定</text><text x="394.217" y="735.852" fill="#334155" font-size="13">義</text></g><g class="link" data-entity-1="ent0001" data-entity-2="ent0016" id="lnk17" data-link-type="dependency"><polygon points="461.195,950.076,454.81,942.578,456.687,947.914,451.351,949.791,461.195,950.076" fill="#64748B" style="stroke:#64748B;stroke-width:1;stroke-linejoin:miter;stroke-miterlimit:10;"/><path d="M181.482,715.498 C233.149,773.753 327.788,871.881 427,931.772 C437.809,938.297 444.87,942.247 456.687,947.914" style="stroke:#64748B;stroke-width:1;" fill="none"/><text x="294" y="823.852" fill="#334155" font-size="13" textLength="45.305">[E1244]</text><text x="339.305" y="823.852" fill="#334155" font-size="13"> </text><text x="342.217" y="823.852" fill="#334155" font-size="13">関</text><text x="355.217" y="823.852" fill="#334155" font-size="13">数</text><text x="368.217" y="823.852" fill="#334155" font-size="13">を</text><text x="381.217" y="823.852" fill="#334155" font-size="13">定</text><text x="394.217" y="823.852" fill="#334155" font-size="13">義</text></g><g class="link" data-entity-1="ent0001" data-entity-2="ent0018" id="lnk19" data-link-type="dependency"><polygon points="441.772,1073.031,436.097,1064.982,437.48,1070.467,431.994,1071.85,441.772,1073.031" fill="#64748B" style="stroke:#64748B;stroke-width:1;stroke-linejoin:miter;stroke-miterlimit:10;"/><path d="M161.464,715.288 C187.206,772.123 235.01,868.624 292,940.772 C342.313,1004.467 359.239,1019.086 427,1063.772 C431.787,1066.929 432.433,1067.453 437.48,1070.467" style="stroke:#64748B;stroke-width:1;" fill="none"/><text x="294" y="935.852" fill="#334155" font-size="13" textLength="45.305">[E1245]</text><text x="339.305" y="935.852" fill="#334155" font-size="13"> </text><text x="342.217" y="935.852" fill="#334155" font-size="13">関</text><text x="355.217" y="935.852" fill="#334155" font-size="13">数</text><text x="368.217" y="935.852" fill="#334155" font-size="13">を</text><text x="381.217" y="935.852" fill="#334155" font-size="13">定</text><text x="394.217" y="935.852" fill="#334155" font-size="13">義</text></g><g class="link" data-entity-1="ent0001" data-entity-2="ent0020" id="lnk21" data-link-type="dependency"><polygon points="441.053,1224.537,435.304,1216.54,436.737,1222.013,431.265,1223.446,441.053,1224.537" fill="#64748B" style="stroke:#64748B;stroke-width:1;stroke-linejoin:miter;stroke-miterlimit:10;"/><path d="M151.706,715.43 C171,794.852 216.748,957.337 292,1076.772 C337.908,1149.634 355.353,1167.989 427,1215.772 C431.539,1218.799 431.922,1219.196 436.737,1222.013" style="stroke:#64748B;stroke-width:1;" fill="none"/><text x="294" y="1071.852" fill="#334155" font-size="13" textLength="45.305">[E1246]</text><text x="339.305" y="1071.852" fill="#334155" font-size="13"> </text><text x="342.217" y="1071.852" fill="#334155" font-size="13">関</text><text x="355.217" y="1071.852" fill="#334155" font-size="13">数</text><text x="368.217" y="1071.852" fill="#334155" font-size="13">を</text><text x="381.217" y="1071.852" fill="#334155" font-size="13">定</text><text x="394.217" y="1071.852" fill="#334155" font-size="13">義</text></g><g class="legend" data-source-line="26"><rect x="126.061" y="1360.772" width="519.878" height="115.36" fill="none" style="stroke:#000;stroke-width:1;" rx="4" ry="4"/><text x="134.239" y="1384.012" fill="#0F172A" font-size="14" textLength="28" font-weight="700">表記</text><text x="196.511" y="1384.012" fill="#0F172A" font-size="14" textLength="28" font-weight="700">意味</text><text x="134.197" y="1404.284" fill="#0F172A" font-size="14" textLength="56">青の実線</text><text x="196.469" y="1404.284" fill="#0F172A" font-size="14" textLength="125.999">入力または内部依存</text><text x="134.197" y="1424.556" fill="#0F172A" font-size="14" textLength="56">緑の実線</text><text x="196.469" y="1424.556" fill="#0F172A" font-size="14" textLength="125.999">出力または処理結果</text><text x="134.197" y="1444.828" fill="#0F172A" font-size="14" textLength="56">橙の破線</text><text x="196.469" y="1444.828" fill="#0F172A" font-size="14" textLength="84">実行時未確認</text><text x="134.197" y="1465.099" fill="#0F172A" font-size="14" textLength="28">補足</text><text x="196.469" y="1465.099" fill="#0F172A" font-size="14" textLength="441.334">各 ID は architecture-index.json と architecture-catalog.md に対応。</text><line x1="131.061" y1="1367.772" x2="640.939" y2="1367.772" style="stroke:#0F172A;stroke-width:1;"/><line x1="131.061" y1="1388.044" x2="640.939" y2="1388.044" style="stroke:#0F172A;stroke-width:1;"/><line x1="131.061" y1="1408.316" x2="640.939" y2="1408.316" style="stroke:#0F172A;stroke-width:1;"/><line x1="131.061" y1="1428.588" x2="640.939" y2="1428.588" style="stroke:#0F172A;stroke-width:1;"/><line x1="131.061" y1="1448.86" x2="640.939" y2="1448.86" style="stroke:#0F172A;stroke-width:1;"/><line x1="131.061" y1="1469.131" x2="640.939" y2="1469.131" style="stroke:#0F172A;stroke-width:1;"/><line x1="131.061" y1="1367.772" x2="131.061" y2="1469.131" style="stroke:#0F172A;stroke-width:1;"/><line x1="193.333" y1="1367.772" x2="193.333" y2="1469.131" style="stroke:#0F172A;stroke-width:1;"/><line x1="640.939" y1="1367.772" x2="640.939" y2="1469.131" style="stroke:#0F172A;stroke-width:1;"/></g><?plantuml-src bPPTKzj658Rl_IiswJK6Vs1CXdgcdT1fxphJYroa6OsmryQjB7aaELDcSc79V1b8S2XGC2OKwZI638O69w4GuBzqivByBthqLI8iQkN68ykxUzvdppdlyPqyd-PA6Op2uK56ccH5d1cKv2aEXukb0XUIypA74OvYbCbBQK7CeA4O-gUyYaXbbwWNf58XbIgfd7VNzxIrOsF_HEySX-uKHJPNO177JWab6Ka5BBCy6-9mLaQoWCHyRbA6yqISblC27qeBXQB0Orv6TyScKjyFHKRCW8mJa2cAmWGU6vn8_SZJYxzfzSqzrAslThVsYB96r2MYxA3nw3Xw88W_On4HPP6eLNJVKKkKziUBXZPV0urQis6qFfWFMnrj_HWUQ7MXkzaaIajhBzB33UDaJZkhmHQwzO8kFoFg2ctl6BiGOfEeYwIitaMiX4o18LCxo-VWRapDtqH6V3I7cSTOp6Ud69aLSrYMl0ocPktNfw2E7bqQV-r2MADrIDjrMcv2P12hxPmJvJTILcYxIcTQH3am3ZVe_4jjQKxl0EMASRLgIdDqMIB6nh8bthhML2faNUN0moyIyP5uykj70obxpJtqS3mIZOqyGdRMBCwwVhdVIvNqeyhc-Go37qF2c8afHYpnNZ2G1ySXU8--ksycm48bQfDKDadbX5JcRJozi-UzM2jUVu2a2v0C031wAq01InARmv-302KFzQwUaye7efxUJZ4QW6BKfHZjJv4SygF8O0xBs4v4RsaHPKchbhL6rLP7c-lTIkj64jpozyg7Q7tbmnfRVdmeWFp8_yXtqj0NuBgZUx9m2qOa04R4nOW4m8ZwOQGvpFAb8YDYIIY9QNoZomiidyzYIGQSrqPhexlqnkjQDg9ZF13QDfwRAD40A54N9He09UQ7OjkKsHqvB1R5F7_JiZwrAwin802ObR8D7K9KrVnKNX7b29oAACleXs-_6eWE9v3ZLyefRLQrvQqUkbW0kfXB5mj05xyrKOoRZnjWypMwiAETpXFboahBTThK5VtL1ZsQjK3R5jcqldTcXbvufysOMDfQXrxqk02ew8yLTx7Y0R26VR30elvxanPBljFoisRXzSmp9uzJtP-MCSpAjztwC_rjJNlHy1b28BC_zx3BFHo0E-73xRPTK7PlKhtMOWz_ZpSgBH-RyU_DH03SX8kRwCNbS0xp6JGXoB9G227qv4jaxBR0AymdRNgPFZz1JyptgBkzOlutQU_ex-lmbSwyf0lGJPVW9T1qT7O67FxZvJQmE1lqzyyz6-REF1lc_jHhitOUdGtQ_YPiq7_lE1kiIj0sLQrn03Ll73nrrXb_D8nt9-QAshGz8OyGAwOdypBahYJY0HYm-9VmJvB0cnNZ_ItDoYmdvC85io9VWvlGgmRS9nmDzs3Vnhy0?></g></svg>