<svg xmlns="http://www.w3.org/2000/svg" xmlns:xlink="http://www.w3.org/1999/xlink" version="1.1" data-diagram-type="DESCRIPTION" style="width:732px;height:1059px;background:#FFFFFF;" width="732px" height="1059px" viewBox="0 0 732 1059" zoomAndPan="magnify" preserveAspectRatio="none" contentStyleType="text/css"><?plantuml 1.2026.7?><defs/><g font-family="sans-serif" lengthAdjust="spacing"><g class="title" data-source-line="2"><text x="242.87" y="26.24" fill="#0F172A" font-size="14" textLength="239.259" font-weight="700">e2e google 01 — メソッド・関数詳細</text></g><!--entity P019--><g class="entity" data-qualified-name="P019" id="ent0001" data-source-line="5"><rect x="6" y="421.272" width="272.772" height="95.296" fill="#E0F2FE" style="stroke:#0369A1;stroke-width:0.5;" rx="4" ry="4"/><text x="16" y="446.352" fill="#0F172A" font-size="13" textLength="31.681" font-weight="700">P019</text><text x="47.681" y="446.352" fill="#0F172A" font-size="13" font-weight="700"> </text><text x="50.632" y="446.352" fill="#0F172A" font-size="13" textLength="119.067" font-weight="700">e2e_google_probe</text><text x="16" y="465.176" fill="#0F172A" font-size="13">役</text><text x="29" y="465.176" fill="#0F172A" font-size="13">割</text><text x="42" y="465.176" fill="#0F172A" font-size="13">:</text><text x="45.614" y="465.176" fill="#0F172A" font-size="13"> </text><text x="48.526" y="465.176" fill="#0F172A" font-size="13">隔</text><text x="61.526" y="465.176" fill="#0F172A" font-size="13">離</text><text x="74.526" y="465.176" fill="#0F172A" font-size="13">さ</text><text x="87.526" y="465.176" fill="#0F172A" font-size="13">れ</text><text x="100.526" y="465.176" fill="#0F172A" font-size="13">た</text><text x="113.526" y="465.176" fill="#0F172A" font-size="13"> </text><text x="116.438" y="465.176" fill="#0F172A" font-size="13" textLength="22.529">E2E</text><text x="138.967" y="465.176" fill="#0F172A" font-size="13"> </text><text x="141.879" y="465.176" fill="#0F172A" font-size="13" textLength="43.758">Worker</text><text x="185.637" y="465.176" fill="#0F172A" font-size="13"> </text><text x="188.549" y="465.176" fill="#0F172A" font-size="13">か</text><text x="201.549" y="465.176" fill="#0F172A" font-size="13">ら</text><text x="214.549" y="465.176" fill="#0F172A" font-size="13"> </text><text x="217.461" y="465.176" fill="#0F172A" font-size="13" textLength="42.939">Google</text><text x="16" y="484" fill="#0F172A" font-size="13" textLength="54.86">Calendar</text><text x="70.86" y="484" fill="#0F172A" font-size="13"> </text><text x="73.772" y="484" fill="#0F172A" font-size="13">の</text><text x="86.772" y="484" fill="#0F172A" font-size="13">作</text><text x="99.772" y="484" fill="#0F172A" font-size="13">成</text><text x="112.772" y="484" fill="#0F172A" font-size="13">・</text><text x="125.772" y="484" fill="#0F172A" font-size="13">検</text><text x="138.772" y="484" fill="#0F172A" font-size="13">証</text><text x="151.772" y="484" fill="#0F172A" font-size="13">・</text><text x="164.772" y="484" fill="#0F172A" font-size="13">更</text><text x="177.772" y="484" fill="#0F172A" font-size="13">新</text><text x="190.772" y="484" fill="#0F172A" font-size="13">・</text><text x="203.772" y="484" fill="#0F172A" font-size="13">削</text><text x="216.772" y="484" fill="#0F172A" font-size="13">除</text><text x="229.772" y="484" fill="#0F172A" font-size="13">と</text><text x="242.772" y="484" fill="#0F172A" font-size="13">残</text><text x="255.772" y="484" fill="#0F172A" font-size="13">存</text><text x="16" y="502.824" fill="#0F172A" font-size="13">資</text><text x="29" y="502.824" fill="#0F172A" font-size="13">源</text><text x="42" y="502.824" fill="#0F172A" font-size="13">の</text><text x="55" y="502.824" fill="#0F172A" font-size="13">回</text><text x="68" y="502.824" fill="#0F172A" font-size="13">収</text><text x="81" y="502.824" fill="#0F172A" font-size="13">を</text><text x="94" y="502.824" fill="#0F172A" font-size="13">実</text><text x="107" y="502.824" fill="#0F172A" font-size="13">行</text><text x="120" y="502.824" fill="#0F172A" font-size="13">す</text><text x="133" y="502.824" fill="#0F172A" font-size="13">る</text><text x="146" y="502.824" fill="#0F172A" font-size="13">。</text></g><!--entity F198--><g class="entity" data-qualified-name="F198" id="ent0002" data-source-line="6"><rect x="439.5" y="53.272" width="269.041" height="95.296" fill="#E0F2FE" style="stroke:#0369A1;stroke-width:0.5;" rx="4" ry="4"/><text x="542.314" y="78.352" fill="#0F172A" font-size="13" textLength="63.414" font-style="italic">«function»</text><text x="449.5" y="97.176" fill="#0F172A" font-size="13" textLength="30.615" font-weight="700">F198</text><text x="480.115" y="97.176" fill="#0F172A" font-size="13" font-weight="700"> </text><text x="483.066" y="97.176" fill="#0F172A" font-size="13" textLength="156.325" font-weight="700">e2e_google_probe.fetch</text><text x="449.5" y="116" fill="#0F172A" font-size="13">役</text><text x="462.5" y="116" fill="#0F172A" font-size="13">割</text><text x="475.5" y="116" fill="#0F172A" font-size="13">:</text><text x="479.114" y="116" fill="#0F172A" font-size="13"> </text><text x="482.026" y="116" fill="#0F172A" font-size="13" textLength="49.842">Workers</text><text x="531.868" y="116" fill="#0F172A" font-size="13"> </text><text x="534.78" y="116" fill="#0F172A" font-size="13" textLength="30.849">fetch</text><text x="565.629" y="116" fill="#0F172A" font-size="13"> </text><text x="568.541" y="116" fill="#0F172A" font-size="13">の</text><text x="581.541" y="116" fill="#0F172A" font-size="13">呼</text><text x="594.541" y="116" fill="#0F172A" font-size="13">び</text><text x="607.541" y="116" fill="#0F172A" font-size="13">出</text><text x="620.541" y="116" fill="#0F172A" font-size="13">し</text><text x="633.541" y="116" fill="#0F172A" font-size="13">形</text><text x="646.541" y="116" fill="#0F172A" font-size="13">式</text><text x="659.541" y="116" fill="#0F172A" font-size="13">差</text><text x="672.541" y="116" fill="#0F172A" font-size="13">を</text><text x="685.541" y="116" fill="#0F172A" font-size="13">吸</text><text x="449.5" y="134.824" fill="#0F172A" font-size="13">収</text><text x="462.5" y="134.824" fill="#0F172A" font-size="13">す</text><text x="475.5" y="134.824" fill="#0F172A" font-size="13">る</text><text x="488.5" y="134.824" fill="#0F172A" font-size="13">。</text></g><!--entity F199--><g class="entity" data-qualified-name="F199" id="ent0004" data-source-line="8"><rect x="440" y="166.272" width="268.196" height="95.296" fill="#E0F2FE" style="stroke:#0369A1;stroke-width:0.5;" rx="4" ry="4"/><text x="542.391" y="191.352" fill="#0F172A" font-size="13" textLength="63.414" font-style="italic">«function»</text><text x="450" y="210.176" fill="#0F172A" font-size="13" textLength="30.615" font-weight="700">F199</text><text x="480.615" y="210.176" fill="#0F172A" font-size="13" font-weight="700"> </text><text x="483.566" y="210.176" fill="#0F172A" font-size="13" textLength="187.213" font-weight="700">e2e_google_probe._env_text</text><text x="450" y="229" fill="#0F172A" font-size="13">役</text><text x="463" y="229" fill="#0F172A" font-size="13">割</text><text x="476" y="229" fill="#0F172A" font-size="13">:</text><text x="479.614" y="229" fill="#0F172A" font-size="13"> </text><text x="482.526" y="229" fill="#0F172A" font-size="13" textLength="43.758">Worker</text><text x="526.284" y="229" fill="#0F172A" font-size="13"> </text><text x="529.196" y="229" fill="#0F172A" font-size="13">環</text><text x="542.196" y="229" fill="#0F172A" font-size="13">境</text><text x="555.196" y="229" fill="#0F172A" font-size="13">変</text><text x="568.196" y="229" fill="#0F172A" font-size="13">数</text><text x="581.196" y="229" fill="#0F172A" font-size="13">か</text><text x="594.196" y="229" fill="#0F172A" font-size="13">ら</text><text x="607.196" y="229" fill="#0F172A" font-size="13">文</text><text x="620.196" y="229" fill="#0F172A" font-size="13">字</text><text x="633.196" y="229" fill="#0F172A" font-size="13">列</text><text x="646.196" y="229" fill="#0F172A" font-size="13">設</text><text x="659.196" y="229" fill="#0F172A" font-size="13">定</text><text x="672.196" y="229" fill="#0F172A" font-size="13">を</text><text x="685.196" y="229" fill="#0F172A" font-size="13">安</text><text x="450" y="247.824" fill="#0F172A" font-size="13">全</text><text x="463" y="247.824" fill="#0F172A" font-size="13">に</text><text x="476" y="247.824" fill="#0F172A" font-size="13">取</text><text x="489" y="247.824" fill="#0F172A" font-size="13">得</text><text x="502" y="247.824" fill="#0F172A" font-size="13">す</text><text x="515" y="247.824" fill="#0F172A" font-size="13">る</text><text x="528" y="247.824" fill="#0F172A" font-size="13">。</text></g><!--entity F200--><g class="entity" data-qualified-name="F200" id="ent0006" data-source-line="10"><rect x="432.5" y="279.772" width="283.328" height="114.12" fill="#E0F2FE" style="stroke:#0369A1;stroke-width:0.5;" rx="4" ry="4"/><text x="542.457" y="304.852" fill="#0F172A" font-size="13" textLength="63.414" font-style="italic">«function»</text><text x="442.5" y="323.676" fill="#0F172A" font-size="13" textLength="30.615" font-weight="700">F200</text><text x="442.5" y="342.5" fill="#0F172A" font-size="13" textLength="263.328" font-weight="700">e2e_google_probe._event_collection_url</text><text x="442.5" y="361.324" fill="#0F172A" font-size="13">役</text><text x="455.5" y="361.324" fill="#0F172A" font-size="13">割</text><text x="468.5" y="361.324" fill="#0F172A" font-size="13">:</text><text x="472.114" y="361.324" fill="#0F172A" font-size="13"> </text><text x="475.026" y="361.324" fill="#0F172A" font-size="13" textLength="42.939">Google</text><text x="517.965" y="361.324" fill="#0F172A" font-size="13"> </text><text x="520.877" y="361.324" fill="#0F172A" font-size="13" textLength="54.86">Calendar</text><text x="575.737" y="361.324" fill="#0F172A" font-size="13"> </text><text x="578.649" y="361.324" fill="#0F172A" font-size="13" textLength="34.008">event</text><text x="612.657" y="361.324" fill="#0F172A" font-size="13"> </text><text x="615.569" y="361.324" fill="#0F172A" font-size="13">一</text><text x="628.569" y="361.324" fill="#0F172A" font-size="13">覧</text><text x="641.569" y="361.324" fill="#0F172A" font-size="13"> </text><text x="644.481" y="361.324" fill="#0F172A" font-size="13" textLength="19.942">API</text><text x="664.423" y="361.324" fill="#0F172A" font-size="13"> </text><text x="667.335" y="361.324" fill="#0F172A" font-size="13">の</text><text x="442.5" y="380.148" fill="#0F172A" font-size="13" textLength="24.687">URL</text><text x="467.187" y="380.148" fill="#0F172A" font-size="13"> </text><text x="470.099" y="380.148" fill="#0F172A" font-size="13">を</text><text x="483.099" y="380.148" fill="#0F172A" font-size="13">組</text><text x="496.099" y="380.148" fill="#0F172A" font-size="13">み</text><text x="509.099" y="380.148" fill="#0F172A" font-size="13">立</text><text x="522.099" y="380.148" fill="#0F172A" font-size="13">て</text><text x="535.099" y="380.148" fill="#0F172A" font-size="13">る</text><text x="548.099" y="380.148" fill="#0F172A" font-size="13">。</text></g><!--entity F201--><g class="entity" data-qualified-name="F201" id="ent0008" data-source-line="12"><rect x="445" y="411.772" width="257.835" height="114.12" fill="#E0F2FE" style="stroke:#0369A1;stroke-width:0.5;" rx="4" ry="4"/><text x="542.211" y="436.852" fill="#0F172A" font-size="13" textLength="63.414" font-style="italic">«function»</text><text x="455" y="455.676" fill="#0F172A" font-size="13" textLength="30.615" font-weight="700">F201</text><text x="455" y="474.5" fill="#0F172A" font-size="13" textLength="229.359" font-weight="700">e2e_google_probe._event_item_url</text><text x="455" y="493.324" fill="#0F172A" font-size="13">役</text><text x="468" y="493.324" fill="#0F172A" font-size="13">割</text><text x="481" y="493.324" fill="#0F172A" font-size="13">:</text><text x="484.614" y="493.324" fill="#0F172A" font-size="13"> </text><text x="487.526" y="493.324" fill="#0F172A" font-size="13" textLength="42.939">Google</text><text x="530.465" y="493.324" fill="#0F172A" font-size="13"> </text><text x="533.377" y="493.324" fill="#0F172A" font-size="13" textLength="54.86">Calendar</text><text x="588.237" y="493.324" fill="#0F172A" font-size="13"> </text><text x="591.149" y="493.324" fill="#0F172A" font-size="13" textLength="34.008">event</text><text x="625.157" y="493.324" fill="#0F172A" font-size="13"> </text><text x="628.069" y="493.324" fill="#0F172A" font-size="13">単</text><text x="641.069" y="493.324" fill="#0F172A" font-size="13">体</text><text x="654.069" y="493.324" fill="#0F172A" font-size="13"> </text><text x="656.981" y="493.324" fill="#0F172A" font-size="13" textLength="19.942">API</text><text x="676.923" y="493.324" fill="#0F172A" font-size="13"> </text><text x="679.835" y="493.324" fill="#0F172A" font-size="13">の</text><text x="455" y="512.148" fill="#0F172A" font-size="13" textLength="24.687">URL</text><text x="479.687" y="512.148" fill="#0F172A" font-size="13"> </text><text x="482.599" y="512.148" fill="#0F172A" font-size="13">を</text><text x="495.599" y="512.148" fill="#0F172A" font-size="13">組</text><text x="508.599" y="512.148" fill="#0F172A" font-size="13">み</text><text x="521.599" y="512.148" fill="#0F172A" font-size="13">立</text><text x="534.599" y="512.148" fill="#0F172A" font-size="13">て</text><text x="547.599" y="512.148" fill="#0F172A" font-size="13">る</text><text x="560.599" y="512.148" fill="#0F172A" font-size="13">。</text></g><!--entity F202--><g class="entity" data-qualified-name="F202" id="ent0010" data-source-line="14"><rect x="432" y="543.772" width="284.173" height="114.12" fill="#E0F2FE" style="stroke:#0369A1;stroke-width:0.5;" rx="4" ry="4"/><text x="542.38" y="568.852" fill="#0F172A" font-size="13" textLength="63.414" font-style="italic">«function»</text><text x="442" y="587.676" fill="#0F172A" font-size="13" textLength="30.615" font-weight="700">F202</text><text x="442" y="606.5" fill="#0F172A" font-size="13" textLength="264.173" font-weight="700">e2e_google_probe._calendar_fingerprint</text><text x="442" y="625.324" fill="#0F172A" font-size="13">役</text><text x="455" y="625.324" fill="#0F172A" font-size="13">割</text><text x="468" y="625.324" fill="#0F172A" font-size="13">:</text><text x="471.614" y="625.324" fill="#0F172A" font-size="13"> </text><text x="474.526" y="625.324" fill="#0F172A" font-size="13" textLength="42.939">Google</text><text x="517.465" y="625.324" fill="#0F172A" font-size="13"> </text><text x="520.377" y="625.324" fill="#0F172A" font-size="13" textLength="54.86">Calendar</text><text x="575.237" y="625.324" fill="#0F172A" font-size="13"> </text><text x="578.149" y="625.324" fill="#0F172A" font-size="13" textLength="12.753">ID</text><text x="590.902" y="625.324" fill="#0F172A" font-size="13"> </text><text x="593.814" y="625.324" fill="#0F172A" font-size="13">を</text><text x="606.814" y="625.324" fill="#0F172A" font-size="13"> </text><text x="609.726" y="625.324" fill="#0F172A" font-size="13" textLength="51.272">SHA-256</text><text x="660.998" y="625.324" fill="#0F172A" font-size="13"> </text><text x="663.91" y="625.324" fill="#0F172A" font-size="13">指</text><text x="676.91" y="625.324" fill="#0F172A" font-size="13">紋</text><text x="442" y="644.148" fill="#0F172A" font-size="13">へ</text><text x="455" y="644.148" fill="#0F172A" font-size="13">変</text><text x="468" y="644.148" fill="#0F172A" font-size="13">換</text><text x="481" y="644.148" fill="#0F172A" font-size="13">す</text><text x="494" y="644.148" fill="#0F172A" font-size="13">る</text><text x="507" y="644.148" fill="#0F172A" font-size="13">。</text></g><!--entity F203--><g class="entity" data-qualified-name="F203" id="ent0012" data-source-line="16"><rect x="436.5" y="675.772" width="274.839" height="114.12" fill="#E0F2FE" style="stroke:#0369A1;stroke-width:0.5;" rx="4" ry="4"/><text x="542.213" y="700.852" fill="#0F172A" font-size="13" textLength="63.414" font-style="italic">«function»</text><text x="446.5" y="719.676" fill="#0F172A" font-size="13" textLength="30.615" font-weight="700">F203</text><text x="446.5" y="738.5" fill="#0F172A" font-size="13" textLength="230.815" font-weight="700">e2e_google_probe._google_request</text><text x="446.5" y="757.324" fill="#0F172A" font-size="13">役</text><text x="459.5" y="757.324" fill="#0F172A" font-size="13">割</text><text x="472.5" y="757.324" fill="#0F172A" font-size="13">:</text><text x="476.114" y="757.324" fill="#0F172A" font-size="13"> </text><text x="479.026" y="757.324" fill="#0F172A" font-size="13" textLength="42.939">Google</text><text x="521.965" y="757.324" fill="#0F172A" font-size="13"> </text><text x="524.877" y="757.324" fill="#0F172A" font-size="13" textLength="54.86">Calendar</text><text x="579.737" y="757.324" fill="#0F172A" font-size="13"> </text><text x="582.649" y="757.324" fill="#0F172A" font-size="13" textLength="19.942">API</text><text x="602.591" y="757.324" fill="#0F172A" font-size="13">へ</text><text x="615.591" y="757.324" fill="#0F172A" font-size="13">小</text><text x="628.591" y="757.324" fill="#0F172A" font-size="13">さ</text><text x="641.591" y="757.324" fill="#0F172A" font-size="13">な</text><text x="654.591" y="757.324" fill="#0F172A" font-size="13" textLength="33.748">JSON</text><text x="688.339" y="757.324" fill="#0F172A" font-size="13">リ</text><text x="446.5" y="776.148" fill="#0F172A" font-size="13">ク</text><text x="459.5" y="776.148" fill="#0F172A" font-size="13">エ</text><text x="472.5" y="776.148" fill="#0F172A" font-size="13">ス</text><text x="485.5" y="776.148" fill="#0F172A" font-size="13">ト</text><text x="498.5" y="776.148" fill="#0F172A" font-size="13">を</text><text x="511.5" y="776.148" fill="#0F172A" font-size="13">送</text><text x="524.5" y="776.148" fill="#0F172A" font-size="13">り</text><text x="537.5" y="776.148" fill="#0F172A" font-size="13">、</text><text x="550.5" y="776.148" fill="#0F172A" font-size="13" textLength="37.18">status</text><text x="587.68" y="776.148" fill="#0F172A" font-size="13">と</text><text x="600.68" y="776.148" fill="#0F172A" font-size="13">辞</text><text x="613.68" y="776.148" fill="#0F172A" font-size="13">書</text><text x="626.68" y="776.148" fill="#0F172A" font-size="13">を</text><text x="639.68" y="776.148" fill="#0F172A" font-size="13">返</text><text x="652.68" y="776.148" fill="#0F172A" font-size="13">す</text><text x="665.68" y="776.148" fill="#0F172A" font-size="13">。</text></g><!--entity F204--><g class="entity" data-qualified-name="F204" id="ent0014" data-source-line="18"><rect x="434" y="808.272" width="279.805" height="95.296" fill="#E0F2FE" style="stroke:#0369A1;stroke-width:0.5;" rx="4" ry="4"/><text x="542.196" y="833.352" fill="#0F172A" font-size="13" textLength="63.414" font-style="italic">«function»</text><text x="444" y="852.176" fill="#0F172A" font-size="13" textLength="30.615" font-weight="700">F204</text><text x="474.615" y="852.176" fill="#0F172A" font-size="13" font-weight="700"> </text><text x="477.566" y="852.176" fill="#0F172A" font-size="13" textLength="226.239" font-weight="700">e2e_google_probe._event_payload</text><text x="444" y="871" fill="#0F172A" font-size="13">役</text><text x="457" y="871" fill="#0F172A" font-size="13">割</text><text x="470" y="871" fill="#0F172A" font-size="13">:</text><text x="473.614" y="871" fill="#0F172A" font-size="13"> </text><text x="476.526" y="871" fill="#0F172A" font-size="13" textLength="42.939">Google</text><text x="519.465" y="871" fill="#0F172A" font-size="13"> </text><text x="522.377" y="871" fill="#0F172A" font-size="13" textLength="54.86">Calendar</text><text x="577.237" y="871" fill="#0F172A" font-size="13"> </text><text x="580.149" y="871" fill="#0F172A" font-size="13" textLength="34.008">event</text><text x="614.157" y="871" fill="#0F172A" font-size="13"> </text><text x="617.069" y="871" fill="#0F172A" font-size="13">の</text><text x="630.069" y="871" fill="#0F172A" font-size="13">作</text><text x="643.069" y="871" fill="#0F172A" font-size="13">成</text><text x="656.069" y="871" fill="#0F172A" font-size="13">・</text><text x="669.069" y="871" fill="#0F172A" font-size="13">更</text><text x="682.069" y="871" fill="#0F172A" font-size="13">新</text><text x="444" y="889.824" fill="#0F172A" font-size="13" textLength="49.101">payload</text><text x="493.101" y="889.824" fill="#0F172A" font-size="13"> </text><text x="496.013" y="889.824" fill="#0F172A" font-size="13">を</text><text x="509.013" y="889.824" fill="#0F172A" font-size="13">組</text><text x="522.013" y="889.824" fill="#0F172A" font-size="13">み</text><text x="535.013" y="889.824" fill="#0F172A" font-size="13">立</text><text x="548.013" y="889.824" fill="#0F172A" font-size="13">て</text><text x="561.013" y="889.824" fill="#0F172A" font-size="13">る</text><text x="574.013" y="889.824" fill="#0F172A" font-size="13">。</text></g><g class="link" data-entity-1="ent0001" data-entity-2="ent0002" id="lnk3" data-link-type="dependency"><polygon points="447.966,148.297,438.129,148.763,443.499,150.541,441.72,155.911,447.966,148.297" fill="#64748B" style="stroke:#64748B;stroke-width:1;stroke-linejoin:miter;stroke-miterlimit:10;"/><path d="M172.572,421.088 C201.095,376.408 247.423,309.141 297,258.772 C349.752,205.177 366.463,193.65 432,156.772 C437.165,153.866 438.043,153.282 443.499,150.541" style="stroke:#64748B;stroke-width:1;" fill="none"/><text x="299" y="162.852" fill="#334155" font-size="13" textLength="45.305">[E1260]</text><text x="344.305" y="162.852" fill="#334155" font-size="13"> </text><text x="347.217" y="162.852" fill="#334155" font-size="13">関</text><text x="360.217" y="162.852" fill="#334155" font-size="13">数</text><text x="373.217" y="162.852" fill="#334155" font-size="13">を</text><text x="386.217" y="162.852" fill="#334155" font-size="13">定</text><text x="399.217" y="162.852" fill="#334155" font-size="13">義</text></g><g class="link" data-entity-1="ent0001" data-entity-2="ent0004" id="lnk5" data-link-type="dependency"><polygon points="450.746,261.324,440.902,261.609,446.238,263.486,444.361,268.822,450.746,261.324" fill="#64748B" style="stroke:#64748B;stroke-width:1;stroke-linejoin:miter;stroke-miterlimit:10;"/><path d="M203.962,421.272 C260.635,378.235 348.86,314.973 432,270.772 C438.062,267.549 439.838,266.556 446.238,263.486" style="stroke:#64748B;stroke-width:1;" fill="none"/><text x="299" y="279.852" fill="#334155" font-size="13" textLength="45.305">[E1261]</text><text x="344.305" y="279.852" fill="#334155" font-size="13"> </text><text x="347.217" y="279.852" fill="#334155" font-size="13">関</text><text x="360.217" y="279.852" fill="#334155" font-size="13">数</text><text x="373.217" y="279.852" fill="#334155" font-size="13">を</text><text x="386.217" y="279.852" fill="#334155" font-size="13">定</text><text x="399.217" y="279.852" fill="#334155" font-size="13">義</text></g><g class="link" data-entity-1="ent0001" data-entity-2="ent0006" id="lnk7" data-link-type="dependency"><polygon points="432.258,380.027,422.48,378.847,427.479,381.496,424.83,386.494,432.258,380.027" fill="#64748B" style="stroke:#64748B;stroke-width:1;stroke-linejoin:miter;stroke-miterlimit:10;"/><path d="M279.102,427.097 C327.898,412.1 378.254,396.624 427.479,381.496" style="stroke:#64748B;stroke-width:1;" fill="none"/><text x="299" y="382.852" fill="#334155" font-size="13" textLength="45.305">[E1262]</text><text x="344.305" y="382.852" fill="#334155" font-size="13"> </text><text x="347.217" y="382.852" fill="#334155" font-size="13">関</text><text x="360.217" y="382.852" fill="#334155" font-size="13">数</text><text x="373.217" y="382.852" fill="#334155" font-size="13">を</text><text x="386.217" y="382.852" fill="#334155" font-size="13">定</text><text x="399.217" y="382.852" fill="#334155" font-size="13">義</text></g><g class="link" data-entity-1="ent0001" data-entity-2="ent0008" id="lnk9" data-link-type="dependency"><polygon points="444.767,468.772,435.767,464.772,439.767,468.772,435.767,472.772,444.767,468.772" fill="#64748B" style="stroke:#64748B;stroke-width:1;stroke-linejoin:miter;stroke-miterlimit:10;"/><path d="M279.102,468.772 C332.077,468.772 387.524,468.772 439.767,468.772" style="stroke:#64748B;stroke-width:1;" fill="none"/><text x="299" y="463.852" fill="#334155" font-size="13" textLength="45.305">[E1263]</text><text x="344.305" y="463.852" fill="#334155" font-size="13"> </text><text x="347.217" y="463.852" fill="#334155" font-size="13">関</text><text x="360.217" y="463.852" fill="#334155" font-size="13">数</text><text x="373.217" y="463.852" fill="#334155" font-size="13">を</text><text x="386.217" y="463.852" fill="#334155" font-size="13">定</text><text x="399.217" y="463.852" fill="#334155" font-size="13">義</text></g><g class="link" data-entity-1="ent0001" data-entity-2="ent0010" id="lnk11" data-link-type="dependency"><polygon points="431.886,557.403,424.458,550.935,427.106,555.934,422.108,558.582,431.886,557.403" fill="#64748B" style="stroke:#64748B;stroke-width:1;stroke-linejoin:miter;stroke-miterlimit:10;"/><path d="M279.102,510.447 C327.775,525.406 377.976,540.834 427.106,555.934" style="stroke:#64748B;stroke-width:1;" fill="none"/><text x="299" y="514.852" fill="#334155" font-size="13" textLength="45.305">[E1264]</text><text x="344.305" y="514.852" fill="#334155" font-size="13"> </text><text x="347.217" y="514.852" fill="#334155" font-size="13">関</text><text x="360.217" y="514.852" fill="#334155" font-size="13">数</text><text x="373.217" y="514.852" fill="#334155" font-size="13">を</text><text x="386.217" y="514.852" fill="#334155" font-size="13">定</text><text x="399.217" y="514.852" fill="#334155" font-size="13">義</text></g><g class="link" data-entity-1="ent0001" data-entity-2="ent0012" id="lnk13" data-link-type="dependency"><polygon points="448.301,675.66,442.217,667.915,443.882,673.321,438.475,674.986,448.301,675.66" fill="#64748B" style="stroke:#64748B;stroke-width:1;stroke-linejoin:miter;stroke-miterlimit:10;"/><path d="M205.86,516.366 C262.927,558.741 350.618,620.94 432,666.772 C437.299,669.756 438.336,670.387 443.882,673.321" style="stroke:#64748B;stroke-width:1;" fill="none"/><text x="299" y="580.852" fill="#334155" font-size="13" textLength="45.305">[E1265]</text><text x="344.305" y="580.852" fill="#334155" font-size="13"> </text><text x="347.217" y="580.852" fill="#334155" font-size="13">関</text><text x="360.217" y="580.852" fill="#334155" font-size="13">数</text><text x="373.217" y="580.852" fill="#334155" font-size="13">を</text><text x="386.217" y="580.852" fill="#334155" font-size="13">定</text><text x="399.217" y="580.852" fill="#334155" font-size="13">義</text></g><g class="link" data-entity-1="ent0001" data-entity-2="ent0014" id="lnk15" data-link-type="dependency"><polygon points="448.376,808.248,442.353,800.455,443.975,805.874,438.556,807.496,448.376,808.248" fill="#64748B" style="stroke:#64748B;stroke-width:1;stroke-linejoin:miter;stroke-miterlimit:10;"/><path d="M171.857,516.293 C217.443,588.498 313.985,725.198 432,798.772 C437.265,802.055 438.352,802.841 443.975,805.874" style="stroke:#64748B;stroke-width:1;" fill="none"/><text x="299" y="684.852" fill="#334155" font-size="13" textLength="45.305">[E1266]</text><text x="344.305" y="684.852" fill="#334155" font-size="13"> </text><text x="347.217" y="684.852" fill="#334155" font-size="13">関</text><text x="360.217" y="684.852" fill="#334155" font-size="13">数</text><text x="373.217" y="684.852" fill="#334155" font-size="13">を</text><text x="386.217" y="684.852" fill="#334155" font-size="13">定</text><text x="399.217" y="684.852" fill="#334155" font-size="13">義</text></g><g class="legend" data-source-line="20"><rect x="102.561" y="925.272" width="519.878" height="115.36" fill="none" style="stroke:#000;stroke-width:1;" rx="4" ry="4"/><text x="110.739" y="948.512" fill="#0F172A" font-size="14" textLength="28" font-weight="700">表記</text><text x="173.011" y="948.512" fill="#0F172A" font-size="14" textLength="28" font-weight="700">意味</text><text x="110.697" y="968.784" fill="#0F172A" font-size="14" textLength="56">青の実線</text><text x="172.969" y="968.784" fill="#0F172A" font-size="14" textLength="125.999">入力または内部依存</text><text x="110.697" y="989.056" fill="#0F172A" font-size="14" textLength="56">緑の実線</text><text x="172.969" y="989.056" fill="#0F172A" font-size="14" textLength="125.999">出力または処理結果</text><text x="110.697" y="1009.328" fill="#0F172A" font-size="14" textLength="56">橙の破線</text><text x="172.969" y="1009.328" fill="#0F172A" font-size="14" textLength="84">実行時未確認</text><text x="110.697" y="1029.599" fill="#0F172A" font-size="14" textLength="28">補足</text><text x="172.969" y="1029.599" fill="#0F172A" font-size="14" textLength="441.334">各 ID は architecture-index.json と architecture-catalog.md に対応。</text><line x1="107.561" y1="932.272" x2="617.439" y2="932.272" style="stroke:#0F172A;stroke-width:1;"/><line x1="107.561" y1="952.544" x2="617.439" y2="952.544" style="stroke:#0F172A;stroke-width:1;"/><line x1="107.561" y1="972.816" x2="617.439" y2="972.816" style="stroke:#0F172A;stroke-width:1;"/><line x1="107.561" y1="993.088" x2="617.439" y2="993.088" style="stroke:#0F172A;stroke-width:1;"/><line x1="107.561" y1="1013.36" x2="617.439" y2="1013.36" style="stroke:#0F172A;stroke-width:1;"/><line x1="107.561" y1="1033.631" x2="617.439" y2="1033.631" style="stroke:#0F172A;stroke-width:1;"/><line x1="107.561" y1="932.272" x2="107.561" y2="1033.631" style="stroke:#0F172A;stroke-width:1;"/><line x1="169.833" y1="932.272" x2="169.833" y2="1033.631" style="stroke:#0F172A;stroke-width:1;"/><line x1="617.439" y1="932.272" x2="617.439" y2="1033.631" style="stroke:#0F172A;stroke-width:1;"/></g><?plantuml-src ZPNVKjj65CRl_HGdoJN6DWuD6UgPjALjCfqsqqmd5sd68-p5g9KbLrfdmamkB1bY34bi2E6V7IWkfO8CnbEJGYWsxz9b9VajkYlRqpecGNShxHvzt-_eqz4LKOv9wJW2ltymgaqAAeeFQdXAGlvKEYdvi8Wb12Y48A4e2ROC1E6Vp1AGx1On6YIR9TayoVxTMgvOhshERjq-hFckf5GXaHH04gQKD0OjYR0W2pu9JM302gXYOX93N5HH38kAx8ifoPGY8nd3rT7noDr0S8JhHTjwqPIgZAFHmV78Zp9jlAFvFsz2QtsfLQeG_HKndX5z4yP2Ot1VKNz6AX1zdXXv-AhjzND1Gd9SuBUhvusoDLjaLgtjicEUyaNfq5gkiGNDpxNMjebkMjLvkh_gr7FMIP6LqD86BRmWnYAjRZfRJ6gD6FCaOrm5GGFkqySH19bBSUjV1aTkz5dtJo0Sc-m5Q9lLmDtYvkZ2AT7hD7T2z1NQgD3J0ZsgSk7YCNVG8-ogZ8vEf6MtVP68pstPm8Dhm-5FmZS-UpWGQP-v2G_6Wg7Xm4DelnqNPDrkxlRRxk-uFuhaHr6C7kEBh8EzMAELBDtEy-UwFRUMStH_XSwkEEO-at75ydJ69FeRMbYcpPK-YX4F52DTYk2b5A50u2AAHonOqPWYIUsqHTEgr4lqVbRS2ZW_pZWxVy2jkxVv-u4Vlly6cBBzTfheP_QRUQBl_1-6Qry6myzqO48UO88VX14nIdh5eCzNpnillMC4FM04knX37Z125s34EXwZ4wASG6fA5MNySPZRNt3RSE_hMmEXwyDWFSlPXypyCGzWeVHUihZevHIXBaNO0yNG1HITAnNzaaRQ9VvP_xdRMe4FBNtlphtllYNPFM8S4CCanZkIdMNYhOnEZ3cIqJKiuBJ6vf7JtB1AnspBELlYaFyH3daW7EeINlT06FvWt5B2bAG8SIzfwncpxdI5JlN7KnVsG1FkqWptqqWemMp0k8AnalG1FFaKd2tJCLVvofekq8KwFE7teVLwaO_RwgPzjCukwSplT8xbfyb-8qG_e4zdMbdplFcQ_GKw1VRHGaz1xgId8BTZ5v_QRulMHhbJOEskiGBxryDEWVlhiDOCgxndLqwSlUUTSyvlPUUlEZzHd7RphH-0eCOcsTSTmsaL3OXo73ts_wGfCjipU_TY0XOa9U5FiiQo-NhGf6Tbra_sQDQ7TZV-1G00?></g></svg>