<svg xmlns="http://www.w3.org/2000/svg" xmlns:xlink="http://www.w3.org/1999/xlink" version="1.1" data-diagram-type="DESCRIPTION" style="width:1192px;height:833px;background:#FFFFFF;" width="1192px" height="833px" viewBox="0 0 1192 833" zoomAndPan="magnify" preserveAspectRatio="none" contentStyleType="text/css"><?plantuml 1.2026.7?><defs/><g font-family="sans-serif" lengthAdjust="spacing"><g class="title" data-source-line="2"><text x="488.837" y="26.24" fill="#0F172A" font-size="14" textLength="207.325" font-weight="700">entry — メソッド・関数詳細 1/2</text></g><!--entity P001--><g class="entity" data-qualified-name="P001" id="ent0001" data-source-line="5"><rect x="6" y="515.272" width="277.582" height="76.472" fill="#E0F2FE" style="stroke:#0369A1;stroke-width:0.5;" rx="4" ry="4"/><text x="16" y="540.352" fill="#0F172A" font-size="13" textLength="31.681" font-weight="700">P001</text><text x="47.681" y="540.352" fill="#0F172A" font-size="13" font-weight="700"> </text><text x="50.632" y="540.352" fill="#0F172A" font-size="13" textLength="34.489" font-weight="700">entry</text><text x="16" y="559.176" fill="#0F172A" font-size="13">役</text><text x="29" y="559.176" fill="#0F172A" font-size="13">割</text><text x="42" y="559.176" fill="#0F172A" font-size="13">:</text><text x="45.614" y="559.176" fill="#0F172A" font-size="13"> </text><text x="48.526" y="559.176" fill="#0F172A" font-size="13" textLength="33.267">HTTP</text><text x="81.793" y="559.176" fill="#0F172A" font-size="13">、</text><text x="94.793" y="559.176" fill="#0F172A" font-size="13" textLength="29.146">Cron</text><text x="123.939" y="559.176" fill="#0F172A" font-size="13">、</text><text x="136.939" y="559.176" fill="#0F172A" font-size="13">認</text><text x="149.939" y="559.176" fill="#0F172A" font-size="13">可</text><text x="162.939" y="559.176" fill="#0F172A" font-size="13">、</text><text x="175.939" y="559.176" fill="#0F172A" font-size="13">同</text><text x="188.939" y="559.176" fill="#0F172A" font-size="13">期</text><text x="201.939" y="559.176" fill="#0F172A" font-size="13">と</text><text x="214.939" y="559.176" fill="#0F172A" font-size="13">ジ</text><text x="227.939" y="559.176" fill="#0F172A" font-size="13">ョ</text><text x="240.939" y="559.176" fill="#0F172A" font-size="13">ブ</text><text x="253.939" y="559.176" fill="#0F172A" font-size="13">の</text><text x="16" y="578" fill="#0F172A" font-size="13">起</text><text x="29" y="578" fill="#0F172A" font-size="13">動</text><text x="42" y="578" fill="#0F172A" font-size="13">を</text><text x="55" y="578" fill="#0F172A" font-size="13">一</text><text x="68" y="578" fill="#0F172A" font-size="13">つ</text><text x="81" y="578" fill="#0F172A" font-size="13">の</text><text x="94" y="578" fill="#0F172A" font-size="13"> </text><text x="96.912" y="578" fill="#0F172A" font-size="13" textLength="43.758">Worker</text><text x="140.67" y="578" fill="#0F172A" font-size="13"> </text><text x="143.582" y="578" fill="#0F172A" font-size="13">エ</text><text x="156.582" y="578" fill="#0F172A" font-size="13">ン</text><text x="169.582" y="578" fill="#0F172A" font-size="13">ト</text><text x="182.582" y="578" fill="#0F172A" font-size="13">リ</text><text x="195.582" y="578" fill="#0F172A" font-size="13">で</text><text x="208.582" y="578" fill="#0F172A" font-size="13">調</text><text x="221.582" y="578" fill="#0F172A" font-size="13">整</text><text x="234.582" y="578" fill="#0F172A" font-size="13">す</text><text x="247.582" y="578" fill="#0F172A" font-size="13">る</text><text x="260.582" y="578" fill="#0F172A" font-size="13">。</text></g><!--entity C001--><g class="entity" data-qualified-name="C001" id="ent0002" data-source-line="6"><rect x="443" y="269.272" width="277.582" height="114.12" fill="#FFF" style="stroke:#0369A1;stroke-width:0.5;" rx="4" ry="4"/><text x="560.66" y="294.352" fill="#0F172A" font-size="13" textLength="42.263" font-style="italic">«class»</text><text x="453" y="313.176" fill="#0F172A" font-size="13" textLength="31.538" font-weight="700">C001</text><text x="484.538" y="313.176" fill="#0F172A" font-size="13" font-weight="700"> </text><text x="487.489" y="313.176" fill="#0F172A" font-size="13" textLength="85.917" font-weight="700">entry.Default</text><text x="453" y="332" fill="#0F172A" font-size="13">役</text><text x="466" y="332" fill="#0F172A" font-size="13">割</text><text x="479" y="332" fill="#0F172A" font-size="13">:</text><text x="482.614" y="332" fill="#0F172A" font-size="13"> </text><text x="485.526" y="332" fill="#0F172A" font-size="13" textLength="33.267">HTTP</text><text x="518.793" y="332" fill="#0F172A" font-size="13"> </text><text x="521.705" y="332" fill="#0F172A" font-size="13">ル</text><text x="534.705" y="332" fill="#0F172A" font-size="13">ー</text><text x="547.705" y="332" fill="#0F172A" font-size="13">テ</text><text x="560.705" y="332" fill="#0F172A" font-size="13">ィ</text><text x="573.705" y="332" fill="#0F172A" font-size="13">ン</text><text x="586.705" y="332" fill="#0F172A" font-size="13">グ</text><text x="599.705" y="332" fill="#0F172A" font-size="13">、</text><text x="612.705" y="332" fill="#0F172A" font-size="13" textLength="29.146">Cron</text><text x="641.851" y="332" fill="#0F172A" font-size="13"> </text><text x="644.763" y="332" fill="#0F172A" font-size="13">実</text><text x="657.763" y="332" fill="#0F172A" font-size="13">行</text><text x="670.763" y="332" fill="#0F172A" font-size="13">、</text><text x="683.763" y="332" fill="#0F172A" font-size="13">認</text><text x="696.763" y="332" fill="#0F172A" font-size="13">可</text><text x="453" y="350.824" fill="#0F172A" font-size="13">、</text><text x="466" y="350.824" fill="#0F172A" font-size="13">同</text><text x="479" y="350.824" fill="#0F172A" font-size="13">期</text><text x="492" y="350.824" fill="#0F172A" font-size="13">デ</text><text x="505" y="350.824" fill="#0F172A" font-size="13">ィ</text><text x="518" y="350.824" fill="#0F172A" font-size="13">ス</text><text x="531" y="350.824" fill="#0F172A" font-size="13">パ</text><text x="544" y="350.824" fill="#0F172A" font-size="13">ッ</text><text x="557" y="350.824" fill="#0F172A" font-size="13">チ</text><text x="570" y="350.824" fill="#0F172A" font-size="13">を</text><text x="583" y="350.824" fill="#0F172A" font-size="13"> </text><text x="585.912" y="350.824" fill="#0F172A" font-size="13" textLength="43.758">Worker</text><text x="629.67" y="350.824" fill="#0F172A" font-size="13"> </text><text x="632.582" y="350.824" fill="#0F172A" font-size="13">の</text><text x="645.582" y="350.824" fill="#0F172A" font-size="13">入</text><text x="658.582" y="350.824" fill="#0F172A" font-size="13">口</text><text x="671.582" y="350.824" fill="#0F172A" font-size="13">と</text><text x="684.582" y="350.824" fill="#0F172A" font-size="13">し</text><text x="697.582" y="350.824" fill="#0F172A" font-size="13">て</text><text x="453" y="369.648" fill="#0F172A" font-size="13">調</text><text x="466" y="369.648" fill="#0F172A" font-size="13">整</text><text x="479" y="369.648" fill="#0F172A" font-size="13">す</text><text x="492" y="369.648" fill="#0F172A" font-size="13">る</text><text x="505" y="369.648" fill="#0F172A" font-size="13">。</text></g><!--entity F063--><g class="entity" data-qualified-name="F063" id="ent0004" data-source-line="8"><rect x="446.5" y="401.772" width="271.186" height="95.296" fill="#E0F2FE" style="stroke:#0369A1;stroke-width:0.5;" rx="4" ry="4"/><text x="550.386" y="426.852" fill="#0F172A" font-size="13" textLength="63.414" font-style="italic">«function»</text><text x="456.5" y="445.676" fill="#0F172A" font-size="13" textLength="30.615" font-weight="700">F063</text><text x="487.115" y="445.676" fill="#0F172A" font-size="13" font-weight="700"> </text><text x="490.066" y="445.676" fill="#0F172A" font-size="13" textLength="138.827" font-weight="700">entry._json_response</text><text x="456.5" y="464.5" fill="#0F172A" font-size="13">役</text><text x="469.5" y="464.5" fill="#0F172A" font-size="13">割</text><text x="482.5" y="464.5" fill="#0F172A" font-size="13">:</text><text x="486.114" y="464.5" fill="#0F172A" font-size="13"> </text><text x="489.026" y="464.5" fill="#0F172A" font-size="13" textLength="33.748">JSON</text><text x="522.774" y="464.5" fill="#0F172A" font-size="13"> </text><text x="525.686" y="464.5" fill="#0F172A" font-size="13">レ</text><text x="538.686" y="464.5" fill="#0F172A" font-size="13">ス</text><text x="551.686" y="464.5" fill="#0F172A" font-size="13">ポ</text><text x="564.686" y="464.5" fill="#0F172A" font-size="13">ン</text><text x="577.686" y="464.5" fill="#0F172A" font-size="13">ス</text><text x="590.686" y="464.5" fill="#0F172A" font-size="13">を</text><text x="603.686" y="464.5" fill="#0F172A" font-size="13">統</text><text x="616.686" y="464.5" fill="#0F172A" font-size="13">一</text><text x="629.686" y="464.5" fill="#0F172A" font-size="13">フ</text><text x="642.686" y="464.5" fill="#0F172A" font-size="13">ォ</text><text x="655.686" y="464.5" fill="#0F172A" font-size="13">ー</text><text x="668.686" y="464.5" fill="#0F172A" font-size="13">マ</text><text x="681.686" y="464.5" fill="#0F172A" font-size="13">ッ</text><text x="694.686" y="464.5" fill="#0F172A" font-size="13">ト</text><text x="456.5" y="483.324" fill="#0F172A" font-size="13">で</text><text x="469.5" y="483.324" fill="#0F172A" font-size="13">返</text><text x="482.5" y="483.324" fill="#0F172A" font-size="13">す</text><text x="495.5" y="483.324" fill="#0F172A" font-size="13">。</text></g><!--entity F064--><g class="entity" data-qualified-name="F064" id="ent0006" data-source-line="10"><rect x="444" y="515.272" width="276.087" height="76.472" fill="#E0F2FE" style="stroke:#0369A1;stroke-width:0.5;" rx="4" ry="4"/><text x="550.337" y="540.352" fill="#0F172A" font-size="13" textLength="63.414" font-style="italic">«function»</text><text x="454" y="559.176" fill="#0F172A" font-size="13" textLength="30.615" font-weight="700">F064</text><text x="484.615" y="559.176" fill="#0F172A" font-size="13" font-weight="700"> </text><text x="487.566" y="559.176" fill="#0F172A" font-size="13" textLength="91.234" font-weight="700">entry._header</text><text x="454" y="578" fill="#0F172A" font-size="13">役</text><text x="467" y="578" fill="#0F172A" font-size="13">割</text><text x="480" y="578" fill="#0F172A" font-size="13">:</text><text x="483.614" y="578" fill="#0F172A" font-size="13"> </text><text x="486.526" y="578" fill="#0F172A" font-size="13" textLength="33.267">HTTP</text><text x="519.793" y="578" fill="#0F172A" font-size="13"> </text><text x="522.705" y="578" fill="#0F172A" font-size="13">ヘ</text><text x="535.705" y="578" fill="#0F172A" font-size="13">ッ</text><text x="548.705" y="578" fill="#0F172A" font-size="13">ダ</text><text x="561.705" y="578" fill="#0F172A" font-size="13">値</text><text x="574.705" y="578" fill="#0F172A" font-size="13">を</text><text x="587.705" y="578" fill="#0F172A" font-size="13"> </text><text x="590.617" y="578" fill="#0F172A" font-size="13" textLength="25.558">trim</text><text x="616.175" y="578" fill="#0F172A" font-size="13"> </text><text x="619.087" y="578" fill="#0F172A" font-size="13">し</text><text x="632.087" y="578" fill="#0F172A" font-size="13">て</text><text x="645.087" y="578" fill="#0F172A" font-size="13">取</text><text x="658.087" y="578" fill="#0F172A" font-size="13">得</text><text x="671.087" y="578" fill="#0F172A" font-size="13">す</text><text x="684.087" y="578" fill="#0F172A" font-size="13">る</text><text x="697.087" y="578" fill="#0F172A" font-size="13">。</text></g><!--entity F065--><g class="entity" data-qualified-name="F065" id="ent0008" data-source-line="12"><rect x="448" y="609.772" width="267.832" height="95.296" fill="#E0F2FE" style="stroke:#0369A1;stroke-width:0.5;" rx="4" ry="4"/><text x="550.209" y="634.852" fill="#0F172A" font-size="13" textLength="63.414" font-style="italic">«function»</text><text x="458" y="653.676" fill="#0F172A" font-size="13" textLength="30.615" font-weight="700">F065</text><text x="488.615" y="653.676" fill="#0F172A" font-size="13" font-weight="700"> </text><text x="491.566" y="653.676" fill="#0F172A" font-size="13" textLength="105.573" font-weight="700">entry._bool_env</text><text x="458" y="672.5" fill="#0F172A" font-size="13">役</text><text x="471" y="672.5" fill="#0F172A" font-size="13">割</text><text x="484" y="672.5" fill="#0F172A" font-size="13">:</text><text x="487.614" y="672.5" fill="#0F172A" font-size="13"> </text><text x="490.526" y="672.5" fill="#0F172A" font-size="13">環</text><text x="503.526" y="672.5" fill="#0F172A" font-size="13">境</text><text x="516.526" y="672.5" fill="#0F172A" font-size="13">変</text><text x="529.526" y="672.5" fill="#0F172A" font-size="13">数</text><text x="542.526" y="672.5" fill="#0F172A" font-size="13">文</text><text x="555.526" y="672.5" fill="#0F172A" font-size="13">字</text><text x="568.526" y="672.5" fill="#0F172A" font-size="13">列</text><text x="581.526" y="672.5" fill="#0F172A" font-size="13">を</text><text x="594.526" y="672.5" fill="#0F172A" font-size="13"> </text><text x="597.438" y="672.5" fill="#0F172A" font-size="13" textLength="27.482">bool</text><text x="624.92" y="672.5" fill="#0F172A" font-size="13"> </text><text x="627.832" y="672.5" fill="#0F172A" font-size="13">と</text><text x="640.832" y="672.5" fill="#0F172A" font-size="13">し</text><text x="653.832" y="672.5" fill="#0F172A" font-size="13">て</text><text x="666.832" y="672.5" fill="#0F172A" font-size="13">解</text><text x="679.832" y="672.5" fill="#0F172A" font-size="13">釈</text><text x="692.832" y="672.5" fill="#0F172A" font-size="13">す</text><text x="458" y="691.324" fill="#0F172A" font-size="13">る</text><text x="471" y="691.324" fill="#0F172A" font-size="13">。</text></g><!--entity F066--><g class="entity" data-qualified-name="F066" id="ent0010" data-source-line="14"><rect x="445" y="722.772" width="273.526" height="95.296" fill="#E0F2FE" style="stroke:#0369A1;stroke-width:0.5;" rx="4" ry="4"/><text x="550.056" y="747.852" fill="#0F172A" font-size="13" textLength="63.414" font-style="italic">«function»</text><text x="455" y="766.676" fill="#0F172A" font-size="13" textLength="30.615" font-weight="700">F066</text><text x="485.615" y="766.676" fill="#0F172A" font-size="13" font-weight="700"> </text><text x="488.566" y="766.676" fill="#0F172A" font-size="13" textLength="115.232" font-weight="700">entry._detail_dict</text><text x="455" y="785.5" fill="#0F172A" font-size="13">役</text><text x="468" y="785.5" fill="#0F172A" font-size="13">割</text><text x="481" y="785.5" fill="#0F172A" font-size="13">:</text><text x="484.614" y="785.5" fill="#0F172A" font-size="13"> </text><text x="487.526" y="785.5" fill="#0F172A" font-size="13">任</text><text x="500.526" y="785.5" fill="#0F172A" font-size="13">意</text><text x="513.526" y="785.5" fill="#0F172A" font-size="13">の</text><text x="526.526" y="785.5" fill="#0F172A" font-size="13">処</text><text x="539.526" y="785.5" fill="#0F172A" font-size="13">理</text><text x="552.526" y="785.5" fill="#0F172A" font-size="13">結</text><text x="565.526" y="785.5" fill="#0F172A" font-size="13">果</text><text x="578.526" y="785.5" fill="#0F172A" font-size="13">を</text><text x="591.526" y="785.5" fill="#0F172A" font-size="13">詳</text><text x="604.526" y="785.5" fill="#0F172A" font-size="13">細</text><text x="617.526" y="785.5" fill="#0F172A" font-size="13">応</text><text x="630.526" y="785.5" fill="#0F172A" font-size="13">答</text><text x="643.526" y="785.5" fill="#0F172A" font-size="13">用</text><text x="656.526" y="785.5" fill="#0F172A" font-size="13">の</text><text x="669.526" y="785.5" fill="#0F172A" font-size="13">辞</text><text x="682.526" y="785.5" fill="#0F172A" font-size="13">書</text><text x="695.526" y="785.5" fill="#0F172A" font-size="13">へ</text><text x="455" y="804.324" fill="#0F172A" font-size="13">正</text><text x="468" y="804.324" fill="#0F172A" font-size="13">規</text><text x="481" y="804.324" fill="#0F172A" font-size="13">化</text><text x="494" y="804.324" fill="#0F172A" font-size="13">す</text><text x="507" y="804.324" fill="#0F172A" font-size="13">る</text><text x="520" y="804.324" fill="#0F172A" font-size="13">。</text></g><!--entity M001--><g class="entity" data-qualified-name="M001" id="ent0012" data-source-line="16"><rect x="902.5" y="53.272" width="270.705" height="76.472" fill="#FFF" style="stroke:#0369A1;stroke-width:0.5;" rx="4" ry="4"/><text x="1007.641" y="78.352" fill="#0F172A" font-size="13" textLength="60.424" font-style="italic">«method»</text><text x="912.5" y="97.176" fill="#0F172A" font-size="13" textLength="34.099" font-weight="700">M001</text><text x="946.599" y="97.176" fill="#0F172A" font-size="13" font-weight="700"> </text><text x="949.55" y="97.176" fill="#0F172A" font-size="13" textLength="123.175" font-weight="700">entry.Default.fetch</text><text x="912.5" y="116" fill="#0F172A" font-size="13">役</text><text x="925.5" y="116" fill="#0F172A" font-size="13">割</text><text x="938.5" y="116" fill="#0F172A" font-size="13">:</text><text x="942.114" y="116" fill="#0F172A" font-size="13"> </text><text x="945.026" y="116" fill="#0F172A" font-size="13" textLength="33.267">HTTP</text><text x="978.293" y="116" fill="#0F172A" font-size="13"> </text><text x="981.205" y="116" fill="#0F172A" font-size="13">エ</text><text x="994.205" y="116" fill="#0F172A" font-size="13">ン</text><text x="1007.205" y="116" fill="#0F172A" font-size="13">ド</text><text x="1020.205" y="116" fill="#0F172A" font-size="13">ポ</text><text x="1033.205" y="116" fill="#0F172A" font-size="13">イ</text><text x="1046.205" y="116" fill="#0F172A" font-size="13">ン</text><text x="1059.205" y="116" fill="#0F172A" font-size="13">ト</text><text x="1072.205" y="116" fill="#0F172A" font-size="13">を</text><text x="1085.205" y="116" fill="#0F172A" font-size="13">振</text><text x="1098.205" y="116" fill="#0F172A" font-size="13">り</text><text x="1111.205" y="116" fill="#0F172A" font-size="13">分</text><text x="1124.205" y="116" fill="#0F172A" font-size="13">け</text><text x="1137.205" y="116" fill="#0F172A" font-size="13">る</text><text x="1150.205" y="116" fill="#0F172A" font-size="13">。</text></g><!--entity M002--><g class="entity" data-qualified-name="M002" id="ent0014" data-source-line="18"><rect x="927" y="147.272" width="221.812" height="76.472" fill="#FFF" style="stroke:#0369A1;stroke-width:0.5;" rx="4" ry="4"/><text x="1007.694" y="172.352" fill="#0F172A" font-size="13" textLength="60.424" font-style="italic">«method»</text><text x="937" y="191.176" fill="#0F172A" font-size="13" textLength="34.099" font-weight="700">M002</text><text x="971.099" y="191.176" fill="#0F172A" font-size="13" font-weight="700"> </text><text x="974.05" y="191.176" fill="#0F172A" font-size="13" textLength="155.974" font-weight="700">entry.Default.scheduled</text><text x="937" y="210" fill="#0F172A" font-size="13">役</text><text x="950" y="210" fill="#0F172A" font-size="13">割</text><text x="963" y="210" fill="#0F172A" font-size="13">:</text><text x="966.614" y="210" fill="#0F172A" font-size="13"> </text><text x="969.526" y="210" fill="#0F172A" font-size="13" textLength="29.146">Cron</text><text x="998.672" y="210" fill="#0F172A" font-size="13"> </text><text x="1001.584" y="210" fill="#0F172A" font-size="13" textLength="43.316">Trigger</text><text x="1044.9" y="210" fill="#0F172A" font-size="13"> </text><text x="1047.812" y="210" fill="#0F172A" font-size="13">実</text><text x="1060.812" y="210" fill="#0F172A" font-size="13">行</text><text x="1073.812" y="210" fill="#0F172A" font-size="13">エ</text><text x="1086.812" y="210" fill="#0F172A" font-size="13">ン</text><text x="1099.812" y="210" fill="#0F172A" font-size="13">ト</text><text x="1112.812" y="210" fill="#0F172A" font-size="13">リ</text><text x="1125.812" y="210" fill="#0F172A" font-size="13">。</text></g><!--entity M011--><g class="entity" data-qualified-name="M011" id="ent0016" data-source-line="20"><rect x="925.5" y="241.272" width="224.646" height="76.472" fill="#FFF" style="stroke:#0369A1;stroke-width:0.5;" rx="4" ry="4"/><text x="1007.611" y="266.352" fill="#0F172A" font-size="13" textLength="60.424" font-style="italic">«method»</text><text x="935.5" y="285.176" fill="#0F172A" font-size="13" textLength="34.099" font-weight="700">M011</text><text x="969.599" y="285.176" fill="#0F172A" font-size="13" font-weight="700"> </text><text x="972.55" y="285.176" fill="#0F172A" font-size="13" textLength="167.596" font-weight="700">entry.Default._authorized</text><text x="935.5" y="304" fill="#0F172A" font-size="13">役</text><text x="948.5" y="304" fill="#0F172A" font-size="13">割</text><text x="961.5" y="304" fill="#0F172A" font-size="13">:</text><text x="965.114" y="304" fill="#0F172A" font-size="13"> </text><text x="968.026" y="304" fill="#0F172A" font-size="13" textLength="40.352">Bearer</text><text x="1008.378" y="304" fill="#0F172A" font-size="13"> </text><text x="1011.29" y="304" fill="#0F172A" font-size="13">認</text><text x="1024.29" y="304" fill="#0F172A" font-size="13">可</text><text x="1037.29" y="304" fill="#0F172A" font-size="13">判</text><text x="1050.29" y="304" fill="#0F172A" font-size="13">定</text><text x="1063.29" y="304" fill="#0F172A" font-size="13">。</text></g><!--entity M003--><g class="entity" data-qualified-name="M003" id="ent0018" data-source-line="22"><rect x="900" y="335.272" width="276.126" height="76.472" fill="#FFF" style="stroke:#0369A1;stroke-width:0.5;" rx="4" ry="4"/><text x="1007.851" y="360.352" fill="#0F172A" font-size="13" textLength="60.424" font-style="italic">«method»</text><text x="910" y="379.176" fill="#0F172A" font-size="13" textLength="34.099" font-weight="700">M003</text><text x="944.099" y="379.176" fill="#0F172A" font-size="13" font-weight="700"> </text><text x="947.05" y="379.176" fill="#0F172A" font-size="13" textLength="219.076" font-weight="700">entry.Default._run_sync_dispatch</text><text x="910" y="398" fill="#0F172A" font-size="13">役</text><text x="923" y="398" fill="#0F172A" font-size="13">割</text><text x="936" y="398" fill="#0F172A" font-size="13">:</text><text x="939.614" y="398" fill="#0F172A" font-size="13"> </text><text x="942.526" y="398" fill="#0F172A" font-size="13">同</text><text x="955.526" y="398" fill="#0F172A" font-size="13">期</text><text x="968.526" y="398" fill="#0F172A" font-size="13">処</text><text x="981.526" y="398" fill="#0F172A" font-size="13">理</text><text x="994.526" y="398" fill="#0F172A" font-size="13">の</text><text x="1007.526" y="398" fill="#0F172A" font-size="13">中</text><text x="1020.526" y="398" fill="#0F172A" font-size="13">核</text><text x="1033.526" y="398" fill="#0F172A" font-size="13">デ</text><text x="1046.526" y="398" fill="#0F172A" font-size="13">ィ</text><text x="1059.526" y="398" fill="#0F172A" font-size="13">ス</text><text x="1072.526" y="398" fill="#0F172A" font-size="13">パ</text><text x="1085.526" y="398" fill="#0F172A" font-size="13">ッ</text><text x="1098.526" y="398" fill="#0F172A" font-size="13">チ</text><text x="1111.526" y="398" fill="#0F172A" font-size="13">。</text></g><!--entity M012--><g class="entity" data-qualified-name="M012" id="ent0020" data-source-line="24"><rect x="906" y="429.772" width="263.698" height="95.296" fill="#FFF" style="stroke:#0369A1;stroke-width:0.5;" rx="4" ry="4"/><text x="1007.637" y="454.852" fill="#0F172A" font-size="13" textLength="60.424" font-style="italic">«method»</text><text x="916" y="473.676" fill="#0F172A" font-size="13" textLength="34.099" font-weight="700">M012</text><text x="916" y="492.5" fill="#0F172A" font-size="13" textLength="243.698" font-weight="700">entry.Default._sync_interval_seconds</text><text x="916" y="511.324" fill="#0F172A" font-size="13">役</text><text x="929" y="511.324" fill="#0F172A" font-size="13">割</text><text x="942" y="511.324" fill="#0F172A" font-size="13">:</text><text x="945.614" y="511.324" fill="#0F172A" font-size="13"> </text><text x="948.526" y="511.324" fill="#0F172A" font-size="13">同</text><text x="961.526" y="511.324" fill="#0F172A" font-size="13">期</text><text x="974.526" y="511.324" fill="#0F172A" font-size="13">ク</text><text x="987.526" y="511.324" fill="#0F172A" font-size="13">ー</text><text x="1000.526" y="511.324" fill="#0F172A" font-size="13">ル</text><text x="1013.526" y="511.324" fill="#0F172A" font-size="13">ダ</text><text x="1026.526" y="511.324" fill="#0F172A" font-size="13">ウ</text><text x="1039.526" y="511.324" fill="#0F172A" font-size="13">ン</text><text x="1052.526" y="511.324" fill="#0F172A" font-size="13">秒</text><text x="1065.526" y="511.324" fill="#0F172A" font-size="13">数</text><text x="1078.526" y="511.324" fill="#0F172A" font-size="13">を</text><text x="1091.526" y="511.324" fill="#0F172A" font-size="13">返</text><text x="1104.526" y="511.324" fill="#0F172A" font-size="13">す</text><text x="1117.526" y="511.324" fill="#0F172A" font-size="13">。</text></g><!--entity M013--><g class="entity" data-qualified-name="M013" id="ent0022" data-source-line="26"><rect x="912.5" y="543.272" width="250.854" height="76.472" fill="#FFF" style="stroke:#0369A1;stroke-width:0.5;" rx="4" ry="4"/><text x="1007.715" y="568.352" fill="#0F172A" font-size="13" textLength="60.424" font-style="italic">«method»</text><text x="922.5" y="587.176" fill="#0F172A" font-size="13" textLength="34.099" font-weight="700">M013</text><text x="956.599" y="587.176" fill="#0F172A" font-size="13" font-weight="700"> </text><text x="959.55" y="587.176" fill="#0F172A" font-size="13" textLength="193.804" font-weight="700">entry.Default._sync_all_mode</text><text x="922.5" y="606" fill="#0F172A" font-size="13">役</text><text x="935.5" y="606" fill="#0F172A" font-size="13">割</text><text x="948.5" y="606" fill="#0F172A" font-size="13">:</text><text x="952.114" y="606" fill="#0F172A" font-size="13"> </text><text x="955.026" y="606" fill="#0F172A" font-size="13">同</text><text x="968.026" y="606" fill="#0F172A" font-size="13">期</text><text x="981.026" y="606" fill="#0F172A" font-size="13">モ</text><text x="994.026" y="606" fill="#0F172A" font-size="13">ー</text><text x="1007.026" y="606" fill="#0F172A" font-size="13">ド</text><text x="1020.026" y="606" fill="#0F172A" font-size="13">名</text><text x="1033.026" y="606" fill="#0F172A" font-size="13">を</text><text x="1046.026" y="606" fill="#0F172A" font-size="13">返</text><text x="1059.026" y="606" fill="#0F172A" font-size="13">す</text><text x="1072.026" y="606" fill="#0F172A" font-size="13">。</text></g><g class="link" data-entity-1="ent0001" data-entity-2="ent0002" id="lnk3" data-link-type="dependency"><polygon points="463.17,383.449,453.328,383.79,458.675,385.637,456.828,390.984,463.17,383.449" fill="#64748B" style="stroke:#64748B;stroke-width:1;stroke-linejoin:miter;stroke-miterlimit:10;"/><path d="M208.786,515.243 C237.011,498.512 270.903,478.922 302,462.272 C363.506,429.34 380.286,423.841 443,393.272 C449.584,390.063 451.849,388.958 458.675,385.637" style="stroke:#64748B;stroke-width:1;" fill="none"/><text x="304" y="398.352" fill="#334155" font-size="13" textLength="38.09">[E900]</text><text x="342.09" y="398.352" fill="#334155" font-size="13"> </text><text x="345.002" y="398.352" fill="#334155" font-size="13">ク</text><text x="358.002" y="398.352" fill="#334155" font-size="13">ラ</text><text x="371.002" y="398.352" fill="#334155" font-size="13">ス</text><text x="384.002" y="398.352" fill="#334155" font-size="13">を</text><text x="397.002" y="398.352" fill="#334155" font-size="13">定</text><text x="410.002" y="398.352" fill="#334155" font-size="13">義</text></g><g class="link" data-entity-1="ent0001" data-entity-2="ent0004" id="lnk5" data-link-type="dependency"><polygon points="446.472,481.435,436.788,479.637,441.609,482.598,438.648,487.418,446.472,481.435" fill="#64748B" style="stroke:#64748B;stroke-width:1;stroke-linejoin:miter;stroke-miterlimit:10;"/><path d="M284.234,520.223 C336.105,507.822 390.08,494.917 441.609,482.598" style="stroke:#64748B;stroke-width:1;" fill="none"/><text x="307" y="483.352" fill="#334155" font-size="13" textLength="45.305">[E1060]</text><text x="352.305" y="483.352" fill="#334155" font-size="13"> </text><text x="355.217" y="483.352" fill="#334155" font-size="13">関</text><text x="368.217" y="483.352" fill="#334155" font-size="13">数</text><text x="381.217" y="483.352" fill="#334155" font-size="13">を</text><text x="394.217" y="483.352" fill="#334155" font-size="13">定</text><text x="407.217" y="483.352" fill="#334155" font-size="13">義</text></g><g class="link" data-entity-1="ent0001" data-entity-2="ent0006" id="lnk7" data-link-type="dependency"><polygon points="443.871,553.272,434.871,549.272,438.871,553.272,434.871,557.272,443.871,553.272" fill="#64748B" style="stroke:#64748B;stroke-width:1;stroke-linejoin:miter;stroke-miterlimit:10;"/><path d="M284.234,553.272 C335.234,553.272 387.969,553.272 438.871,553.272" style="stroke:#64748B;stroke-width:1;" fill="none"/><text x="307" y="548.352" fill="#334155" font-size="13" textLength="45.305">[E1061]</text><text x="352.305" y="548.352" fill="#334155" font-size="13"> </text><text x="355.217" y="548.352" fill="#334155" font-size="13">関</text><text x="368.217" y="548.352" fill="#334155" font-size="13">数</text><text x="381.217" y="548.352" fill="#334155" font-size="13">を</text><text x="394.217" y="548.352" fill="#334155" font-size="13">定</text><text x="407.217" y="548.352" fill="#334155" font-size="13">義</text></g><g class="link" data-entity-1="ent0001" data-entity-2="ent0008" id="lnk9" data-link-type="dependency"><polygon points="447.953,625.463,440.129,619.48,443.09,624.3,438.269,627.26,447.953,625.463" fill="#64748B" style="stroke:#64748B;stroke-width:1;stroke-linejoin:miter;stroke-miterlimit:10;"/><path d="M284.234,586.321 C336.602,598.841 391.209,611.897 443.09,624.3" style="stroke:#64748B;stroke-width:1;" fill="none"/><text x="307" y="587.352" fill="#334155" font-size="13" textLength="45.305">[E1062]</text><text x="352.305" y="587.352" fill="#334155" font-size="13"> </text><text x="355.217" y="587.352" fill="#334155" font-size="13">関</text><text x="368.217" y="587.352" fill="#334155" font-size="13">数</text><text x="381.217" y="587.352" fill="#334155" font-size="13">を</text><text x="394.217" y="587.352" fill="#334155" font-size="13">定</text><text x="407.217" y="587.352" fill="#334155" font-size="13">義</text></g><g class="link" data-entity-1="ent0001" data-entity-2="ent0010" id="lnk11" data-link-type="dependency"><polygon points="461.805,722.614,455.145,715.359,457.22,720.622,451.957,722.696,461.805,722.614" fill="#64748B" style="stroke:#64748B;stroke-width:1;stroke-linejoin:miter;stroke-miterlimit:10;"/><path d="M210.052,591.32 C238.072,607.679 271.457,626.789 302,643.272 C363.745,676.594 379.107,685.279 443,714.272 C449.122,717.05 450.838,717.848 457.22,720.622" style="stroke:#64748B;stroke-width:1;" fill="none"/><text x="307" y="638.352" fill="#334155" font-size="13" textLength="45.305">[E1063]</text><text x="352.305" y="638.352" fill="#334155" font-size="13"> </text><text x="355.217" y="638.352" fill="#334155" font-size="13">関</text><text x="368.217" y="638.352" fill="#334155" font-size="13">数</text><text x="381.217" y="638.352" fill="#334155" font-size="13">を</text><text x="394.217" y="638.352" fill="#334155" font-size="13">定</text><text x="407.217" y="638.352" fill="#334155" font-size="13">義</text></g><g class="link" data-entity-1="ent0002" data-entity-2="ent0012" id="lnk13" data-link-type="dependency"><polygon points="924.715,129.36,914.895,128.601,920.003,131.033,917.572,136.14,924.715,129.36" fill="#64748B" style="stroke:#64748B;stroke-width:1;stroke-linejoin:miter;stroke-miterlimit:10;"/><path d="M645.471,269.006 C672.805,245.914 706.102,220.295 739,201.272 C805.519,162.809 827.866,164.745 900,138.272 C908.026,135.326 911.625,134.007 920.003,131.033" style="stroke:#64748B;stroke-width:1;" fill="none"/><text x="741" y="140.352" fill="#334155" font-size="13" textLength="45.305">[E1064]</text><text x="786.305" y="140.352" fill="#334155" font-size="13"> </text><text x="789.217" y="140.352" fill="#334155" font-size="13">メ</text><text x="802.217" y="140.352" fill="#334155" font-size="13">ソ</text><text x="815.217" y="140.352" fill="#334155" font-size="13">ッ</text><text x="828.217" y="140.352" fill="#334155" font-size="13">ド</text><text x="841.217" y="140.352" fill="#334155" font-size="13">を</text><text x="854.217" y="140.352" fill="#334155" font-size="13">所</text><text x="867.217" y="140.352" fill="#334155" font-size="13">有</text></g><g class="link" data-entity-1="ent0002" data-entity-2="ent0014" id="lnk15" data-link-type="dependency"><polygon points="926.72,214.221,916.986,212.724,921.896,215.534,919.086,220.443,926.72,214.221" fill="#64748B" style="stroke:#64748B;stroke-width:1;stroke-linejoin:miter;stroke-miterlimit:10;"/><path d="M721.034,275.209 C727.092,273.166 733.101,271.178 739,269.272 C800.634,249.357 865.446,230.891 921.896,215.534" style="stroke:#64748B;stroke-width:1;" fill="none"/><text x="741" y="222.352" fill="#334155" font-size="13" textLength="45.305">[E1065]</text><text x="786.305" y="222.352" fill="#334155" font-size="13"> </text><text x="789.217" y="222.352" fill="#334155" font-size="13">メ</text><text x="802.217" y="222.352" fill="#334155" font-size="13">ソ</text><text x="815.217" y="222.352" fill="#334155" font-size="13">ッ</text><text x="828.217" y="222.352" fill="#334155" font-size="13">ド</text><text x="841.217" y="222.352" fill="#334155" font-size="13">を</text><text x="854.217" y="222.352" fill="#334155" font-size="13">所</text><text x="867.217" y="222.352" fill="#334155" font-size="13">有</text></g><g class="link" data-entity-1="ent0002" data-entity-2="ent0016" id="lnk17" data-link-type="dependency"><polygon points="925.452,290.82,916.088,287.768,920.479,291.335,916.912,295.725,925.452,290.82" fill="#64748B" style="stroke:#64748B;stroke-width:1;stroke-linejoin:miter;stroke-miterlimit:10;"/><path d="M721.064,311.979 C786.544,305.2 858.779,297.722 920.479,291.335" style="stroke:#64748B;stroke-width:1;" fill="none"/><text x="741" y="290.352" fill="#334155" font-size="13" textLength="45.305">[E1066]</text><text x="786.305" y="290.352" fill="#334155" font-size="13"> </text><text x="789.217" y="290.352" fill="#334155" font-size="13">メ</text><text x="802.217" y="290.352" fill="#334155" font-size="13">ソ</text><text x="815.217" y="290.352" fill="#334155" font-size="13">ッ</text><text x="828.217" y="290.352" fill="#334155" font-size="13">ド</text><text x="841.217" y="290.352" fill="#334155" font-size="13">を</text><text x="854.217" y="290.352" fill="#334155" font-size="13">所</text><text x="867.217" y="290.352" fill="#334155" font-size="13">有</text></g><g class="link" data-entity-1="ent0002" data-entity-2="ent0018" id="lnk19" data-link-type="dependency"><polygon points="899.983,359.087,891.443,354.182,895.01,358.573,890.619,362.139,899.983,359.087" fill="#64748B" style="stroke:#64748B;stroke-width:1;stroke-linejoin:miter;stroke-miterlimit:10;"/><path d="M721.064,340.565 C777.805,346.439 838.378,352.71 895.01,358.573" style="stroke:#64748B;stroke-width:1;" fill="none"/><text x="741" y="337.352" fill="#334155" font-size="13" textLength="45.305">[E1067]</text><text x="786.305" y="337.352" fill="#334155" font-size="13"> </text><text x="789.217" y="337.352" fill="#334155" font-size="13">メ</text><text x="802.217" y="337.352" fill="#334155" font-size="13">ソ</text><text x="815.217" y="337.352" fill="#334155" font-size="13">ッ</text><text x="828.217" y="337.352" fill="#334155" font-size="13">ド</text><text x="841.217" y="337.352" fill="#334155" font-size="13">を</text><text x="854.217" y="337.352" fill="#334155" font-size="13">所</text><text x="867.217" y="337.352" fill="#334155" font-size="13">有</text></g><g class="link" data-entity-1="ent0002" data-entity-2="ent0020" id="lnk21" data-link-type="dependency"><polygon points="905.745,436.551,898.368,430.026,900.977,435.045,895.958,437.655,905.745,436.551" fill="#64748B" style="stroke:#64748B;stroke-width:1;stroke-linejoin:miter;stroke-miterlimit:10;"/><path d="M721.134,376.157 C727.165,378.24 733.14,380.287 739,382.272 C793.388,400.696 848.925,418.604 900.977,435.045" style="stroke:#64748B;stroke-width:1;" fill="none"/><text x="741" y="377.352" fill="#334155" font-size="13" textLength="45.305">[E1068]</text><text x="786.305" y="377.352" fill="#334155" font-size="13"> </text><text x="789.217" y="377.352" fill="#334155" font-size="13">メ</text><text x="802.217" y="377.352" fill="#334155" font-size="13">ソ</text><text x="815.217" y="377.352" fill="#334155" font-size="13">ッ</text><text x="828.217" y="377.352" fill="#334155" font-size="13">ド</text><text x="841.217" y="377.352" fill="#334155" font-size="13">を</text><text x="854.217" y="377.352" fill="#334155" font-size="13">所</text><text x="867.217" y="377.352" fill="#334155" font-size="13">有</text></g><g class="link" data-entity-1="ent0002" data-entity-2="ent0022" id="lnk23" data-link-type="dependency"><polygon points="922.191,543.179,915.226,536.216,917.524,541.385,912.355,543.683,922.191,543.179" fill="#64748B" style="stroke:#64748B;stroke-width:1;stroke-linejoin:miter;stroke-miterlimit:10;"/><path d="M711.582,383.409 C714.912,386.539 718.066,389.824 721,393.272 C739.045,414.473 721.106,431.943 739,453.272 C790.484,514.637 826.169,503.204 900,534.272 C907.185,537.295 909.972,538.481 917.524,541.385" style="stroke:#64748B;stroke-width:1;" fill="none"/><text x="741" y="448.352" fill="#334155" font-size="13" textLength="45.305">[E1069]</text><text x="786.305" y="448.352" fill="#334155" font-size="13"> </text><text x="789.217" y="448.352" fill="#334155" font-size="13">メ</text><text x="802.217" y="448.352" fill="#334155" font-size="13">ソ</text><text x="815.217" y="448.352" fill="#334155" font-size="13">ッ</text><text x="828.217" y="448.352" fill="#334155" font-size="13">ド</text><text x="841.217" y="448.352" fill="#334155" font-size="13">を</text><text x="854.217" y="448.352" fill="#334155" font-size="13">所</text><text x="867.217" y="448.352" fill="#334155" font-size="13">有</text></g><?plantuml-src ZTLRJzj850VmztoAQVlSa1jfgQ8ymEwggiIsKf7wG95bx85urx6HxLIYJx6dXQI0GYC8Us5X2octNIxR5ZKLBNoN7SPElqLdnabe4hV9Kw9eDFCx_pbpSatH93KdGn0E3mXcHZIWF61QioeCp-IoQiXIB1K2g5d6BFW_lm8mUeMTJnWXZ8eOdNskRBch9_Nzjzwx4n0TY8MkpHZYT5O4gZYhvonWPg4bQc98XLCMi7HWADCP2yYA0ILBqRMGf6TdT8rk3wwd9jCF8f6eVrPgO3BzM2EVFf3YcplWxjZO0votHmnTen_rWoLIEgPVoFAYkxw9xJtir33QnQY2xQFwwNkoi8gTycKjZ-qg_GKyqerVeG6miuVHMumA61rWUxT-SE6kliFsxzXPm7ddEX1Dm00Tff6MAVm3d19pgjLjewdyWz57ZEQmiytES4uQN42EDkkl5WFKQ9wjTJvWz9AdQLDoIseVaUUlIMcRrMQlONid2CjbgPIaYgQPJeTuU3V7RoGJjnAtXoTkflq5Ty3uZqEHo0Gj_nYZVNQYKoP7VtZd-o5s2w8sJI-OLVfJ91blL2hyOkgQO42J1c72zeBlFRp_CotuNsx_YrVBjlHE_sE98nhzFizYWvTLO4bVh31vWysFIQMcSXflWK0vNyFaqKYIqlqk-uuxqNHde2X38_26VkEUFCbNMTAMeMI1doqfLSZvMdksVC_Uo4GJ6Uq3ETX4JkgwAa3jIJlJAv-GBKIgHRgBMvadXskaiCQeR3cuweJTxS_pXIxjO1_QmQOsreSssTJAz0KhgY0hKaVdNvwTkSzAh5VdTxpbEUzqsTrOfplwqu1Sh7k7AzxA7dkJvnlkdpLirzp3xVfEYInMklp9Flp9fZ_Uop_QzMZ3Kz2ICa6DqPWAHTRCJhKn8PooktYCdHUaC8VjbrzHH_r7HyTQHfSfTAGBEjfyTHIQc6WVc7JROjvTBtPpOnrSKyf0EQT2kPtCPyeOdQBJT4mqPilNO-rA6UkfZ3MLW_qgevsX2cAEdc0eJpkTmv3-aHZ07tgaKAMtT6MBzammsaemsNU2yKwRaTC4SrQJQEkQCsBNxVjpsEzTsgENjKFtxrh0MBwADDupqjRGkjLtf9qNxvCLpOB64r4LJ2Zfccm6qVb0_yZ_UlBOsQ5DuEsM_KVHFd7vARqIRtN3xRxfyK2wgAf2LfTX81bjSNAHB2y5CNic76qbFFGDvXS0?></g></svg>