<svg xmlns="http://www.w3.org/2000/svg" xmlns:xlink="http://www.w3.org/1999/xlink" version="1.1" data-diagram-type="DESCRIPTION" style="width:806px;height:1127px;background:#FFFFFF;" width="806px" height="1127px" viewBox="0 0 806 1127" zoomAndPan="magnify" preserveAspectRatio="none" contentStyleType="text/css"><?plantuml 1.2026.7?><defs/><g font-family="sans-serif" lengthAdjust="spacing"><g class="title" data-source-line="2"><text x="271.023" y="26.24" fill="#0F172A" font-size="14" textLength="256.955" font-weight="700">google_auth — メソッド・関数詳細 1/2</text></g><!--entity P005--><g class="entity" data-qualified-name="P005" id="ent0001" data-source-line="5"><rect x="6" y="515.272" width="277.231" height="95.296" fill="#E0F2FE" style="stroke:#0369A1;stroke-width:0.5;" rx="4" ry="4"/><text x="16" y="540.352" fill="#0F172A" font-size="13" textLength="31.681" font-weight="700">P005</text><text x="47.681" y="540.352" fill="#0F172A" font-size="13" font-weight="700"> </text><text x="50.632" y="540.352" fill="#0F172A" font-size="13" textLength="80.574" font-weight="700">google_auth</text><text x="16" y="559.176" fill="#0F172A" font-size="13">役</text><text x="29" y="559.176" fill="#0F172A" font-size="13">割</text><text x="42" y="559.176" fill="#0F172A" font-size="13">:</text><text x="45.614" y="559.176" fill="#0F172A" font-size="13"> </text><text x="48.526" y="559.176" fill="#0F172A" font-size="13" textLength="42.939">Google</text><text x="91.465" y="559.176" fill="#0F172A" font-size="13"> </text><text x="94.377" y="559.176" fill="#0F172A" font-size="13" textLength="19.942">API</text><text x="114.319" y="559.176" fill="#0F172A" font-size="13"> </text><text x="117.231" y="559.176" fill="#0F172A" font-size="13">用</text><text x="130.231" y="559.176" fill="#0F172A" font-size="13">ア</text><text x="143.231" y="559.176" fill="#0F172A" font-size="13">ク</text><text x="156.231" y="559.176" fill="#0F172A" font-size="13">セ</text><text x="169.231" y="559.176" fill="#0F172A" font-size="13">ス</text><text x="182.231" y="559.176" fill="#0F172A" font-size="13">ト</text><text x="195.231" y="559.176" fill="#0F172A" font-size="13">ー</text><text x="208.231" y="559.176" fill="#0F172A" font-size="13">ク</text><text x="221.231" y="559.176" fill="#0F172A" font-size="13">ン</text><text x="234.231" y="559.176" fill="#0F172A" font-size="13">を</text><text x="247.231" y="559.176" fill="#0F172A" font-size="13">設</text><text x="260.231" y="559.176" fill="#0F172A" font-size="13">定</text><text x="16" y="578" fill="#0F172A" font-size="13">、</text><text x="29" y="578" fill="#0F172A" font-size="13">キ</text><text x="42" y="578" fill="#0F172A" font-size="13">ャ</text><text x="55" y="578" fill="#0F172A" font-size="13">ッ</text><text x="68" y="578" fill="#0F172A" font-size="13">シ</text><text x="81" y="578" fill="#0F172A" font-size="13">ュ</text><text x="94" y="578" fill="#0F172A" font-size="13">、</text><text x="107" y="578" fill="#0F172A" font-size="13">ブ</text><text x="120" y="578" fill="#0F172A" font-size="13">ロ</text><text x="133" y="578" fill="#0F172A" font-size="13">ー</text><text x="146" y="578" fill="#0F172A" font-size="13">カ</text><text x="159" y="578" fill="#0F172A" font-size="13">ー</text><text x="172" y="578" fill="#0F172A" font-size="13">、</text><text x="185" y="578" fill="#0F172A" font-size="13">サ</text><text x="198" y="578" fill="#0F172A" font-size="13">ー</text><text x="211" y="578" fill="#0F172A" font-size="13">ビ</text><text x="224" y="578" fill="#0F172A" font-size="13">ス</text><text x="237" y="578" fill="#0F172A" font-size="13">ア</text><text x="250" y="578" fill="#0F172A" font-size="13">カ</text><text x="16" y="596.824" fill="#0F172A" font-size="13">ウ</text><text x="29" y="596.824" fill="#0F172A" font-size="13">ン</text><text x="42" y="596.824" fill="#0F172A" font-size="13">ト</text><text x="55" y="596.824" fill="#0F172A" font-size="13">か</text><text x="68" y="596.824" fill="#0F172A" font-size="13">ら</text><text x="81" y="596.824" fill="#0F172A" font-size="13">解</text><text x="94" y="596.824" fill="#0F172A" font-size="13">決</text><text x="107" y="596.824" fill="#0F172A" font-size="13">す</text><text x="120" y="596.824" fill="#0F172A" font-size="13">る</text><text x="133" y="596.824" fill="#0F172A" font-size="13">。</text></g><!--entity F095--><g class="entity" data-qualified-name="F095" id="ent0002" data-source-line="6"><rect x="482" y="53.272" width="261.761" height="95.296" fill="#E0F2FE" style="stroke:#0369A1;stroke-width:0.5;" rx="4" ry="4"/><text x="581.174" y="78.352" fill="#0F172A" font-size="13" textLength="63.414" font-style="italic">«function»</text><text x="492" y="97.176" fill="#0F172A" font-size="13" textLength="30.615" font-weight="700">F095</text><text x="522.615" y="97.176" fill="#0F172A" font-size="13" font-weight="700"> </text><text x="525.566" y="97.176" fill="#0F172A" font-size="13" textLength="117.832" font-weight="700">google_auth.fetch</text><text x="492" y="116" fill="#0F172A" font-size="13">役</text><text x="505" y="116" fill="#0F172A" font-size="13">割</text><text x="518" y="116" fill="#0F172A" font-size="13">:</text><text x="521.614" y="116" fill="#0F172A" font-size="13"> </text><text x="524.526" y="116" fill="#0F172A" font-size="13" textLength="63.297">Cloudflare</text><text x="587.823" y="116" fill="#0F172A" font-size="13"> </text><text x="590.735" y="116" fill="#0F172A" font-size="13" textLength="49.842">Workers</text><text x="640.577" y="116" fill="#0F172A" font-size="13"> </text><text x="643.489" y="116" fill="#0F172A" font-size="13">の</text><text x="656.489" y="116" fill="#0F172A" font-size="13">外</text><text x="669.489" y="116" fill="#0F172A" font-size="13">部</text><text x="682.489" y="116" fill="#0F172A" font-size="13"> </text><text x="685.401" y="116" fill="#0F172A" font-size="13" textLength="33.267">HTTP</text><text x="492" y="134.824" fill="#0F172A" font-size="13" textLength="30.849">fetch</text><text x="522.849" y="134.824" fill="#0F172A" font-size="13"> </text><text x="525.761" y="134.824" fill="#0F172A" font-size="13">実</text><text x="538.761" y="134.824" fill="#0F172A" font-size="13">装</text><text x="551.761" y="134.824" fill="#0F172A" font-size="13">へ</text><text x="564.761" y="134.824" fill="#0F172A" font-size="13">要</text><text x="577.761" y="134.824" fill="#0F172A" font-size="13">求</text><text x="590.761" y="134.824" fill="#0F172A" font-size="13">を</text><text x="603.761" y="134.824" fill="#0F172A" font-size="13">委</text><text x="616.761" y="134.824" fill="#0F172A" font-size="13">譲</text><text x="629.761" y="134.824" fill="#0F172A" font-size="13">し</text><text x="642.761" y="134.824" fill="#0F172A" font-size="13">て</text><text x="655.761" y="134.824" fill="#0F172A" font-size="13">応</text><text x="668.761" y="134.824" fill="#0F172A" font-size="13">答</text><text x="681.761" y="134.824" fill="#0F172A" font-size="13">を</text><text x="694.761" y="134.824" fill="#0F172A" font-size="13">返</text><text x="707.761" y="134.824" fill="#0F172A" font-size="13">す</text><text x="720.761" y="134.824" fill="#0F172A" font-size="13">。</text></g><!--entity F096--><g class="entity" data-qualified-name="F096" id="ent0004" data-source-line="8"><rect x="476.5" y="166.272" width="272.681" height="95.296" fill="#E0F2FE" style="stroke:#0369A1;stroke-width:0.5;" rx="4" ry="4"/><text x="581.134" y="191.352" fill="#0F172A" font-size="13" textLength="63.414" font-style="italic">«function»</text><text x="486.5" y="210.176" fill="#0F172A" font-size="13" textLength="30.615" font-weight="700">F096</text><text x="517.115" y="210.176" fill="#0F172A" font-size="13" font-weight="700"> </text><text x="520.066" y="210.176" fill="#0F172A" font-size="13" textLength="133.926" font-weight="700">google_auth._b64url</text><text x="486.5" y="229" fill="#0F172A" font-size="13">役</text><text x="499.5" y="229" fill="#0F172A" font-size="13">割</text><text x="512.5" y="229" fill="#0F172A" font-size="13">:</text><text x="516.114" y="229" fill="#0F172A" font-size="13"> </text><text x="519.026" y="229" fill="#0F172A" font-size="13" textLength="26.156">JWT</text><text x="545.182" y="229" fill="#0F172A" font-size="13"> </text><text x="548.094" y="229" fill="#0F172A" font-size="13">用</text><text x="561.094" y="229" fill="#0F172A" font-size="13"> </text><text x="564.006" y="229" fill="#0F172A" font-size="13" textLength="68.263">Base64URL</text><text x="632.269" y="229" fill="#0F172A" font-size="13"> </text><text x="635.181" y="229" fill="#0F172A" font-size="13">エ</text><text x="648.181" y="229" fill="#0F172A" font-size="13">ン</text><text x="661.181" y="229" fill="#0F172A" font-size="13">コ</text><text x="674.181" y="229" fill="#0F172A" font-size="13">ー</text><text x="687.181" y="229" fill="#0F172A" font-size="13">ド</text><text x="700.181" y="229" fill="#0F172A" font-size="13">（</text><text x="713.181" y="229" fill="#0F172A" font-size="13">パ</text><text x="726.181" y="229" fill="#0F172A" font-size="13">デ</text><text x="486.5" y="247.824" fill="#0F172A" font-size="13">ィ</text><text x="499.5" y="247.824" fill="#0F172A" font-size="13">ン</text><text x="512.5" y="247.824" fill="#0F172A" font-size="13">グ</text><text x="525.5" y="247.824" fill="#0F172A" font-size="13">な</text><text x="538.5" y="247.824" fill="#0F172A" font-size="13">し</text><text x="551.5" y="247.824" fill="#0F172A" font-size="13">）</text><text x="564.5" y="247.824" fill="#0F172A" font-size="13">。</text></g><!--entity F097--><g class="entity" data-qualified-name="F097" id="ent0006" data-source-line="10"><rect x="479.5" y="279.272" width="267.013" height="95.296" fill="#E0F2FE" style="stroke:#0369A1;stroke-width:0.5;" rx="4" ry="4"/><text x="581.3" y="304.352" fill="#0F172A" font-size="13" textLength="63.414" font-style="italic">«function»</text><text x="489.5" y="323.176" fill="#0F172A" font-size="13" textLength="30.615" font-weight="700">F097</text><text x="520.115" y="323.176" fill="#0F172A" font-size="13" font-weight="700"> </text><text x="523.066" y="323.176" fill="#0F172A" font-size="13" textLength="148.72" font-weight="700">google_auth._env_text</text><text x="489.5" y="342" fill="#0F172A" font-size="13">役</text><text x="502.5" y="342" fill="#0F172A" font-size="13">割</text><text x="515.5" y="342" fill="#0F172A" font-size="13">:</text><text x="519.114" y="342" fill="#0F172A" font-size="13"> </text><text x="522.026" y="342" fill="#0F172A" font-size="13" textLength="43.758">Worker</text><text x="565.784" y="342" fill="#0F172A" font-size="13"> </text><text x="568.696" y="342" fill="#0F172A" font-size="13" textLength="21.905">env</text><text x="590.601" y="342" fill="#0F172A" font-size="13"> </text><text x="593.513" y="342" fill="#0F172A" font-size="13">か</text><text x="606.513" y="342" fill="#0F172A" font-size="13">ら</text><text x="619.513" y="342" fill="#0F172A" font-size="13">文</text><text x="632.513" y="342" fill="#0F172A" font-size="13">字</text><text x="645.513" y="342" fill="#0F172A" font-size="13">列</text><text x="658.513" y="342" fill="#0F172A" font-size="13">を</text><text x="671.513" y="342" fill="#0F172A" font-size="13">安</text><text x="684.513" y="342" fill="#0F172A" font-size="13">全</text><text x="697.513" y="342" fill="#0F172A" font-size="13">に</text><text x="710.513" y="342" fill="#0F172A" font-size="13">取</text><text x="723.513" y="342" fill="#0F172A" font-size="13">得</text><text x="489.5" y="360.824" fill="#0F172A" font-size="13">す</text><text x="502.5" y="360.824" fill="#0F172A" font-size="13">る</text><text x="515.5" y="360.824" fill="#0F172A" font-size="13">。</text></g><!--entity F098--><g class="entity" data-qualified-name="F098" id="ent0008" data-source-line="12"><rect x="478" y="392.272" width="270.25" height="95.296" fill="#E0F2FE" style="stroke:#0369A1;stroke-width:0.5;" rx="4" ry="4"/><text x="581.418" y="417.352" fill="#0F172A" font-size="13" textLength="63.414" font-style="italic">«function»</text><text x="488" y="436.176" fill="#0F172A" font-size="13" textLength="30.615" font-weight="700">F098</text><text x="518.615" y="436.176" fill="#0F172A" font-size="13" font-weight="700"> </text><text x="521.566" y="436.176" fill="#0F172A" font-size="13" textLength="210.678" font-weight="700">google_auth._get_cached_token</text><text x="488" y="455" fill="#0F172A" font-size="13">役</text><text x="501" y="455" fill="#0F172A" font-size="13">割</text><text x="514" y="455" fill="#0F172A" font-size="13">:</text><text x="517.614" y="455" fill="#0F172A" font-size="13"> </text><text x="520.526" y="455" fill="#0F172A" font-size="13" textLength="15.873">KV</text><text x="536.399" y="455" fill="#0F172A" font-size="13"> </text><text x="539.311" y="455" fill="#0F172A" font-size="13">か</text><text x="552.311" y="455" fill="#0F172A" font-size="13">ら</text><text x="565.311" y="455" fill="#0F172A" font-size="13">キ</text><text x="578.311" y="455" fill="#0F172A" font-size="13">ャ</text><text x="591.311" y="455" fill="#0F172A" font-size="13">ッ</text><text x="604.311" y="455" fill="#0F172A" font-size="13">シ</text><text x="617.311" y="455" fill="#0F172A" font-size="13">ュ</text><text x="630.311" y="455" fill="#0F172A" font-size="13">済</text><text x="643.311" y="455" fill="#0F172A" font-size="13">み</text><text x="656.311" y="455" fill="#0F172A" font-size="13" textLength="42.939">Google</text><text x="699.25" y="455" fill="#0F172A" font-size="13">ア</text><text x="712.25" y="455" fill="#0F172A" font-size="13">ク</text><text x="725.25" y="455" fill="#0F172A" font-size="13">セ</text><text x="488" y="473.824" fill="#0F172A" font-size="13">ス</text><text x="501" y="473.824" fill="#0F172A" font-size="13">ト</text><text x="514" y="473.824" fill="#0F172A" font-size="13">ー</text><text x="527" y="473.824" fill="#0F172A" font-size="13">ク</text><text x="540" y="473.824" fill="#0F172A" font-size="13">ン</text><text x="553" y="473.824" fill="#0F172A" font-size="13">を</text><text x="566" y="473.824" fill="#0F172A" font-size="13">取</text><text x="579" y="473.824" fill="#0F172A" font-size="13">得</text><text x="592" y="473.824" fill="#0F172A" font-size="13">す</text><text x="605" y="473.824" fill="#0F172A" font-size="13">る</text><text x="618" y="473.824" fill="#0F172A" font-size="13">。</text></g><!--entity F099--><g class="entity" data-qualified-name="F099" id="ent0010" data-source-line="14"><rect x="476" y="505.772" width="273.526" height="114.12" fill="#E0F2FE" style="stroke:#0369A1;stroke-width:0.5;" rx="4" ry="4"/><text x="581.056" y="530.852" fill="#0F172A" font-size="13" textLength="63.414" font-style="italic">«function»</text><text x="486" y="549.676" fill="#0F172A" font-size="13" textLength="30.615" font-weight="700">F099</text><text x="486" y="568.5" fill="#0F172A" font-size="13" textLength="251.29" font-weight="700">google_auth._get_cached_token_meta</text><text x="486" y="587.324" fill="#0F172A" font-size="13">役</text><text x="499" y="587.324" fill="#0F172A" font-size="13">割</text><text x="512" y="587.324" fill="#0F172A" font-size="13">:</text><text x="515.614" y="587.324" fill="#0F172A" font-size="13"> </text><text x="518.526" y="587.324" fill="#0F172A" font-size="13">キ</text><text x="531.526" y="587.324" fill="#0F172A" font-size="13">ャ</text><text x="544.526" y="587.324" fill="#0F172A" font-size="13">ッ</text><text x="557.526" y="587.324" fill="#0F172A" font-size="13">シ</text><text x="570.526" y="587.324" fill="#0F172A" font-size="13">ュ</text><text x="583.526" y="587.324" fill="#0F172A" font-size="13">ト</text><text x="596.526" y="587.324" fill="#0F172A" font-size="13">ー</text><text x="609.526" y="587.324" fill="#0F172A" font-size="13">ク</text><text x="622.526" y="587.324" fill="#0F172A" font-size="13">ン</text><text x="635.526" y="587.324" fill="#0F172A" font-size="13">の</text><text x="648.526" y="587.324" fill="#0F172A" font-size="13">存</text><text x="661.526" y="587.324" fill="#0F172A" font-size="13">在</text><text x="674.526" y="587.324" fill="#0F172A" font-size="13">・</text><text x="687.526" y="587.324" fill="#0F172A" font-size="13">有</text><text x="700.526" y="587.324" fill="#0F172A" font-size="13">効</text><text x="713.526" y="587.324" fill="#0F172A" font-size="13">性</text><text x="726.526" y="587.324" fill="#0F172A" font-size="13">メ</text><text x="486" y="606.148" fill="#0F172A" font-size="13">タ</text><text x="499" y="606.148" fill="#0F172A" font-size="13">情</text><text x="512" y="606.148" fill="#0F172A" font-size="13">報</text><text x="525" y="606.148" fill="#0F172A" font-size="13">(</text><text x="529.394" y="606.148" fill="#0F172A" font-size="13">健</text><text x="542.394" y="606.148" fill="#0F172A" font-size="13">康</text><text x="555.394" y="606.148" fill="#0F172A" font-size="13">度</text><text x="568.394" y="606.148" fill="#0F172A" font-size="13">)</text><text x="572.788" y="606.148" fill="#0F172A" font-size="13">を</text><text x="585.788" y="606.148" fill="#0F172A" font-size="13">返</text><text x="598.788" y="606.148" fill="#0F172A" font-size="13">す</text><text x="611.788" y="606.148" fill="#0F172A" font-size="13">。</text></g><!--entity F100--><g class="entity" data-qualified-name="F100" id="ent0012" data-source-line="16"><rect x="476.5" y="638.272" width="272.759" height="95.296" fill="#E0F2FE" style="stroke:#0369A1;stroke-width:0.5;" rx="4" ry="4"/><text x="581.173" y="663.352" fill="#0F172A" font-size="13" textLength="63.414" font-style="italic">«function»</text><text x="486.5" y="682.176" fill="#0F172A" font-size="13" textLength="30.615" font-weight="700">F100</text><text x="517.115" y="682.176" fill="#0F172A" font-size="13" font-weight="700"> </text><text x="520.066" y="682.176" fill="#0F172A" font-size="13" textLength="219.05" font-weight="700">google_auth._save_cached_token</text><text x="486.5" y="701" fill="#0F172A" font-size="13">役</text><text x="499.5" y="701" fill="#0F172A" font-size="13">割</text><text x="512.5" y="701" fill="#0F172A" font-size="13">:</text><text x="516.114" y="701" fill="#0F172A" font-size="13"> </text><text x="519.026" y="701" fill="#0F172A" font-size="13" textLength="35.087">token</text><text x="554.113" y="701" fill="#0F172A" font-size="13"> </text><text x="557.025" y="701" fill="#0F172A" font-size="13">と</text><text x="570.025" y="701" fill="#0F172A" font-size="13">任</text><text x="583.025" y="701" fill="#0F172A" font-size="13">意</text><text x="596.025" y="701" fill="#0F172A" font-size="13">の</text><text x="609.025" y="701" fill="#0F172A" font-size="13">有</text><text x="622.025" y="701" fill="#0F172A" font-size="13">効</text><text x="635.025" y="701" fill="#0F172A" font-size="13">期</text><text x="648.025" y="701" fill="#0F172A" font-size="13">限</text><text x="661.025" y="701" fill="#0F172A" font-size="13" textLength="46.449">(epoch)</text><text x="707.474" y="701" fill="#0F172A" font-size="13">を</text><text x="720.474" y="701" fill="#0F172A" font-size="13"> </text><text x="723.386" y="701" fill="#0F172A" font-size="13" textLength="15.873">KV</text><text x="486.5" y="719.824" fill="#0F172A" font-size="13">に</text><text x="499.5" y="719.824" fill="#0F172A" font-size="13">保</text><text x="512.5" y="719.824" fill="#0F172A" font-size="13">存</text><text x="525.5" y="719.824" fill="#0F172A" font-size="13">す</text><text x="538.5" y="719.824" fill="#0F172A" font-size="13">る</text><text x="551.5" y="719.824" fill="#0F172A" font-size="13">。</text></g><!--entity F101--><g class="entity" data-qualified-name="F101" id="ent0014" data-source-line="18"><rect x="473.5" y="751.772" width="279.09" height="114.12" fill="#E0F2FE" style="stroke:#0369A1;stroke-width:0.5;" rx="4" ry="4"/><text x="581.338" y="776.852" fill="#0F172A" font-size="13" textLength="63.414" font-style="italic">«function»</text><text x="483.5" y="795.676" fill="#0F172A" font-size="13" textLength="30.615" font-weight="700">F101</text><text x="483.5" y="814.5" fill="#0F172A" font-size="13" textLength="259.09" font-weight="700">google_auth._fetch_token_from_broker</text><text x="483.5" y="833.324" fill="#0F172A" font-size="13">役</text><text x="496.5" y="833.324" fill="#0F172A" font-size="13">割</text><text x="509.5" y="833.324" fill="#0F172A" font-size="13">:</text><text x="513.114" y="833.324" fill="#0F172A" font-size="13"> </text><text x="516.026" y="833.324" fill="#0F172A" font-size="13">外</text><text x="529.026" y="833.324" fill="#0F172A" font-size="13">部</text><text x="542.026" y="833.324" fill="#0F172A" font-size="13">ト</text><text x="555.026" y="833.324" fill="#0F172A" font-size="13">ー</text><text x="568.026" y="833.324" fill="#0F172A" font-size="13">ク</text><text x="581.026" y="833.324" fill="#0F172A" font-size="13">ン</text><text x="594.026" y="833.324" fill="#0F172A" font-size="13">ブ</text><text x="607.026" y="833.324" fill="#0F172A" font-size="13">ロ</text><text x="620.026" y="833.324" fill="#0F172A" font-size="13">ー</text><text x="633.026" y="833.324" fill="#0F172A" font-size="13">カ</text><text x="646.026" y="833.324" fill="#0F172A" font-size="13">ー</text><text x="659.026" y="833.324" fill="#0F172A" font-size="13">か</text><text x="672.026" y="833.324" fill="#0F172A" font-size="13">ら</text><text x="685.026" y="833.324" fill="#0F172A" font-size="13">ト</text><text x="698.026" y="833.324" fill="#0F172A" font-size="13">ー</text><text x="711.026" y="833.324" fill="#0F172A" font-size="13">ク</text><text x="724.026" y="833.324" fill="#0F172A" font-size="13">ン</text><text x="483.5" y="852.148" fill="#0F172A" font-size="13">を</text><text x="496.5" y="852.148" fill="#0F172A" font-size="13">取</text><text x="509.5" y="852.148" fill="#0F172A" font-size="13">得</text><text x="522.5" y="852.148" fill="#0F172A" font-size="13">す</text><text x="535.5" y="852.148" fill="#0F172A" font-size="13">る</text><text x="548.5" y="852.148" fill="#0F172A" font-size="13">。</text></g><!--entity F102--><g class="entity" data-qualified-name="F102" id="ent0016" data-source-line="20"><rect x="436" y="883.772" width="354.23" height="114.12" fill="#E0F2FE" style="stroke:#0369A1;stroke-width:0.5;" rx="4" ry="4"/><text x="581.408" y="908.852" fill="#0F172A" font-size="13" textLength="63.414" font-style="italic">«function»</text><text x="446" y="927.676" fill="#0F172A" font-size="13" textLength="30.615" font-weight="700">F102</text><text x="446" y="946.5" fill="#0F172A" font-size="13" textLength="334.23" font-weight="700">google_auth._load_service_account_info_from_env</text><text x="446" y="965.324" fill="#0F172A" font-size="13">役</text><text x="459" y="965.324" fill="#0F172A" font-size="13">割</text><text x="472" y="965.324" fill="#0F172A" font-size="13">:</text><text x="475.614" y="965.324" fill="#0F172A" font-size="13"> </text><text x="478.526" y="965.324" fill="#0F172A" font-size="13" textLength="44.174">Service</text><text x="522.7" y="965.324" fill="#0F172A" font-size="13"> </text><text x="525.612" y="965.324" fill="#0F172A" font-size="13" textLength="49.764">Account</text><text x="575.376" y="965.324" fill="#0F172A" font-size="13"> </text><text x="578.288" y="965.324" fill="#0F172A" font-size="13" textLength="33.748">JSON</text><text x="612.036" y="965.324" fill="#0F172A" font-size="13"> </text><text x="614.948" y="965.324" fill="#0F172A" font-size="13">を</text><text x="627.948" y="965.324" fill="#0F172A" font-size="13"> </text><text x="630.86" y="965.324" fill="#0F172A" font-size="13" textLength="21.905">env</text><text x="652.765" y="965.324" fill="#0F172A" font-size="13"> </text><text x="655.677" y="965.324" fill="#0F172A" font-size="13">か</text><text x="668.677" y="965.324" fill="#0F172A" font-size="13">ら</text><text x="681.677" y="965.324" fill="#0F172A" font-size="13">読</text><text x="446" y="984.148" fill="#0F172A" font-size="13">み</text><text x="459" y="984.148" fill="#0F172A" font-size="13">込</text><text x="472" y="984.148" fill="#0F172A" font-size="13">む</text><text x="485" y="984.148" fill="#0F172A" font-size="13">。</text></g><!--entity F103--><g class="entity" data-qualified-name="F103" id="ent0018" data-source-line="22"><rect x="478.5" y="1016.272" width="268.69" height="95.296" fill="#E0F2FE" style="stroke:#0369A1;stroke-width:0.5;" rx="4" ry="4"/><text x="581.138" y="1041.352" fill="#0F172A" font-size="13" textLength="63.414" font-style="italic">«function»</text><text x="488.5" y="1060.176" fill="#0F172A" font-size="13" textLength="30.615" font-weight="700">F103</text><text x="519.115" y="1060.176" fill="#0F172A" font-size="13" font-weight="700"> </text><text x="522.066" y="1060.176" fill="#0F172A" font-size="13" textLength="215.124" font-weight="700">google_auth._pem_pkcs8_to_der</text><text x="488.5" y="1079" fill="#0F172A" font-size="13">役</text><text x="501.5" y="1079" fill="#0F172A" font-size="13">割</text><text x="514.5" y="1079" fill="#0F172A" font-size="13">:</text><text x="518.114" y="1079" fill="#0F172A" font-size="13"> </text><text x="521.026" y="1079" fill="#0F172A" font-size="13" textLength="26.442">PEM</text><text x="547.468" y="1079" fill="#0F172A" font-size="13"> </text><text x="550.38" y="1079" fill="#0F172A" font-size="13">形</text><text x="563.38" y="1079" fill="#0F172A" font-size="13">式</text><text x="576.38" y="1079" fill="#0F172A" font-size="13">の</text><text x="589.38" y="1079" fill="#0F172A" font-size="13"> </text><text x="592.292" y="1079" fill="#0F172A" font-size="13" textLength="39.884">PKCS8</text><text x="632.176" y="1079" fill="#0F172A" font-size="13"> </text><text x="635.088" y="1079" fill="#0F172A" font-size="13">秘</text><text x="648.088" y="1079" fill="#0F172A" font-size="13">密</text><text x="661.088" y="1079" fill="#0F172A" font-size="13">鍵</text><text x="674.088" y="1079" fill="#0F172A" font-size="13">を</text><text x="488.5" y="1097.824" fill="#0F172A" font-size="13" textLength="66.638">DER(bytes)</text><text x="555.138" y="1097.824" fill="#0F172A" font-size="13"> </text><text x="558.05" y="1097.824" fill="#0F172A" font-size="13">に</text><text x="571.05" y="1097.824" fill="#0F172A" font-size="13">変</text><text x="584.05" y="1097.824" fill="#0F172A" font-size="13">換</text><text x="597.05" y="1097.824" fill="#0F172A" font-size="13">す</text><text x="610.05" y="1097.824" fill="#0F172A" font-size="13">る</text><text x="623.05" y="1097.824" fill="#0F172A" font-size="13">。</text></g><g class="link" data-entity-1="ent0001" data-entity-2="ent0002" id="lnk3" data-link-type="dependency"><polygon points="481.816,137.042,471.985,136.445,477.132,138.792,474.786,143.939,481.816,137.042" fill="#64748B" style="stroke:#64748B;stroke-width:1;stroke-linejoin:miter;stroke-miterlimit:10;"/><path d="M161.255,515.198 C184.321,450.709 232.149,334.365 301,253.772 C348.99,197.598 369.981,189.939 436,156.772 C450.469,149.503 461.395,144.672 477.132,138.792" style="stroke:#64748B;stroke-width:1;" fill="none"/><text x="303" y="161.852" fill="#334155" font-size="13" textLength="45.305">[E1109]</text><text x="348.305" y="161.852" fill="#334155" font-size="13"> </text><text x="351.217" y="161.852" fill="#334155" font-size="13">関</text><text x="364.217" y="161.852" fill="#334155" font-size="13">数</text><text x="377.217" y="161.852" fill="#334155" font-size="13">を</text><text x="390.217" y="161.852" fill="#334155" font-size="13">定</text><text x="403.217" y="161.852" fill="#334155" font-size="13">義</text></g><g class="link" data-entity-1="ent0001" data-entity-2="ent0004" id="lnk5" data-link-type="dependency"><polygon points="476.15,252.041,466.313,251.563,471.488,253.847,469.203,259.022,476.15,252.041" fill="#64748B" style="stroke:#64748B;stroke-width:1;stroke-linejoin:miter;stroke-miterlimit:10;"/><path d="M178.181,515.205 C207.685,474.041 253.621,414.159 301,368.772 C354.729,317.302 369.677,303.495 436,269.772 C448.719,263.305 457.672,259.2 471.488,253.847" style="stroke:#64748B;stroke-width:1;" fill="none"/><text x="303" y="274.852" fill="#334155" font-size="13" textLength="45.305">[E1110]</text><text x="348.305" y="274.852" fill="#334155" font-size="13"> </text><text x="351.217" y="274.852" fill="#334155" font-size="13">関</text><text x="364.217" y="274.852" fill="#334155" font-size="13">数</text><text x="377.217" y="274.852" fill="#334155" font-size="13">を</text><text x="390.217" y="274.852" fill="#334155" font-size="13">定</text><text x="403.217" y="274.852" fill="#334155" font-size="13">義</text></g><g class="link" data-entity-1="ent0001" data-entity-2="ent0006" id="lnk7" data-link-type="dependency"><polygon points="479.462,365.03,469.635,364.367,474.766,366.748,472.385,371.879,479.462,365.03" fill="#64748B" style="stroke:#64748B;stroke-width:1;stroke-linejoin:miter;stroke-miterlimit:10;"/><path d="M211.805,515.084 C269.03,475.571 355.022,420.046 436,382.772 C449.836,376.403 459.901,372.189 474.766,366.748" style="stroke:#64748B;stroke-width:1;" fill="none"/><text x="303" y="389.852" fill="#334155" font-size="13" textLength="45.305">[E1111]</text><text x="348.305" y="389.852" fill="#334155" font-size="13"> </text><text x="351.217" y="389.852" fill="#334155" font-size="13">関</text><text x="364.217" y="389.852" fill="#334155" font-size="13">数</text><text x="377.217" y="389.852" fill="#334155" font-size="13">を</text><text x="390.217" y="389.852" fill="#334155" font-size="13">定</text><text x="403.217" y="389.852" fill="#334155" font-size="13">義</text></g><g class="link" data-entity-1="ent0001" data-entity-2="ent0008" id="lnk9" data-link-type="dependency"><polygon points="477.721,475.177,467.999,473.603,472.887,476.451,470.039,481.339,477.721,475.177" fill="#64748B" style="stroke:#64748B;stroke-width:1;stroke-linejoin:miter;stroke-miterlimit:10;"/><path d="M283.257,526.45 C344.659,510.261 411.897,492.532 472.887,476.451" style="stroke:#64748B;stroke-width:1;" fill="none"/><text x="303" y="489.852" fill="#334155" font-size="13" textLength="45.305">[E1112]</text><text x="348.305" y="489.852" fill="#334155" font-size="13"> </text><text x="351.217" y="489.852" fill="#334155" font-size="13">関</text><text x="364.217" y="489.852" fill="#334155" font-size="13">数</text><text x="377.217" y="489.852" fill="#334155" font-size="13">を</text><text x="390.217" y="489.852" fill="#334155" font-size="13">定</text><text x="403.217" y="489.852" fill="#334155" font-size="13">義</text></g><g class="link" data-entity-1="ent0001" data-entity-2="ent0010" id="lnk11" data-link-type="dependency"><polygon points="475.716,562.772,466.716,558.772,470.716,562.772,466.716,566.772,475.716,562.772" fill="#64748B" style="stroke:#64748B;stroke-width:1;stroke-linejoin:miter;stroke-miterlimit:10;"/><path d="M283.257,562.772 C343.987,562.772 410.156,562.772 470.716,562.772" style="stroke:#64748B;stroke-width:1;" fill="none"/><text x="303" y="557.852" fill="#334155" font-size="13" textLength="45.305">[E1113]</text><text x="348.305" y="557.852" fill="#334155" font-size="13"> </text><text x="351.217" y="557.852" fill="#334155" font-size="13">関</text><text x="364.217" y="557.852" fill="#334155" font-size="13">数</text><text x="377.217" y="557.852" fill="#334155" font-size="13">を</text><text x="390.217" y="557.852" fill="#334155" font-size="13">定</text><text x="403.217" y="557.852" fill="#334155" font-size="13">義</text></g><g class="link" data-entity-1="ent0001" data-entity-2="ent0012" id="lnk13" data-link-type="dependency"><polygon points="476.117,649.944,468.435,643.782,471.283,648.67,466.395,651.518,476.117,649.944" fill="#64748B" style="stroke:#64748B;stroke-width:1;stroke-linejoin:miter;stroke-miterlimit:10;"/><path d="M283.257,599.094 C344.121,615.142 410.636,632.679 471.283,648.67" style="stroke:#64748B;stroke-width:1;" fill="none"/><text x="303" y="601.852" fill="#334155" font-size="13" textLength="45.305">[E1114]</text><text x="348.305" y="601.852" fill="#334155" font-size="13"> </text><text x="351.217" y="601.852" fill="#334155" font-size="13">関</text><text x="364.217" y="601.852" fill="#334155" font-size="13">数</text><text x="377.217" y="601.852" fill="#334155" font-size="13">を</text><text x="390.217" y="601.852" fill="#334155" font-size="13">定</text><text x="403.217" y="601.852" fill="#334155" font-size="13">義</text></g><g class="link" data-entity-1="ent0001" data-entity-2="ent0014" id="lnk15" data-link-type="dependency"><polygon points="473.038,759.596,466.308,752.405,468.433,757.647,463.19,759.772,473.038,759.596" fill="#64748B" style="stroke:#64748B;stroke-width:1;stroke-linejoin:miter;stroke-miterlimit:10;"/><path d="M213.743,610.389 C271.266,649.203 356.659,703.783 436,742.772 C447.862,748.601 455.771,752.288 468.433,757.647" style="stroke:#64748B;stroke-width:1;" fill="none"/><text x="303" y="664.852" fill="#334155" font-size="13" textLength="45.305">[E1115]</text><text x="348.305" y="664.852" fill="#334155" font-size="13"> </text><text x="351.217" y="664.852" fill="#334155" font-size="13">関</text><text x="364.217" y="664.852" fill="#334155" font-size="13">数</text><text x="377.217" y="664.852" fill="#334155" font-size="13">を</text><text x="390.217" y="664.852" fill="#334155" font-size="13">定</text><text x="403.217" y="664.852" fill="#334155" font-size="13">義</text></g><g class="link" data-entity-1="ent0001" data-entity-2="ent0016" id="lnk17" data-link-type="dependency"><polygon points="451.547,883.544,445.478,875.787,447.132,881.197,441.722,882.851,451.547,883.544" fill="#64748B" style="stroke:#64748B;stroke-width:1;stroke-linejoin:miter;stroke-miterlimit:10;"/><path d="M176.709,610.523 C224.293,679.462 321.621,806.112 436,874.772 C441.036,877.795 441.82,878.372 447.132,881.197" style="stroke:#64748B;stroke-width:1;" fill="none"/><text x="303" y="758.852" fill="#334155" font-size="13" textLength="45.305">[E1116]</text><text x="348.305" y="758.852" fill="#334155" font-size="13"> </text><text x="351.217" y="758.852" fill="#334155" font-size="13">関</text><text x="364.217" y="758.852" fill="#334155" font-size="13">数</text><text x="377.217" y="758.852" fill="#334155" font-size="13">を</text><text x="390.217" y="758.852" fill="#334155" font-size="13">定</text><text x="403.217" y="758.852" fill="#334155" font-size="13">義</text></g><g class="link" data-entity-1="ent0001" data-entity-2="ent0018" id="lnk19" data-link-type="dependency"><polygon points="478.308,1026.959,471.463,1019.878,473.673,1025.086,468.465,1027.295,478.308,1026.959" fill="#64748B" style="stroke:#64748B;stroke-width:1;stroke-linejoin:miter;stroke-miterlimit:10;"/><path d="M161.411,610.444 C185.046,676.869 233.955,799.08 301,887.772 C349.232,951.576 366.504,967.18 436,1006.772 C449.256,1014.324 459.016,1019.162 473.673,1025.086" style="stroke:#64748B;stroke-width:1;" fill="none"/><text x="303" y="882.852" fill="#334155" font-size="13" textLength="45.305">[E1117]</text><text x="348.305" y="882.852" fill="#334155" font-size="13"> </text><text x="351.217" y="882.852" fill="#334155" font-size="13">関</text><text x="364.217" y="882.852" fill="#334155" font-size="13">数</text><text x="377.217" y="882.852" fill="#334155" font-size="13">を</text><text x="390.217" y="882.852" fill="#334155" font-size="13">定</text><text x="403.217" y="882.852" fill="#334155" font-size="13">義</text></g><?plantuml-src ZPHDRzD86CVl-HGFS2a7sYGDQOAgIBoKtOLTY6XtER38Sfp9Y-hOaJsfjhVOfa10gB2RJNdfYgM5Db2bj1G4RThckp2Cavxu2ZjZ9zewXTQNo1cFPtw_-J_F7CihabnA8nWS71BqdAYXz92EfsKqM2mLv03EOnb1LbMpCXB44ix1vt8LYFM2c3l4ieXL8LPphxPW_xtMURtHVhy6eQ5mu5XH4xC54MHnMYrXq0i8YueOa5460rP1osTp6D9v3Kauhoe1IIqKLGKf68wFfXB9OF3q_Xr7XrA9tnMwiqahxyx03yuBE9ly2ThLEZ4NYFcMc4rYRXBhBh6s-LzhWvX_TkeDklgKb0rYDeYro67DZyHwnKUi6h4QpkGL_ildVE0Frbzy7Rxc2Z6N-3fiJUC-CIkTvKLxVOiOJuXvdvJDuo3gm443t45KE19dlnYCUzW7CmXBVGRdPRMKpiZifE6wgaqYJGTYhDANjJsh3ZzEJ2J1-GZewlFEuWmnFdMM37lTP4fqkTffl2F6736MQ6k-tQXoprQLOtMP783HqKn9SOusaGWuntdgnebeP2GIEtVpLCATSmPkZ8L2mVXDSDFZowy-RU--FcWKzHW9gMYafCbUfqlN9tWSS4xKKJJowxMVWPXr9uSDvrmhNxTPE8-8TOUOYyxu6Z7UC9ElsvLzw54VwD4kUYZe0tt4YuwKAG6ZFx0Ntaq1s4jmmxPhTsXZZjwTSrQkq9awCLReR8tkpdahmDdXQEIH7dB81tBCYvn5M914AOVI0bOdaU95l_nR5xcloErFh6vRRgySqYFVSOhvS8hrdC8-dEA7EmdyVl2AzJVjVcxMB8t7T9xLLzEUhz1xctPvsRcHMhOrG_zT7w36AxhraMujdVnMVyHzsCLxTiD7seM2GQ-TBawXGo9pXbXgzI_Dfdrhbjbq9UQVxprvE82AgfJZt6wsArzQ_p3RleZudaT9y3bTYOWFYP1Nmhc2kkbaDBKWf3Jsh7bLt3lBaqtVpUhMfe-Yum176uLwHgTz68MzHh8gfWKTQLDvYGr9abfIi91NCghhnxhVApVkJeMpxbIuD7xr2l1S_hydEcyQhCiwkyojlCyaxCCat3E9-Z0PzfeKKK4eJafwZEKZfFj3IOxz0dHdWMxpqeBavVFZCMWlFwPlR-yz-C3vBunT6qXDOwIVvFL5NrRisMS7qXZsuJ3SSnWvuF0V?></g></svg>