<svg xmlns="http://www.w3.org/2000/svg" xmlns:xlink="http://www.w3.org/1999/xlink" version="1.1" data-diagram-type="DESCRIPTION" style="width:885px;height:1391px;background:#FFFFFF;" width="885px" height="1391px" viewBox="0 0 885 1391" zoomAndPan="magnify" preserveAspectRatio="none" contentStyleType="text/css"><?plantuml 1.2026.7?><defs/><g font-family="sans-serif" lengthAdjust="spacing"><g class="title" data-source-line="2"><text x="287.542" y="26.24" fill="#0F172A" font-size="14" textLength="302.917" font-weight="700">google_apply_sync — メソッド・関数詳細 2/3</text></g><!--entity P003--><g class="entity" data-qualified-name="P003" id="ent0001" data-source-line="5"><rect x="6" y="686.272" width="268.534" height="76.472" fill="#E0F2FE" style="stroke:#0369A1;stroke-width:0.5;" rx="4" ry="4"/><text x="16" y="711.352" fill="#0F172A" font-size="13" textLength="31.681" font-weight="700">P003</text><text x="47.681" y="711.352" fill="#0F172A" font-size="13" font-weight="700"> </text><text x="50.632" y="711.352" fill="#0F172A" font-size="13" textLength="123.253" font-weight="700">google_apply_sync</text><text x="16" y="730.176" fill="#0F172A" font-size="13">役</text><text x="29" y="730.176" fill="#0F172A" font-size="13">割</text><text x="42" y="730.176" fill="#0F172A" font-size="13">:</text><text x="45.614" y="730.176" fill="#0F172A" font-size="13"> </text><text x="48.526" y="730.176" fill="#0F172A" font-size="13" textLength="42.939">Google</text><text x="91.465" y="730.176" fill="#0F172A" font-size="13"> </text><text x="94.377" y="730.176" fill="#0F172A" font-size="13" textLength="54.86">Calendar</text><text x="149.237" y="730.176" fill="#0F172A" font-size="13"> </text><text x="152.149" y="730.176" fill="#0F172A" font-size="13">の</text><text x="165.149" y="730.176" fill="#0F172A" font-size="13">変</text><text x="178.149" y="730.176" fill="#0F172A" font-size="13">更</text><text x="191.149" y="730.176" fill="#0F172A" font-size="13">を</text><text x="204.149" y="730.176" fill="#0F172A" font-size="13"> </text><text x="207.061" y="730.176" fill="#0F172A" font-size="13" textLength="41.561">Notion</text><text x="248.622" y="730.176" fill="#0F172A" font-size="13"> </text><text x="251.534" y="730.176" fill="#0F172A" font-size="13">と</text><text x="16" y="749" fill="#0F172A" font-size="13" textLength="46.215">Discord</text><text x="62.215" y="749" fill="#0F172A" font-size="13"> </text><text x="65.127" y="749" fill="#0F172A" font-size="13">へ</text><text x="78.127" y="749" fill="#0F172A" font-size="13">反</text><text x="91.127" y="749" fill="#0F172A" font-size="13">映</text><text x="104.127" y="749" fill="#0F172A" font-size="13">す</text><text x="117.127" y="749" fill="#0F172A" font-size="13">る</text><text x="130.127" y="749" fill="#0F172A" font-size="13">。</text></g><!--entity F077--><g class="entity" data-qualified-name="F077" id="ent0002" data-source-line="6"><rect x="490.5" y="53.272" width="315.932" height="114.12" fill="#E0F2FE" style="stroke:#0369A1;stroke-width:0.5;" rx="4" ry="4"/><text x="616.759" y="78.352" fill="#0F172A" font-size="13" textLength="63.414" font-style="italic">«function»</text><text x="500.5" y="97.176" fill="#0F172A" font-size="13" textLength="30.615" font-weight="700">F077</text><text x="500.5" y="116" fill="#0F172A" font-size="13" textLength="295.932" font-weight="700">google_apply_sync._notion_extract_rich_text</text><text x="500.5" y="134.824" fill="#0F172A" font-size="13">役</text><text x="513.5" y="134.824" fill="#0F172A" font-size="13">割</text><text x="526.5" y="134.824" fill="#0F172A" font-size="13">:</text><text x="530.114" y="134.824" fill="#0F172A" font-size="13"> </text><text x="533.026" y="134.824" fill="#0F172A" font-size="13" textLength="41.561">Notion</text><text x="574.587" y="134.824" fill="#0F172A" font-size="13"> </text><text x="577.499" y="134.824" fill="#0F172A" font-size="13" textLength="53.885">rich_text</text><text x="631.384" y="134.824" fill="#0F172A" font-size="13"> </text><text x="634.296" y="134.824" fill="#0F172A" font-size="13">の</text><text x="647.296" y="134.824" fill="#0F172A" font-size="13">先</text><text x="660.296" y="134.824" fill="#0F172A" font-size="13">頭</text><text x="673.296" y="134.824" fill="#0F172A" font-size="13">要</text><text x="686.296" y="134.824" fill="#0F172A" font-size="13">素</text><text x="699.296" y="134.824" fill="#0F172A" font-size="13">を</text><text x="712.296" y="134.824" fill="#0F172A" font-size="13">文</text><text x="725.296" y="134.824" fill="#0F172A" font-size="13">字</text><text x="738.296" y="134.824" fill="#0F172A" font-size="13">列</text><text x="500.5" y="153.648" fill="#0F172A" font-size="13">化</text><text x="513.5" y="153.648" fill="#0F172A" font-size="13">し</text><text x="526.5" y="153.648" fill="#0F172A" font-size="13">て</text><text x="539.5" y="153.648" fill="#0F172A" font-size="13">返</text><text x="552.5" y="153.648" fill="#0F172A" font-size="13">す</text><text x="565.5" y="153.648" fill="#0F172A" font-size="13">。</text></g><!--entity F078--><g class="entity" data-qualified-name="F078" id="ent0004" data-source-line="8"><rect x="428" y="185.272" width="441.005" height="114.12" fill="#E0F2FE" style="stroke:#0369A1;stroke-width:0.5;" rx="4" ry="4"/><text x="616.796" y="210.352" fill="#0F172A" font-size="13" textLength="63.414" font-style="italic">«function»</text><text x="438" y="229.176" fill="#0F172A" font-size="13" textLength="30.615" font-weight="700">F078</text><text x="438" y="248" fill="#0F172A" font-size="13" textLength="421.005" font-weight="700">google_apply_sync._resolve_discord_event_id_for_google_event</text><text x="438" y="266.824" fill="#0F172A" font-size="13">役</text><text x="451" y="266.824" fill="#0F172A" font-size="13">割</text><text x="464" y="266.824" fill="#0F172A" font-size="13">:</text><text x="467.614" y="266.824" fill="#0F172A" font-size="13"> </text><text x="470.526" y="266.824" fill="#0F172A" font-size="13" textLength="42.939">Google</text><text x="513.465" y="266.824" fill="#0F172A" font-size="13">イ</text><text x="526.465" y="266.824" fill="#0F172A" font-size="13">ベ</text><text x="539.465" y="266.824" fill="#0F172A" font-size="13">ン</text><text x="552.465" y="266.824" fill="#0F172A" font-size="13">ト</text><text x="565.465" y="266.824" fill="#0F172A" font-size="13">に</text><text x="578.465" y="266.824" fill="#0F172A" font-size="13">対</text><text x="591.465" y="266.824" fill="#0F172A" font-size="13">応</text><text x="604.465" y="266.824" fill="#0F172A" font-size="13">す</text><text x="617.465" y="266.824" fill="#0F172A" font-size="13">る</text><text x="630.465" y="266.824" fill="#0F172A" font-size="13"> </text><text x="633.377" y="266.824" fill="#0F172A" font-size="13" textLength="46.215">Discord</text><text x="438" y="285.648" fill="#0F172A" font-size="13" textLength="34.008">event</text><text x="472.008" y="285.648" fill="#0F172A" font-size="13"> </text><text x="474.92" y="285.648" fill="#0F172A" font-size="13" textLength="11.635">id</text><text x="486.555" y="285.648" fill="#0F172A" font-size="13"> </text><text x="489.467" y="285.648" fill="#0F172A" font-size="13">を</text><text x="502.467" y="285.648" fill="#0F172A" font-size="13">既</text><text x="515.467" y="285.648" fill="#0F172A" font-size="13">知</text><text x="528.467" y="285.648" fill="#0F172A" font-size="13">情</text><text x="541.467" y="285.648" fill="#0F172A" font-size="13">報</text><text x="554.467" y="285.648" fill="#0F172A" font-size="13">か</text><text x="567.467" y="285.648" fill="#0F172A" font-size="13">ら</text><text x="580.467" y="285.648" fill="#0F172A" font-size="13">推</text><text x="593.467" y="285.648" fill="#0F172A" font-size="13">定</text><text x="606.467" y="285.648" fill="#0F172A" font-size="13">す</text><text x="619.467" y="285.648" fill="#0F172A" font-size="13">る</text><text x="632.467" y="285.648" fill="#0F172A" font-size="13">。</text></g><!--entity F079--><g class="entity" data-qualified-name="F079" id="ent0006" data-source-line="10"><rect x="500.5" y="317.772" width="296.211" height="132.944" fill="#E0F2FE" style="stroke:#0369A1;stroke-width:0.5;" rx="4" ry="4"/><text x="616.899" y="342.852" fill="#0F172A" font-size="13" textLength="63.414" font-style="italic">«function»</text><text x="510.5" y="361.676" fill="#0F172A" font-size="13" textLength="30.615" font-weight="700">F079</text><text x="510.5" y="380.5" fill="#0F172A" font-size="13" textLength="276.211" font-weight="700">google_apply_sync._google_private_props</text><text x="510.5" y="399.324" fill="#0F172A" font-size="13">役</text><text x="523.5" y="399.324" fill="#0F172A" font-size="13">割</text><text x="536.5" y="399.324" fill="#0F172A" font-size="13">:</text><text x="540.114" y="399.324" fill="#0F172A" font-size="13"> </text><text x="543.026" y="399.324" fill="#0F172A" font-size="13" textLength="42.939">Google</text><text x="510.5" y="418.148" fill="#0F172A" font-size="13" textLength="204.36">event.extendedProperties.private</text><text x="714.86" y="418.148" fill="#0F172A" font-size="13"> </text><text x="717.772" y="418.148" fill="#0F172A" font-size="13">を</text><text x="730.772" y="418.148" fill="#0F172A" font-size="13">辞</text><text x="743.772" y="418.148" fill="#0F172A" font-size="13">書</text><text x="756.772" y="418.148" fill="#0F172A" font-size="13">で</text><text x="510.5" y="436.972" fill="#0F172A" font-size="13">返</text><text x="523.5" y="436.972" fill="#0F172A" font-size="13">す</text><text x="536.5" y="436.972" fill="#0F172A" font-size="13">。</text></g><!--entity F080--><g class="entity" data-qualified-name="F080" id="ent0008" data-source-line="12"><rect x="467.5" y="469.272" width="362.095" height="114.12" fill="#E0F2FE" style="stroke:#0369A1;stroke-width:0.5;" rx="4" ry="4"/><text x="616.841" y="494.352" fill="#0F172A" font-size="13" textLength="63.414" font-style="italic">«function»</text><text x="477.5" y="513.176" fill="#0F172A" font-size="13" textLength="30.615" font-weight="700">F080</text><text x="477.5" y="532" fill="#0F172A" font-size="13" textLength="342.095" font-weight="700">google_apply_sync._google_origin_discord_event_id</text><text x="477.5" y="550.824" fill="#0F172A" font-size="13">役</text><text x="490.5" y="550.824" fill="#0F172A" font-size="13">割</text><text x="503.5" y="550.824" fill="#0F172A" font-size="13">:</text><text x="507.114" y="550.824" fill="#0F172A" font-size="13"> </text><text x="510.026" y="550.824" fill="#0F172A" font-size="13" textLength="46.215">Discord</text><text x="556.241" y="550.824" fill="#0F172A" font-size="13"> </text><text x="559.153" y="550.824" fill="#0F172A" font-size="13">由</text><text x="572.153" y="550.824" fill="#0F172A" font-size="13">来</text><text x="585.153" y="550.824" fill="#0F172A" font-size="13">で</text><text x="598.153" y="550.824" fill="#0F172A" font-size="13"> </text><text x="601.065" y="550.824" fill="#0F172A" font-size="13" textLength="42.939">Google</text><text x="644.004" y="550.824" fill="#0F172A" font-size="13"> </text><text x="646.916" y="550.824" fill="#0F172A" font-size="13">に</text><text x="659.916" y="550.824" fill="#0F172A" font-size="13">作</text><text x="672.916" y="550.824" fill="#0F172A" font-size="13">ら</text><text x="685.916" y="550.824" fill="#0F172A" font-size="13">れ</text><text x="698.916" y="550.824" fill="#0F172A" font-size="13">た</text><text x="711.916" y="550.824" fill="#0F172A" font-size="13">イ</text><text x="477.5" y="569.648" fill="#0F172A" font-size="13">ベ</text><text x="490.5" y="569.648" fill="#0F172A" font-size="13">ン</text><text x="503.5" y="569.648" fill="#0F172A" font-size="13">ト</text><text x="516.5" y="569.648" fill="#0F172A" font-size="13">な</text><text x="529.5" y="569.648" fill="#0F172A" font-size="13">ら</text><text x="542.5" y="569.648" fill="#0F172A" font-size="13">元</text><text x="555.5" y="569.648" fill="#0F172A" font-size="13">の</text><text x="568.5" y="569.648" fill="#0F172A" font-size="13"> </text><text x="571.412" y="569.648" fill="#0F172A" font-size="13" textLength="46.215">Discord</text><text x="617.627" y="569.648" fill="#0F172A" font-size="13"> </text><text x="620.539" y="569.648" fill="#0F172A" font-size="13" textLength="34.008">event</text><text x="654.547" y="569.648" fill="#0F172A" font-size="13"> </text><text x="657.459" y="569.648" fill="#0F172A" font-size="13" textLength="11.635">id</text><text x="669.094" y="569.648" fill="#0F172A" font-size="13"> </text><text x="672.006" y="569.648" fill="#0F172A" font-size="13">を</text><text x="685.006" y="569.648" fill="#0F172A" font-size="13">返</text><text x="698.006" y="569.648" fill="#0F172A" font-size="13">す</text><text x="711.006" y="569.648" fill="#0F172A" font-size="13">。</text></g><!--entity F081--><g class="entity" data-qualified-name="F081" id="ent0010" data-source-line="14"><rect x="459" y="601.272" width="379.411" height="114.12" fill="#E0F2FE" style="stroke:#0369A1;stroke-width:0.5;" rx="4" ry="4"/><text x="616.999" y="626.352" fill="#0F172A" font-size="13" textLength="63.414" font-style="italic">«function»</text><text x="469" y="645.176" fill="#0F172A" font-size="13" textLength="30.615" font-weight="700">F081</text><text x="469" y="664" fill="#0F172A" font-size="13" textLength="359.411" font-weight="700">google_apply_sync._notion_query_by_google_event_id</text><text x="469" y="682.824" fill="#0F172A" font-size="13">役</text><text x="482" y="682.824" fill="#0F172A" font-size="13">割</text><text x="495" y="682.824" fill="#0F172A" font-size="13">:</text><text x="498.614" y="682.824" fill="#0F172A" font-size="13"> </text><text x="501.526" y="682.824" fill="#0F172A" font-size="13" textLength="42.939">Google</text><text x="544.465" y="682.824" fill="#0F172A" font-size="13">イ</text><text x="557.465" y="682.824" fill="#0F172A" font-size="13">ベ</text><text x="570.465" y="682.824" fill="#0F172A" font-size="13">ン</text><text x="583.465" y="682.824" fill="#0F172A" font-size="13">ト</text><text x="596.465" y="682.824" fill="#0F172A" font-size="13" textLength="12.753">ID</text><text x="609.218" y="682.824" fill="#0F172A" font-size="13">一</text><text x="622.218" y="682.824" fill="#0F172A" font-size="13">致</text><text x="635.218" y="682.824" fill="#0F172A" font-size="13">で</text><text x="648.218" y="682.824" fill="#0F172A" font-size="13"> </text><text x="651.13" y="682.824" fill="#0F172A" font-size="13" textLength="41.561">Notion</text><text x="692.691" y="682.824" fill="#0F172A" font-size="13"> </text><text x="695.603" y="682.824" fill="#0F172A" font-size="13">ペ</text><text x="708.603" y="682.824" fill="#0F172A" font-size="13">ー</text><text x="469" y="701.648" fill="#0F172A" font-size="13">ジ</text><text x="482" y="701.648" fill="#0F172A" font-size="13">を</text><text x="495" y="701.648" fill="#0F172A" font-size="13">1</text><text x="502.215" y="701.648" fill="#0F172A" font-size="13">件</text><text x="515.215" y="701.648" fill="#0F172A" font-size="13">検</text><text x="528.215" y="701.648" fill="#0F172A" font-size="13">索</text><text x="541.215" y="701.648" fill="#0F172A" font-size="13">す</text><text x="554.215" y="701.648" fill="#0F172A" font-size="13">る</text><text x="567.215" y="701.648" fill="#0F172A" font-size="13">。</text></g><!--entity F082--><g class="entity" data-qualified-name="F082" id="ent0012" data-source-line="16"><rect x="474.5" y="733.272" width="348.146" height="114.12" fill="#E0F2FE" style="stroke:#0369A1;stroke-width:0.5;" rx="4" ry="4"/><text x="616.866" y="758.352" fill="#0F172A" font-size="13" textLength="63.414" font-style="italic">«function»</text><text x="484.5" y="777.176" fill="#0F172A" font-size="13" textLength="30.615" font-weight="700">F082</text><text x="484.5" y="796" fill="#0F172A" font-size="13" textLength="328.146" font-weight="700">google_apply_sync._notion_query_by_message_id</text><text x="484.5" y="814.824" fill="#0F172A" font-size="13">役</text><text x="497.5" y="814.824" fill="#0F172A" font-size="13">割</text><text x="510.5" y="814.824" fill="#0F172A" font-size="13">:</text><text x="514.114" y="814.824" fill="#0F172A" font-size="13"> </text><text x="517.026" y="814.824" fill="#0F172A" font-size="13" textLength="72.163">message_id</text><text x="589.189" y="814.824" fill="#0F172A" font-size="13">一</text><text x="602.189" y="814.824" fill="#0F172A" font-size="13">致</text><text x="615.189" y="814.824" fill="#0F172A" font-size="13">で</text><text x="628.189" y="814.824" fill="#0F172A" font-size="13"> </text><text x="631.101" y="814.824" fill="#0F172A" font-size="13" textLength="41.561">Notion</text><text x="672.662" y="814.824" fill="#0F172A" font-size="13"> </text><text x="675.574" y="814.824" fill="#0F172A" font-size="13">ペ</text><text x="688.574" y="814.824" fill="#0F172A" font-size="13">ー</text><text x="701.574" y="814.824" fill="#0F172A" font-size="13">ジ</text><text x="714.574" y="814.824" fill="#0F172A" font-size="13">を</text><text x="727.574" y="814.824" fill="#0F172A" font-size="13">1</text><text x="484.5" y="833.648" fill="#0F172A" font-size="13">件</text><text x="497.5" y="833.648" fill="#0F172A" font-size="13">検</text><text x="510.5" y="833.648" fill="#0F172A" font-size="13">索</text><text x="523.5" y="833.648" fill="#0F172A" font-size="13">す</text><text x="536.5" y="833.648" fill="#0F172A" font-size="13">る</text><text x="549.5" y="833.648" fill="#0F172A" font-size="13">（</text><text x="562.5" y="833.648" fill="#0F172A" font-size="13">外</text><text x="575.5" y="833.648" fill="#0F172A" font-size="13">部</text><text x="588.5" y="833.648" fill="#0F172A" font-size="13" textLength="17.485">DB</text><text x="605.985" y="833.648" fill="#0F172A" font-size="13">互</text><text x="618.985" y="833.648" fill="#0F172A" font-size="13">換</text><text x="631.985" y="833.648" fill="#0F172A" font-size="13">用</text><text x="644.985" y="833.648" fill="#0F172A" font-size="13">途</text><text x="657.985" y="833.648" fill="#0F172A" font-size="13">）</text><text x="670.985" y="833.648" fill="#0F172A" font-size="13">。</text></g><!--entity F083--><g class="entity" data-qualified-name="F083" id="ent0014" data-source-line="18"><rect x="509" y="865.272" width="278.726" height="114.12" fill="#E0F2FE" style="stroke:#0369A1;stroke-width:0.5;" rx="4" ry="4"/><text x="616.656" y="890.352" fill="#0F172A" font-size="13" textLength="63.414" font-style="italic">«function»</text><text x="519" y="909.176" fill="#0F172A" font-size="13" textLength="30.615" font-weight="700">F083</text><text x="519" y="928" fill="#0F172A" font-size="13" textLength="244.114" font-weight="700">google_apply_sync._notion_get_page</text><text x="519" y="946.824" fill="#0F172A" font-size="13">役</text><text x="532" y="946.824" fill="#0F172A" font-size="13">割</text><text x="545" y="946.824" fill="#0F172A" font-size="13">:</text><text x="548.614" y="946.824" fill="#0F172A" font-size="13"> </text><text x="551.526" y="946.824" fill="#0F172A" font-size="13" textLength="41.561">Notion</text><text x="593.087" y="946.824" fill="#0F172A" font-size="13"> </text><text x="595.999" y="946.824" fill="#0F172A" font-size="13" textLength="48.815">page_id</text><text x="644.814" y="946.824" fill="#0F172A" font-size="13"> </text><text x="647.726" y="946.824" fill="#0F172A" font-size="13">か</text><text x="660.726" y="946.824" fill="#0F172A" font-size="13">ら</text><text x="673.726" y="946.824" fill="#0F172A" font-size="13">ペ</text><text x="686.726" y="946.824" fill="#0F172A" font-size="13">ー</text><text x="699.726" y="946.824" fill="#0F172A" font-size="13">ジ</text><text x="712.726" y="946.824" fill="#0F172A" font-size="13">を</text><text x="725.726" y="946.824" fill="#0F172A" font-size="13">直</text><text x="738.726" y="946.824" fill="#0F172A" font-size="13">接</text><text x="751.726" y="946.824" fill="#0F172A" font-size="13">取</text><text x="764.726" y="946.824" fill="#0F172A" font-size="13">得</text><text x="519" y="965.648" fill="#0F172A" font-size="13">す</text><text x="532" y="965.648" fill="#0F172A" font-size="13">る</text><text x="545" y="965.648" fill="#0F172A" font-size="13">。</text></g><!--entity F084--><g class="entity" data-qualified-name="F084" id="ent0016" data-source-line="20"><rect x="501.5" y="997.272" width="294.092" height="114.12" fill="#E0F2FE" style="stroke:#0369A1;stroke-width:0.5;" rx="4" ry="4"/><text x="616.839" y="1022.352" fill="#0F172A" font-size="13" textLength="63.414" font-style="italic">«function»</text><text x="511.5" y="1041.176" fill="#0F172A" font-size="13" textLength="30.615" font-weight="700">F084</text><text x="511.5" y="1060" fill="#0F172A" font-size="13" textLength="274.092" font-weight="700">google_apply_sync._notion_update_event</text><text x="511.5" y="1078.824" fill="#0F172A" font-size="13">役</text><text x="524.5" y="1078.824" fill="#0F172A" font-size="13">割</text><text x="537.5" y="1078.824" fill="#0F172A" font-size="13">:</text><text x="541.114" y="1078.824" fill="#0F172A" font-size="13"> </text><text x="544.026" y="1078.824" fill="#0F172A" font-size="13" textLength="41.561">Notion</text><text x="585.587" y="1078.824" fill="#0F172A" font-size="13"> </text><text x="588.499" y="1078.824" fill="#0F172A" font-size="13">イ</text><text x="601.499" y="1078.824" fill="#0F172A" font-size="13">ベ</text><text x="614.499" y="1078.824" fill="#0F172A" font-size="13">ン</text><text x="627.499" y="1078.824" fill="#0F172A" font-size="13">ト</text><text x="640.499" y="1078.824" fill="#0F172A" font-size="13">ペ</text><text x="653.499" y="1078.824" fill="#0F172A" font-size="13">ー</text><text x="666.499" y="1078.824" fill="#0F172A" font-size="13">ジ</text><text x="679.499" y="1078.824" fill="#0F172A" font-size="13">を</text><text x="692.499" y="1078.824" fill="#0F172A" font-size="13">部</text><text x="705.499" y="1078.824" fill="#0F172A" font-size="13">分</text><text x="718.499" y="1078.824" fill="#0F172A" font-size="13">更</text><text x="731.499" y="1078.824" fill="#0F172A" font-size="13">新</text><text x="744.499" y="1078.824" fill="#0F172A" font-size="13">す</text><text x="757.499" y="1078.824" fill="#0F172A" font-size="13">る</text><text x="511.5" y="1097.648" fill="#0F172A" font-size="13">。</text></g><!--entity F085--><g class="entity" data-qualified-name="F085" id="ent0018" data-source-line="22"><rect x="504" y="1129.272" width="289.139" height="114.12" fill="#E0F2FE" style="stroke:#0369A1;stroke-width:0.5;" rx="4" ry="4"/><text x="616.863" y="1154.352" fill="#0F172A" font-size="13" textLength="63.414" font-style="italic">«function»</text><text x="514" y="1173.176" fill="#0F172A" font-size="13" textLength="30.615" font-weight="700">F085</text><text x="514" y="1192" fill="#0F172A" font-size="13" textLength="269.139" font-weight="700">google_apply_sync._notion_create_event</text><text x="514" y="1210.824" fill="#0F172A" font-size="13">役</text><text x="527" y="1210.824" fill="#0F172A" font-size="13">割</text><text x="540" y="1210.824" fill="#0F172A" font-size="13">:</text><text x="543.614" y="1210.824" fill="#0F172A" font-size="13"> </text><text x="546.526" y="1210.824" fill="#0F172A" font-size="13" textLength="41.561">Notion</text><text x="588.087" y="1210.824" fill="#0F172A" font-size="13"> </text><text x="590.999" y="1210.824" fill="#0F172A" font-size="13">イ</text><text x="603.999" y="1210.824" fill="#0F172A" font-size="13">ベ</text><text x="616.999" y="1210.824" fill="#0F172A" font-size="13">ン</text><text x="629.999" y="1210.824" fill="#0F172A" font-size="13">ト</text><text x="642.999" y="1210.824" fill="#0F172A" font-size="13">ペ</text><text x="655.999" y="1210.824" fill="#0F172A" font-size="13">ー</text><text x="668.999" y="1210.824" fill="#0F172A" font-size="13">ジ</text><text x="681.999" y="1210.824" fill="#0F172A" font-size="13">を</text><text x="694.999" y="1210.824" fill="#0F172A" font-size="13">新</text><text x="707.999" y="1210.824" fill="#0F172A" font-size="13">規</text><text x="720.999" y="1210.824" fill="#0F172A" font-size="13">作</text><text x="733.999" y="1210.824" fill="#0F172A" font-size="13">成</text><text x="746.999" y="1210.824" fill="#0F172A" font-size="13">す</text><text x="759.999" y="1210.824" fill="#0F172A" font-size="13">る</text><text x="514" y="1229.648" fill="#0F172A" font-size="13">。</text></g><!--entity F086--><g class="entity" data-qualified-name="F086" id="ent0020" data-source-line="24"><rect x="503" y="1261.272" width="290.842" height="114.12" fill="#E0F2FE" style="stroke:#0369A1;stroke-width:0.5;" rx="4" ry="4"/><text x="616.714" y="1286.352" fill="#0F172A" font-size="13" textLength="63.414" font-style="italic">«function»</text><text x="513" y="1305.176" fill="#0F172A" font-size="13" textLength="30.615" font-weight="700">F086</text><text x="513" y="1324" fill="#0F172A" font-size="13" textLength="270.842" font-weight="700">google_apply_sync._notion_archive_page</text><text x="513" y="1342.824" fill="#0F172A" font-size="13">役</text><text x="526" y="1342.824" fill="#0F172A" font-size="13">割</text><text x="539" y="1342.824" fill="#0F172A" font-size="13">:</text><text x="542.614" y="1342.824" fill="#0F172A" font-size="13"> </text><text x="545.526" y="1342.824" fill="#0F172A" font-size="13" textLength="41.561">Notion</text><text x="587.087" y="1342.824" fill="#0F172A" font-size="13"> </text><text x="589.999" y="1342.824" fill="#0F172A" font-size="13">ペ</text><text x="602.999" y="1342.824" fill="#0F172A" font-size="13">ー</text><text x="615.999" y="1342.824" fill="#0F172A" font-size="13">ジ</text><text x="628.999" y="1342.824" fill="#0F172A" font-size="13">を</text><text x="641.999" y="1342.824" fill="#0F172A" font-size="13"> </text><text x="644.911" y="1342.824" fill="#0F172A" font-size="13" textLength="84.747">archived=true</text><text x="729.658" y="1342.824" fill="#0F172A" font-size="13"> </text><text x="732.57" y="1342.824" fill="#0F172A" font-size="13">に</text><text x="745.57" y="1342.824" fill="#0F172A" font-size="13">更</text><text x="758.57" y="1342.824" fill="#0F172A" font-size="13">新</text><text x="513" y="1361.648" fill="#0F172A" font-size="13">(</text><text x="517.394" y="1361.648" fill="#0F172A" font-size="13">削</text><text x="530.394" y="1361.648" fill="#0F172A" font-size="13">除</text><text x="543.394" y="1361.648" fill="#0F172A" font-size="13">)</text><text x="547.788" y="1361.648" fill="#0F172A" font-size="13">す</text><text x="560.788" y="1361.648" fill="#0F172A" font-size="13">る</text><text x="573.788" y="1361.648" fill="#0F172A" font-size="13">。</text></g><g class="link" data-entity-1="ent0001" data-entity-2="ent0002" id="lnk3" data-link-type="dependency"><polygon points="490.498,148.209,480.672,147.525,485.798,149.917,483.406,155.043,490.498,148.209" fill="#64748B" style="stroke:#64748B;stroke-width:1;stroke-linejoin:miter;stroke-miterlimit:10;"/><path d="M148.42,686.004 C163.957,607.603 207.162,425.339 293,297.272 C337.861,230.342 357.736,215.706 428,176.272 C447.433,165.366 464.168,157.781 485.798,149.917" style="stroke:#64748B;stroke-width:1;" fill="none"/><text x="295" y="183.352" fill="#334155" font-size="13" textLength="45.305">[E1090]</text><text x="340.305" y="183.352" fill="#334155" font-size="13"> </text><text x="343.217" y="183.352" fill="#334155" font-size="13">関</text><text x="356.217" y="183.352" fill="#334155" font-size="13">数</text><text x="369.217" y="183.352" fill="#334155" font-size="13">を</text><text x="382.217" y="183.352" fill="#334155" font-size="13">定</text><text x="395.217" y="183.352" fill="#334155" font-size="13">義</text></g><g class="link" data-entity-1="ent0001" data-entity-2="ent0004" id="lnk5" data-link-type="dependency"><polygon points="443.676,299.281,433.853,299.989,439.265,301.635,437.619,307.047,443.676,299.281" fill="#64748B" style="stroke:#64748B;stroke-width:1;stroke-linejoin:miter;stroke-miterlimit:10;"/><path d="M155.33,686.174 C188.072,601.984 278.953,400.296 428,308.272 C433.079,305.136 433.905,304.495 439.265,301.635" style="stroke:#64748B;stroke-width:1;" fill="none"/><text x="295" y="318.352" fill="#334155" font-size="13" textLength="45.305">[E1091]</text><text x="340.305" y="318.352" fill="#334155" font-size="13"> </text><text x="343.217" y="318.352" fill="#334155" font-size="13">関</text><text x="356.217" y="318.352" fill="#334155" font-size="13">数</text><text x="369.217" y="318.352" fill="#334155" font-size="13">を</text><text x="382.217" y="318.352" fill="#334155" font-size="13">定</text><text x="395.217" y="318.352" fill="#334155" font-size="13">義</text></g><g class="link" data-entity-1="ent0001" data-entity-2="ent0006" id="lnk7" data-link-type="dependency"><polygon points="500.349,426.585,490.513,426.08,495.682,428.379,493.384,433.548,500.349,426.585" fill="#64748B" style="stroke:#64748B;stroke-width:1;stroke-linejoin:miter;stroke-miterlimit:10;"/><path d="M172.723,686.222 C221.49,629.165 321.27,521.606 428,460.272 C450.465,447.362 470.813,437.939 495.682,428.379" style="stroke:#64748B;stroke-width:1;" fill="none"/><text x="295" y="472.352" fill="#334155" font-size="13" textLength="45.305">[E1092]</text><text x="340.305" y="472.352" fill="#334155" font-size="13"> </text><text x="343.217" y="472.352" fill="#334155" font-size="13">関</text><text x="356.217" y="472.352" fill="#334155" font-size="13">数</text><text x="369.217" y="472.352" fill="#334155" font-size="13">を</text><text x="382.217" y="472.352" fill="#334155" font-size="13">定</text><text x="395.217" y="472.352" fill="#334155" font-size="13">義</text></g><g class="link" data-entity-1="ent0001" data-entity-2="ent0008" id="lnk9" data-link-type="dependency"><polygon points="467.427,578.182,457.619,577.283,462.692,579.787,460.188,584.86,467.427,578.182" fill="#64748B" style="stroke:#64748B;stroke-width:1;stroke-linejoin:miter;stroke-miterlimit:10;"/><path d="M216.575,686.175 C273.664,658.071 354.631,620.049 428,592.272 C440.746,587.446 449.276,584.336 462.692,579.787" style="stroke:#64748B;stroke-width:1;" fill="none"/><text x="295" y="597.352" fill="#334155" font-size="13" textLength="45.305">[E1093]</text><text x="340.305" y="597.352" fill="#334155" font-size="13"> </text><text x="343.217" y="597.352" fill="#334155" font-size="13">関</text><text x="356.217" y="597.352" fill="#334155" font-size="13">数</text><text x="369.217" y="597.352" fill="#334155" font-size="13">を</text><text x="382.217" y="597.352" fill="#334155" font-size="13">定</text><text x="395.217" y="597.352" fill="#334155" font-size="13">義</text></g><g class="link" data-entity-1="ent0001" data-entity-2="ent0010" id="lnk11" data-link-type="dependency"><polygon points="458.814,682.883,449.373,680.081,453.856,683.53,450.407,688.014,458.814,682.883" fill="#64748B" style="stroke:#64748B;stroke-width:1;stroke-linejoin:miter;stroke-miterlimit:10;"/><path d="M275.107,706.845 C331.325,699.512 392.789,691.495 453.856,683.53" style="stroke:#64748B;stroke-width:1;" fill="none"/><text x="295" y="685.352" fill="#334155" font-size="13" textLength="45.305">[E1094]</text><text x="340.305" y="685.352" fill="#334155" font-size="13"> </text><text x="343.217" y="685.352" fill="#334155" font-size="13">関</text><text x="356.217" y="685.352" fill="#334155" font-size="13">数</text><text x="369.217" y="685.352" fill="#334155" font-size="13">を</text><text x="382.217" y="685.352" fill="#334155" font-size="13">定</text><text x="395.217" y="685.352" fill="#334155" font-size="13">義</text></g><g class="link" data-entity-1="ent0001" data-entity-2="ent0012" id="lnk13" data-link-type="dependency"><polygon points="474.43,767.698,466.023,762.567,469.472,767.051,464.988,770.5,474.43,767.698" fill="#64748B" style="stroke:#64748B;stroke-width:1;stroke-linejoin:miter;stroke-miterlimit:10;"/><path d="M275.107,741.699 C336.156,749.662 404.281,758.548 469.472,767.051" style="stroke:#64748B;stroke-width:1;" fill="none"/><text x="295" y="741.352" fill="#334155" font-size="13" textLength="45.305">[E1095]</text><text x="340.305" y="741.352" fill="#334155" font-size="13"> </text><text x="343.217" y="741.352" fill="#334155" font-size="13">関</text><text x="356.217" y="741.352" fill="#334155" font-size="13">数</text><text x="369.217" y="741.352" fill="#334155" font-size="13">を</text><text x="382.217" y="741.352" fill="#334155" font-size="13">定</text><text x="395.217" y="741.352" fill="#334155" font-size="13">義</text></g><g class="link" data-entity-1="ent0001" data-entity-2="ent0014" id="lnk15" data-link-type="dependency"><polygon points="508.932,883.815,501.524,877.324,504.157,882.331,499.15,884.964,508.932,883.815" fill="#64748B" style="stroke:#64748B;stroke-width:1;stroke-linejoin:miter;stroke-miterlimit:10;"/><path d="M216.575,762.369 C273.664,790.473 354.631,828.495 428,856.272 C453.865,866.064 477.089,873.92 504.157,882.331" style="stroke:#64748B;stroke-width:1;" fill="none"/><text x="295" y="798.352" fill="#334155" font-size="13" textLength="45.305">[E1096]</text><text x="340.305" y="798.352" fill="#334155" font-size="13"> </text><text x="343.217" y="798.352" fill="#334155" font-size="13">関</text><text x="356.217" y="798.352" fill="#334155" font-size="13">数</text><text x="369.217" y="798.352" fill="#334155" font-size="13">を</text><text x="382.217" y="798.352" fill="#334155" font-size="13">定</text><text x="395.217" y="798.352" fill="#334155" font-size="13">義</text></g><g class="link" data-entity-1="ent0001" data-entity-2="ent0016" id="lnk17" data-link-type="dependency"><polygon points="501.488,1019.639,494.25,1012.959,496.753,1018.032,491.68,1020.534,501.488,1019.639" fill="#64748B" style="stroke:#64748B;stroke-width:1;stroke-linejoin:miter;stroke-miterlimit:10;"/><path d="M171.983,762.459 C220.154,820.195 319.604,929.22 428,988.272 C450.801,1000.693 471.504,1009.464 496.753,1018.032" style="stroke:#64748B;stroke-width:1;" fill="none"/><text x="295" y="890.352" fill="#334155" font-size="13" textLength="45.305">[E1097]</text><text x="340.305" y="890.352" fill="#334155" font-size="13"> </text><text x="343.217" y="890.352" fill="#334155" font-size="13">関</text><text x="356.217" y="890.352" fill="#334155" font-size="13">数</text><text x="369.217" y="890.352" fill="#334155" font-size="13">を</text><text x="382.217" y="890.352" fill="#334155" font-size="13">定</text><text x="395.217" y="890.352" fill="#334155" font-size="13">義</text></g><g class="link" data-entity-1="ent0001" data-entity-2="ent0018" id="lnk19" data-link-type="dependency"><polygon points="503.72,1152.584,496.461,1145.927,498.98,1150.993,493.914,1153.511,503.72,1152.584" fill="#64748B" style="stroke:#64748B;stroke-width:1;stroke-linejoin:miter;stroke-miterlimit:10;"/><path d="M156.995,762.526 C180.918,818.834 230.669,925.731 293,1003.272 C342.744,1065.155 358.44,1081.992 428,1120.272 C451.445,1133.174 472.98,1142.26 498.98,1150.993" style="stroke:#64748B;stroke-width:1;" fill="none"/><text x="295" y="998.352" fill="#334155" font-size="13" textLength="45.305">[E1098]</text><text x="340.305" y="998.352" fill="#334155" font-size="13"> </text><text x="343.217" y="998.352" fill="#334155" font-size="13">関</text><text x="356.217" y="998.352" fill="#334155" font-size="13">数</text><text x="369.217" y="998.352" fill="#334155" font-size="13">を</text><text x="382.217" y="998.352" fill="#334155" font-size="13">定</text><text x="395.217" y="998.352" fill="#334155" font-size="13">義</text></g><g class="link" data-entity-1="ent0001" data-entity-2="ent0020" id="lnk21" data-link-type="dependency"><polygon points="502.85,1284.292,495.601,1277.624,498.112,1282.693,493.043,1285.204,502.85,1284.292" fill="#64748B" style="stroke:#64748B;stroke-width:1;stroke-linejoin:miter;stroke-miterlimit:10;"/><path d="M148.841,762.381 C164.906,838.674 208.665,1013.295 293,1135.272 C338.154,1200.58 358.44,1213.992 428,1252.272 C451.184,1265.03 472.397,1274.015 498.112,1282.693" style="stroke:#64748B;stroke-width:1;" fill="none"/><text x="295" y="1130.352" fill="#334155" font-size="13" textLength="45.305">[E1099]</text><text x="340.305" y="1130.352" fill="#334155" font-size="13"> </text><text x="343.217" y="1130.352" fill="#334155" font-size="13">関</text><text x="356.217" y="1130.352" fill="#334155" font-size="13">数</text><text x="369.217" y="1130.352" fill="#334155" font-size="13">を</text><text x="382.217" y="1130.352" fill="#334155" font-size="13">定</text><text x="395.217" y="1130.352" fill="#334155" font-size="13">義</text></g><?plantuml-src dTLDSz9060VmEvzYrOiUIdahXGvoqAhZnUczEfaqsK9cGXAJfICtGgOMR6sT3e9zqTOEhLL7hSeuLTlwNLmsmCclu2QG2WtIw0dOBDd_xtascmk2n8bP7WA_VvJHqgmA-L4DvKJeLx8PqOS494AGakMK21bMKSGSe-Ka3lpCbm4sNkB2CJOCR9ImyRrTsJ6V7hHUVsxM3q1eDEoxeAXiAiC2aSt9MGIq34IinFf4E8i0ae4gfD88y88AEIJ8ae-JCueiGGc1YucPv5GW47QlcnYTITwLoF5NKleq0MxPby5rLeGIpwe0w-z9hMHkr75X5ToHhRlIiNqmAMYShFBq-o5PUMm-syRw6YuiudpX8c0rO2tbirAmadKxQ_MRWV5nz-f-Hh9loi07I6KvnAW2bsOG_TMVgxlqwLKxs7onlVskjQStwziqdbbP8E-gf5WbInMiLx6-r_fHjc9rCza14edPh6GN9vdqsGKPcRuKZOn7OjVkZIGxSoR0z8rW81wu1phrf_ScxzUR9w_TejWWaGerMPo33D-f4GFdQ0SOWMTcPPNfphV71fKU5shOMCF6PsmKiVwMV3WXFpOxnJqjklrd8D3gKtLrfxcrQnhpPFiZrXTneMGkxzEu_VsmevvlZpdse0TxV92zEwIemXoBh4zPqGRkCDlWfvsa-mpoKtGUL940DN_thvQjTVB2t3Z4-YjN8-CUC7474peV4miCmSZqiH8aLplxMKvlckMFvlDTcjc1qYOsZZTfNt1X2UjR_VrzGyV9l44tyy3cddNJcEUwwPokE-p17HpoIDxFGZN7pEJwzgmBxjwsjoSRX_dMGjqgWdDa6ElOECA5GnebsFZ-nQnjDkixP_SeJNC-B-Zm8Xvu8I-y3DGqDWLTiZ_Z_-JvTLGajKhRs9-yrlYsQgviDClxxNpvrr6fHnho80qvqZ4Fql0GQGeYHg6IWKUgqY62pk7H2sjkrCtbNR9I8ITLLwl27W1X1n3r08WC0MGLtZfD1XoQJZzwdweU0kq2AJwaho-pSk0YH3mG8WvXt0DXR0Y1K-7_4MZorjuAFKBCuXCNOSm3OSmXn3mGeaC8hCgb1VfU--jMweqDkhFvgqZDsgTWfmkNIUbHUwrsnKM9Ug147KhSHVaD?></g></svg>