<svg xmlns="http://www.w3.org/2000/svg" xmlns:xlink="http://www.w3.org/1999/xlink" version="1.1" data-diagram-type="DESCRIPTION" style="width:1242px;height:719px;background:#FFFFFF;" width="1242px" height="719px" viewBox="0 0 1242 719" zoomAndPan="magnify" preserveAspectRatio="none" contentStyleType="text/css"><?plantuml 1.2026.7?><defs/><g font-family="sans-serif" lengthAdjust="spacing"><g class="title" data-source-line="2"><text x="513.214" y="26.24" fill="#0F172A" font-size="14" textLength="208.571" font-weight="700">sync lock — メソッド・関数詳細</text></g><!--entity P010--><g class="entity" data-qualified-name="P010" id="ent0001" data-source-line="5"><rect x="6" y="326.772" width="278.999" height="95.296" fill="#E0F2FE" style="stroke:#0369A1;stroke-width:0.5;" rx="4" ry="4"/><text x="16" y="351.852" fill="#0F172A" font-size="13" textLength="31.681" font-weight="700">P010</text><text x="47.681" y="351.852" fill="#0F172A" font-size="13" font-weight="700"> </text><text x="50.632" y="351.852" fill="#0F172A" font-size="13" textLength="87.269" font-weight="700">sync_lock_do</text><text x="16" y="370.676" fill="#0F172A" font-size="13">役</text><text x="29" y="370.676" fill="#0F172A" font-size="13">割</text><text x="42" y="370.676" fill="#0F172A" font-size="13">:</text><text x="45.614" y="370.676" fill="#0F172A" font-size="13"> </text><text x="48.526" y="370.676" fill="#0F172A" font-size="13">同</text><text x="61.526" y="370.676" fill="#0F172A" font-size="13">期</text><text x="74.526" y="370.676" fill="#0F172A" font-size="13">ロ</text><text x="87.526" y="370.676" fill="#0F172A" font-size="13">ッ</text><text x="100.526" y="370.676" fill="#0F172A" font-size="13">ク</text><text x="113.526" y="370.676" fill="#0F172A" font-size="13">、</text><text x="126.526" y="370.676" fill="#0F172A" font-size="13">最</text><text x="139.526" y="370.676" fill="#0F172A" font-size="13">終</text><text x="152.526" y="370.676" fill="#0F172A" font-size="13">同</text><text x="165.526" y="370.676" fill="#0F172A" font-size="13">期</text><text x="178.526" y="370.676" fill="#0F172A" font-size="13">時</text><text x="191.526" y="370.676" fill="#0F172A" font-size="13">刻</text><text x="204.526" y="370.676" fill="#0F172A" font-size="13">、</text><text x="217.526" y="370.676" fill="#0F172A" font-size="13" textLength="57.473">Webhook</text><text x="16" y="389.5" fill="#0F172A" font-size="13">重</text><text x="29" y="389.5" fill="#0F172A" font-size="13">複</text><text x="42" y="389.5" fill="#0F172A" font-size="13">判</text><text x="55" y="389.5" fill="#0F172A" font-size="13">定</text><text x="68" y="389.5" fill="#0F172A" font-size="13">、</text><text x="81" y="389.5" fill="#0F172A" font-size="13" textLength="22.529">E2E</text><text x="103.529" y="389.5" fill="#0F172A" font-size="13"> </text><text x="106.441" y="389.5" fill="#0F172A" font-size="13" textLength="53.274">manifest</text><text x="159.715" y="389.5" fill="#0F172A" font-size="13"> </text><text x="162.627" y="389.5" fill="#0F172A" font-size="13">を</text><text x="175.627" y="389.5" fill="#0F172A" font-size="13"> </text><text x="178.539" y="389.5" fill="#0F172A" font-size="13" textLength="48.126">Durable</text><text x="226.665" y="389.5" fill="#0F172A" font-size="13"> </text><text x="229.577" y="389.5" fill="#0F172A" font-size="13" textLength="39.988">Object</text><text x="16" y="408.324" fill="#0F172A" font-size="13">で</text><text x="29" y="408.324" fill="#0F172A" font-size="13">直</text><text x="42" y="408.324" fill="#0F172A" font-size="13">列</text><text x="55" y="408.324" fill="#0F172A" font-size="13">化</text><text x="68" y="408.324" fill="#0F172A" font-size="13">す</text><text x="81" y="408.324" fill="#0F172A" font-size="13">る</text><text x="94" y="408.324" fill="#0F172A" font-size="13">。</text></g><!--entity C003--><g class="entity" data-qualified-name="C003" id="ent0002" data-source-line="6"><rect x="444" y="185.272" width="278.999" height="114.12" fill="#FFF" style="stroke:#0369A1;stroke-width:0.5;" rx="4" ry="4"/><text x="562.368" y="210.352" fill="#0F172A" font-size="13" textLength="42.263" font-style="italic">«class»</text><text x="454" y="229.176" fill="#0F172A" font-size="13" textLength="31.538" font-weight="700">C003</text><text x="485.538" y="229.176" fill="#0F172A" font-size="13" font-weight="700"> </text><text x="488.489" y="229.176" fill="#0F172A" font-size="13" textLength="200.343" font-weight="700">sync_lock_do.SyncCoordinator</text><text x="454" y="248" fill="#0F172A" font-size="13">役</text><text x="467" y="248" fill="#0F172A" font-size="13">割</text><text x="480" y="248" fill="#0F172A" font-size="13">:</text><text x="483.614" y="248" fill="#0F172A" font-size="13"> </text><text x="486.526" y="248" fill="#0F172A" font-size="13">同</text><text x="499.526" y="248" fill="#0F172A" font-size="13">期</text><text x="512.526" y="248" fill="#0F172A" font-size="13">ロ</text><text x="525.526" y="248" fill="#0F172A" font-size="13">ッ</text><text x="538.526" y="248" fill="#0F172A" font-size="13">ク</text><text x="551.526" y="248" fill="#0F172A" font-size="13">、</text><text x="564.526" y="248" fill="#0F172A" font-size="13">最</text><text x="577.526" y="248" fill="#0F172A" font-size="13">終</text><text x="590.526" y="248" fill="#0F172A" font-size="13">同</text><text x="603.526" y="248" fill="#0F172A" font-size="13">期</text><text x="616.526" y="248" fill="#0F172A" font-size="13">時</text><text x="629.526" y="248" fill="#0F172A" font-size="13">刻</text><text x="642.526" y="248" fill="#0F172A" font-size="13">、</text><text x="655.526" y="248" fill="#0F172A" font-size="13" textLength="57.473">Webhook</text><text x="454" y="266.824" fill="#0F172A" font-size="13">重</text><text x="467" y="266.824" fill="#0F172A" font-size="13">複</text><text x="480" y="266.824" fill="#0F172A" font-size="13">抑</text><text x="493" y="266.824" fill="#0F172A" font-size="13">止</text><text x="506" y="266.824" fill="#0F172A" font-size="13">を</text><text x="519" y="266.824" fill="#0F172A" font-size="13"> </text><text x="521.912" y="266.824" fill="#0F172A" font-size="13" textLength="48.126">Durable</text><text x="570.038" y="266.824" fill="#0F172A" font-size="13"> </text><text x="572.95" y="266.824" fill="#0F172A" font-size="13" textLength="39.988">Object</text><text x="612.938" y="266.824" fill="#0F172A" font-size="13"> </text><text x="615.85" y="266.824" fill="#0F172A" font-size="13">上</text><text x="628.85" y="266.824" fill="#0F172A" font-size="13">で</text><text x="641.85" y="266.824" fill="#0F172A" font-size="13">直</text><text x="654.85" y="266.824" fill="#0F172A" font-size="13">列</text><text x="667.85" y="266.824" fill="#0F172A" font-size="13">化</text><text x="680.85" y="266.824" fill="#0F172A" font-size="13">す</text><text x="693.85" y="266.824" fill="#0F172A" font-size="13">る</text><text x="454" y="285.648" fill="#0F172A" font-size="13">。</text></g><!--entity F151--><g class="entity" data-qualified-name="F151" id="ent0004" data-source-line="8"><rect x="446" y="317.272" width="274.839" height="114.12" fill="#E0F2FE" style="stroke:#0369A1;stroke-width:0.5;" rx="4" ry="4"/><text x="551.713" y="342.352" fill="#0F172A" font-size="13" textLength="63.414" font-style="italic">«function»</text><text x="456" y="361.176" fill="#0F172A" font-size="13" textLength="30.615" font-weight="700">F151</text><text x="456" y="380" fill="#0F172A" font-size="13" textLength="229.632" font-weight="700">sync_lock_do._decode_lock_record</text><text x="456" y="398.824" fill="#0F172A" font-size="13">役</text><text x="469" y="398.824" fill="#0F172A" font-size="13">割</text><text x="482" y="398.824" fill="#0F172A" font-size="13">:</text><text x="485.614" y="398.824" fill="#0F172A" font-size="13"> </text><text x="488.526" y="398.824" fill="#0F172A" font-size="13" textLength="110.201">storage.get('lock')</text><text x="598.727" y="398.824" fill="#0F172A" font-size="13"> </text><text x="601.639" y="398.824" fill="#0F172A" font-size="13">の</text><text x="614.639" y="398.824" fill="#0F172A" font-size="13">返</text><text x="627.639" y="398.824" fill="#0F172A" font-size="13">り</text><text x="640.639" y="398.824" fill="#0F172A" font-size="13">値</text><text x="653.639" y="398.824" fill="#0F172A" font-size="13">を</text><text x="666.639" y="398.824" fill="#0F172A" font-size="13"> </text><text x="669.551" y="398.824" fill="#0F172A" font-size="13" textLength="25.376">lock</text><text x="694.927" y="398.824" fill="#0F172A" font-size="13"> </text><text x="697.839" y="398.824" fill="#0F172A" font-size="13">辞</text><text x="456" y="417.648" fill="#0F172A" font-size="13">書</text><text x="469" y="417.648" fill="#0F172A" font-size="13">へ</text><text x="482" y="417.648" fill="#0F172A" font-size="13">正</text><text x="495" y="417.648" fill="#0F172A" font-size="13">規</text><text x="508" y="417.648" fill="#0F172A" font-size="13">化</text><text x="521" y="417.648" fill="#0F172A" font-size="13">す</text><text x="534" y="417.648" fill="#0F172A" font-size="13">る</text><text x="547" y="417.648" fill="#0F172A" font-size="13">。</text></g><!--entity F152--><g class="entity" data-qualified-name="F152" id="ent0006" data-source-line="10"><rect x="445.5" y="449.272" width="275.944" height="114.12" fill="#E0F2FE" style="stroke:#0369A1;stroke-width:0.5;" rx="4" ry="4"/><text x="551.765" y="474.352" fill="#0F172A" font-size="13" textLength="63.414" font-style="italic">«function»</text><text x="455.5" y="493.176" fill="#0F172A" font-size="13" textLength="30.615" font-weight="700">F152</text><text x="455.5" y="512" fill="#0F172A" font-size="13" textLength="229.58" font-weight="700">sync_lock_do._decode_json_record</text><text x="455.5" y="530.824" fill="#0F172A" font-size="13">役</text><text x="468.5" y="530.824" fill="#0F172A" font-size="13">割</text><text x="481.5" y="530.824" fill="#0F172A" font-size="13">:</text><text x="485.114" y="530.824" fill="#0F172A" font-size="13"> </text><text x="488.026" y="530.824" fill="#0F172A" font-size="13" textLength="45.76">storage</text><text x="533.786" y="530.824" fill="#0F172A" font-size="13"> </text><text x="536.698" y="530.824" fill="#0F172A" font-size="13">上</text><text x="549.698" y="530.824" fill="#0F172A" font-size="13">の</text><text x="562.698" y="530.824" fill="#0F172A" font-size="13"> </text><text x="565.61" y="530.824" fill="#0F172A" font-size="13" textLength="33.748">JSON</text><text x="599.358" y="530.824" fill="#0F172A" font-size="13"> </text><text x="602.27" y="530.824" fill="#0F172A" font-size="13">文</text><text x="615.27" y="530.824" fill="#0F172A" font-size="13">字</text><text x="628.27" y="530.824" fill="#0F172A" font-size="13">列</text><text x="641.27" y="530.824" fill="#0F172A" font-size="13">/</text><text x="646.366" y="530.824" fill="#0F172A" font-size="13">辞</text><text x="659.366" y="530.824" fill="#0F172A" font-size="13">書</text><text x="672.366" y="530.824" fill="#0F172A" font-size="13">を</text><text x="685.366" y="530.824" fill="#0F172A" font-size="13"> </text><text x="688.278" y="530.824" fill="#0F172A" font-size="13" textLength="23.166">dict</text><text x="455.5" y="549.648" fill="#0F172A" font-size="13">に</text><text x="468.5" y="549.648" fill="#0F172A" font-size="13">正</text><text x="481.5" y="549.648" fill="#0F172A" font-size="13">規</text><text x="494.5" y="549.648" fill="#0F172A" font-size="13">化</text><text x="507.5" y="549.648" fill="#0F172A" font-size="13">す</text><text x="520.5" y="549.648" fill="#0F172A" font-size="13">る</text><text x="533.5" y="549.648" fill="#0F172A" font-size="13">。</text></g><!--entity M059--><g class="entity" data-qualified-name="M059" id="ent0008" data-source-line="12"><rect x="917" y="53.272" width="293.637" height="114.12" fill="#FFF" style="stroke:#0369A1;stroke-width:0.5;" rx="4" ry="4"/><text x="1033.607" y="78.352" fill="#0F172A" font-size="13" textLength="60.424" font-style="italic">«method»</text><text x="927" y="97.176" fill="#0F172A" font-size="13" textLength="34.099" font-weight="700">M059</text><text x="927" y="116" fill="#0F172A" font-size="13" textLength="273.637" font-weight="700">sync_lock_do.SyncCoordinator.sync_state</text><text x="927" y="134.824" fill="#0F172A" font-size="13">役</text><text x="940" y="134.824" fill="#0F172A" font-size="13">割</text><text x="953" y="134.824" fill="#0F172A" font-size="13">:</text><text x="956.614" y="134.824" fill="#0F172A" font-size="13"> </text><text x="959.526" y="134.824" fill="#0F172A" font-size="13">同</text><text x="972.526" y="134.824" fill="#0F172A" font-size="13">期</text><text x="985.526" y="134.824" fill="#0F172A" font-size="13">状</text><text x="998.526" y="134.824" fill="#0F172A" font-size="13">態</text><text x="1011.526" y="134.824" fill="#0F172A" font-size="13">操</text><text x="1024.526" y="134.824" fill="#0F172A" font-size="13">作</text><text x="1037.526" y="134.824" fill="#0F172A" font-size="13">を</text><text x="1050.526" y="134.824" fill="#0F172A" font-size="13"> </text><text x="1053.438" y="134.824" fill="#0F172A" font-size="13" textLength="24.778">RPC</text><text x="1078.216" y="134.824" fill="#0F172A" font-size="13"> </text><text x="1081.128" y="134.824" fill="#0F172A" font-size="13">で</text><text x="1094.128" y="134.824" fill="#0F172A" font-size="13">受</text><text x="1107.128" y="134.824" fill="#0F172A" font-size="13">け</text><text x="1120.128" y="134.824" fill="#0F172A" font-size="13">取</text><text x="1133.128" y="134.824" fill="#0F172A" font-size="13">り</text><text x="1146.128" y="134.824" fill="#0F172A" font-size="13">、</text><text x="1159.128" y="134.824" fill="#0F172A" font-size="13">結</text><text x="1172.128" y="134.824" fill="#0F172A" font-size="13">果</text><text x="927" y="153.648" fill="#0F172A" font-size="13">を</text><text x="940" y="153.648" fill="#0F172A" font-size="13"> </text><text x="942.912" y="153.648" fill="#0F172A" font-size="13" textLength="33.748">JSON</text><text x="976.66" y="153.648" fill="#0F172A" font-size="13"> </text><text x="979.572" y="153.648" fill="#0F172A" font-size="13">文</text><text x="992.572" y="153.648" fill="#0F172A" font-size="13">字</text><text x="1005.572" y="153.648" fill="#0F172A" font-size="13">列</text><text x="1018.572" y="153.648" fill="#0F172A" font-size="13">で</text><text x="1031.572" y="153.648" fill="#0F172A" font-size="13">返</text><text x="1044.572" y="153.648" fill="#0F172A" font-size="13">す</text><text x="1057.572" y="153.648" fill="#0F172A" font-size="13">。</text></g><!--entity M004--><g class="entity" data-qualified-name="M004" id="ent0010" data-source-line="14"><rect x="927" y="185.272" width="274.098" height="114.12" fill="#FFF" style="stroke:#0369A1;stroke-width:0.5;" rx="4" ry="4"/><text x="1033.837" y="210.352" fill="#0F172A" font-size="13" textLength="60.424" font-style="italic">«method»</text><text x="937" y="229.176" fill="#0F172A" font-size="13" textLength="34.099" font-weight="700">M004</text><text x="937" y="248" fill="#0F172A" font-size="13" textLength="237.601" font-weight="700">sync_lock_do.SyncCoordinator.fetch</text><text x="937" y="266.824" fill="#0F172A" font-size="13">役</text><text x="950" y="266.824" fill="#0F172A" font-size="13">割</text><text x="963" y="266.824" fill="#0F172A" font-size="13">:</text><text x="966.614" y="266.824" fill="#0F172A" font-size="13"> </text><text x="969.526" y="266.824" fill="#0F172A" font-size="13" textLength="33.41">POST</text><text x="1002.936" y="266.824" fill="#0F172A" font-size="13"> </text><text x="1005.848" y="266.824" fill="#0F172A" font-size="13" textLength="73.281">body(JSON)</text><text x="1079.129" y="266.824" fill="#0F172A" font-size="13"> </text><text x="1082.041" y="266.824" fill="#0F172A" font-size="13">の</text><text x="1095.041" y="266.824" fill="#0F172A" font-size="13"> </text><text x="1097.953" y="266.824" fill="#0F172A" font-size="13" textLength="38.233">action</text><text x="1136.186" y="266.824" fill="#0F172A" font-size="13"> </text><text x="1139.098" y="266.824" fill="#0F172A" font-size="13">に</text><text x="1152.098" y="266.824" fill="#0F172A" font-size="13">応</text><text x="1165.098" y="266.824" fill="#0F172A" font-size="13">じ</text><text x="1178.098" y="266.824" fill="#0F172A" font-size="13">て</text><text x="937" y="285.648" fill="#0F172A" font-size="13">ロ</text><text x="950" y="285.648" fill="#0F172A" font-size="13">ッ</text><text x="963" y="285.648" fill="#0F172A" font-size="13">ク</text><text x="976" y="285.648" fill="#0F172A" font-size="13">操</text><text x="989" y="285.648" fill="#0F172A" font-size="13">作</text><text x="1002" y="285.648" fill="#0F172A" font-size="13">を</text><text x="1015" y="285.648" fill="#0F172A" font-size="13">実</text><text x="1028" y="285.648" fill="#0F172A" font-size="13">行</text><text x="1041" y="285.648" fill="#0F172A" font-size="13">す</text><text x="1054" y="285.648" fill="#0F172A" font-size="13">る</text><text x="1067" y="285.648" fill="#0F172A" font-size="13">。</text></g><!--entity M060--><g class="entity" data-qualified-name="M060" id="ent0012" data-source-line="16"><rect x="902" y="317.272" width="324.096" height="114.12" fill="#FFF" style="stroke:#0369A1;stroke-width:0.5;" rx="4" ry="4"/><text x="1033.836" y="342.352" fill="#0F172A" font-size="13" textLength="60.424" font-style="italic">«method»</text><text x="912" y="361.176" fill="#0F172A" font-size="13" textLength="34.099" font-weight="700">M060</text><text x="912" y="380" fill="#0F172A" font-size="13" textLength="304.096" font-weight="700">sync_lock_do.SyncCoordinator._handle_action</text><text x="912" y="398.824" fill="#0F172A" font-size="13">役</text><text x="925" y="398.824" fill="#0F172A" font-size="13">割</text><text x="938" y="398.824" fill="#0F172A" font-size="13">:</text><text x="941.614" y="398.824" fill="#0F172A" font-size="13"> </text><text x="944.526" y="398.824" fill="#0F172A" font-size="13">同</text><text x="957.526" y="398.824" fill="#0F172A" font-size="13">期</text><text x="970.526" y="398.824" fill="#0F172A" font-size="13">ロ</text><text x="983.526" y="398.824" fill="#0F172A" font-size="13">ッ</text><text x="996.526" y="398.824" fill="#0F172A" font-size="13">ク</text><text x="1009.526" y="398.824" fill="#0F172A" font-size="13">、</text><text x="1022.526" y="398.824" fill="#0F172A" font-size="13">重</text><text x="1035.526" y="398.824" fill="#0F172A" font-size="13">複</text><text x="1048.526" y="398.824" fill="#0F172A" font-size="13">抑</text><text x="1061.526" y="398.824" fill="#0F172A" font-size="13">止</text><text x="1074.526" y="398.824" fill="#0F172A" font-size="13">、</text><text x="1087.526" y="398.824" fill="#0F172A" font-size="13" textLength="22.529">E2E</text><text x="1110.055" y="398.824" fill="#0F172A" font-size="13"> </text><text x="1112.967" y="398.824" fill="#0F172A" font-size="13" textLength="53.274">manifest</text><text x="912" y="417.648" fill="#0F172A" font-size="13">の</text><text x="925" y="417.648" fill="#0F172A" font-size="13"> </text><text x="927.912" y="417.648" fill="#0F172A" font-size="13" textLength="38.233">action</text><text x="966.145" y="417.648" fill="#0F172A" font-size="13"> </text><text x="969.057" y="417.648" fill="#0F172A" font-size="13">を</text><text x="982.057" y="417.648" fill="#0F172A" font-size="13">直</text><text x="995.057" y="417.648" fill="#0F172A" font-size="13">列</text><text x="1008.057" y="417.648" fill="#0F172A" font-size="13">化</text><text x="1021.057" y="417.648" fill="#0F172A" font-size="13">し</text><text x="1034.057" y="417.648" fill="#0F172A" font-size="13">て</text><text x="1047.057" y="417.648" fill="#0F172A" font-size="13">処</text><text x="1060.057" y="417.648" fill="#0F172A" font-size="13">理</text><text x="1073.057" y="417.648" fill="#0F172A" font-size="13">す</text><text x="1086.057" y="417.648" fill="#0F172A" font-size="13">る</text><text x="1099.057" y="417.648" fill="#0F172A" font-size="13">。</text></g><g class="link" data-entity-1="ent0001" data-entity-2="ent0002" id="lnk3" data-link-type="dependency"><polygon points="443.934,284.223,434.161,283.002,439.149,285.672,436.48,290.659,443.934,284.223" fill="#64748B" style="stroke:#64748B;stroke-width:1;stroke-linejoin:miter;stroke-miterlimit:10;"/><path d="M285.052,332.325 C335.795,316.962 388.405,301.035 439.149,285.672" style="stroke:#64748B;stroke-width:1;" fill="none"/><text x="305" y="288.352" fill="#334155" font-size="13" textLength="38.09">[E902]</text><text x="343.09" y="288.352" fill="#334155" font-size="13"> </text><text x="346.002" y="288.352" fill="#334155" font-size="13">ク</text><text x="359.002" y="288.352" fill="#334155" font-size="13">ラ</text><text x="372.002" y="288.352" fill="#334155" font-size="13">ス</text><text x="385.002" y="288.352" fill="#334155" font-size="13">を</text><text x="398.002" y="288.352" fill="#334155" font-size="13">定</text><text x="411.002" y="288.352" fill="#334155" font-size="13">義</text></g><g class="link" data-entity-1="ent0001" data-entity-2="ent0004" id="lnk5" data-link-type="dependency"><polygon points="445.801,374.272,436.801,370.272,440.801,374.272,436.801,378.272,445.801,374.272" fill="#64748B" style="stroke:#64748B;stroke-width:1;stroke-linejoin:miter;stroke-miterlimit:10;"/><path d="M285.052,374.272 C336.418,374.272 389.602,374.272 440.801,374.272" style="stroke:#64748B;stroke-width:1;" fill="none"/><text x="308" y="369.352" fill="#334155" font-size="13" textLength="45.305">[E1202]</text><text x="353.305" y="369.352" fill="#334155" font-size="13"> </text><text x="356.217" y="369.352" fill="#334155" font-size="13">関</text><text x="369.217" y="369.352" fill="#334155" font-size="13">数</text><text x="382.217" y="369.352" fill="#334155" font-size="13">を</text><text x="395.217" y="369.352" fill="#334155" font-size="13">定</text><text x="408.217" y="369.352" fill="#334155" font-size="13">義</text></g><g class="link" data-entity-1="ent0001" data-entity-2="ent0006" id="lnk7" data-link-type="dependency"><polygon points="445.429,464.773,437.974,458.337,440.643,463.324,435.656,465.994,445.429,464.773" fill="#64748B" style="stroke:#64748B;stroke-width:1;stroke-linejoin:miter;stroke-miterlimit:10;"/><path d="M285.052,416.219 C336.294,431.732 389.534,447.851 440.643,463.324" style="stroke:#64748B;stroke-width:1;" fill="none"/><text x="308" y="419.352" fill="#334155" font-size="13" textLength="45.305">[E1203]</text><text x="353.305" y="419.352" fill="#334155" font-size="13"> </text><text x="356.217" y="419.352" fill="#334155" font-size="13">関</text><text x="369.217" y="419.352" fill="#334155" font-size="13">数</text><text x="382.217" y="419.352" fill="#334155" font-size="13">を</text><text x="395.217" y="419.352" fill="#334155" font-size="13">定</text><text x="408.217" y="419.352" fill="#334155" font-size="13">義</text></g><g class="link" data-entity-1="ent0002" data-entity-2="ent0008" id="lnk9" data-link-type="dependency"><polygon points="916.755,150.615,907.016,149.153,911.935,151.945,909.143,156.865,916.755,150.615" fill="#64748B" style="stroke:#64748B;stroke-width:1;stroke-linejoin:miter;stroke-miterlimit:10;"/><path d="M723.223,204.003 C783.938,187.255 850.389,168.923 911.935,151.945" style="stroke:#64748B;stroke-width:1;" fill="none"/><text x="743" y="156.352" fill="#334155" font-size="13" textLength="45.305">[E1215]</text><text x="788.305" y="156.352" fill="#334155" font-size="13"> </text><text x="791.217" y="156.352" fill="#334155" font-size="13">メ</text><text x="804.217" y="156.352" fill="#334155" font-size="13">ソ</text><text x="817.217" y="156.352" fill="#334155" font-size="13">ッ</text><text x="830.217" y="156.352" fill="#334155" font-size="13">ド</text><text x="843.217" y="156.352" fill="#334155" font-size="13">を</text><text x="856.217" y="156.352" fill="#334155" font-size="13">所</text><text x="869.217" y="156.352" fill="#334155" font-size="13">有</text></g><g class="link" data-entity-1="ent0002" data-entity-2="ent0010" id="lnk11" data-link-type="dependency"><polygon points="926.736,242.272,917.736,238.272,921.736,242.272,917.736,246.272,926.736,242.272" fill="#64748B" style="stroke:#64748B;stroke-width:1;stroke-linejoin:miter;stroke-miterlimit:10;"/><path d="M723.223,242.272 C787.249,242.272 858.016,242.272 921.736,242.272" style="stroke:#64748B;stroke-width:1;" fill="none"/><text x="743" y="237.352" fill="#334155" font-size="13" textLength="45.305">[E1204]</text><text x="788.305" y="237.352" fill="#334155" font-size="13"> </text><text x="791.217" y="237.352" fill="#334155" font-size="13">メ</text><text x="804.217" y="237.352" fill="#334155" font-size="13">ソ</text><text x="817.217" y="237.352" fill="#334155" font-size="13">ッ</text><text x="830.217" y="237.352" fill="#334155" font-size="13">ド</text><text x="843.217" y="237.352" fill="#334155" font-size="13">を</text><text x="856.217" y="237.352" fill="#334155" font-size="13">所</text><text x="869.217" y="237.352" fill="#334155" font-size="13">有</text></g><g class="link" data-entity-1="ent0002" data-entity-2="ent0012" id="lnk13" data-link-type="dependency"><polygon points="901.894,329.829,894.282,323.579,897.074,328.499,892.154,331.291,901.894,329.829" fill="#64748B" style="stroke:#64748B;stroke-width:1;stroke-linejoin:miter;stroke-miterlimit:10;"/><path d="M723.223,280.54 C779.108,295.957 839.117,312.511 897.074,328.499" style="stroke:#64748B;stroke-width:1;" fill="none"/><text x="743" y="284.352" fill="#334155" font-size="13" textLength="45.305">[E1216]</text><text x="788.305" y="284.352" fill="#334155" font-size="13"> </text><text x="791.217" y="284.352" fill="#334155" font-size="13">メ</text><text x="804.217" y="284.352" fill="#334155" font-size="13">ソ</text><text x="817.217" y="284.352" fill="#334155" font-size="13">ッ</text><text x="830.217" y="284.352" fill="#334155" font-size="13">ド</text><text x="843.217" y="284.352" fill="#334155" font-size="13">を</text><text x="856.217" y="284.352" fill="#334155" font-size="13">所</text><text x="869.217" y="284.352" fill="#334155" font-size="13">有</text></g><g class="legend" data-source-line="18"><rect x="357.561" y="585.272" width="519.878" height="115.36" fill="none" style="stroke:#000;stroke-width:1;" rx="4" ry="4"/><text x="365.739" y="608.512" fill="#0F172A" font-size="14" textLength="28" font-weight="700">表記</text><text x="428.011" y="608.512" fill="#0F172A" font-size="14" textLength="28" font-weight="700">意味</text><text x="365.697" y="628.784" fill="#0F172A" font-size="14" textLength="56">青の実線</text><text x="427.969" y="628.784" fill="#0F172A" font-size="14" textLength="125.999">入力または内部依存</text><text x="365.697" y="649.056" fill="#0F172A" font-size="14" textLength="56">緑の実線</text><text x="427.969" y="649.056" fill="#0F172A" font-size="14" textLength="125.999">出力または処理結果</text><text x="365.697" y="669.328" fill="#0F172A" font-size="14" textLength="56">橙の破線</text><text x="427.969" y="669.328" fill="#0F172A" font-size="14" textLength="84">実行時未確認</text><text x="365.697" y="689.599" fill="#0F172A" font-size="14" textLength="28">補足</text><text x="427.969" y="689.599" fill="#0F172A" font-size="14" textLength="441.334">各 ID は architecture-index.json と architecture-catalog.md に対応。</text><line x1="362.561" y1="592.272" x2="872.439" y2="592.272" style="stroke:#0F172A;stroke-width:1;"/><line x1="362.561" y1="612.544" x2="872.439" y2="612.544" style="stroke:#0F172A;stroke-width:1;"/><line x1="362.561" y1="632.816" x2="872.439" y2="632.816" style="stroke:#0F172A;stroke-width:1;"/><line x1="362.561" y1="653.088" x2="872.439" y2="653.088" style="stroke:#0F172A;stroke-width:1;"/><line x1="362.561" y1="673.36" x2="872.439" y2="673.36" style="stroke:#0F172A;stroke-width:1;"/><line x1="362.561" y1="693.631" x2="872.439" y2="693.631" style="stroke:#0F172A;stroke-width:1;"/><line x1="362.561" y1="592.272" x2="362.561" y2="693.631" style="stroke:#0F172A;stroke-width:1;"/><line x1="424.833" y1="592.272" x2="424.833" y2="693.631" style="stroke:#0F172A;stroke-width:1;"/><line x1="872.439" y1="592.272" x2="872.439" y2="693.631" style="stroke:#0F172A;stroke-width:1;"/></g><?plantuml-src hPHTKnD958RlyojQlL0l24a4LgsO2n6htAfTADcglL0grPbfaj79D3NJgLgglCXCn424ucDTFYIA829e1In1HItYVx7fdk5VR7SdQpa8mOkzItUVa_C-vprpJXcMPXPq1ABHzhIJWpRIsnqoRABeK25lHeX1J0ISOKi39jRkWg_5Hu2MbgctHqibMXgZfSy7iolydpV1nhQ_yoPoQiY6sJm49Xp61GASF2BGWX4J3H90CB2DR8u0tR2HHWniHJIS7y8MiWWudSoa-cBncAgLbhNIEawsPrAtBRRtaOszlGpOr3YlBj5IJPRsjcZHvTMY_yvhtFC5Zur-5fT_eamEuxlWe3mHh9RPw2hRV2okUn8z80yjOn0v151l1bmhs30Zu7epTuGQGDsN_k8E6vrZuxFKNQ3UGrhqJWFe02dhaDBkMEn2I6cqNnowCRPrmu84s_-3SbwPvhML8vJkxrQE5wkK9PEQ2HqdbOgebhRTEjFLyKl7nQi3RQb6m6Lmg-TIB340f9hI1lK-YZgYJtvz8oAzWLPMr9Ear-ETyJ1fMaSQrb7ZB885SvZM4VmmYw9PHCwTbL5dpulkRWPV7b6lmegh4aaDKr1_oXTtgRlBQy-3jSaVM5JjP7AmOAbfEH97nKYSU4BoD8Qn1KpYQ9Wx3hPQmJIQlWb-xU_z7V3PCglDYUwtDma4a6we6NfzF4hY9r0I_w5SE0dbjrZdfPOJ65MF3e447JMCVkKz7td8_vxOtwjA_JVxkkKdm2Rdg3lD9cU5LM8Y_NTJ_Abw3uEBI6cdG6poAJd9fFZSSrWNT6hAGdGgea4Nxnm8Bn5lXeyLUNNi1yPOHsl6GKIqN1YlhxV_3v31-l0vALbD7e2gwT8UzgLAtNdghdtx6B-rW6qk1SlZOTkKWXEmH4JJj8wVnUgAjSPAvw2bcoZTq7tIBWcjYyEBxZjwR-QxdI4iN6FbDN_gmM5Y8Uu4OX7HDBBhE68JPP6b2ny8mVa80FUkW61vFLYVbx_u_KaslGtkoNjmy6H6Y1JDzpyy5aSsye9L5gbRf-uITRVOWv63qlf-_GchpJSJ_0_JeOJofr22OchCRJE1Roo81F_PJZD1-IoMBg--ybS-1Qyccd71yshmVbj6JDq7Dww9tcq1Q6ivWmZx2ZPgComT_HMLgqAyhOVVD4YWYRFHlAx6RAik9wteYRz6qahPZNy1?></g></svg>